<svg id="house-logo" version="1.0" xmlns="http://www.w3.org/2000/svg" width="1440" height="1440" viewBox="0 0 1080 1080"><path d="M645.3 266c-7.1 2.9-10.5 6.2-13.8 13.5-2.5 5.4-4 7.6-5.7 8-4 1-22.8-3.2-26.7-6-10.7-7.5-10.2-7.3-23.1-9-17.3-2.3-40.6-3.1-48.8-1.7-3.7.7-14 1.9-22.8 2.7-20 1.8-26.1 3.1-29 6-3.4 3.4-5.2 11.3-6.4 28-2 27.2-3.5 32.5-8.9 32.5-3.2 0-5.8-1.8-15.3-10.7-3.8-3.4-8.6-7.2-10.9-8.3-2.2-1.2-9.1-6.8-15.2-12.6-8.7-8.2-13-11.5-19.4-14.6-7.6-3.8-8.9-4.1-20.3-4.9-6.8-.4-14.5-1.6-17.3-2.5-14.1-4.7-18.8-.4-18.8 17 0 15 2.4 17.6 16.1 17.6 6 0 9.8-.6 15.2-2.5 8-2.8 10.8-3.1 12.6-1.3 4.9 4.9-7.8 13.3-27.8 18.2-14.8 3.7-16.1 5.3-18.5 21.5-.9 5.5-1.8 10.7-2.1 11.5-.3.8-2.6 3.1-5 5.1-4.9 4.1-5.6 7.2-2.8 12.6 2.1 4.1 1.5 8.1-1.5 9.5-1.3.7-6.7 1.5-12 1.9-7.4.4-12.9 1.6-23.6 5-7.7 2.4-19.6 5.9-26.4 7.6-14 3.6-16.6 5.3-21.3 13.6-1.6 2.9-4.8 7-7.1 9.1-7.5 6.9-8.5 8.3-9.7 13.5-.6 2.9-1.6 6.4-2.2 8-1.6 4.2-2.9 4.3-24.3 2.1-5.2-.5-6.5-.3-9.5 1.8-4.7 3.1-8.3 10.6-8.8 18.4-.5 7.1 1 12.3 9.3 32.9 2.9 7.1 6.3 16.1 7.5 20 2.9 9 5.1 13.3 10.5 20.6 3 4.1 5.2 8.7 7 14.6 2.9 9.5 5.2 12.4 12 15.3 2.5 1.1 6.1 3.1 7.9 4.5 7.7 5.9 20.5 28.9 21.3 38.6.8 7.9-.4 14.5-3.1 17.5-2 2.5-3.3 2.8-15.5 4-14.2 1.5-17.7 2.7-24.9 8.8-2.3 1.9-7.6 5.1-11.8 7-8.1 3.9-8.2 4-12.7 16.6-.9 2.5-4.6 8-8.2 12.3-10.2 12.2-11 14.2-11.1 27.4-.2 13 .4 11.7-11.9 25.7-10.3 11.7-12.1 15.4-13.1 26.1-.8 9.5-2.8 13.8-9.1 19l-4.5 3.8.7 14.6c.8 16.9 1.6 19.1 7.1 19.1 5.4 0 7.9-3.4 10.4-14.5 3.1-13.5 10.4-25.6 28.3-46.9 15.4-18.4 15.7-18.6 21.6-18.6 4.5 0 5.6.5 9.1 3.6 5.2 4.7 13.6 17.3 15 22.4 1.8 6.7 1.4 26.9-.6 31.9s-9.7 11.3-19.2 15.6c-9.5 4.4-10.5 4.9-11.5 6.6-1.5 2.5 0 6.4 2.9 7.8 6.8 3.1 47.4 3.9 53.7 1 2.8-1.3 4.8-4.8 6.7-11.9 2-7.6 3.7-9.7 10.9-14l6.9-4h45l6.7 8c8 9.6 14.1 14.1 19.9 14.7 5.9.6 6.9-.5 7.4-7.9.3-4.7-.1-7.7-1.7-11.8-2.7-7.2-2.7-9.8.2-11.1 3.1-1.4 7.4.4 17.2 7.2 11.5 7.9 13.1 10.2 14 19.5.8 9.3 1.5 10.8 5.2 12.2 4.1 1.7 20.7 4.6 48.3 8.6 13.5 2 31.9 5.1 41 6.9l16.5 3.2H562c64.6 0 66.9-.1 81.5-2.3 22.8-3.5 38-7 46.9-10.7 4.5-1.8 10.1-3.8 12.6-4.5 2.5-.7 5-1.6 5.7-2.1.7-.6 1.4-5.9 1.8-12.9l.8-11.9 5.7-5c3.2-2.8 7.3-7.4 9.3-10.3 4.2-6.3 6.4-8.4 13.9-12.8 3.1-1.8 7.3-5.3 9.3-7.7 4.3-5.1 6.4-5.4 13.5-1.8 2.7 1.4 7.6 3.1 10.8 3.9 7.6 1.7 10.2 3.2 10.2 5.7 0 1.1-2.5 6.7-5.5 12.4-4.8 9.2-5.5 11.2-5.5 16.3 0 8.3 1.6 10.2 8.6 10.2 11 0 19-7.3 28.2-26l5.7-11.5V753.8l6.5-6.1c9.1-8.6 18.4-14.7 22.6-14.7 3.4 0 3.8.4 8.7 8 3.2 5 6.9 5.1 13.3.6 2.7-1.9 9.6-6.4 15.4-9.8 19.5-11.8 20-12.9 20-46.3 0-21.6-.2-23.6-2.2-29.1-2.2-5.7-2.3-7.1-2.4-41.4 0-25.3-.4-36.1-1.2-37.7-1.3-2.4-4.1-3.4-16.5-5.7-12.4-2.4-14.5-3.8-19.6-13.5l-4.4-8.4 1.7-6.4c1.2-4.8 1.7-10.5 1.7-23.3 0-14.9-.3-17.5-2-20.8-5.1-10-21.4-17.7-26.5-12.6-4.3 4.3-2.8 11.3 4.4 20.5 4.5 5.8 5 6.9 5 11.6 0 4.4-.4 5.5-2.6 7.2-1.5 1.2-3.4 2.1-4.3 2.1-2.7 0-10.3-5.3-17.9-12.4-7.7-7.3-11.9-14.3-17.2-29.1-3.9-10.8-9.5-22.1-16-32.6-2.7-4.2-6.1-10.5-7.5-13.8-1.4-3.4-3.9-8.3-5.5-11-2.5-4.1-3.3-6.8-4.5-16.7-1.8-14.9-3-19-6.5-22.6-2.4-2.3-3.7-2.8-7.7-2.8-6 0-8.4 2.1-11.4 10.1-1.1 3-2.8 6.2-3.6 7.1-2.4 2.7-6.9 2.3-8.9-.7-2.1-3.2-1.4-8.2 2.7-20.2 3.9-11.4 4.7-20.3 2.5-27.1-2.3-6.9-5.6-10.2-10.1-10.2-4.7 0-5.3 1.7-6.4 17.8-1.3 18-2.5 20.2-11.1 20.2-7.5 0-10.4-3.4-12.1-14.3-1.2-7.6-2.5-11.2-5.7-15.6l-2.5-3.4.6-26.1c.5-19 1.1-27.7 2.3-32.1.9-3.3 1.8-8.1 2.1-10.7.4-4.3.2-5.1-2.5-7.8-3.5-3.4-7.2-3.9-12.9-1.5-5.3 2.3-6.8 1.9-12.3-3-4.4-3.9-5.7-4.5-9.3-4.4-2.3 0-5.2.4-6.4.9zm9.4 7.3c3.3 1.8 7.1 8.2 7.5 12.4.4 5.1 2.8 5.4 7.8.9 2.2-2 4.6-3.6 5.4-3.6.7 0 1.9-.7 2.6-1.5 1.5-1.9 5-2 5-.2 0 .7-2 5.5-4.5 10.6l-4.5 9.2 2.7 4 2.6 3.9-.6 16.8c-.3 9.2-1.1 19.5-1.7 22.9l-1.2 6.3 3.5 5.2c4.3 6.6 6.7 11.3 6.7 13-.1.7-.8.1-1.6-1.5-1.6-2.9-3.3-3.3-6.5-1.7-2.7 1.5-2.4 3.6 1.1 5.7 1.7.9 3 2.5 3 3.4 0 1 1 3 2.3 4.6 1.3 1.5 2.7 3.6 3 4.6.4.9 2 2 3.6 2.3 2.7.6 3 .9 2.4 3.8-.3 1.7-1.7 6-3 9.6-3.1 8.2-3.8 11-2.7 11 2.4 0 8.8-5.2 18-14.4 10.3-10.3 14.4-16.3 14.4-21.3 0-3.6 1.4-5.7 3.3-5 1.3.5 1.2 1.9-.9 10.4-3.5 14-4 20.2-2.1 26 .8 2.6 1.8 7.8 2.2 11.5.4 3.8 1.1 6.8 1.6 6.8s2.6-.7 4.8-1.6c5-2 8.2-1.5 9.6 1.3 1.1 2.1 1.2 2.1 2.3-1.1.7-1.8 2.3-3.9 3.7-4.6 2.2-1.2 2.7-1.1 3.9.6 1.4 1.8 1.6 1.8 4.4.1 1.7-.9 4-1.7 5.1-1.7 1.8 0 2.1.6 2.1 4.5 0 4.4-.2 4.7-5 7.7-2.7 1.7-5.2 3.9-5.5 4.9-.8 2.4 5.8 8.7 9.8 9.6 1.5.3 3 1 3.3 1.4.3.5 1.4.9 2.5.9 1.2 0 1.9.7 1.9 2 0 1.5.7 2 2.6 2 2.1 0 2.5.3 1.9 1.7-1.7 3.9-1.8 7.3-.2 7.3.9 0 1.9-1 2.2-2.1.7-2.1.8-2.1 3.6.7l2.9 2.9-2.6 6.5c-1.4 3.6-3.7 7.6-5 9.1-2.9 3.1-3.4 8.9-.6 8.9.9 0 2.4-.4 3.2-1 .9-.5 1.9-.5 2.7.2.9.8 1.5.3 2.3-1.7.5-1.4 1-3.1 1-3.6s.7-.9 1.6-.9c1.1 0 1.5.6 1.1 2-.3 1.3.1 2.1 1.4 2.5 2.9 1 9.9 9.5 12.6 15.5 1.4 3 4.1 9 5.9 13.4 1.8 4.3 4 8.6 4.9 9.6.8.9 1.5 2.7 1.5 3.9 0 1.2.8 3.4 1.9 4.9 1 1.5 2.6 3.9 3.5 5.5 1.3 2.2 2.3 2.7 4.8 2.5 2.8-.3 3.4.2 5 3.5 3 6.3 8.4 7.4 12.8 2.6 3.4-3.8 6.4-3.4 5.4.6-.4 1.8-.2 2.7 1 3.1 1.2.5 1.6 2 1.6 6.3 0 6.8.5 7.6 5.4 9.6 2.9 1.2 3.6 2 3 3.3-1.9 4.6-1.5 6.8 2.3 12 2.1 2.8 4.4 5.2 5.1 5.2.7 0 3.1-.9 5.4-2.1 5.5-2.8 9.6-2.1 17.5 3.3 5.7 3.8 6.3 4.6 5.9 7-.3 1.5 0 4.1.5 5.8.9 2.6.8 3.4-.6 5-1.6 1.8-1.6 2-.1 2.6 2.3.9 2.1 6.1-.4 10.8-1.6 2.9-1.8 4.1-.9 5.2.9 1.1.9 1.7-.1 2.9-.7.8-1 2.3-.7 3.4.3 1.2-.1 1.8-1.1 1.7-.9 0-1.8.7-2 1.8-.3 1.5.1 1.8 2.1 1.4 3.3-.6 4.1 2.2 2.1 7.1-.8 2-1.2 4.7-.9 6.3.6 2.4.3 2.8-1.5 2.8s-2.1-.4-1.8-2.5c.5-2.4.3-2.5-3.6-2.3-4.1.3-4.1.3-4.4-3.5-.3-2.9-.7-3.7-2.3-3.7-1.5 0-1.9.7-1.9 3.4 0 1.9.5 3.8 1 4.1 2.7 1.7.5 6.6-4 9-1.2.6-1.3.5-.2-.6 2.6-2.8 1.4-5.6-3.1-7.4-4.1-1.5-4.2-1.7-3.9-5.3.2-2.1 0-5.3-.5-7.2l-.9-3.5-6 .4c-3.2.2-6.7.7-7.6 1.2-2.8 1.5-4.5 5.8-5.1 13-.7 7.7-2.2 11.6-4.9 12.5-1 .3-2.9 2.3-4.3 4.3-3.5 5.7-11.5 12.2-14 11.5-2.7-.8-3.3-1.6-1.8-2.1 1.5-.5 3.8-5.3 5.2-10.9.7-2.6 2-4.5 3.5-5.3 2.1-1.2 2.4-2.2 3.1-11.4.5-5.6.9-14.7.9-20.2.1-9.2.4-10.5 3.4-16.6 1.9-3.8 3.2-7.8 3-9.2-.2-1.7-2.9-4.8-8.3-9.4-11.4-9.8-12.8-12.2-12-20.1.8-7.3.1-7.7-5.4-2.7-6.4 5.8-13.6 4.1-16.7-4.1-1.7-4.4-1.7-4.7.1-8 1-1.8 2.9-4.1 4.1-4.9 2.2-1.4 2.4-1.4 2.4.4 0 3.2 5.8 4.3 8.1 1.5 1.1-1.4 1-1.8-.6-3-1-.8-2.9-1.4-4.1-1.4-1.3 0-2.5-.8-2.8-1.8-.7-2-13.3-14.6-17.3-17.3-4.6-3.1-12.1-14.6-13.3-20.4-1.2-5.9-4.4-9.5-8.5-9.5-2.5 0-8.6 1.9-9.9 3.1-2.3 2.1-.6 14.7 5.9 42.7 2.5 11 2.5 11.5 1 17.5-.9 3.4-2.6 7.2-3.8 8.5l-2.3 2.3.4-3.6c.3-2.5 0-3.6-1.2-4.1-2.4-.9-1.9-3.7 1.4-7.9 2.9-3.6 4-7.5 2.1-7.5-1 0-7.1-15.2-7.1-17.7 0-.8-.7-1.3-1.7-1.1-1.6.3-1.8 2.1-1.9 19.4-.1 10.4-.7 29.5-1.3 42.4-1.1 20.1-1 24.1.2 27.5l1.4 4 4.9-.4c2.6-.1 5.9-.7 7.2-1.2 1.3-.5 3.6-.9 5.2-.9 2.5 0 3.3.7 4.9 4.4 1.1 2.4 2.7 4.6 3.6 5 .8.3 1.5 1.4 1.5 2.3 0 1 1.8 4.2 4 7.2 2.2 2.9 4 5.9 4 6.6 0 1.9-2.7 3.8-3.5 2.5-1.1-1.7-4.3-1.1-5 1-.8 2.5.1 4 2.5 4 2.2 0 3.5 1.6 2.1 2.5-.6.3-1.3 2.5-1.7 5-.3 2.4-1.2 5-2 5.6-.8.7-1.4 3.1-1.4 5.9 0 5.1-.8 6.1-14.8 17.8-5 4.2-5.3 4.3-8.6 3.1-7.3-2.6-9 2.4-2.7 8l3.8 3.3-2 4.8-2 4.7 3.2 4.7c1.8 2.5 4.2 4.8 5.4 5.1 2.9.8 12.4-3.4 15.9-7 1.5-1.5 3-4.4 3.4-6.4.3-2 .9-4.8 1.4-6.3 1.1-3.4 7.9-13.4 12.4-18.4l3.5-3.8.6 2.6c1.1 4.5.3 6.3-2.8 6-3.1-.3-3.6 1.2-.8 2.9 1.5 1 1.6 1.7.8 3.9s-.6 4.1 1.2 9.1c2.8 7.6 3 11.2.8 15.9-1.8 3.7-7 11.5-11.1 16.6-2.7 3.3-3.4 6.8-1.5 7.9 2 1.3-2.2 4.5-5.8 4.5-3.3 0-3.4.1-2.8 3.4.4 1.9.4 4.4 0 5.5-.6 2-.8 1.9-5.2-1.4-3.6-2.7-5.5-3.5-8.9-3.5-3.8 0-4.2-.2-3.6-2.2.5-2.2-.3-2.3-7.7-.2-2.2.7-2.3.5-1.7-1.7.4-1.3 1-6.2 1.3-10.7l.6-8.4-2.4.4c-2.1.3-2.4.7-2.1 4.4.2 3.4-.3 4.9-3 8.4-1.9 2.5-4.7 4.8-6.6 5.5-1.9.6-3.8 1.8-4.3 2.8-.6.9-1.5 1.7-2.2 1.7-.7 0-3.7 2-6.7 4.5s-7.4 5.4-9.7 6.5c-2.3 1.1-5.8 3.4-7.7 5.1-4.3 3.7-4.5 6-1.7 17.9 1.1 4.5 1.7 8.8 1.4 9.6-.3.8-.1 1.4.5 1.4 1.2 0 5.2 6.5 5.2 8.6 0 .8-1 1.4-2.5 1.4-1.6 0-2.5.6-2.5 1.5 0 .8-.4 1.5-.9 1.5-1.4 0-2-2.6-1.4-6.4.5-3.2.3-3.6-1.6-3.6-1.2 0-2.1-.6-2.1-1.5 0-1.5-4.7-6.4-6.1-6.5-.3 0-1.4 1.8-2.4 4-2.5 5.7-4.8 7.5-7.5 6-1.3-.7-1.9-1.8-1.6-2.8.2-.9.7-3.8 1.1-6.4.3-2.6 1.5-7.2 2.6-10.2 1-3.1 1.9-7.5 1.9-9.8.1-6.6 1.6-9.6 17.3-32.7 6.4-9.3 7.1-12.9 3.5-16.6-1.3-1.2-3.6-4.3-5.1-6.9-1.6-2.5-3.4-4.6-4.1-4.6-.6 0-2 1.6-3 3.5-1.7 3.2-2.3 3.5-6.2 3.5-3.3 0-4.6-.5-5.8-2.2-2.1-2.9-2-3.7.3-3.1 1.3.3 2.1-.2 2.6-1.6.5-1.6 1.2-2 3-1.5 3.5.9 5-2.5 3.6-8.1-.6-2.4-1.1-6.1-1.1-8.3 0-2.1-.5-6.4-1.1-9.5-.9-4.4-1.6-5.7-3-5.7-1 0-2 .4-2.3.9-.3.5-3.2.7-6.4.4-3.3-.3-6.7-.1-7.8.5-1.4.7-3.5.7-6.8 0-6.1-1.3-6.6-.6-6.6 8.5 0 4.3-.4 6.6-1 6.2-.5-.3-1-2.4-1-4.5 0-5.5-1.5-9-4-9-1.1 0-2-.7-2-1.5 0-1.6-3.8-3.5-7.1-3.5-2.7 0-2.4 2.9.6 6l2.5 2.7-3-.5-3-.4.2 6.3c.1 3.5-.2 7.4-.6 8.7-.7 1.9-.5 2.4 1.1 2.8 1.8.5 1.9.9.9 3-.6 1.3-1.8 2.4-2.7 2.4-2.5 0-4.1 2.5-3.3 5.4.4 1.6.2 2.6-.5 2.6-1.8 0-1.2 4.9.9 7 1.6 1.6 1.7 2 .5 2-.9 0-1.5.9-1.5 2.2-.1 2.3-.1 2.3-1.6.3-1.3-1.8-1.7-1.8-2.7-.5-.7.8-2.4 1.6-3.9 1.6-4.9.3-10.3 3.6-10.6 6.6-.3 2.6-.1 2.8 3.5 2.8 3.2.1 3.5.2 1.9 1.2-1.1.6-3.9.8-6.9.4-5.4-.6-7.7.4-7.7 3.5 0 2.4 3.5 4.2 6.3 3.3 1.2-.4 3.4-.7 4.9-.5 1.4.1 2.9-.2 3.3-.8.9-1.6 2.5-1.3 2.5.4 0 .8-1.7 1.9-4 2.6-4.4 1.3-5.4 4.1-2.2 6.5 1.6 1.3 1.6 1.3-.4 1.4-1.1 0-2.6.6-3.2 1.2-1 1-1.5 1-2.3-.2-.8-1.3-1.1-1.3-2.3.3-1 1.3-1.5 1.5-1.9.5-.4-1-.7-1.1-1.8 0-1.7 1.6-5.1 1.6-6.7 0-1-1-1.5-1-2.2.2-.8 1.3-1 1.2-1-.3 0-.9.5-2.6 1.2-3.7 1.7-2.7.6-3.3-6-3.4-3.1-.1-6-.5-6.3-1-1-1.2-2.9.2-3.9 2.9-.9 2.3-1.1 2.3-3.8 1-2.9-1.5-26.4-4-28.8-3.1-.8.3-1.4 1.3-1.4 2.2 0 1.5-.2 1.5-2.1-.2-2.4-2.2-5.2-1-5.7 2.5-.3 1.9.1 2.1 5.3 2.1 4.3 0 6.1.5 7.8 2.1l2.2 2.1-2.3-.7c-1.6-.4-2.9-.1-4.2 1-1.2 1.1-2 1.3-2.5.6-.8-1.4-4.5-1.4-4.5-.1 0 .5.5 2 1.1 3.4 1.7 3.7-.2 5.8-3.6 4.2-2.8-1.3-3.2-2.4-1-3.2 1.6-.7 2.1-6.4.5-6.4-.5 0-2.1 1.7-3.5 3.7-1.9 2.9-3.6 4.1-6.8 4.9-4 1-4.3.9-5.9-1.8-1-1.5-2.5-2.8-3.3-2.8-1.9 0-2 2.9 0 3.6.8.4 1.5 1.7 1.5 3.1 0 1.3.4 3.3 1 4.3.7 1.3.5 2.6-.5 4.7l-1.5 2.8v-3.8c0-2.1-.7-5.4-1.6-7.5-1.5-3.5-1.6-3.6-3-1.8-.8 1.1-1.4 2.5-1.5 3 0 .6-.5 0-1-1.3-.9-2.2-1.3-2.3-7.2-1.7-3.4.3-7.8.8-9.9 1.2-3 .5-3.8.2-4.7-1.4-.9-1.8-.7-2.2 2.1-3.1 1.7-.6 5.5-1.1 8.4-1.1 6.3 0 7.5-1.3 4.1-4.4-3.4-3.2-4.3-6.3-2.3-8.5.9-1 1.6-2.7 1.6-3.8 0-1.1.6-2.6 1.4-3.2 1.2-1 1.3-.8.9.8-.3 1.3-.1 2.1.8 2.1.7 0 .1 1.2-1.4 2.8-1.5 1.5-2.7 3.2-2.7 3.6 0 .5 2.3.6 5.1.3 4.9-.6 5.1-.6 4.4 1.6-1.7 5.4-1.7 7.7-.2 7.7.9 0 2-.7 2.5-1.6.9-1.6 5.4-1.7 10.2-.3.9.3 1.6-.5 1.8-2 .3-2 0-2.3-1.7-1.8-1.2.3-2.4.1-2.7-.5-.3-.5-1.7-.7-3-.4-1.3.4-2.4.2-2.4-.3 0-1.6 6.6-2.4 8.9-1.2 1.1.6 2.5 2 3.1 3.1.6 1.1 1.7 2 2.5 2 1.8 0 2-1.7.3-2.2-.9-.3-.9-1.2.1-3.6 1.7-4 .9-4.9-2.9-3.5-2.6 1-3.2.9-4.1-.9-.9-1.6-1.9-1.9-6.2-1.7-6.4.3-9.3-.7-7.6-2.7 1.3-1.6 3.9-1.9 3.9-.4 0 .5 1.8 1 4 1 2.1 0 5 .5 6.4 1.1 1.9.9 3.1.8 5.7-.5 3.4-1.7 8.9-1.4 8.9.5 0 1 10.3.5 16.6-.9 2.3-.5 4.8-.5 5.6-.1.8.4 7.6.7 15.1.6 13.9-.2 15.6-.7 15.7-4.3 0-1.4-7.3-5.4-9.9-5.4-1.7 0-2.1.6-2.1 3 0 1.6-.4 3-1 3-.5 0-1-1.2-1-2.6 0-1.8-.5-2.5-1.7-2.3-5 .5-8.3-.2-8.3-1.6 0-2.3-3.1-3.1-4.2-1.2-1.1 2.1-6.1 2.2-7.7.3-.8-1-.8-1.6.3-2.5 1.1-.9 1.5-.8 2 .4.6 1.8 3.6 2 3.6.3 0-2.1-3.2-9.8-4.1-9.8-.5 0-1.3.9-1.9 2-.9 1.7-1.4 1.8-3 .7-1.6-.9-2.4-.9-4 .1-2.3 1.4-5 1.6-5 .2 0-.5-1.6-1.2-3.6-1.6-3-.6-4-.3-6.1 1.9-2 1.9-2.4 3.1-1.9 5.1.8 3.3 2.6 3.4 2.6.1 0-2.2.3-2.4 1.9-1.5 1.1.5 2.7 1 3.6 1 2.6 0 11.5 4.2 10.9 5.1-.3.5-2.9.9-5.9.9-3 0-5.7.4-6 1-.9 1.5-4.8 1.2-7.1-.5-1-.8-2.9-1.5-4.2-1.5-3 0-4.1 2.9-1.7 4.6 1.7 1.2 1.7 1.4.2 1.4-.9 0-1.9-1.1-2.3-2.5-.4-1.6-1.8-3.1-3.8-3.9l-3.1-1.4 2.8-1.1c3.5-1.4 6.4-1.4 7.2-.1 2 3.3 3.4-1.4 1.5-4.9-1.4-2.7-7.6-3.6-10.5-1.7-1.4.9-3.4 1.6-4.5 1.6-2.7 0-9.2 4.9-8.6 6.5.2.7-.1 1.8-.7 2.4-1.6 1.6-5.7 1.4-6.3-.4-.4-.8-1.7-1.5-3.1-1.5-2.2 0-2.3-.3-1.7-3.5.5-2.9.3-3.5-1.1-3.5-.9 0-1.9.9-2.2 2-.7 2.8-2 2.5-5.3-1-1.5-1.7-3.1-3-3.5-3-.4 0-.4 1.8 0 3.9l.7 4-3.1-1.2c-2.2-.8-3.6-.8-5.3 0-3 1.5-10.8 2.4-10.8 1.3 0-1.9 5.8-4.8 10.8-5.5 5-.7 7.3-2.5 3.2-2.5-1.3 0-2.4-1-3-2.5-1.2-3.2-2.6-3.2-3.4 0-.6 2.4-2.6 3.6-2.6 1.5 0-.6-.7-1-1.5-1s-1.5.7-1.5 1.5-.4 1.5-.9 1.5c-.6 0-.7-1.6-.4-3.6.6-3.5.6-3.5-2.8-3.2-3.5.3-5.3 3.3-2.9 4.8.7.5.9 1.6.5 2.9-.5 1.8-.9 2-2.1 1-.8-.6-1.4-2.2-1.4-3.5 0-2.6-1.9-3.1-3.8-1.2-.9.9-1.2.7-1.2-1 0-1.2.5-2.2 1.1-2.2.6 0 .9-.9.6-2-.3-1.3.1-2.1 1.4-2.5 2.2-.7 2.5-3.1.4-3.8-.8-.4-2.6-3-4.1-5.9-2.3-4.6-2.8-5-3.5-3.3-.4 1.1-.8 6.5-.9 12-.2 9-1.4 21.5-1.9 19-.1-.6-.4-5.4-.7-10.8-.2-5.4-.7-10.3-1.1-10.9-.9-1.6-.9-6.8 0-6.8.5 0 .8-4.6.6-10.3-.2-10.3-1.9-18.4-4.3-20.2-.7-.6-1.5-2.2-1.8-3.7-.5-2.4-.3-2.6 1.4-1.7 1.4.7 2.4.7 3.4-.2 2.1-1.7.9-10.3-1.9-14.5l-2.1-3.1-2.1 2.6c-2.1 2.4-2.2 3.7-2.4 18.9-.1 9 .2 16.8.5 17.4 1.2 1.9.8 7.6-.6 9.3-1.2 1.5-1.2 2.4.3 6.3 1.4 4.1 1.4 4.8.2 5.5-1.2.6-1.5 3.3-1.6 12.5 0 6.4-.4 12.6-.9 13.7-.8 1.8-.9 1.9-.9.1-.1-1.1-.6-1.6-1.4-1.3-1.9.7-3.4-56.2-1.6-64.2.9-4.4.9-5.5-.2-6.2-1.1-.7-1.1-.9.2-.9 2.1 0 2.5-1.7 3.9-15.5.6-6.1 1.9-12.7 2.7-14.8 1.5-3.4 1.5-3.9.1-5-1.3-1-3.2-6.7-2.3-6.7 1.1 0 7.5 3.2 8 4 .3.5 1.3 1 2.2 1 1.1 0 1.4-.7 1.1-2.5-.3-1.4-.1-2.8.3-3.1.5-.3.9-1.2.9-2.1 0-1.1-.6-1.4-2.4-.9-1.6.4-2.6.1-3-.9-.3-1-1.9-1.5-4.5-1.5-6.3 0-6.7-4.2-.4-4.4 2.6-.1 2.8-.4 3.4-5.6.3-3 .6-4.3.7-2.8.2 2.6 3.2 4.2 3.2 1.7 0-.6.9-.8 2.1-.4 1.5.5 2.9 0 4.7-1.8 1.5-1.4 4-2.7 5.6-2.9 2.3-.2 3.2-1 4.2-3.8.9-2.6 1.3-3 1.3-1.3.1 2.7 2 4 3.2 2.2.5-.8.9-11.5.9-23.7 0-17.7.4-23.7 1.7-28.6 1.7-6.6 1.4-9.6-1.2-9.6-1.8 0-3.8 4.6-3.2 7.2.6 2-1.3 2.4-4.1.9-.9-.5-2.5-1.2-3.4-1.5-3.1-.9-1.9-2.6 1.7-2.6 2.7 0 3.8-.5 4.5-2.3.6-1.2 1.6-3 2.2-4 1.1-1.4 1-1.9-.1-2.6-1-.6-1.1-2-.6-5.1l.7-4.3-3.8.6c-3.1.5-4.1.2-5.9-1.7-2.8-3.1-2-4.2 2.9-4 2.9.1 4.2.7 5 2.3.7 1.1 2.2 2.8 3.4 3.7 1.7 1.2 2 1.9 1.2 3.4-1.6 3-1.2 5 1.1 5 1.7 0 1.9.3 1 1.4-.8 1-.9 1.6-.1 2.1 1.6 1 2.7-.2 4.6-5 1.3-3.6 1.4-4.8.4-6-1-1.2-.9-1.5.7-1.5 1 0 3.4-1.1 5.3-2.5 3.9-2.9 4.1-2.9 3.8-1.3-.2.7.4 1.3 1.2 1.3.8 0 1.4-.6 1.2-1.4-.2-.8.2-1.8.9-2.2.9-.5.9-1.7-.1-5.3-1.1-4-1-4.9.4-7.2 1.6-2.3 1.6-2.7.2-4.9-1.5-2.3-1.5-2.5.4-3.5 2.6-1.4 1.7-3-1.6-3-2.6 0-3.1-.9-1.2-2.8 1.7-1.7 2.3-1.5 3.6 1.3 1.3 2.8 3.2 3.4 3.2 1 0-2 1-1.9 2.5.2 1 1.4 1.3 1 1.9-2.5.3-2.4 1.4-4.7 2.6-5.5l2.1-1.4-2.1-.6c-3.6-.9-2.1-2.5 3.2-3.2 5.3-.8 9.8-3.9 9.8-7 0-.8.4-1.5 1-1.5 1.3 0 4-5.4 4-8 0-3.4-3.8-2.5-5.4 1.2l-1.3 3.3.5-4.8c.4-3.9.1-5-1.4-6.2-1.5-1-1.6-1.6-.7-2.6.9-.9.4-1.9-2.3-4.4-3.6-3.4-3.5-4.5.2-4.5 1.4 0 2.5-.8 2.9-1.9.3-1.1 1.2-2.2 2-2.4 1.1-.5 1.2 0 .3 2.4-.7 2.2-.7 3.3.3 4.5 1.6 1.9 5.6 1.4 5-.6-.2-.8-.4-4.6-.3-8.4.2-5.5-.2-7.4-1.6-9-1-1.2-2.6-3.3-3.5-4.9-1.7-2.6-1.7-2.7.5-2.7 1.3 0 3.4-.9 4.8-2 1.8-1.3 2.8-1.6 3.7-.8 1 .8 2 .4 3.8-1.6 1.3-1.4 3-2.6 3.6-2.6.7 0 3.5-1.9 6.3-4.2 3-2.6 5.1-3.8 5.4-3 .8 2.5 2.2 1.1 2.2-2.3 0-2.7.4-3.5 1.8-3.5 1.3 0 1.7.9 1.8 3.5 0 3.2 2.6 7.5 4.6 7.5.4 0 .8-1.2.8-2.7 0-2.7 0-2.7 2.5 1 2.6 3.7 4.1 4.4 10.5 4.9 2.7.2 3.8.9 4.7 3 1.4 3.2 2.5 3.5 4.3 1.3 1.4-1.7 4.3-1.9 7.1-.5 2.4 1.3 2.8 7.3.4 6.4-1-.4-1.5 0-1.5 1.5 0 2.4 4.4 7.1 6.6 7.1.8 0 2.1 1.1 3 2.5.9 1.4 2.7 2.8 4 3.1 1.3.3 2.4.7 2.4.8 0 .1-.9 2.6-2 5.6-2.2 5.9-2.4 7.4-1.2 6.6.4-.2 1.4-.1 2.2.4 1 .6.5 1.3-2.1 2.9-4.4 2.8-8.2 3.7-8.7 2.3-.5-1.6-6.5-1.5-8 0-1.6 1.6-1.5 2.8.3 2.8.8 0 2.4.9 3.5 2s2.7 2 3.5 2c.8 0 1.5.7 1.5 1.5 0 .9-.7 1.8-1.5 2.1-.8.4-1.5 1.3-1.5 2.1 0 1.2.8 1.3 3.9.8 2.9-.5 4.6-.2 6.5 1.1l2.7 1.7-4.8 2.3-4.8 2.2 4.2.1c3 .1 4.5-.4 5.2-1.7.9-1.6 1-1.6 1.6.3.3 1.1 1.2 3.2 1.9 4.6 1.2 2.2 1 2.9-.9 5.4-3.2 4-6 2.9-13.1-5.2-9.4-10.6-10.4-12.4-10.4-18.2 0-4.6-.2-5.1-2.2-5.1-1.3 0-3 .5-3.8 1-1.3.9-1.1 1.4 1.3 3.1 1.5 1.1 2.7 2.7 2.7 3.5 0 1.7-.1 1.7-3.6-.1-4.1-2.1-7.4-1.9-7.4.4 0 1 .6 2.1 1.4 2.4.8.3 2.2 2.9 3.2 5.9 1.6 4.9 1.7 9.8 1.1 69.8-.6 64.2-1.4 80.4-5 103.5l-1.3 8-.7-11.5c-.8-14-1.5-18-3.3-18-1.7 0-1.9 8.7-.5 17.1.5 3 1.3 10.2 1.6 16.1.7 10.5.7 10.6 3.3 11.1 1.5.3 2.8.4 3 .2.2-.2.7-6.5 1.2-14.1 1.1-16.5 2.3-27.4 4.1-36.9 1-5.3 1.3-23.5 1.4-74.7 0-37.2.3-68 .8-68.4 2.6-2.7 37.6 40.3 41.8 51.3 1 2.7 2.9 3.1 2.9.6 0-2.1-4.6-11.6-8.2-17-1.5-2.3-3.3-5.4-3.8-6.9-1.8-4.6 1.7-.9 4 4.2 1 2.4 2.6 4.4 3.4 4.4 1.3 0 4.6-4.6 4.6-6.5 0-1.3-3-.3-3.9 1.2-.9 1.6-1 1.6-1.1-.3 0-2.6 3.9-7.9 5-6.7 1.2 1.3 1.9 8.2.9 8.8-1.6 1-1 2.3 1.4 2.9 2 .5 2.2 1 1.9 4.1-.3 2.1 0 3.5.7 3.5.6 0 1.1-.4 1.1-.8 0-.5.8-1.8 1.8-2.9 1.8-2.1 4.4-2 3.6.1-.3.7.4 2.3 1.6 3.6 1.1 1.3 2 2.7 2 3.2 0 .4.6.8 1.4.8.8 0 1.6.5 1.8 1.2.3.7 1.2.9 2.2.5 1.1-.4 1.4-1.2.9-2-1.6-2.7-5.9-7.4-7.4-8-1.1-.4-1-.6.3-.6 1-.1 2.7 1.2 4 2.9 1.2 1.6 3 3 3.9 3 1 0 2.1.9 2.4 2 .3 1.1 1.3 2 2.1 2s1.4-.9 1.4-2c0-2.9 1.7-2.4 2.5.7.5 2.1.1 3.1-1.6 4.4l-2.2 1.7 2.1 2.7c2.3 2.9 2.9 6.5 1.2 6.5-.5 0-1 .5-1 1.1 0 .6 1.7.9 4.1.8 5.2-.4 6.7 1.7 4.4 6-2 3.9-1.9 4.4.5 3.6 1.5-.5 2.2 0 3 2.1.6 1.4 3 5.3 5.4 8.4 3.1 4 4.7 7.2 5.1 10.3.5 3.4 1.3 4.7 3.2 5.6 2 .9 2.4 1.7 2.1 4.3-.2 2.4-.9 3.4-2.3 3.6-1.1.3-2.8 1.3-3.8 2.3-2.3 2.5-2.4 2.4-1.9-1.1.3-2.3 0-3-1.2-3-.9 0-1.6.8-1.6 2 0 2.6-2.6 2.6-4 .1-1.4-2.7-1.3-4.1.4-4.1 1.7 0 4.1-2.8 3.2-3.7-.3-.3-3.1.2-6.1 1.2-4.5 1.6-5.5 2.3-5.5 4.2 0 1.6.7 2.4 2.5 2.9 2.2.6 2.4 1.1 2.7 7.7.3 7.2 2.1 10.2 3.4 5.3.8-3.2 2.9-4 5.9-2 1.8 1.2 2.8 1.3 4.4.5 2.9-1.6 3-1.4 1.8 1.9-.7 1.8-1.9 3-2.9 3s-1.8.4-1.8 1c0 .5.2 1 .4 1s1.1.3 2 .6c1.1.4 1.6.1 1.6-1.1 0-1 .6-1.5 1.8-1.3 1.4.3 1.7 1.5 1.8 6.3.1 17.6.1 17.5 3.2 17.5 1.7 0 5.5-1.7 9-4l6.2-4 .1-10.7c0-6 .4-11.7.9-12.8.5-1.3.9 3.1.9 11.6l.1 13.6 8 7.2c4.5 3.9 8.5 7.1 9 7.1.6 0 1.1-8 1.1-19.8.2-22.5 1.4-56.3 1.7-45.5.2 7.3 1.6 9.7 2.6 4.6 3.3-17.4 7.5-54.5 8.3-74l.6-14.2-3.6-4.1c-2.1-2.2-3.7-4.5-3.7-5 0-.6-1.1-1.5-2.4-2-1.8-.7-2.6-1.9-3.1-5.2-.4-2.4-1.3-5.4-2-6.8-.7-1.4-1.8-7-2.4-12.5-1.6-14.3-1.7-14.5-5.7-14.5-3.2 0-3.4.2-3.4 3.6 0 2 .6 6.2 1.4 9.3.8 3.1 1.7 9.2 1.9 13.6.4 5.1.3 6.6-.2 4-.4-2.2-1.5-6.5-2.4-9.5-.9-3-2.1-8.6-2.7-12.4-1.4-9.1-2.5-11-5.6-10.2-1.7.5-3.3 0-5.1-1.4-1.4-1.1-3.1-2-3.8-2-.8 0-4-2.3-7.3-5-3.3-2.8-6.7-5-7.6-5-2.5 0-3.7 3.6-3.1 9.2l.5 5.3-1.3-4c-1.4-4.3-3.7-5.5-6.4-3.4-1.2 1.1-1.4 2.7-1.1 7.9l.5 6.5-2.2-7c-1.8-5.9-2.6-7.3-5.4-8.7-5.6-2.8-7.1-4.7-7.1-9.3 0-2.3.7-5.7 1.6-7.5 1.7-3.2 1.6-3.4-.7-5.1-5.8-4.3-6-4.8-.8-2 3.1 1.7 6.9 3.1 8.3 3.1 2.4 0 2.7-.4 2.4-2.7-.2-1.9-1.7-3.6-5.3-5.9-8.8-5.8-9.2-6.6-1.2-1.9 4.3 2.5 8.8 5.2 10 6 1.2.8 3.4 1.5 5 1.5 2.2 0 3 .6 3.8 3 .7 1.9 1.8 3 3 3 1.1 0 3.1.8 4.5 1.7 1.9 1.2 3 1.4 4.3.6.9-.6 3.1-1.4 4.9-1.8 2.8-.6 3.2-1.1 3.2-3.8 0-1.7-.7-3.9-1.7-4.9-1.5-1.7-1.5-1.8 1-1.8 2.1 0 2.8-.6 3.3-2.8.4-1.5 1.8-5.4 3.1-8.6 1.3-3.2 2.2-6.8 1.9-8-.6-2.5-8.5-8.8-15.6-12.3-2.7-1.3-6.5-4.2-8.3-6.4-3.7-4.3-5.1-4.7-8.5-2.3-1.3.9-7.1 3.5-12.9 5.9-5.8 2.5-11.4 5.2-12.5 6.2-2 1.8-3.1 1.8-17.8.8-4.7-.4-15.2-.2-23.3.3-13.5.9-15.1 1.3-17.4 3.4-5.1 4.8-6.5 10-3.8 14.2 1.6 2.3 1.5 2.4-1.7 1.7-3.3-.7-3.3-.7-3.6-7.4-.2-3.7-.7-6.7-1.2-6.7-.6 0-1-.6-1-1.4 0-.7-.7-1.9-1.6-2.7-1.4-1.2-1.4-1.4.2-2.6 1-.7 3.8-1.3 6.2-1.3 2.4 0 8.3-1.4 13-3.1 11.7-4.1 20.8-5.9 30-5.9 8.8 0 12.4-.8 11.9-2.4-.2-.6-2.4-1.4-4.8-1.7-2.4-.4-6.2-1.2-8.4-1.8-2.2-.6-5.9-1.1-8.3-1.1-5.8 0-8.2-1.4-8.1-4.8v-2.7l1.6 2.2c.8 1.3 2.2 2.3 2.9 2.3 2.3 0 1.6-3.9-1.1-6.4-2.9-2.7-3.4-5.2-.7-4.1 4.4 1.7 21.9 6.5 24 6.5 1.3 0 3.7 1.4 5.4 3 3.9 3.9 7.2 4.7 11.4 2.6 2.9-1.3 3.3-1.9 2.5-3.4-.8-1.6-.6-1.7 2.3-1.4 2.9.3 3.4 0 4-2.2.4-1.5 1.4-3 2.4-3.3.9-.4 3.2-2.3 5-4.2l3.4-3.6-2.7-2.2c-3.5-3.1-7.1-3-7.9.1-.4 1.7-1.5 2.6-3.6 3.1-3.2.7-4 3.1-1.7 5.4 1 1.2.8 1.3-.8.6-1.1-.4-4.2-1.6-6.8-2.6-2.7-1-5.6-2.4-6.4-3.1-1-.8-4.2-1.3-7.7-1.3-4.6 0-7.4-.7-11.3-2.6l-5.3-2.6v2.3c0 1.3.8 2.8 1.8 3.3.9.6 1.4 1.1 1.1 1.1-.8 0-16.9-6-19.2-7.1-1.5-.8-2.7-.7-5.3.7-3.3 1.8-3.5 1.8-7-.1-2.6-1.4-4-1.6-5.2-.8-2.3 1.4-2.7 4.7-.7 6.3.8.7 1.5 1.9 1.5 2.6 0 1.9 2.7 1.7 3.8-.3.8-1.3 2-1.5 6.3-1 7.4.7 10.3 2.3 12.2 6.4l1.6 3.5-2.3-2.1c-2.5-2.4-4.6-2.7-6.4-.9-1.8 1.8-1.4 4.6.8 5.8 1.1.6 1.8 1.5 1.5 2.1-.4.6-1.3.6-2.3 0-1-.5-2.2-.5-3.3.2-2.5 1.5-6.4-.7-8-4.5l-1.2-3-1.8 2.3-1.8 2.4-3.5-1.9c-2.8-1.5-4.1-1.7-5.9-.9-1.2.6-3.7.8-5.5.5-4.4-.6-6.1-3.9-4.4-8.6.7-1.8 1.2-3.7 1.2-4.3 0-.6-2.9-3-6.5-5.3-7.1-4.4-8.4-6.2-6.5-8.5 1.6-2 5-1.9 5 .1 0 2.4 2.5 1.1 2.8-1.5.2-1.2 1.1-2.5 2-2.8.9-.3 2.5-1.3 3.4-2.1 1.8-1.5 4.8-1 4.8.7 0 .6-.7.8-1.6.4-1.2-.4-1.5 0-1.2 1.8.2 1.5 1.1 2.5 2.4 2.7 1.7.2 2.3-.5 3.4-4.3 2.5-8.9-2.8-13.5-15.7-13.5-6.2 0-17.9-2.5-20.9-4.5-3.2-2.1-7.1-1.9-7.7.2-.3 1-.8 3.5-1.2 5.5-.7 4.6-4.7 7.1-10.3 6.6-3.2-.3-4.2-1-7-5.3-3.1-4.5-3.3-5.5-2.7-9.8.5-4.3.4-4.8-1.2-4.5-3.9.7-7.3 14.3-8 32.3-.4 9.9-.2 12.4 1.1 14 1.4 1.8 1.5 1.8 1.6.2 0-.9.9-2.6 2-3.7 1.7-1.7 3.3-2 10.1-2 7.7 0 8.1-.1 10.6-3 2.9-3.5 3.9-3.7 4.6-1 .7 2.8 3.7 3.7 5.3 1.6.7-1 1.8-1.5 2.4-1.1.7.5-.2 1.6-2.4 3.1-2 1.4-3.6 2.9-3.6 3.3 0 1 2.5 2.1 4.7 2.1 2 0 10.2-8.8 10.9-11.8.4-1.2 1-2.2 1.5-2.2s.6.7.3 1.5c-1.4 3.6.5 6.3 5.6 8 4.5 1.5 4.9 1.9 3.9 3.6-.6 1.1-.7 3.3-.4 5 .4 1.7.2 2.9-.4 2.9-.5 0-1.1-1.2-1.3-2.7-.4-3.8-4.3-5.1-9.8-3.3-3.3 1.1-4 1.8-3.6 3.2.3 1.2 0 1.7-.7 1.5-.7-.3-1.1-1-.9-1.6.2-.8-1.4-1.1-5-.9l-5.3.3.3 4c.3 4.6-1.8 8.3-6.8 12-4.5 3.3-9.6 3.3-14.5-.1-4.8-3.2-7.5-2.6-11.2 2.6-3.2 4.6-9.2 7.3-21.2 9.6-10.7 2.1-14 4.4-19.2 13.8-.9 1.7-2.4 3.5-3.5 4-1 .6-3.6 2.1-5.6 3.3-3.7 2.3-3.8 2.3-3.8.3 0-2.4-1.7-2.6-4.2-.3-2.1 1.9-11.3 2.9-12.3 1.3-1.1-1.7-4.2-1.1-5.9 1.2-1.5 2.3-1.6 2.3-3 .3-3-3.9-3.7-4.5-5.8-4.5-1.6 0-1.9.5-1.6 2.5.6 2.8.3 2.9-3.9 1.5-2.4-.9-2.9-1.5-2.6-3.5.4-1.7-.2-2.8-2.2-4.1-2.2-1.5-2.4-1.9-1.1-2.6 2-1.1 2.3-8.8.3-8.8-.7 0-1.8.5-2.5 1.2-.9.9-1.2.8-1.2-.5 0-.9.5-1.7 1-1.7.6 0 1-.7 1-1.5 0-1.7 2.5-2 3.5-.5.3.5 1.9 1 3.5 1 2.7 0 2.8.2 2.3 3.4-.4 2.5.1 4.3 2.2 7.5 1.5 2.2 3.5 4.1 4.4 4.1.8 0 5.9-4.3 11.3-9.7l9.6-9.6-2-2.8c-1.5-2-1.9-3.7-1.5-6.2.5-3 .2-3.6-2.1-4.8l-2.7-1.3 2.5-.4c2.7-.4 5.6-2.7 7.2-5.5.7-1.4.3-2.6-1.6-5.2l-2.6-3.3 2.9-1c1.9-.7 3.1-1.9 3.3-3.4.3-2 .8-2.3 4-2 2 .2 5-.4 6.7-1.2 1.6-.9 3.9-1.6 5-1.6 2.9 0 10 7.1 10.7 10.8.7 3.5 1.3 3.9 3.2 2 .9-.9 1.5-.8 2.5.6 1.2 1.6 1.9 1.7 6.6.7 2.8-.6 6.5-1.1 8.1-1.1 5.2 0 6.2-3 7.2-21.3 1.4-25.6 3.8-31.1 16-36.5 7.5-3.4 7.8-3.4 11.1-1.8 4 1.9 10.8 2.1 14 .5 1.2-.6 3.4-2.2 4.8-3.5 1.4-1.4 5.8-3.3 9.9-4.5 4.1-1.1 8-2.5 8.7-3.1.9-.7 2.2-.7 4.5.3 2.4 1 3.3 1 3.6.1.6-1.8 4.7-1.5 6.3.5.9 1 1.3 3.6 1.2 7-.2 4.9 0 5.3 2.1 5.3 1.3 0 3.1.9 4.1 2 2.9 3.2 5.3 2.5 6.6-2 1.2-4 1.2-4-2.7-7.5l-3.9-3.4 13.8-.1H586l5.9 5.4c3.8 3.5 7.4 5.8 9.8 6.4 9.1 2.2 17.3 3.5 23.5 3.6 5.7.1 7-.2 9.2-2.3 2.1-1.9 2.6-3.5 2.8-8.4l.3-6.1 5.5-3.2c5.9-3.6 8.3-4 11.7-2.1zM396.4 448.5c1.5 1.4 2.6 3.5 2.6 5s.6 2.5 1.4 2.5c.8 0 1.6.7 2 1.5.3.8 1 1.5 1.6 1.5.5 0 1-.7 1-1.5 0-1.1 1.2-1.5 4.6-1.5h4.7l-.7 9.5c-.6 8.1-.5 9.6.8 10.1.9.3 1.6 1 1.6 1.5 0 1.6-4.3 2.7-6.3 1.7-1.6-.8-1.6-1.1-.2-3.9 1.8-3.4 2.2-15.6.7-17.1-.7-.7-1.9-.4-3.8 1.1-1.5 1.1-3.2 2.1-3.9 2.1-.6 0-2 .9-3 2-1.8 2-4.9 2.5-7.8 1.4-1.2-.4-.8-1.6 2-5.7 3.5-5.1 3.2-6.8-.6-4.7-1.8.9-2.1.8-2.1-.9 0-1 .7-2.1 1.5-2.5.8-.3 1.5-1 1.5-1.6 0-.5-.7-1-1.5-1s-1.5-.5-1.5-1c0-1.8 2.6-1.1 5.4 1.5zM380 457c0 .6 1 1.5 2.3 2 2.1.8 2.1.9-.5.9-2.5.1-2.8.5-2.8 3.6 0 2.2.6 3.8 1.5 4.1.8.4 1.5 1.2 1.5 1.9 0 1.9-3.5 2.8-5.9 1.6-1.1-.6-2.4-1.1-3-1.1-1.6 0-2.3 3.8-1.6 8 .8 4.6 2.9 5.2 7.3 2 1.5-1.1 5.4-2.4 8.7-3 13.5-2.3 12.5-2.3 12.5.4 0 2-.4 2.3-2.1 1.9-1.7-.5-2-.2-1.7 1.8.4 2.9-2.7 3.9-3.4 1.1-.3-1.1-1.7-2.2-3.2-2.6-2.2-.5-3.1-.1-5.2 2.3-2.8 3.3-7.6 4.8-10.8 3.3-1.1-.6-2.9-1.3-4-1.6-1.4-.5-1.7-1.2-1.2-3.4.4-1.5.9-4.6 1.3-7 .3-2.3 1-4.2 1.4-4.2.5 0 .9-1.1.9-2.5s-.4-2.5-1-2.5c-.5 0-1-1.1-1-2.4 0-1.8.9-2.7 3.8-3.9 4.5-1.8 6.2-2 6.2-.7zm43.5 10c3.8 2.5 6.1 2.5 8.2 0 2.4-2.8 3.7-2.5 5.9 1.5 1.2 2.3 2.8 3.6 4.7 4.1 1.5.3 3 1.1 3.1 1.7 2.1 8.1 2.3 10.2 1.2 14.2-1.6 6.3-3.5 8.1-9.5 8.9-3.5.5-5.1 1.1-5.1 2.1 0 .9-.9 1.5-2.3 1.5-1.3 0-2.8.5-3.4 1.1-.8.8-1.3.5-1.8-1-.3-1.2-1.2-2.1-1.8-2.1-.7 0-.6-.4.3-1 1.3-.8 1.2-1.3-.4-4.1-1.6-2.7-1.8-4.4-1.3-11.3.5-6.1.3-8.7-.8-10.6-1.5-2.7-2-7-.7-7 .4 0 2.1.9 3.7 2zm-170.8 18.9.1 4.8-7.1 2.8c-4 1.5-9.8 4.3-13 6.2-5.7 3.4-8.7 3.7-8.7.9 0-3.2 1.5-4.8 6.9-7.7 3.1-1.6 7.9-4.3 10.6-5.9 2.8-1.6 6.4-3.6 8-4.4 1.7-.8 3-1.5 3-1.5 0-.1.1 2.1.2 4.8zm120.9 4.5c.3.7-.2 3.8-1 6.7-1.3 4.4-1.5 10.3-1.3 31.4l.2 26 2.8 2.7c1.5 1.5 2.7 3.5 2.7 4.5s.6 2.7 1.4 3.8c.7 1.1 1.9 3.7 2.5 5.7 2 6 7.6 12.5 13.1 15l5 2.3v10c0 6.6-.4 10.5-1.2 11.3-1 1-1 1.7.1 3.3.7 1.2 1.9 7.8 2.7 14.7.8 6.9 1.7 12.9 2 13.4 1.1 1.8 4.3.6 9.5-3.7 3-2.5 5.9-5 6.6-5.5.8-.7 1-2.6.6-5.9-.3-2.8-.1-5.6.5-6.7.9-1.5 1.1-.6 1.2 4.6 0 3.7.5 7.1 1.1 7.7.7.7-.2 1.5-3 2.7-4 1.5-12.1 8.7-12.1 10.6 0 .5 2 3.4 4.5 6.5 2.5 3 4.3 5.5 3.9 5.5-1.5 0-4.4-2.2-4.4-3.5 0-.9-1-1.4-2.7-1.3-1.6.1-3.4 0-4.2-.3-.9-.2-2.8 1.6-4.8 4.6-3.6 5.4-3.9 5.5-2.2.5.9-2.6.9-3.4-.2-4.1-2.2-1.4-9.8-1-12.3.6-2.1 1.4-2.5 1.4-4.9-.5-2-1.6-2.8-3.4-3.3-7.2-.5-3.5-1.4-5.7-3-7.1-2.7-2.4-3.1-3.7-.9-3.7.9 0 1.5-.9 1.5-2.1 0-1.6-.5-2-2-1.6-1.1.3-2 0-2-.6-.1-3.9-2-20.6-2.5-21.9-.6-1.6-6.3-4.4-13.7-6.7-2-.7-4.2-1.9-4.8-2.7-2.1-2.4-5.8-1.7-7.4 1.5-.8 1.5-2.6 3.6-4 4.5-2.5 1.6-2.6 1.6-2.6-.3 0-1.1.5-2.3 1-2.6 1.8-1.1 1.1-6.4-1-7.5-2.7-1.5-5.4-.5-7.5 2.6-1.2 1.9-1.4 2.9-.5 3.9.6.7 1.3 3.7 1.6 6.6.5 4.8.4 5.2-.9 3.6-.8-1-1.8-4.4-2.2-7.5-.4-3.1-1.7-7.6-2.9-9.8-1.3-2.3-2.7-5.9-3.1-8-.4-2.2-1.1-4.4-1.7-5.1-1.2-1.5 1.5-6.8 4.1-8.3 2.6-1.3 3.1-1.3 3.1.5 0 .8-.7 1.5-1.5 1.5-2.1 0-2 5.9.1 6.7 1.5.5 2.7-.5 3.8-3.2.2-.6.9-.5 1.7.2 2.2 2.1-.1 6.7-3.6 7.3-3.7.6-3.4 2.3.7 3.3 2.8.8 3.6.5 5.5-1.8 2.8-3.2 2.9-6.4.3-9.8-1.5-1.8-1.9-3.4-1.4-5.2.3-1.4.1-3.9-.6-5.5-1.1-2.6-1.8-3-5.4-3.1-3.8 0-3.9-.1-1.7-1.2 2-.9 2.2-1.6 1.8-4.9-.5-3.6-.3-3.8 2.1-3.8 2 0 2.3-.3 1.4-1.2-.7-.7-1.2-2.6-1.2-4.3l.1-3 1.9 2.4c1.1 1.3 2 3.1 2 4.1 0 .9 1.7 4.3 3.8 7.6 2.1 3.2 4.1 6.4 4.5 7 .4.7-.1 1-1.6.7-2-.4-2.2 0-2.2 3.9 0 3.8.3 4.3 2.4 4.6 1.9.3 2.2 0 1.7-1.3-.5-1.3-.2-1.5 1.7-.9 1.2.4 3.7.8 5.5.9 1.8.1 3.8.7 4.5 1.4 1.2 1.2 10.4 1.5 13.2.5 1.8-.7 4.5-5.5 4.5-7.9 0-.9-1.8-4-4-7-2.9-3.9-4.7-5.5-6.4-5.5-1.2 0-3.1-.9-4.1-2-2.3-2.6-3.4-2.5-4.5.2-.8 2-.9 1.9-.9-1.3-.1-2-.4-5.7-.7-8.3-.6-3.9-1-4.6-2.8-4.6-2.6 0-6.6-3.4-6.6-5.5 0-.8.9-1.5 2-1.5 1.4 0 2.1-.9 2.5-3.4.4-1.8.5-4.2.3-5.4-.5-3.1 2.9-6.2 6.2-5.5 2.2.4 2.9.1 3.4-1.4.5-1.6 1.5-2 4.9-1.9l4.3.1-.4 12.1c-.4 10.4-.2 12.3 1.3 13.8 1 .9 2.7 1.6 3.9 1.4 1.8-.3 2.1-1.1 2.4-5.4.3-4.6 0-5.4-2.4-7.3-1.8-1.4-2.1-2.1-1.1-2.1.8 0 1.8-.8 2.2-1.8 1.2-3 1.9-22.9.7-23.5-.5-.4-2.4-.2-4.1.4-2.4.8-3.1 1.7-2.9 3.2.2 1.1-.1 2.2-.7 2.4-1.1.3-1.7-7.7-.9-11.6.4-1.7 1-2.2 2.4-1.8 1.4.4 2 0 2-1.3 0-3.5 7.4-6.6 8.6-3.6zm-109.4 14.3c1 .9 1.8 2.6 1.8 3.9 0 1.3.6 2.7 1.4 3.1 1.8 1.1 3.6 4.7 3.6 7.2 0 1.3.8 2.1 2.2 2.3 1.3.2 3 1.8 4.2 3.9 2.3 4.1 5.7 9.1 6.7 9.9.3.3 1.2 1.6 1.9 2.9 1.1 2.2 1.1 2.3-.6 1.6-1.1-.4-2.7-1-3.6-1.2-1.1-.3-1.8-1.5-1.8-2.9 0-1.7-.6-2.4-2-2.4-2.6 0-3.8 2.9-1.8 4.4.8.6 1.3 1.6 1.1 2.3-.3.7.7 1.5 2.1 1.9 1.7.4 2.6 1.3 2.6 2.5 0 2 2.4 2.6 3.5.9 1.5-2.4 2.5-.6 2.5 4.1 0 4.8-.1 5-2.2 4.3-3.3-.9-3.5-1.4-1.5-2.8 2.3-1.8 2.2-2.2-1.3-3.6-4.6-1.9-12.3-10.7-11.7-13.3 2-8.7 2-8.7.4-8.7s-2.7 2-2.7 5.3c-.1 2.2-.1 2.2-1.6.2-.8-1.1-2-3.6-2.6-5.7-2-6.9-5.8-6.1-16.3 3.2-8.9 7.9-14.8 12-17.3 12-3.5 0-4.7-12-1.8-17.5.9-1.7 1.6-3.8 1.6-4.7 0-1.6 4.4-5.8 6.2-5.8.5 0 2.4-1.1 4.1-2.4 1.8-1.4 6.8-3.3 11.2-4.4 10.2-2.5 9.5-2.5 11.7-.5zm18.2 93.8-1.5 3.6 3.4-.6c2.3-.5 3.7-.2 4.6.8 1 1.3.8 1.6-.8 2.2-2.8.9-2.8 3.7 0 3.3 2.1-.3 2.2.1 2.1 7.2 0 4.1.4 8.3.9 9.2 1.3 2.4 6.2 4.8 9.9 4.8 1.9 0 3.7.8 4.8 2.1 4.3 5.4 5.2 5.8 11.5 5.6l6.1-.2 3-5.8c2.1-4.1 3-7.3 3-11.1.1-4.4.5-5.4 2.4-6.3 1.9-1 2.2-.8 2.2 1.1 0 1.2-.5 2.7-1.1 3.3-1.9 1.9-.6 5.8 1.9 6.1 3 .5 5.2 5.5 5.2 12 0 2.6.5 5.3 1.2 6 1.4 1.4 7.8 1.6 7.8.2 0-.5 2-.7 4.8-.3 3.9.4 5 .2 6.6-1.6 1.1-1.2 2.4-2.1 2.9-2.1.6 0-.2 1.4-1.8 3-2.7 2.8-2.8 3.3-1.7 6.3 2.3 6.3 1.6 9.2-3 13.1-2.3 2-5.7 3.8-7.7 4.1-8 1.3-9.1 3.4-9.1 19-.1 10.7-.2 11.8-1.5 10.1-1.6-2.1-1.7-2.1-3.2.8-1 1.8-1.1 1.6-1.7-1.2-.5-2-.2-4.1.9-6.1 1.1-2.1 1.3-3.7.6-4.8-.5-.9-.6-4.2-.4-7.4.3-3.1.3-6.9-.1-8.3-.5-2.2-1.2-2.6-4.5-2.6-4.5 0-7.5 2.4-4.2 3.5 1.7.5 1.9 1.4 1.8 6.5-.1 3.5-.7 6.2-1.4 6.4-1.5.6-3.3 7-3.3 11.8 0 3.4.3 3.8 2.5 3.8 2 0 2.5.5 2.5 2.5 0 2.3-.2 2.4-2.1 1.3-1.7-1.1-2.2-1-3.3.4-1.8 2.5-4.9 2.2-7.6-.7l-2.3-2.4 2.7-1.2c2-1 2.6-1.9 2.5-4.3-.1-1.7 1-6.2 2.5-9.9 3.1-8.1 3.2-10.2.6-14.4-1.4-2.3-3.1-3.5-6.2-4.3-2.4-.7-5.9-1.9-7.9-2.7l-3.6-1.4.5-5.5c.4-4.4.2-5.4-1.1-5.4-.9 0-2 1.5-2.7 3.7-.6 2.1-1.3 4.4-1.5 5.1-.4.9-1.4.9-4.7-.4-8.3-3-11.8-4.7-11.8-5.5 0-1.5-2.9.3-3.5 2.2-.4 1-4 5.3-8.1 9.4-6.7 6.8-7.4 7.8-7.4 11.5 0 3.5.3 4 2.3 4 1.2 0 2.8.4 3.6.9 1.1.7.9 1-.8 1.6-2.1.6-2.1.7 1.1 4.3l3.2 3.7-3.2.3c-5 .5-4.2 5.4 1.1 6.7 2.7.7 2.8 1 2.5 5.9-.2 4.1 0 5.1 1.4 5.4.9.2 2.5-.7 3.5-1.8 1-1.2 2.3-2.8 2.9-3.4 1.7-1.7 14.7-3.9 18.4-3.1 4.7 1 10 6.1 10 9.6 0 2.4-.7 3.2-3.7 4.6-5.4 2.6-5.7 6.3-.9 9.1 4.2 2.5 4.9 5.2 1.1 4.4-3.5-.6-7.5.6-7.5 2.3 0 .8-1.4 3-3.1 4.9-1.7 2-2.8 3.9-2.5 4.4.3.5-.4 2.2-1.4 4-1.6 2.6-2.5 3-5.4 2.9-2.2-.1-3.1-.6-2.5-1.2 1.3-1.3 1.1-2.5-.5-2.5-.7 0-1.9-.7-2.7-1.6-.7-.8-3.5-2.7-6.2-4.1l-4.9-2.5.6-9.6c.8-11.1-.7-18.1-5-23.2-2.5-3-7.4-4.2-7.4-1.9 0 .6-1.3 2.7-3 4.6-1.6 1.8-3 3.7-3 4.1 0 .4-1.5 1.6-3.2 2.6-5.4 3.1-8.7 6.9-8.2 9.1.3 1.4-.4 2.9-2 4.5-3.1 2.8-3.2 3.7-.8 4.2 1.4.3 1 1.1-2.1 4.3-2.2 2.2-4.5 5.5-5.2 7.2-.8 1.8-1.9 3.3-2.6 3.3-.7 0-.8-.6-.3-1.8.4-.9.8-3.1.8-4.9.1-1.7.4-3.5.9-3.9.4-.4.7-1.7.7-2.8 0-1.2 1.6-4.3 3.5-7 2.9-4.2 3.5-5.8 3.5-10.3 0-2.9.5-5.3 1-5.3.6 0 1 .9 1 2s.5 2 1.1 2c.8 0 1-1.7.7-5.2-.5-4.7-.2-5.6 2.5-9 1.7-2.1 3.5-3.8 4-3.8 1.6 0 4.7-3.1 4.7-4.7 0-.8-1-2.7-2.1-4.3-1.7-2.3-2.1-3.8-1.7-7.5.7-5.5 1.3-6.3 3.8-4.7 3.2 2 5.9 1.5 6.6-1.2.3-1.4.3-3-.1-3.5-.3-.6-.1-1.1.5-1.1.7 0 .9-1.4.5-4.3-.4-3.2-.1-4.9 1.4-7.5 2.1-3.3 3.5-4 4.6-2.2 1 1.6 5.1 1.2 6.7-.8 1.5-1.8 4.3-17.6 3.3-19.1-.3-.5-.8-3.3-1-6.2-.3-3-1.2-6.4-2.1-7.6-1.6-2.5-4-3-4.7-1.1-.2.7-.8 0-1.2-1.6-.5-2-.4-3.1.6-3.7 1.2-.8 1.1-1.1-.3-2-2-1.1-2.4-5.5-.8-7.9.7-1.1 1-.7 1 1.7 0 3 .3 3.3 2.9 3.3 3.8 0 12.7-8.1 11.7-10.6-.3-.9-.1-2.3.6-3.1 2.1-2.5 3 2 1.2 6.2zm90.2 163.1c13 7.2 18.1 12.6 19.8 20.6.7 3.2 3.6 3.8 3.6.7 0-1.8.7-1.4 5.8 2.5 3.2 2.5 6.3 4.6 6.8 4.6 2.5 0 9.7 6.8 13.9 12.9 2.5 3.8 4.5 7.3 4.5 7.8 0 2.1 4.3 6.4 8.3 8.5 2.3 1.1 5.5 3.1 7 4.4 1.6 1.3 4.1 2.4 5.6 2.4 1.7 0 3.8 1.1 5.6 3 2.1 2.2 3.8 3 6.4 3 2 0 4.5.7 5.5 1.5 1.1.9 4.1 1.5 6.9 1.5 2.9 0 4.6.4 4.2 1-.9 1.5-11.8 1.2-16.7-.4-2.4-.8-6.3-1.7-8.8-2.1-2.5-.4-4.9-1-5.4-1.3-.5-.3-4.4-.6-8.5-.7-4.5-.1-9.2-.8-11.5-1.8-2.1-.9-5.4-1.7-7.3-1.7-5.5 0-13.1-3-15.8-6.2-1.4-1.6-2.5-3.4-2.5-3.9s-.8-.9-1.7-.9c-3 0 .5-1.8 5-2.6 6-1 5.7-2.8-1.6-9.7-3.7-3.6-6.7-7.3-6.9-8.7-.2-1.7-1.7-3.1-5.4-4.9-6-3.1-9.1-5.3-15-10.5-3.8-3.3-4.4-4.4-4.4-7.8 0-4.1-3.1-11.3-5.2-12-1.1-.4-.4-2.8.8-2.8.3 0 3.5 1.6 7 3.6z"/><path d="M711.5 409.2c-1 1.8-3.9 5.4-6.3 8-2.4 2.6-4.2 5.3-3.9 6.1.5 1.4 10 4.7 13.5 4.7 2.9 0 3.4-1.2 3.3-8.4 0-5.8-2.4-13.6-4.1-13.6-.3 0-1.4 1.5-2.5 3.2zM525.6 423.2c-.9 1.2-1.6 3.2-1.6 4.3 0 1.1-.9 3.7-2 5.8-2.3 4.3-2.7 11.5-.6 12.3.8.3 1.2 1.3.9 2.5-.9 3.2 2.3 2.3 3.7-1.1.7-1.7 1.6-3 2.1-3.1 7-.7 7.2-.5 9.1 5.7 1 3.2 1.5 7.1 1.2 8.7-.7 3.5 2.2 5 4.2 2.2 1.7-2.3 1.8-4 .1-5.7-1.8-1.9-3.7-6.6-3.7-9.1 0-3.8-2.9-7-5.6-6.3-2.7.7-3.1-.5-.8-2.4.8-.8 2.1-2.8 2.9-4.7.8-1.8 2.1-3.3 2.9-3.3 1.7 0 7.6-3.2 7.6-4.1 0-.9-6.9-1.9-8.6-1.2-.8.3-1.4 1.1-1.4 1.9 0 .8-.4 1.4-1 1.4-.5 0-.7-1.3-.3-3 .5-2.9.5-3-3.5-3-3.1 0-4.5.5-5.6 2.2zM705 452.4c0 3.4 20 15.6 25.7 15.6 1.7 0 1.8-11.1.1-12.8-.7-.7-4.1-1.2-8-1.2-3.8 0-8.5-.7-10.5-1.5-4.4-1.9-7.3-1.9-7.3-.1zM748.3 470.2c-2.8 1.4-3.3 3.4-3.3 15.1 0 9.1.2 10 2.5 12.2 3 3.1 4.7 3.1 9.9.1 2.3-1.3 5.4-2.6 6.9-3 2.2-.5 2.8-1.2 2.5-2.9-.2-1.8-.9-2.2-3.5-2.1-3 .2-3.2 0-4.2-4.8-.6-2.7-1.1-6-1.1-7.3 0-2.6-4.5-8.5-6.3-8.4-.7 0-2.2.5-3.4 1.1zM735.8 474.3c-1.6.6-2.8 1.8-2.9 2.6 0 1.1-.2 1.2-.6.3-1-2.6-2.3-1-2.3 2.8 0 4.7 2.6 5.7 3.3 1.2.2-1.5.5.3.6 4l.1 6.8h2.9c1.6 0 3.7.3 4.6.6 1.4.6 1.5-.5 1.3-9.2-.3-9.1-.5-9.9-2.3-10.1-1.1-.1-3.2.4-4.7 1zM535.2 485.2c-3.7 3.4-7.1 6.9-7.6 7.7-.5.9-2.7 3.7-5 6.2-12.3 13.7-26.5 36.5-26.6 42.6 0 3.9 1.3 2.6 5.4-5 5.6-10.3 16.1-24.9 25.2-34.7 4.4-4.7 9.5-10.5 11.4-12.9 2.7-3.3 4.3-4.3 6.8-4.5 4.5-.3 6.3-2.3 3.8-4.2-3.6-2.6-6.4-1.6-13.4 4.8z"/><path d="M506.3 493.4c-1.8 1.5-4.9 5-7 7.9-2.1 2.9-4.3 5.8-5 6.5-.7.7-1.3 1.9-1.3 2.6 0 .7-1.3 3.3-3 5.7-1.6 2.4-4.4 8-6.1 12.4-1.7 4.4-3.5 8.4-3.9 9-.8 1-2.2 7.1-4.2 18.7-.8 4.6-.8 8.7-.2 13 .5 3.5.6 10.8.3 16.3-.4 5.5-.7 18.2-.8 28.2l-.1 18.2-7.2.3c-7.1.3-7.3.4-7.6 3-.3 2.4 0 2.8 2.1 2.8 1.3 0 4.6-.7 7.3-1.5s5.1-1.5 5.3-1.5c.4 0-.6 33.2-1 34-.1.3-.5-2.2-.8-5.5-.4-4.4-1-6.1-2.2-6.3-2.5-.5-2.9 3.7-2.9 29.2v23.1l-2.6-3.3c-3.3-4.1-4.8-4.1-3.9-.1.8 3.7-1.1 3.2-2.5-.7-1-2.5-3.6-4.2-4.7-3.1-.7.8 2 6.6 5.3 11.4 1.7 2.6 2.1 3.9 1.4 4.9-.8.8-.8 1.4 0 1.9 1.3.8 3.2-.4 2.5-1.6-.4-.5.3-.9 1.4-.9 1.1 0 3.9-1.8 6.2-4 2.6-2.4 5.2-4 6.7-4 1.3 0 4.7-.6 7.5-1.4 2.9-.8 11.7-1.7 19.7-2 7.9-.4 14.9-1.1 15.5-1.7 1.7-1.7-.9-4.4-4.1-4.1-13.4 1.5-15.4 1.4-16-.5-.3-1-1.2-3.2-2.1-5-2.2-4.4-1.2-6.3 3.3-6.3 1.9 0 6.3-.7 9.7-1.5 3.4-.8 7.4-1.7 9-2 3.3-.7 3.7-3.5.4-3.5-1.3 0-6.1.5-10.6 1.1-6.6.9-8.8.9-10.7-.2-2-1-2.7-1-4.2.4-1 1-2.1 1.7-2.4 1.7-.7 0-1.9-15.4-2.7-34.9-.4-10.5-1-16.6-1.7-16.8-1.1-.4-2 7.8-2.9 25.6-.3 5.4-.9 8.7-1.7 9.2-.9.6-1.4.2-1.6-1.1-.2-1.1-.7-2-1.2-2-.4 0-.6-4.8-.3-10.7.3-8.4.8-11 2.1-12 1.3-1.1 1.4-1.6.4-2-3.2-1.3-4.3-3.6-3.7-7.5.4-2.2.7-9 .7-15.2.1-8.7.4-11.5 1.7-12.9 1.4-1.7 1.4-2-.2-3.2-1.6-1.1-1.7-3-1.2-21.6.2-11.2.9-22.4 1.5-24.9.5-2.5 1.4-6.8 1.9-9.7 1.8-10 10.8-30.8 15.6-36.3 3.7-4.3 10.6-15.4 10.3-16.7-.2-1.3-.9-1.1-3.5 1.1zm-22.1 180c2-.6 2.1-.4 1.5 5.4-.8 7.1 1.3 12.2 4.9 12.2 1.7 0 2 .5 1.7 2.4-.4 1.7.2 2.8 1.8 4 2.3 1.6 2.3 1.6.4 3-1.1.9-4.4 2.3-7.3 3.2-4.6 1.5-5.5 1.5-6.3.3-1-1.6-1.2-25.8-.2-30.9.6-2.8.8-3 1.1-1.2.3 1.8.8 2.1 2.4 1.6zM543.5 494.1c-.9 3.7-.1 136.2.9 138.1.4 1 1.3 1.8 1.9 1.8 1.4 0 .4-139.7-1.1-141.2-.8-.8-1.3-.4-1.7 1.3z"/><path d="M491.3 549.2c-1.1 1.8-2.5 4.9-3.2 6.8-1.6 4.5-3.2 54.3-2 66 .4 4.7.8 8.9.8 9.5.1.5.7.3 1.3-.3 1-1 1.5-10.1 1.9-34.5.6-30 .9-33.8 2.8-39.7 3.3-10.3 2.4-14.6-1.6-7.8zM837.5 558.4c-.9 1.3-1.8 5.3-2.2 8.9-.5 6-.4 6.7 2.2 10.1 3 3.9 7.5 5.1 7.5 1.8-.2-4.8-2.8-12.7-4.3-13-2.3-.5-2.1-2.4.3-5.5 1.1-1.4 2-3 2-3.6 0-2-3.9-1.1-5.5 1.3zM614.4 583.4c-.3.8-.4 24-.2 51.5l.3 50.1-3-.1c-1.6-.1-4.1-.4-5.5-.8-2.2-.6-2.4-1.2-2.2-4.5.3-3.2.1-3.7-1.5-3.4-1.3.2-1.9 1.4-2.1 4.1-.6 7.2-5.2 3.5-7.3-6-.7-2.9-1.6-5.3-2.1-5.3-.4 0-.8 3.2-.8 7.1 0 6.2-.2 7-1.7 6.5-1-.3-7.3-.8-14-1.2-11-.6-12.3-.5-12.3 1 0 1.2 1 1.6 3.8 1.6 2 .1 5.7.6 8.2 1.1 2.5.6 7.2 1.2 10.6 1.4 3.3.2 7.8 1.1 10 2 3.8 1.7 3.8 1.7 1.6 2.8-2.9 1.3-2.5 4.3.6 3.9 1.2-.2 2.2.2 2.2.7 0 .6 1.1 1.1 2.3 1.1 2.5 0 4.9-2.2 6-5.3 1.2-3.3 3.2-1.3 2.9 2.8-.2 2.2 0 3.5.6 3.1 1.7-1 3.7 2.3 2.6 4.2-1.3 2-12.4 2.4-12.4.4 0-.6-.9-1.2-2-1.2-2.7 0-2.9 5-.2 5 8.3.2 21.4 2.1 24.5 3.6 3.3 1.6 3.9 1.6 4.7.4 1.3-2 1.3-8 0-8-.5 0-1-1.4-1-3 0-4.5-2.5-3.8-3.6 1-.9 3.8-1 3.9-3.4 2.7-2-1-2.6-2.2-3.1-6.1-.8-7.3.9-29.9 2.4-30.8 2.8-1.8 3.6-.7 3.9 5.4.4 8.2 2.5 8.5 5 .8 1.4-4.5 1.6-7.8 1.2-18.5-.3-7.2-.7-14-1-15.3-.4-2-.1-2.2 4.7-2.2 5.9 0 6.2-1.4.7-4.4l-3.5-2-.6-10.5c-.7-12-1.4-15.1-3.2-15.1-2.3 0-3.7 15.3-3.6 38.3l.1 21.8-2.5-1.7-2.6-1.7.2-19.6c0-10.8-.2-28.3-.6-38.9-.7-17.7-1.6-22.8-3.1-18.8zM705 624c0 14.6.4 24 1 24 .5 0 1.2-1.7 1.5-3.8.3-2 1-6.3 1.6-9.6.6-3.6.7-6.2.1-6.8-.5-.5-.7-5.4-.5-10.8.5-9.7-.8-17-2.8-17-.5 0-.9 10-.9 24zM868.2 608.9l-5.3 4.7 1.7 3.7c1.8 3.8 4.7 4.9 5.7 2.3.3-.8 2.6-1.8 5.1-2.1 5.6-.9 6.4-2.8 3.7-9-2.5-5.8-4.1-5.7-10.9.4zM676.9 636.6c-1.8 1.9-4.6 4.3-6.1 5.2-4.2 2.5-3.8 6.4 1.1 11.3 3.7 3.6 6.1 8.8 6.1 13.4.1 4.9 1.1 6.5 4.5 6.5h3.3l-.6-6.5-.5-6.5 4.2-4c3.4-3.3 4.9-4 8.1-4 2.2 0 4-.5 4-1.1 0-3.2-15.7-17.9-19.1-17.9-.9 0-3.1 1.6-5 3.6zM729.4 654.8c-.6.4-2.3 2.6-3.7 4.9-1.5 2.3-4.2 4.9-6.1 5.8-4.8 2.3-6.4 4.4-6.8 8.9-.3 3.5-.7 4.1-3.5 4.8-2.6.7-3.3 1.4-3.3 3.4 0 2.6 3.1 9.4 6.1 13.2 1 1.3 2.7 5.2 3.9 8.7 2.2 6.6 5.3 11.5 7.3 11.5.7.1 3.2 3 5.7 6.7 6.2 9 7.5 10.3 11 10.3h3v-7.5c0-6.6-.2-7.6-2.2-8.6-2-1.1-2-1.3-.5-2.4 2.4-1.8 2.1-4.4-.7-5.5-2.9-1.1-4-5.5-2-8.5 2.3-3.5 2.9-10.9 1.2-14.3-1.5-2.9-1.4-3 .8-4.1 3.1-1.4 3-2.8-.3-8.6-1.4-2.6-3.6-7.9-4.8-11.8-2.1-7.1-3-8.3-5.1-6.9z"/><path d="M671 659.2c0 .7-1.2 2.9-2.6 4.9-2 2.9-2.5 4.7-2.2 8 .3 4.2.5 4.4 3.6 4.7 6.6.6 8.6-4.2 6.1-14.4-.8-3.2-1.6-4.4-3-4.4-1.1 0-1.9.5-1.9 1.2zM372 595.2c0 1.2 1.7 3.7 3.9 5.7l3.8 3.6 1.2 16.5c.7 9.1 1.6 17.9 2.2 19.7 1.9 6 9 8.4 11.1 3.8 1.4-3.2-.5-13.7-5.1-27-1.7-5-3.6-12.2-4.2-16-.6-3.9-1.6-7.3-2.3-7.7-.6-.4-3.2-.8-5.8-.8-4.3 0-4.8.2-4.8 2.2zM283 818.8c-3.3 3.3-4.8 9.2-3.2 12.7 1.4 3 5.7 3.9 16.7 3.3 9.8-.5 11.5-1.5 11.5-6.9 0-8.7-4-11.9-15-11.9-6.5 0-7.4.2-10 2.8z"/></svg>