<svg version="1.0" xmlns="http://www.w3.org/2000/svg" fill="#f3d128fa" width="1800" height="1440" viewBox="0 0 1350 1080"><path d="M193 441c0 .5-.8 1-1.8 1-1.1 0-2.6.8-3.5 1.8-2.2 2.5-2.4 13.4-.2 15.6.8.8 1.5 3.2 1.5 5.5 0 3.6-.4 4.2-3.2 5.5-1.8.8-5.4 1.7-8 2.1l-4.6.6v5c-.1 2.8-.5 5.6-1 6.2-.6.7-.9 6-.8 12 .1 8-.2 10.7-1.1 10.7-.9 0-1.3 2.1-1.3 7 0 3.8.3 7 .8 7 .4 0 1.8-2.5 3.1-5.5s3-5.5 3.7-5.5c1.7 0 1.8-3.2.2-4.8-.8-.8-.8-1.5.2-2.7.7-.8 1.7-1.5 2.3-1.5 1 0 .8 2-1.9 18-2 11.2-2.3 30.8-.6 36.5 1.4 5 1.6 23.9.2 26.6-.6 1-1.3 5.4-1.7 9.6-.4 6-.2 8.7 1.1 11.7 2.4 5.6 2.3 21.1-.1 22.5-1.5.8-1.6 1.1-.3 1.5.8.3 2.6.7 3.9.8l2.4.3.3-12.5c.4-18.1 1.4-32.3 2.4-33.5 1.2-1.6 2.4-11.4 2.1-18.1-.2-3.7.2-6.5.8-6.8.6-.4 1.1-3.7 1.1-7.7 0-5.5.3-6.9 1.5-6.9 1.7 0 2 1.6.5 2.5-1.5.9-1.2 3.5.4 3.5 2.5 0 2.6 1.5 1.1 10.1-.9 5.4-1.1 8.7-.5 9.3 1.3 1.3 1.3 6.3 0 7.1-.5.3-1 3.1-1 6.1 0 3 .5 5.4 1 5.4.6 0 1 2.8 1 6.5s.4 6.5 1 6.5 1 1.5 1 3.3c0 1.8.4 3.7 1 4.3.5.5 1.2 3.5 1.6 6.6.5 4.2.2 6.4-1 8.8-.9 1.8-1.6 3.9-1.6 4.7 0 .7-.4 1.3-1 1.3-1.6 0-1.1 4 .6 4.7 1.7.6 7.4-4.2 7.4-6.4 0-1.7 3.4-1.7 4.8 0 .6.7 1.2 3.3 1.4 5.7.3 4 .6 4.5 2.8 4.8 1.4.2 3.4-.4 4.4-1.1 1.8-1.3 1.9-1.6.4-3.1-1.3-1.2-1.5-2.9-1.1-7.8.3-3.5.9-6.7 1.4-7.2.5-.6.9-2.9.9-5.2 0-2.4.4-4.5.9-4.8 1.4-.9 2.3-7.1 2.7-18.5.2-5.7.8-11.8 1.3-13.5.5-1.7 1.2-5.7 1.6-8.8.3-3.2 1.1-6 1.6-6.3.5-.4.9-5.3.9-11.1 0-5.7.2-10.4.5-10.4.2 0 1.6.5 3 1.2 2 .9 2.5 1.8 2.5 4.9 0 2.1-.4 4.1-1 4.4-1.9 1.2-1.1 3.5 1.2 3.2 1.5-.1 2.4.5 2.9 2.3.9 3.3.9 3.3 2.1-11 2.5-32.2.2-55-5.4-55-1 0-1.8-.3-1.8-.8 0-.9-4.6-3-9.5-4.3l-3.5-1V471c0-8-.4-13-1-13-.5 0-1-.6-1-1.4 0-.8-1.4-1.6-3.2-1.9-4.3-.7-9.7 2.7-10.5 6.5-.6 3.1-3.3 3.9-3.3 1 0-.9.9-3.2 2-5 2-3.3 2.8-11.2 1.1-11.2-.5 0-1.2-.8-1.6-1.8-.3-1.1-1.7-2.4-3.1-3-3.1-1.5-3.4-1.5-3.4-.2zm34.8 67.7c-.1 1.6.6 4 1.6 5.6 1.1 1.6 2 5.3 2.3 8.8.4 5.8.4 6-1.6 4.7-1.2-.7-2.1-2.1-2.1-3 0-1-.4-1.8-.8-1.8s-1.4-2.1-2.1-4.6c-1-3.4-1.1-4.8-.2-5.7.6-.6 1.1-2.4 1.1-3.9s.5-2.8 1-2.8c.6 0 .9 1.2.8 2.7zM265.7 440.7c-.4.3-.7 1.7-.7 3 0 1.4-.5 3.3-1 4.3-.7 1.3-.7 2.1 0 2.5.5.3 1 1.5 1 2.7 0 1.1.9 3.3 2.1 4.9 1.3 1.8 1.9 4 1.7 6.1-.3 2.8-.9 3.4-4.8 4.8-11.2 3.9-14 7.1-14 15.7 0 5 .4 6.7 2 8.3 1.2 1.2 2 3.3 2 5.5 0 1.9.5 3.5 1 3.5.6 0 1-1.8 1-3.9 0-2.2.4-4.2.9-4.6 1.3-.8 4.1 3.5 4.1 6.3 0 1.7.4 2.3 1.5 1.8 2.5-.9 4.5.5 4.5 3.1 0 1.8-.8 2.7-2.9 3.4-1.6.6-3.2 2-3.6 3.2l-.9 2.7c-1.7 3.7-1.3 14.5.9 28.5.2 1.1.4 4.2.4 6.8.1 4 .4 4.7 1.9 4.5 1.4-.3 1.7.7 2 6.1.2 4.1-.1 6.7-.9 7.1-1.4 1-1.4 14.9 0 16.3.6.6 1.1 2.6 1.1 4.3 0 1.8.5 3.6 1 3.9.6.3 1 3 1 5.8 0 4 .5 5.7 2 7 2.5 2.1 2.5 4.7.1 9.5-1 2-2.1 4.8-2.2 6.2-.3 2.1 0 2.6 2.4 2.8 2.5.3 2.8.1 2.2-1.7-.5-1.5-.2-2.1.9-2.1.9 0 1.6-.5 1.6-1 0-.6.5-1 1-1 .6 0 1 1.3 1 3 0 2.9.2 3 4.5 3 5 0 5.8-1.6 2.9-5.9-1.2-1.7-1.7-5.1-2-12.8-.2-8.7 0-11.1 1.6-14.1 1.2-2.5 2-6.9 2.4-13.2.9-14.7 1.2-16.4 2.4-16.8 1.7-.5 1.5-5.2-.3-7.2-1.5-1.6-1-6 .6-6 .5 0 .9-4.2.9-9.3 0-9.2 1.9-16.5 4-15.2.5.3.6 7.4.3 15.8-.5 16.7.9 41.1 2.8 49.7.7 3 1.3 7.5 1.4 10 .1 4.9 1 7.5 3.3 10.2.9 1.1 1.2 2.8.8 4.8-.3 1.6-.9 4.5-1.2 6.2-.4 1.8-1.1 3.6-1.6 3.9-.6.4-.5 1.4.3 2.7 1 1.7 1.1 2.5.1 4.4-.7 1.3-1.4 3.6-1.5 5.3-.2 2.7.1 3 2.8 3.3 4 .3 6.5-1.2 4.7-3-1.4-1.4-1.6-8.4-.3-9.3.9-.5 4.1 8.7 4.1 11.7 0 1.9 5.9 1.1 6.7-.8.3-.8-.7-3.7-2.1-6.6-3-6-3.3-10.3-1-11.6 1.2-.7 1.8-2.7 2.1-6.6.2-3.1 1.1-6.9 1.9-8.4.7-1.5 1.4-4.4 1.4-6.4s.5-4 1-4.3c1.5-.9 1.2-8.5-.3-9-1.7-.7-1.7-13.5.1-13.5.6 0 1.2.4 1.2 1 0 .5.4 1 .9 1 .4 0 .9-5.2 1-11.6.2-11.1 1-15.4 3.1-15.4.5 0 1.1 6.4 1.3 14.2.2 7.9.9 16.5 1.6 19.3 1.1 4.5 1.4 7.9 2.5 23 .2 2.3.9 5.1 1.5 6.4.7 1.3 1.1 3.3.8 4.5-.3 1.1-1 3.9-1.6 6.1-1.5 5.6-.7 7.7 2.7 6.9 4.1-1 4.4-1.4 2.8-3.8-1.8-2.8-1.3-11 1.6-27.8.7-4.6.8-7.1.1-8-2.6-3.3-3.3-19.8-1.3-32.8 1.5-10 1.7-20.3.6-28.2-1-6.5-.2-10.8 1.9-10.8.8 0 1.5.6 1.5 1.4 0 .7.7 1.9 1.5 2.6 1.1 1 1.5 3.6 1.5 11.2 0 8.5.3 10.2 2 12 1.6 1.8 2 1.9 2 .5 0-.8-.4-1.9-1-2.2-.5-.3-1-1.3-1-2.1 0-1.1.7-1.3 2.8-.8 1.5.4 2.9 1.1 3.1 1.7.2.5 1.2 1.8 2.3 2.9 2.6 2.6 4.8 10.7 4.8 17.5 0 2.8.4 5.4.9 5.7.5.3.8 5.7.8 12 0 6.4.4 12 1 12.8.5.7 1.8 5.7 2.8 11.1 1 5.4 2.2 10 2.6 10.3 1.2.7 1.2 5.4 0 5.4-1.5 0-2.2 3.2-1 4.6 1.5 1.8 4.7 1.8 6.6-.1 1.3-1.4 1.3-2.2.3-5.8-.7-2.3-1.3-6.2-1.3-8.7.1-43 .4-49 2.2-49 3 0 4.2 10.6 2.8 25.4-.4 3.3-.2 6.5.3 7.1.6.7.6 3.9.1 8.1-.6 5.3-.5 7.5.6 9.6.7 1.6 1.8 2.8 2.3 2.8.6 0 1 1.3 1 3 0 2.7.3 3 3 3s3-.3 3-2.9c0-1.7-.4-3.3-1-3.6-.5-.3-1-1.5-1-2.6 0-1-.4-1.9-.9-1.9s-.8-2.9-.8-6.5.4-6.5.7-6.5c.4 0 1.3-1.1 2-2.5 1-1.9 1-2.7.1-3.9-1-1.2-.8-2 .9-4.4 1.9-2.6 2.2-4.4 2.5-20.4.2-9.7 0-19.1-.4-20.9-.4-1.9-.5-7.5-.1-12.4.4-6.2.2-10.4-.7-13.4-.7-2.5-1.3-9.4-1.3-15.6 0-9.7-.2-11.4-2-13.3-2.1-2.2-2.6-4.2-1.1-4.2.5 0 1.1.7 1.5 1.5.3.8 1.5 1.5 2.7 1.5 2 0 2.1-.1.5-2.5-2.1-3.2-2-3.5.9-3.5 1.9 0 2.5.5 2.5 2.3 0 1.3-.5 2.8-1.2 3.5-.8.8-.9 1.8-.1 3.4 2.9 6.2 3.3 8.7 3.3 18.6 0 6 .4 11.2.9 11.8 1.6 1.7 1.9 10.2.5 12.1-1.9 2.5-1.7 3.3.6 3.3 1.6 0 2-.7 2-3.5 0-1.9.5-3.5 1-3.5 1.1 0 1.4-3.3.3-4.4-.7-.7-.9-2.1-1.6-11.4-.4-4.8-.2-6.6 1.1-7.8 1.3-1.3 1.3-2.1.4-4.8-.7-1.8-1.2-5.5-1.2-8.4 0-2.8-.4-5.4-1-5.7-.5-.3-1-2.5-1-4.8-.1-5-1.5-7.2-6.6-9.8-5.4-2.7-8.4-2.5-8.4.5 0 1.6.7 2.6 2.1 2.9 2.9.8 2.2 5.1-.8 5.5-1.3.2-2.3 0-2.4-.5-.1-.4-.2-2.2-.4-4-.1-1.7-.8-5.4-1.5-8.2-1.1-4.6-1-5.4.9-8.4 2.5-4.1 2.7-9.4.4-14.2-1.6-3.4-1.8-3.5-7.3-3.5-5.6 0-5.6 0-7.3 3.8-2.4 5.5-2.2 10.6.8 15 1.4 2 2.5 3.9 2.5 4.3 0 1.8-4.1 4.9-6.4 4.9-1.4 0-2.6.4-2.6 1 0 .5-.6 1-1.4 1-.7 0-1.9.7-2.6 1.5-.7.8-2.1 1.5-3.1 1.5-1.1 0-1.9.4-1.9.9s-.8 1.1-1.9 1.4c-1.3.3-2 1.8-2.5 5.5-1 7.9-3.3 7.6-4.2-.6-.8-7.8-2.8-10.2-8.3-10.2-4.6 0-9.1-3.7-9.1-7.4 0-2.6 1.7-6.5 3.3-7.7 1.3-1-.4-10.7-2.3-12.9-1.2-1.4-3-2-5.6-2-4.1 0-3.7-.5-7.5 8.7-.5 1.3-1.7 2.3-2.7 2.3-2 0-5.2 2.9-5.2 4.8 0 .7-.3 1.2-.8 1.2-1.9 0-3.2 5.6-2.1 9.4 1 3.6.9 4.1-1.5 6.2-3.2 3-4.4 3-8-.1-1.9-1.6-4.1-2.5-6.3-2.5-2 0-4.1-.8-5.3-2-2.1-2.1-2.7-7.4-1-8.5 1.6-1 1.3-16.4-.4-18.1-1.5-1.4-11.6-2-12.9-.7zM256 478c0 .5-.4 1-1 1-.5 0-1-.5-1-1 0-.6.5-1 1-1 .6 0 1 .4 1 1zm9.8 3.9c1.1.7 1 1-.3 1.5-2 .7-3.8-.1-3-1.5.7-1.1 1.6-1.1 3.3 0zm-4.8.5c0 .3-.4.8-1 1.1-.5.3-1 .1-1-.4 0-.6.5-1.1 1-1.1.6 0 1 .2 1 .4zm96 16.1c0 8-.4 11.2-1.6 13-1.7 2.7-4.9 3.3-5.6 1.2-.7-1.8.3-13.7 1.2-13.7.4 0 1-1.8 1.3-4 .5-4.1 2.1-7 3.8-7 .5 0 .9 4.7.9 10.5zm-3.2 24.8c.4 4.5-1.2 4.9-2.7.6-1.5-4.3-1.4-5.1.7-4.7 1.2.2 1.8 1.4 2 4.1zm-76 57.8c.2 14.5-.1 21.1-1 22.7-.9 1.7-.9 2.5 0 3.4 1.8 1.8 1.5 2.8-.8 2.8-1.3 0-2-.7-2-1.9 0-1.1-.4-2.3-1-2.6-1.5-.9-.2-38.9 1.6-44.3.2-.8 1-1.2 1.7-1 .9.4 1.3 5.6 1.5 20.9zM1093.6 443.4c-1.9 3.6-1.8 4.5 2.3 15.8 1.1 3.1 1.8 6.3 1.5 7.1-.7 1.8-4.8 3.7-8 3.7-2.2 0-2.4-.3-1.9-2.3.4-1.2 1.1-2.6 1.6-3.2.5-.5.9-3.7.9-7.1 0-7.4-2.4-11.4-6.9-11.4-2.8 0-6.1 2.6-6.1 4.8 0 .7-.4 1.2-1 1.2-1.2 0-1.3 7.4-.1 9.8 3.3 6.4 3.6 7.5 2.4 7.9-.7.3-1.3.9-1.3 1.5 0 1.7-2.4 3.3-7 4.8-2.5.7-6 2.4-7.8 3.7-3.1 2.3-7.2 2.5-7.2.3 0-.4-2.3-1.3-5-2-6.3-1.5-10.9-6.7-9.3-10.3 1.8-3.9 3.3-9.3 3.3-11.8 0-2.4-2.9-7.9-5.6-10.6-1.8-1.8-7.5-1.3-8.4.7-.4.8-1.2 2.5-1.8 3.7-2.3 4.4-.8 16.3 2 16.3.4 0 .8 2 .8 4.5 0 3.8-.3 4.5-2 4.5-1.1 0-2 .4-2 1 0 .5-.7 1-1.5 1-.9 0-2.6.7-4 1.6-2.4 1.6-8.9 1.1-10.1-.7-.3-.5-1.4-.9-2.5-.9-2.9 0-2.6-6.4.6-10.6 2-2.6 2.5-4.4 2.5-8.8 0-4.8-.4-5.9-3.4-9-1.8-2-3.9-3.6-4.5-3.6-.7 0-2.8 1.5-4.7 3.4l-3.6 3.5.5 7.8c.3 4.3.8 9.3 1.2 11.1 1.1 4.7-1.5 8.2-6 8.2-1.9 0-3.5.4-3.5 1 0 .5-.8 1-1.9 1-1 0-2.4.7-3.1 1.5-1.4 1.7-4 2-4 .6s-5.9-4.1-8.9-4.1c-1.5 0-4.2-1.3-6.1-2.8-3.3-2.8-3.3-2.8-2-7.3.7-2.4 1.5-6.9 1.7-9.9.4-4.9.1-5.8-2.2-8.3-3-3.1-4.6-3.3-8.6-1-5.4 3.2-6.1 11.5-1.6 19.4l2.2 3.8-2.9 3c-2.3 2.4-3.8 3.1-6.9 3.1-6 0-8.1 2.3-8.6 9.5-.3 5.8-1.3 8.5-3.2 8.5-.5 0-.9-1.8-.9-4 0-3.1-.7-4.8-3.1-7.4-1.7-1.9-4.1-3.7-5.5-4-1.3-.4-2.4-1.1-2.4-1.6 0-.6-.9-1-2-1s-2-.5-2-1c0-.6-.9-1-2.1-1-4.2 0-6.6-5.9-3.7-8.8.8-.8 1.2-4 1.1-8.8-.1-6.5-.4-7.7-2.4-9.5-4.3-3.7-12.9.3-12.9 6.1 0 1.4-.4 3-1 3.6-1 1 .7 7.3 2.3 8.5.5.3.7 2.6.5 5-.3 4.3-.4 4.4-3.5 4.1-5.1-.5-13.3 2.9-13.3 5.5 0 .4-.8 1.8-1.8 3l-1.7 2.3-8.5-4.3c-9.4-4.6-10.4-6.2-7.6-11.9.9-1.7 1.6-3.7 1.6-4.5 0-.7.5-1.3 1-1.3 1.4 0 1.2-7.6-.2-10.3-1.7-2.9-6-6.7-7.6-6.7-.7 0-2.8 1.6-4.7 3.5-3.3 3.2-3.5 3.9-3.5 9.9 0 3.6.5 6.8 1 7.1.6.3 1 2.6 1 4.9 0 5.4-3.7 9.6-8.2 9.6-1.7 0-4.2.9-5.8 2-2.7 1.9-2.8 1.9-5.1.1-1.3-1-4.2-2.1-6.3-2.5-4-.8-9.6-5.5-9.6-8.2 0-.8-.4-1.4-1-1.4-.9 0-.6-1.3 2.7-8.8 1.2-2.8 1.2-3.6-.3-6.7-.9-1.9-2-3.5-2.5-3.5s-.9-.9-.9-2c0-2.2-1.9-2.6-5-1-1.1.5-2.8 1.4-3.9 1.9-2.4 1.2-4.1-.4-4.1-3.9 0-3.3-4.8-8-8.1-8-3.8 0-6.8 3.9-8 10.3-.9 5.2-.8 6 1 8.6 2.6 3.7 2.7 8.2.2 9.8-1 .6-3.5 1.5-5.5 1.8-2 .4-3.9 1.1-4.2 1.6-.3.5-1.5.9-2.7.9-1.3 0-3 1.2-4.2 3-2.4 3.7-4.8 3.8-6.3.5-.9-1.9-.9-3.1 0-4.8.6-1.2 1.5-3 2-3.9.4-1 .8-4.2.8-7.1 0-4.3-.5-5.8-2.2-7.4-3.2-2.8-8-3.6-10.7-1.7-3.2 2.3-5.1 1.1-5.1-3.1 0-3.8-1.8-6.5-4.4-6.5-.9 0-1.6-.5-1.6-1 0-1.7-3.6-1.1-5.1.7-4.4 5.6-5.1 11.3-1.9 16.5 1.1 1.8 2 4.1 2 5.1 0 3.9-8.9 9.7-14.8 9.7-.7 0-2.1.7-3 1.6-1.3 1.4-1.6 3.7-1.5 13.2.1 6.4-.2 12.1-.6 12.7-.5.5-1.1 2.6-1.4 4.5-.8 4.9-4 14-5 14-.5 0-1.5-.6-2.3-1.4-1-1.1-1.4-4.3-1.4-12.8 0-10.4-.2-11.5-2.4-14.1-1.7-2-3.2-2.7-5.9-2.7-6 0-14.2-9.2-11-12.4.4-.4 1.3-2.5 1.9-4.7 1.5-4.8.4-9.2-3.1-13.3l-2.5-2.9-3.9 2.7c-4.2 2.9-5.5 6.4-4.4 11.7.7 3.7-.9 5.1-4.7 4.2-4.4-1-6.2-3.3-5.5-7.1.3-1.9 1.4-4.3 2.4-5.4 2.1-2.2 3.1-6.9 2.4-11.5-.6-4-5.3-9.3-8.2-9.3-4.8 0-10 9.5-8 14.7.5 1.3.9 3.8.9 5.4 0 1.6.5 3.8 1.2 4.8 2 3.2-2.1 7.6-8.4 9.1-5.5 1.3-8.8 3.4-8.8 5.5 0 1.4-2.5 2.7-3.4 1.8-1-1-.7-4.3.4-4.3.6 0 1-.9 1-1.9 0-1.1.5-2.3 1-2.6 1.4-.8 1.3-6.1-.2-10.1-1.3-3.6-8.8-8-9.6-5.6-.2.6-.9 1.2-1.6 1.2-.7 0-2 .8-2.9 1.8-2.2 2.4-2.3 11.8-.1 16 2.2 4.5.3 13.1-2.1 9.2-.4-.6-1.5-.6-3.2.1-3.1 1.2-5.3.5-5.3-1.6 0-.8-.4-1.5-1-1.5-.5 0-1-.5-1-1.1 0-1.8-2.7-3.9-5-3.9-1.2 0-3.1-.5-4.2-1.1-1.5-.8-2.7-.8-4.4.2-2.9 1.5-3.4 1.1-4.1-3.8-.4-2.9 0-4.4 1.6-6.2 3-3.5 3.4-5.8 2-11-1.6-6.2-3.8-8.1-9.1-8.1-3.8 0-4.5.4-6.1 3.1-2.3 4.2-2.2 12.4.2 17.3 1.6 3.1 1.8 4.2.8 5.7-.6 1-1.5 1.9-1.9 1.9-1.7 0-13.5 5.9-15.6 7.8-2.9 2.6-4.1 7.5-4.2 17 0 5-.5 8-1.6 9.8-1.3 1.9-1.6 4-1.2 9.5.3 3.9 1.1 7.5 1.7 7.9.8.4 1.2 3.4 1.1 8.6-.2 11.8-.1 13.4 1 13.4.6 0 1-.7 1-1.6 0-1.1.6-1.4 2-.9 1.5.5 2 .2 2-1.2 0-1.1-.5-2.4-1.1-3-.6-.6-1.1-4-1.1-7.4 0-5-.4-6.9-1.9-8.5l-2-2.2 3.2-1.1c2.6-.9 3-1.3 1.9-2.6-.8-.9-1-2.7-.6-4.7.4-1.8.8-4.4 1-5.8.2-1.4 1.1-4.9 2.1-7.8 1.3-3.8 2.2-5.2 3.4-5 1.3.3 1.7 2 1.9 10.2.2 6-.1 10.3-.8 11.1-1.4 1.7-1.6 33.5-.3 36.1.6 1 1.6 6.2 2.3 11.4.7 5.2 1.7 10.6 2.2 11.9.5 1.5.5 2.8-.2 3.5-1.3 1.3-1.3 9.3 0 10.1.6.3 1 2.3 1 4.4 0 2 .4 4.1.8 4.7 1.4 1.5 3.2 8.9 3.2 13 .1 2.2.7 5 1.5 6.4 2.1 3.7 1.9 7.1-.5 7.7-3.4.9-2.2 2.3 2.1 2.3h4.1l-.6-5.8c-.3-3.1-.5-7.3-.5-9.2.1-6.8 0-34-.1-37.3-.2-4.7 1.1-11.7 2.1-11.7.5 0 .9.7.9 1.5s.5 1.5 1 1.5c.6 0 1 1.4 1 3 0 1.7.7 4.4 1.5 5.9 1.2 2.5 1.2 3.1 0 4.1-1.9 1.5-2 33.6-.1 34.7.6.5 1.8 2.7 2.6 5.1 1.2 3.9 1.6 4.3 4.3 4 3.6-.4 4.4-1.9 2.2-4.1-.8-.9-1.5-2.2-1.5-3.1 0-.8-.4-1.8-1-2.1-.5-.3-1-4.2-1-8.5 0-6.4.3-8.1 1.8-9.2 3.2-2.3 6.5-26.5 4.2-30.8-.9-1.6-.9-2.5.1-3.6.6-.8 1.2-3.3 1.2-5.7-.1-2.3.4-4.8.9-5.5.7-.8.7-1.7-.2-2.7-1.3-1.5-.9-15.8.7-26.5.9-5.3.9-5.4 1.7-2.3.4 1.8 1.2 3.3 1.7 3.3 1.2 0 1.2 11.7-.1 12.5-1.4.9-1.3 5.1.2 7.5 1 1.6 1 2.4.1 3.9s-.9 2.1-.1 2.3c1.7.6 1.3 31.8-.4 33.1-1 .7-1 1 0 1.4.8.3 1.2 2.7 1.2 6.8s.5 6.6 1.4 7.4c.7.6 1.6 2.6 2 4.4.3 1.7 1.2 6 2 9.5 1.2 5.6 1.2 6.8-.2 10.3-.8 2.1-1.9 3.9-2.4 3.9-.4 0-.8.9-.8 2s-.4 2-1 2c-.5 0-1 .4-1 1 0 .5 2 1 4.5 1 4.3 0 4.5-.1 4.5-2.8 0-1.6.9-3.7 2-4.7 2.2-2 2.6-4.5.9-6.2-.7-.7-.9-3.2-.4-6.9.9-7.8.9-19.9 0-25.2-.5-2.8-.3-4.8.4-5.5.6-.6 1.1-2.1 1.1-3.3 0-2.7 1.1-3.6 3-2.4 1.9 1.2 2 16.4.2 19.7-1 1.7-.9 3.4.3 7.9 2 7.7 2 22.2 0 26-.8 1.6-1.5 3.9-1.5 5.1 0 2.1.5 2.3 4.5 2.3 5 0 5.7-1.3 2.5-4.8-1.2-1.2-1.6-2.3-1-2.7.6-.3 1-1.9 1-3.6 0-1.6.5-2.9 1-2.9.6 0 1-2.2 1-4.8 0-2.9.9-6.6 2.1-9.3 1.8-3.6 2.3-6.6 2.5-16.7.2-6.7.8-13.1 1.4-14.2.5-1 1-3.9 1-6.3 0-2.9.5-4.7 1.4-5 2.1-.8 2.6.2 2.6 5.5 0 2.7.5 4.8 1.1 4.8.6 0 .9 2.2.8 5.5-.1 3.2.3 6.1.9 6.7.7.7 1.2 2 1.2 2.9 0 1.6 3.3 3.2 4.4 2.1.3-.3.6-7.9.6-16.9 0-9 .3-16.3.8-16.3 2.3 0 3.3 4.8 3.3 16.2 0 7.6.4 12.7 1.1 13.5.8 1 .8 1.7 0 2.5-.7.7-1.2 4.7-1.2 10 0 6.2-.4 8.8-1.2 8.8-.9 0-.9.3 0 1.2.7.7 1.2 2.6 1.2 4.4 0 2.3 1 4 3.5 6.5 2.8 2.7 3.5 4.1 3.4 6.9-.2 5.6 0 6 2.2 6 1.6 0 2-.4 1.4-1.8-1.4-3.8-1.7-7.4-.7-9.5 1.1-2.2 1.6-6.3 2.8-22.7.4-4.7 1.1-8.8 1.5-9.1.5-.3 1.1-5.9 1.4-12.4.3-6.6 1-12.4 1.5-12.9.6-.6 1-3.6 1-6.7 0-7.2.7-8.9 3.5-8.9 2 0 2.3.6 2.9 6.7.3 3.8 1 9.5 1.6 12.8.5 3.3 1.2 9.2 1.5 13.1.3 3.9 1.2 9.3 2 12 .8 2.7 1.5 6.6 1.5 8.6s.5 4 1 4.3c.6.3 1 4.2 1 8.5s.4 8.1.8 8.4c.5.3.8 2.6.8 5.1-.1 3 .3 4.5 1.2 4.5.9 0 1.2-3 1.2-11.9 0-9 .3-12.1 1.4-13 1.1-1 1.3-3.3.9-10.9-.3-5.3-1-10.2-1.5-10.9-1.4-1.7-.7-21.3.9-24.3.7-1.4 1.3-3.2 1.3-4.1 0-.8.5-2 1.1-2.6 1.1-1.1.7-11.4-.6-16.7-.7-2.5-.6-2.8 1.2-2.2 1.3.4 2.8-.1 4.4-1.5l2.4-2.1 1.5 2.4c.8 1.2 2.3 3.1 3.3 4 1 1.1 1.7 3.3 1.7 5.7 0 3.9 2 6.8 4 5.6 1.8-1.1 5 .5 5 2.6 0 1 .5 1.9 1 1.9 1.2 0 .2 13.9-1.2 15.7-.5.6-1 4.6-1 8.8-.1 4.1-.5 7.8-.9 8.1-1.4.8-1 4 .5 5.4 1.1.8 1.5 3.4 1.4 9.3 0 4.5.1 8.6.3 9.2.2.5-.1 2-.5 3.3-.5 1.4-.3 2.8.4 3.7.6.8.9 1.9.5 2.5-.7 1.1 2.2 2.6 3.2 1.7.3-.4.7-4.6.9-9.4.1-4.8.7-12.9 1.3-17.8.6-5 1.4-11.7 1.7-15 .2-3.3.9-6.9 1.4-8 .5-1.1 1.4-7 2.1-13 .6-6.1 1.2-11.9 1.4-13 .2-1.1.4-2.6.4-3.3.1-.6 1.1-1.2 2.2-1.2 1.8 0 2 .4 1.4 2.7-1.5 5.7-1.7 13.6-.4 15.9.9 1.8.9 2.7 0 3.7-1.5 1.9-1.8 13.4-.4 14.8.8.8.8 1.8.1 3.5-.8 1.7-.8 2.7.1 3.8.7.8 1.3 3 1.3 4.8.1 1.8.7 4.2 1.4 5.3 1.8 2.7 3.1 17.5 1.5 17.5-.6 0-1.1.7-1.1 1.5s-.4 1.5-1 1.5c-.5 0-1 1.3-1 3 0 2.7.3 3 3 3 2.6 0 3-.4 3-2.6 0-2.1.4-2.5 2.3-2.2 1.4.2 2.2 1 2.2 2.2 0 1 1 2.2 2.3 2.7 1.3.5 2.2 1.7 2.2 3 0 1.5.4 1.9 1.6 1.5.9-.3 2.4-.6 3.5-.6 2.1 0 2.7-3.6.7-4.2-1-.4-1-1.6 0-5.7.7-2.9 1.2-7 1.2-9.1 0-2.1.5-4.2 1-4.5.6-.3 1-1.9 1-3.6 0-1.6.5-2.9 1-2.9.6 0 1-1.5 1-3.4s.5-3.8 1.1-4.2c.7-.4.9-3.5.6-8.8-.4-5.7.1-10.8 1.4-17.5 1-5.1 1.9-10.4 1.9-11.6 0-1.5.8-2.6 2-3 3-.9 4 .2 4 4.5 0 2.1.5 4.2 1 4.5.6.4 1 5.7 1 12.5s.4 12.1 1 12.5c.6.3 1 1.7 1 3s.6 3 1.4 3.8c.8.7 1.6 4 1.9 7.3.3 3.2 1 7.9 1.5 10.4.9 3.6.8 5-.4 6.8-2.3 3.5-1.1 5.2 3.5 5.2h3.9v4.9c0 3.4-.5 5.1-1.5 5.5-2.3.9-.5 2.6 2.8 2.6 2.8 0 2.9-.2 2.8-4.3 0-2.3-.3-6-.7-8.2-1.1-6.1 2.1-11.2 4.5-7.2 1 1.8 6 3 6.8 1.8.3-.5.1-1.2-.4-1.5-.5-.3-1.2-2.1-1.5-4-.4-1.9-1.2-3.6-1.8-3.8-1.5-.5-1.2-15.9.4-16.9.6-.4.9-2.1.5-4.2-.4-2.8-.2-3.4 1.1-3.3 1.4.1 1.7-1 2-5.9.1-3.3.8-7 1.4-8.3.9-1.7.9-2.5 0-3.4-1.2-1.2-1.7-11.8-.6-11.8 1.8 0 3.4 3.4 3.4 7.4 0 4.2.5 8.7 3 25.1 2.6 17.4 4.1 29.6 3.6 30.4-.3.5.1 1.4.9 2.1 1.6 1.4 2 5.6.6 6.4-1.1.7-.8 5.6.5 7.9.7 1.1 1.6 1.5 2.7 1.1 1.4-.5 1.5-.9.6-2.1-.9-1-.9-1.7-.1-2.5 1.5-1.5 1.6-7.5.1-8.4-.7-.4-.8-2.1-.5-4.3 2-11.7 2.4-31.8.7-35-2.2-4.1-.7-22.2 2.1-25.8.6-.7 1.1-2.9 1.1-5 .2-3.1.6-3.9 2.3-4.1 2-.3 2.2-.8 1.9-6-.4-7.9-.3-7.8-1.9-5.7-2.1 2.9-4.6 1.2-4.6-3.3 0-2.1-.5-4.3-1.1-4.9-1-1-1.6-22.9-.6-23.9.2-.3 1.2-.2 2.1.2 1.2.5 1.6 2 1.6 7 0 3.5.4 6.4.9 6.4s1.8 2.3 3 5.1c2.1 4.8 2.1 5.2.5 7-1.4 1.6-1.5 2.1-.3 3.5s1.4 1.4 2.5 0c.6-.9 1.8-1.4 2.6-1.1 1.2.5 1.6 3.9 2.2 16.5.6 14.8 1.8 25.4 3.3 29 .3.8.7 2.8.8 4.5.5 6.2 2.8 17.1 4 18.9 1.4 1.9 1 8.2-.7 10.3-.5.7-.5 1.4.2 1.8 1.2.7 1.4 10.5.2 10.5-1.3 0-3.9 5.4-3.5 7.2.6 2.7 7.9 2.5 9.5-.2 1.7-2.6 4.1-2.7 3.3-.1-.5 1.6-.1 1.9 3 1.8 3.4-.1 4.5-1 2.5-2.2-.5-.3-1-1.6-1-2.9 0-1.2-.5-2.7-1.1-3.3-.7-.7-1.2-3.1-1.2-5.4 0-2.4.5-4.5 1.2-4.7.6-.2 1.1-2.1 1.1-4.2s.5-4.2 1-4.5c.6-.3 1-2.1 1-3.9 0-1.7.4-3.6.9-4.1.9-1 1.7-5.6 2.7-15.3.5-4.8.4-5.3-1.3-5-1.6.3-1.8-.5-2.1-6.5-.3-5.9-.1-6.7 1.5-6.7 2.4 0 5.3-11.9 5.3-21.6 0-4 .5-7.5 1.2-8.2.8-.8.9-1.8.1-3.4-1.4-3-3-7.6-3.7-10.9-.3-1.5-1.4-2.9-2.6-3.2-1.1-.3-2-1.2-2-2.1 0-1.8 1.6-2.1 2.6-.5.9 1.6 2.4-.9 2.4-4.2 0-1.4.6-3.4 1.4-4.5 3.5-4.6 5.1 4.3 6.1 32.5.2 8.6.6 10.7 2.1 11.8 2.3 1.7 3.7.6 3-2.4-.4-1.3-.4-2.8 0-3.4.3-.5.5-9.1.4-19 0-11.5.4-19.4 1.1-21.7 2.6-8.2 3.2-9.2 5-9.2 1.8 0 1.9.9 1.9 11.4 0 6.6-.4 11.7-1 12.1-.6.4-1 6-1.1 13.3 0 7-.4 16-.8 20s-.3 7.6.1 7.8c1.2.7 1 6.5-.4 12.5-1 4.1-1 5.3 0 5.7.8.2 1.2 2.5 1.2 6.3 0 3.3.4 6.7.9 7.7 3.7 7.2 5 19.6 2.7 24.1-3.5 6.8-4 8.1-2.9 9.2 1.8 1.8 8.3-1.5 8.3-4.2 0-1.3 1-3.3 2.2-4.6 1.8-2 2-2.6 1-4.8-1.4-3.1-1.6-13.7-.2-15.1.6-.6.4-3.9-.4-9.2-1.2-7.5-1.2-9 .5-15.4 1-3.9 2.1-7.3 2.3-7.5 1.3-1.3 3 5 2.8 10.2-.1 3.3-.3 9.8-.5 14.5-.1 4.7.2 12.4.6 17.3.8 7.2.6 9.3-.7 12.1-2.7 5.7-1.9 11.6 1.5 11.6 1 0 1.9-.4 1.9-.9s1-1.1 2.3-1.5c1.6-.4 1.9-.8.9-1.4-1.4-.9-1.7-5.8-.8-10.7.4-1.7.9-5.3 1.2-8 .4-2.8 1-5.5 1.4-6 .4-.6 1.1-2.9 1.5-5.2.4-2.4 1.1-4.5 1.6-4.8.4-.3.8-5.8.8-12.2 0-6.8.4-12 1.1-12.7.5-.5 1-3.4 1-6.2 0-2.9.5-5.6 1-5.9.6-.3 1-1.5 1-2.7 0-1.1.8-2.2 2-2.5 1-.3 2.2-1.4 2.5-2.4 1-2.9 4.5-2.5 4.5.6 0 3.4 1.2 3.1 2.9-.6.9-2.2 1-3.3.3-3.8-1.3-.8-1.3-13.1-.1-13.1.5 0 .9-1.1.9-2.4 0-1.4.5-2.8 1-3.1.6-.3 1-1.7 1-3.1 0-1.3.4-2.4.9-2.4s1.2-1.1 1.5-2.5c.4-1.4 1.1-2.5 1.6-2.5.6 0 1-2.3 1-5 0-5 .6-6 2.7-3.9.9.9.8 1.9-.2 4-.9 1.6-1.2 4-.9 5.7.4 1.7.1 3.2-.5 3.6-.6.4-1.1 3.3-1.1 6.4 0 3.1-.7 7.7-1.6 10.2-1.8 4.9-1.4 19.2.5 22.9.6 1.1 1.1 4.2 1.1 7 0 2.7.4 5.2 1 5.6.9.6.6 12.2-.4 13.3-.3.3-.6 2.4-.6 4.7 0 2.2-.5 4.6-1.2 5.3-1.1 1.1-.3 10.8 2.2 27.6.6 3.7.6 6.5 0 7.7-1.8 3.3-1.2 4.9 2 4.9 2.3 0 3-.5 3-1.9 0-1.1-.4-2.3-1-2.6-1.2-.8-1.3-14.2-.1-14.9.5-.3 1.2-6.2 1.6-13.1.4-6.9 1.1-12.7 1.5-13 1.1-.7 2.2-9.6 2.5-19.4.2-9.9 2.5-24.4 3.9-25.3 3.3-2.2 3.3-1.9 6.6 25.2.6 5.2 1.5 10.4 2 11.5.5 1.1 1.2 4.9 1.5 8.5.4 3.6 1.3 9.3 2.1 12.8 1.8 8.1 1.9 27.8.2 28.5-1.7.6-.9 1.3 2.5 2.1 2.7.6 2.7.6 2.8-5.1.1-3.2 0-9.7-.1-14.6-.1-6.3.1-8.7 1-8.7 1.7 0 .7-18-1.4-24.5-1.5-4.8-1.6-11.8-.2-13.2.3-.3.6-1.9.6-3.4 0-3.6 1.7-7.9 3.7-9.4 1.1-.8 1.4-2 1-3.7-.4-1.4-.1-3.3.8-4.5.8-1.2 1.6-4 1.8-6.4.2-2.4.7-5.2 1.2-6.2.4-.9.5-2.4.1-3.2-.3-1 .1-1.5 1.3-1.5 2.6 0 6.4 6 4.9 7.7-.7.9-.7 2.6.1 5.7.6 2.5 1.1 5.9 1.1 7.5 0 1.7.9 4.5 2 6.3 2.3 3.8 2.8 13.6.8 16.8-1 1.5-1 2.4-.1 3.9.6 1 1.7 6.5 2.3 12.2.6 6 1.6 10.8 2.4 11.4 1.4 1.1 1 8.5-.5 8.5-.4 0-.8 3.2-.8 7.1 0 4-.4 7.6-1 8.2-.6.6-1.1 2.4-1.1 3.9 0 2.5.4 2.8 3.3 2.8h3.3l-.3-29.8c-.2-16.3-.1-30.8.2-32.1.6-2.2.7-2.2 2.5-.6s2.5 9.2 2.9 29c.1 6.2-1.1 17.3-2.2 19.4-.9 1.9-.9 2.5.1 2.8.6.3 1.2 1.8 1.2 3.4 0 4.1 2.7 7.9 5.6 7.9 2.4 0 3.2-1.4 1.4-2.5-.5-.3-1-1.7-1-3.1 0-1.3-.4-2.4-.8-2.4-.5 0-1.5-1.8-2.2-3.9-1.1-3.6-1.1-4.2.9-6.9 1.3-1.8 2.1-4.5 2.1-6.9 0-2.1.6-4.7 1.4-5.8 2.4-3.5 4.4-20.9 2.6-23-1.4-1.6-2.4-12-1.5-14.4 1.1-2.9 2.5 1.1 2.5 7.2 0 3.2.4 5.6.9 5.3.4-.3.9-6.8.9-14.4.1-7.6.6-15.1 1.2-16.6.5-1.5 1-6.9.9-11.9-.2-23.4.6-29.5 3.2-23.1 1.3 3.2 1.2 17-.2 19.5-.4.9-.4 2 .1 2.5.4.5 1.1 7 1.4 14.4.2 7.4.5 13.6.5 13.7.1.2.8.3 1.6.3 2.3 0 4.7 6.2 4.3 11.6-.2 4-.6 4.8-2 4.6-1.5-.2-1.8.5-1.8 4.8 0 2.7.4 5 .9 5s.9 2.1.9 4.6c.1 2.5.6 5.2 1.2 5.9.6.8 1.3 2.4 1.4 3.7.7 5.3 1.9 9.9 2.7 10.4 1.2.7 1.2 6.9 0 9.2-2.4 4.5-3.9 8.7-3.5 9.4 2 3.3 7.4-2.4 7.4-7.8 0-1.2.6-2.4 1.3-2.7.9-.3.9-.7-.1-2-2.1-2.6-2.6-14.6-1.4-34.7.6-9.8 1-11.5 2.5-11.8 1.8-.4 1.7-.9 2 34.3 0 2.2-.1 6-.2 8.5-.2 2.5-.2 7.3-.2 10.7l.1 6.3h4c3.9 0 4-.1 3.4-2.8-.4-1.5-1.2-3.4-1.9-4.2-.7-.8-1.5-4.1-1.9-7.3-.3-3.1-.9-8.2-1.2-11.2-.4-3.5-.3-5.5.4-5.5.5 0 1.3-1.7 1.7-3.7.4-2.1 1-4.2 1.3-4.8.4-.5.8-2.8.9-5 .2-2.2.7-5.3 1.2-7 .6-1.6 1.3-5.1 1.7-7.8.5-4.1.4-4.6-1-4.1-1.1.4-1.6.1-1.6-1 0-.9.4-1.6.9-1.6.9 0 1.3-2.1 2.7-13.5.3-2.8 1-5.4 1.5-6 .5-.5.9-3.9.9-7.7 0-5.4.3-6.9 1.8-7.7.9-.5 2.5-2.7 3.6-4.8 1-2.1 2.2-4.6 2.7-5.5.5-1 .9-2.7.9-3.7 0-1.1.5-2.3 1-2.6.6-.3 1-3.1 1-6.1 0-4.7.3-5.4 1.9-5.4 3.6 0 3.9 8.8.9 26-1.4 8.3-3.1 12-5.3 12-1.8 0-2.1 5.6-.3 6.2.7.3 1.1 1.9 1 4.1-.2 2 .1 3.7.6 3.7 1.3 0 3.7 5.1 3.4 7.1-.2 1 .1 2.7.7 3.7 1.4 2.7 1.8 15.2.4 16-1.4.9-2.8 21.9-1.5 23.5 1.1 1.5 2.4 14.2 1.4 15.1-1.1 1.1-.9 9 .2 11 .8 1.4.8 2-.2 2.3-.6.3-1 .8-.7 1.3.3.5 1.9.1 3.6-.7 2.1-1.1 2.7-1.8 1.9-2.3-1.4-.9-.8-15.8 1.1-27 .5-3.6 1.3-9.9 1.5-14 .3-4.1 1-7.9 1.5-8.5.5-.5.9-3.7.9-7.1 0-3.5.4-6.5.8-6.8.5-.3 1.2-4.7 1.6-9.8.5-7.1 1-9.7 2.5-11.1 2.6-2.6 4.1-1.4 4.1 3.3 0 2.1.5 4.2 1 4.5.6.3 1 3.3 1 6.5s.4 6.1.9 6.5c1.1.6.9 4-.4 6.8-.8 1.9 1.2 13.5 2.6 15.2.5.5.9 4.3.9 8.5.1 5 .6 8.1 1.5 9.4 1.1 1.5 1.2 2.3.3 3.3-.8 1-.8 1.7 0 2.5 1.6 1.6 1.5 8.5 0 9.1-1 .3-1 .7.1 2 1.3 1.7 1.2 5.4-.4 9.1-.7 1.7-.6 1.8 1.1 1.1 1-.4 2.7-.8 3.6-.9 1.6 0 1.6-.2.3-2.3-2-3-1.9-4.6.6-6.1 1.1-.7 1.8-1.9 1.5-2.7-.3-.8.1-1.8.8-2.2 2.1-1.2 2.7-8.8.9-11.3-1.3-1.8-1.4-4.9-.9-18.8.6-17.2 1.7-28.6 2.8-29.7.3-.3 1.3.1 2.2 1 1.1 1.2 1.4 2.9 1.1 6.5-1.3 13.5-1.5 21.9-.5 22.5 1.4.8 1.3 11.8-.1 13.2-.9.9-.8 2.8.1 7.6 1.2 5.8 1.1 6.8-.3 9.1-.9 1.4-1.7 2.8-1.7 3.1 0 .3 2 .5 4.5.5 3.8 0 4.5-.3 4.5-2 0-1.1-.4-2-1-2-.5 0-1-.9-1-2s-.4-2-.9-2c-1.3 0-1.1-24.1.1-25.7.6-.7 1.2-3.4 1.4-6 1.3-13.9 1.7-16.3 2.4-16.3.4 0 1-2.3 1.2-5 .3-2.8.8-5.3 1.1-5.6 1.4-1.5 3.7 2.7 3.7 6.8 0 2.4.4 4.8.9 5.3.6.6 1.2 6.4 1.4 13 .2 6.6.9 13.8 1.6 16 .7 2.2 1.9 7.4 2.7 11.5.8 4.1 1.9 8.8 2.4 10.4.7 2.3.6 3.6-.6 5.4-.9 1.3-1.2 2.7-.8 3 .4.4.9.1 1.1-.6.3-.6 1.2-1.2 2-1.2 1.2 0 1.3.3.4 1.4-.9 1.1-.7 1.5.8 1.9 1.1.3 2.2.2 2.5-.1 1.1-1 .6-10.1-.5-10.8-.7-.4-.8-2.2-.5-4.8.4-2.2.9-6.4 1.2-9.1.3-2.8.8-5.7 1.1-6.5 1-2.5 2.2 6.1 1.6 11.5-.4 4.5-.2 5.3 2.1 7.4 1.4 1.4 2.6 3.1 2.6 3.9 0 1.9 3.8 5.2 6.1 5.2 3 0 3.1-1.8.3-6.7-2.3-4-2.7-6-2.7-12.2 0-4.7.5-7.6 1.3-8.1s1-1.8.5-3.8c-.4-2.1-.2-3.3.8-3.9 2.4-1.4 3.4-13.2 2.2-24.9-.4-3.5-.3-6.4.2-6.7.5-.4.6-3.5.2-7.7-.5-4.6-.4-8 .3-9.5.7-1.6.7-3.3.1-5.2-.6-1.5-1.1-6.4-1.2-10.8-.1-4.4-.6-8.4-1.2-9-1.3-1.3-1.1-10.9.3-12.3.9-.9.9-1.5 0-2.4-.7-.7-1.2-2.9-1.2-4.9 0-2.8.5-3.8 2-4.2 1.4-.4 2 0 2 1.2 0 .9.7 2.6 1.5 3.7.8 1 1.5 2.9 1.5 4.1 0 1.2.4 2.5 1 2.8.5.3.9 3.2.8 6.3-.3 10.1.4 20.2 1.3 20.2 1.6 0 .9 3.4-1.1 6-2.5 3.2-2.5 3.7 0 4.5 1.4.4 2 1.5 2 3.6 0 3.7 1.4 3.7 3-.1.7-1.6 1.8-3.5 2.6-4.1 2-1.6 1.8-2.4-1.1-3.7-2.8-1.3-3.2-3.7-1.3-8.9 1.1-3 1-3.5-1.1-4.9-2.8-2-2.7-7.1.2-6.6 1.7.3 1.8-.2 1.4-5-.3-2.9-1.1-8-1.7-11.3-2-11.4-2.4-18.5-.9-18.6 8.1-.5 13.4.1 14.6 1.7.9 1.2 1 2.1.2 3-.7.9-.7 1.9.1 3.4.7 1.3.8 3.2.2 5.3-1.2 4.5.1 18.7 1.9 19.8.8.5 1.7.9 2.2.9.4 0 .7-10.1.7-22.5 0-22.3 0-22.6-2-21.5-1.1.6-2 1.7-2 2.5 0 3.1-14.9 4.1-22.7 1.5-6.6-2.2-10.9-2.5-11.9-.9-1.1 1.8-2.4-1.2-2.4-5.8 0-2.6.6-4.8 1.7-5.9 2.2-2.2 2.2-11.7-.1-14-.9-.8-1.6-2.2-1.6-3 0-1-1.3-1.4-4.4-1.4-6.3 0-8.6 3.1-8.6 11.5 0 3.5.6 7.5 1.4 9 2 3.9.7 7.9-2.7 8.3-1.5.2-2.7-.1-2.7-.7s-.6-1.1-1.4-1.1c-.7 0-1.9-.7-2.6-1.5-.7-.8-2.8-1.5-4.7-1.5-1.9 0-4.1-.6-4.9-1.4-1.6-1.7-1.9-10.2-.4-11.1 1.4-.9 1.2-11.6-.2-14.8-1.2-2.5-1.8-2.7-7.3-2.7-5.8 0-6.1.1-7.9 3.4zm-291.8 23.5c-.2 3.4-.7 4.7-2 4.9-1.5.3-1.8-.4-1.8-4.6 0-5.4.5-6.3 2.6-5.5 1.1.4 1.4 1.8 1.2 5.2zm-54.8-1.2c0 2.5-.1 2.6-1.6 1.1-.9-.9-1.3-2.1-1-2.7 1.3-2 2.6-1.1 2.6 1.6zm353 6.3c-1.9 1.3-3 1.3-3 0 0-.6 1-1 2.3-1 1.8 0 1.9.2.7 1zm-368 6c0 .5-.4 1-1 1-.5 0-1-.5-1-1 0-.6.5-1 1-1 .6 0 1 .4 1 1zm275 2c0 .5-.5 1-1.1 1-.5 0-.7-.5-.4-1 .3-.6.8-1 1.1-1 .2 0 .4.4.4 1zm68 1c0 .5-.4 1-1 1-.5 0-1-.5-1-1 0-.6.5-1 1-1 .6 0 1 .4 1 1zm-254.3 5.2c-.3.8-.6.5-.6-.6-.1-1.1.2-1.7.5-1.3.3.3.4 1.2.1 1.9zm238.3 8.1c0 1-.6 2.5-1.4 3.2-1.2 1.2-1.5.8-2-2.6-.8-4.9.2-6.9 2.1-4.4.7 1.1 1.3 2.7 1.3 3.8zm-76 1.2c0 2.5-.4 4.5-1 4.5-1.1 0-1.4-7.3-.3-8.3 1.1-1.2 1.3-.8 1.3 3.8zm24-.5c0 .5-.5 1-1.1 1-.5 0-.7-.5-.4-1 .3-.6.8-1 1.1-1 .2 0 .4.4.4 1zm-281.2 11c.3 7.2-2 21.3-3.9 23.5-.4.6-.9 4.2-1.1 8-.3 8-2.3 9.8-4.7 4.3-.8-1.8-2.3-3.9-3.4-4.7-2.7-2-1.9-9.7 1.7-15.1 1.4-2.2 2.6-4.6 2.6-5.3 0-.7.9-2.3 2-3.5 1.5-1.6 2-3.5 2-8 0-6.3.5-7.4 3-7 1.2.3 1.6 2 1.8 7.8zm196.9-5.8c1 2.2 2 6.5 4.1 18.6 1.5 9.1-1.4 19.3-5.1 17.9-1-.4-1.6-3.4-2.1-11.9-1.3-19.7-1.3-25.3-.2-26 1.7-1.2 2.2-1 3.3 1.4zm66.9 10c-.8 10.9-1.9 15.3-3.7 14.2-1.5-.9-.5-22 1.1-24 2.5-3 3.3-.2 2.6 9.8zm-214.8-8c1.6 1.6 1.7 24.4.1 25.4-2.2 1.3-3.2-1.8-3.7-11.5-.6-13.2.4-17.1 3.6-13.9zm159 2.1c.2 1.9-.1 2.7-1.2 2.7-1.1 0-1.6-1-1.6-3.1 0-3.8 2.4-3.5 2.8.4zm40.7 2.3c.1 4.3 1.1 9 2.6 11.7.6 1.1.6 2.4-.1 3.7-1.2 2.2-.6 7.3 1 7.8.5.2 1 1.7 1 3.3 0 2.2-.5 2.9-2 2.9-2.5 0-4.5-6.8-3.6-12.3.4-2.1.3-4.4-.1-5-3-4.7-4.4-15.1-2-16 2.4-1 3.2 0 3.2 3.9zm-133.1 6.6c-.7 11.9-.9 12.9-2.6 12.3-3.1-1.2-1.4-22.5 1.8-22.5 1.2 0 1.3 1.8.8 10.2zm211.6-3.1c0 .5-.4.9-1 .9-.5 0-1-.7-1-1.6 0-.8.5-1.2 1-.9.6.3 1 1 1 1.6zm-353.2 8c.2 1.9.8 3.9 1.2 4.4 1.2 1.4 1.6 8.7.6 10.3-.4.7-1.6 1.2-2.7 1.2-1.5 0-1.9-.7-1.9-3.5 0-1.9-.4-3.5-1-3.5-1.4 0-1.3-5.6.2-9.7s3.2-3.8 3.6.8zm353.2 1.5c0 .8-.4 1.2-1 .9-.5-.3-1-1-1-1.6 0-.5.5-.9 1-.9.6 0 1 .7 1 1.6zm-197.5 72.1c.3 6.3.1 14.4-.5 18.1-.6 4.3-.6 6.8 0 7 1.5.5 1.2 2.2-.4 2.2-2 0-2.9-5.7-3.1-19-.1-6.3-.3-13.6-.5-16.2-.3-5.7 1.8-9.5 3.2-5.7.5 1.3 1.1 7.4 1.3 13.6zM1140 581c0 .5-.4 1-1 1-.5 0-1-.5-1-1 0-.6.5-1 1-1 .6 0 1 .4 1 1zm-144.5 10c.3.5.1 1-.4 1-.6 0-1.1-.5-1.1-1 0-.6.2-1 .4-1 .3 0 .8.4 1.1 1zM855 626.9c0 2.2-1.3 3.9-2.6 3.4-2.2-.8-1.7-4.3.6-4.3 1.1 0 2 .4 2 .9zM510.8 446.3c-3.7 3-5.8 7.6-5.8 12.4 0 2.7.3 5.3.7 5.7 1.7 1.7 2.8 7.2 1.9 9.6-.9 2.7-4.6 5-8 5-1 0-3.4 1.1-5.2 2.5-3.8 2.9-3.8 2.9-5.6 1.2-2.4-2.1-5.7-3.7-7.8-3.7-2.9 0-6.9-2.9-9-6.3-1.7-2.8-1.7-3 .6-7 2.5-4.4 3.1-8.9 1.4-11-.5-.7-2.2-2.7-3.8-4.6l-2.8-3.4-4.2 2.8c-4.1 2.7-4.2 2.9-4.2 8.4 0 3.6.7 7 1.9 9.5 3.4 6.5 0 11.5-7.7 11.6-2.4 0-4.9.6-5.7 1.3-1.5 1.6-2.4 8.2-3.1 23-.4 8.2-1 11.7-2.5 14.3-1 1.9-1.9 5.2-1.9 7.4s-.4 4-1 4c-.5 0-1.2 1.1-1.6 2.5-.3 1.4-1 2.5-1.5 2.5s-.9.9-.9 1.9c0 1.1-.5 2.1-1 2.3-1.4.4-2.2 7.6-.9 8.3 1.4.9 3.8-2.5 3.9-5.4 0-1.4.6-3.2 1.4-4 1.9-2.1 5.6-8.9 5.6-10.2 0-1.4 2.6-3.9 4-3.9.9 0 1 2.7.5 10.7-1 12.9-.8 20.4.6 29.9.7 4.1.8 10.7.4 16-.9 12.3-.9 26.8.2 40.4.7 9.1.6 11.8-.4 12.8-2.2 2.3-1.5 2.9 3.3 3 3.5.1 4.4-.2 3.6-1.1-1.1-1.3-2.3-7.8-2.3-11.7.1-5.9 1.3-14.6 2.2-15.4.5-.6.9-4.4.9-8.6 0-4.2.4-8 .9-8.5 1.3-1.5 2.8-13.3 2.5-20-.1-3.5.6-9.3 1.7-13.7 1-4.3 1.9-8.7 1.9-9.8 0-1.3.7-2 2-2 1.7 0 2 .7 2 4.9 0 2.8.5 5.3 1 5.6.6.3 1 3.7 1 7.4s.4 7.1.9 7.6c.5.6 1.1 4.1 1.4 8 .5 6.3 1.7 14.4 4.8 32 1.7 9.8 2.2 19.6 1 20.8-1.6 1.6-1.3 2.7.8 2.7 1 0 2.2-1 2.6-2.3 1.2-3.5 1.3-10.1.2-11.4-.6-.9-.6-2.7.1-5.3.6-2.3.6-4.2.1-4.6-1.5-.9-1-4.1.7-4.8 1.5-.6 1.6-2 1.1-11.7-.3-6.3-1.1-11.7-1.8-12.5-1.1-1.3-1-5.7.4-19.5.2-1.4 1.3-3.6 2.6-5 1.6-1.7 2.1-3.2 1.7-5.1-.4-2.1 0-3 1.4-3.8 1.6-.9 2-2.1 2-6.4 0-4.9 1.5-11.6 2.7-11.6 2.1 0 3.4 3.8 3.8 11.6.3 4.7.9 9.2 1.4 9.8.5.6 1.2 6.5 1.4 13.1.6 13.5 1.5 20.5 2.8 22 .5.5.9 3.4.9 6.5 0 3.2.6 7 1.4 8.6 1.5 3.2 1.1 21.4-.5 21.4-.5 0-.9 1.1-.9 2.5s-.4 2.5-1 2.5c-.5 0-1 .9-1 2 0 1.7.7 2 3.9 2 3.8 0 4-.1 3.9-3.3 0-1.7 0-13.3.1-25.7 0-12.4-.2-24.4-.4-26.7-.3-2.8 0-4.5 1-5.3 1.6-1.4 1.5-1.7 3.4 6.3 1.5 6.4 1.5 35.9-.1 37.5-1.7 1.7-1.3 10 .6 12.1.9 1 1.6 2.5 1.6 3.4 0 1.1.8 1.7 2.5 1.7 2.5 0 3.5-2.3 1.5-3.5-.5-.3-1-1.7-1-3.1 0-1.3-.4-2.4-1-2.4-.5 0-1-2.2-1-4.9 0-2.8.5-5.3 1-5.6.6-.3 1-1.9 1-3.6 0-1.6.5-2.9 1-2.9.6 0 1-1.3 1-2.8 0-1.5.5-3.3 1-3.8.6-.6 1.3-3.5 1.6-6.5.3-3 1-6.6 1.6-8.1.6-1.5.7-4.4.4-6.4-.6-2.9-1-3.3-2.2-2.4-1.1 1-1.4.9-1.4-.4 0-2.4 2.5-4.7 3.7-3.5.5.5.9-1.5 1-5.4.1-10.6 1.5-26.1 2.5-27.4.6-.7.5-1.9-.2-3.2-.7-1.4-.7-2.1 0-2.1.5 0 1-2 1-4.5 0-3.4.5-4.7 2-5.5 1.1-.6 2-1.7 2-2.5 0-.9.6-2.4 1.2-3.5 1-1.6 1-2.4 0-4.1-.7-1.1-1.3-4.6-1.3-7.7-.1-11-.7-15.3-2.3-17.1-1.8-2-2.1-3.7-.6-4.6.5-.3 1.9.9 2.9 2.6 1.5 2.5 2.2 2.9 2.6 1.8.8-2-4.3-7.9-6.7-7.9-1 0-1.8-.5-1.8-1 0-.6-.9-1-1.9-1-1.1 0-2.3-.5-2.6-1-.3-.6-1.4-1-2.4-1-2.7 0-4.4-2.5-3.2-4.7 3.3-6.2 6.1-13 6.1-15 0-1.7-3.8-9.4-5.4-10.9-1-1-5.6-1.1-6.8-.1zm-35.3 37.6c-.3.6-1.1 1.1-1.6 1.1s-.4-.6.3-1.4c1.4-1.6 2.4-1.3 1.3.3zm50.6 7.6c0 .5-1.2 1.1-2.6 1.3-1.8.2-2.5-.1-2.5-1.3s.7-1.5 2.5-1.3c1.4.2 2.6.7 2.6 1.3zM498 507.7c0 3.5-.4 5.3-.9 4.7-.9-.8-.3-10.4.5-10.4.2 0 .4 2.6.4 5.7zm32.5 7.5c.4 4.1.2 4.8-1.3 4.8-1 0-2.4-.9-3.2-2-.8-1.1-2.2-2-3.1-2-2.1 0-2.9-.9-2.2-2.6.4-1.2.8-1.2 2-.2 1.6 1.3 3.3-.3 3.3-3.4 0-.9.5-2.9 1.2-4.5l1.1-2.8.9 4c.5 2.2 1.1 6.1 1.3 8.7zm-45.7-6.7c.6 4.4-.7 9.5-2.3 9.5-1.2 0-1.5-1.4-1.5-5.8 0-3.2.3-6.2.7-6.6 1.3-1.3 2.8.1 3.1 2.9zM487 532c0 1.1-.7 2-1.5 2s-1.5-.9-1.5-2 .7-2 1.5-2 1.5.9 1.5 2z"/><path d="M535.2 495.6c.4 2.1 2.2 2.3 2.6.1.2-1-.3-1.7-1.3-1.7s-1.5.6-1.3 1.6zM251.3 503.7c-.7.2-1.3 1.7-1.3 3.3 0 1.5-.6 3.3-1.4 4-2 1.6-.9 3.9 1.5 3.3 1.5-.4 1.9 0 1.9 2.3 0 4.4 1.7 1.5 2.7-4.7.7-4.1.6-6.1-.2-7.3-1.3-1.7-1.3-1.7-3.2-.9zM1177.7 520.4c-.3.7-.2 3 .3 4.9.6 3 .5 3.4-.8 3-.9-.4-1.3-.2-.9.4.8 1.3-1.1 7.2-3 9.5-2.1 2.4-.8 3.8 3.8 3.8h3.9v-10.4c0-7.6-.4-10.7-1.4-11.5-1-.9-1.5-.8-1.9.3zM249 522.5c-.7.9-1 1.8-.7 2.1 1 1.1 3.7-.5 3.7-2.1 0-1.9-1.4-1.9-3 0zM248 529.5c0 .8.5 1.5 1 1.5.6 0 1-.7 1-1.5s-.4-1.5-1-1.5c-.5 0-1 .7-1 1.5zM1058 531.4c0 .9.7 2.5 1.6 3.4 1.5 1.5 1.6 1.4.9-.8-1-3.3-2.5-4.9-2.5-2.6zM250 534.9c0 1.7.5 3.1 1 3.1.6 0 1-1.1 1-2.4 0-1.4-.4-2.8-1-3.1-.6-.4-1 .7-1 2.4zM1023 570.4c0 1.4.5 2.6 1 2.6.6 0 1-.9 1-1.9 0-1.1-.4-2.3-1-2.6-.6-.4-1 .5-1 1.9zM319.4 576.4c-.8 2.2.4 6.8 1.6 6.1 1.3-.8 1.3-6.2 0-7-.6-.3-1.3.1-1.6.9zM654.1 600.6c0 1.1.3 1.4.6.6.3-.7.2-1.6-.1-1.9-.3-.4-.6.2-.5 1.3zM652.6 607.6c-.3.9-.6 3.7-.6 6.3 0 2.6-.7 5.6-1.5 6.7-.8 1-1.5 3.1-1.5 4.5 0 2.2.5 2.8 3 3.1 1.7.3 3.2.2 3.5 0 .3-.3.5-5.4.5-11.4 0-8.6-.3-10.8-1.4-10.8-.8 0-1.7.7-2 1.6z"/></svg>