<?xml version="1.0" standalone="no"?>
<!DOCTYPE svg PUBLIC "-//W3C//DTD SVG 20010904//EN"
 "http://www.w3.org/TR/2001/REC-SVG-20010904/DTD/svg10.dtd">
<svg version="1.0" xmlns="http://www.w3.org/2000/svg"
 width="1350.000000pt" height="1080.000000pt" viewBox="0 0 1350.000000 1080.000000"
 preserveAspectRatio="xMidYMid meet">

<g transform="translate(0.000000,1080.000000) scale(0.100000,-0.100000)"
fill="#000000" stroke="none">
<path d="M1930 6390 c0 -5 -8 -10 -18 -10 -11 0 -26 -8 -35 -18 -22 -25 -24
-134 -2 -156 8 -8 15 -32 15 -55 0 -36 -4 -42 -32 -55 -18 -8 -54 -17 -80 -21
l-46 -6 0 -50 c-1 -28 -5 -56 -10 -62 -6 -7 -9 -60 -8 -120 1 -80 -2 -107 -11
-107 -9 0 -13 -21 -13 -70 0 -38 3 -70 8 -70 4 0 18 25 31 55 13 30 30 55 37
55 17 0 18 32 2 48 -8 8 -8 15 2 27 7 8 17 15 23 15 10 0 8 -20 -19 -180 -20
-112 -23 -308 -6 -365 14 -50 16 -239 2 -266 -6 -10 -13 -54 -17 -96 -4 -60
-2 -87 11 -117 24 -56 23 -211 -1 -225 -15 -8 -16 -11 -3 -15 8 -3 26 -7 39
-8 l24 -3 3 125 c4 181 14 323 24 335 12 16 24 114 21 181 -2 37 2 65 8 68 6
4 11 37 11 77 0 55 3 69 15 69 17 0 20 -16 5 -25 -15 -9 -12 -35 4 -35 25 0
26 -15 11 -101 -9 -54 -11 -87 -5 -93 13 -13 13 -63 0 -71 -5 -3 -10 -31 -10
-61 0 -30 5 -54 10 -54 6 0 10 -28 10 -65 0 -37 4 -65 10 -65 6 0 10 -15 10
-33 0 -18 4 -37 10 -43 5 -5 12 -35 16 -66 5 -42 2 -64 -10 -88 -9 -18 -16
-39 -16 -47 0 -7 -4 -13 -10 -13 -16 0 -11 -40 6 -47 17 -6 74 42 74 64 0 17
34 17 48 0 6 -7 12 -33 14 -57 3 -40 6 -45 28 -48 14 -2 34 4 44 11 18 13 19
16 4 31 -13 12 -15 29 -11 78 3 35 9 67 14 72 5 6 9 29 9 52 0 24 4 45 9 48
14 9 23 71 27 185 2 57 8 118 13 135 5 17 12 57 16 88 3 32 11 60 16 63 5 4 9
53 9 111 0 57 2 104 5 104 2 0 16 -5 30 -12 20 -9 25 -18 25 -49 0 -21 -4 -41
-10 -44 -19 -12 -11 -35 12 -32 15 1 24 -5 29 -23 9 -33 9 -33 21 110 25 322
2 550 -54 550 -10 0 -18 3 -18 8 0 9 -46 30 -95 43 l-35 10 0 129 c0 80 -4
130 -10 130 -5 0 -10 6 -10 14 0 8 -14 16 -32 19 -43 7 -97 -27 -105 -65 -6
-31 -33 -39 -33 -10 0 9 9 32 20 50 20 33 28 112 11 112 -5 0 -12 8 -16 18 -3
11 -17 24 -31 30 -31 15 -34 15 -34 2z m348 -677 c-1 -16 6 -40 16 -56 11 -16
20 -53 23 -88 4 -58 4 -60 -16 -47 -12 7 -21 21 -21 30 0 10 -4 18 -8 18 -4 0
-14 21 -21 46 -10 34 -11 48 -2 57 6 6 11 24 11 39 0 15 5 28 10 28 6 0 9 -12
8 -27z"/>
<path d="M2657 6393 c-4 -3 -7 -17 -7 -30 0 -14 -5 -33 -10 -43 -7 -13 -7 -21
0 -25 5 -3 10 -15 10 -27 0 -11 9 -33 21 -49 13 -18 19 -40 17 -61 -3 -28 -9
-34 -48 -48 -112 -39 -140 -71 -140 -157 0 -50 4 -67 20 -83 12 -12 20 -33 20
-55 0 -19 5 -35 10 -35 6 0 10 18 10 39 0 22 4 42 9 46 13 8 41 -35 41 -63 0
-17 4 -23 15 -18 25 9 45 -5 45 -31 0 -18 -8 -27 -29 -34 -16 -6 -32 -20 -36
-32 -4 -12 -8 -24 -9 -27 -17 -37 -13 -145 9 -285 2 -11 4 -42 4 -68 1 -40 4
-47 19 -45 14 3 17 -7 20 -61 2 -41 -1 -67 -9 -71 -14 -10 -14 -149 0 -163 6
-6 11 -26 11 -43 0 -18 5 -36 10 -39 6 -3 10 -30 10 -58 0 -40 5 -57 20 -70
25 -21 25 -47 1 -95 -10 -20 -21 -48 -22 -62 -3 -21 0 -26 24 -28 25 -3 28 -1
22 17 -5 15 -2 21 9 21 9 0 16 5 16 10 0 6 5 10 10 10 6 0 10 -13 10 -30 0
-29 2 -30 45 -30 50 0 58 16 29 59 -12 17 -17 51 -20 128 -2 87 0 111 16 141
12 25 20 69 24 132 9 147 12 164 24 168 17 5 15 52 -3 72 -15 16 -10 60 6 60
5 0 9 42 9 93 0 92 19 165 40 152 5 -3 6 -74 3 -158 -5 -167 9 -411 28 -497 7
-30 13 -75 14 -100 1 -49 10 -75 33 -102 9 -11 12 -28 8 -48 -3 -16 -9 -45
-12 -62 -4 -18 -11 -36 -16 -39 -6 -4 -5 -14 3 -27 10 -17 11 -25 1 -44 -7
-13 -14 -36 -15 -53 -2 -27 1 -30 28 -33 40 -3 65 12 47 30 -14 14 -16 84 -3
93 9 5 41 -87 41 -117 0 -19 59 -11 67 8 3 8 -7 37 -21 66 -30 60 -33 103 -10
116 12 7 18 27 21 66 2 31 11 69 19 84 7 15 14 44 14 64 0 20 5 40 10 43 15 9
12 85 -3 90 -17 7 -17 135 1 135 6 0 12 -4 12 -10 0 -5 4 -10 9 -10 4 0 9 52
10 116 2 111 10 154 31 154 5 0 11 -64 13 -142 2 -79 9 -165 16 -193 11 -45
14 -79 25 -230 2 -23 9 -51 15 -64 7 -13 11 -33 8 -45 -3 -11 -10 -39 -16 -61
-15 -56 -7 -77 27 -69 41 10 44 14 28 38 -18 28 -13 110 16 278 7 46 8 71 1
80 -26 33 -33 198 -13 328 15 100 17 203 6 282 -10 65 -2 108 19 108 8 0 15
-6 15 -14 0 -7 7 -19 15 -26 11 -10 15 -36 15 -112 0 -85 3 -102 20 -120 16
-18 20 -19 20 -5 0 8 -4 19 -10 22 -5 3 -10 13 -10 21 0 11 7 13 28 8 15 -4
29 -11 31 -17 2 -5 12 -18 23 -29 26 -26 48 -107 48 -175 0 -28 4 -54 9 -57 5
-3 8 -57 8 -120 0 -64 4 -120 10 -128 5 -7 18 -57 28 -111 10 -54 22 -100 26
-103 12 -7 12 -54 0 -54 -15 0 -22 -32 -10 -46 15 -18 47 -18 66 1 13 14 13
22 3 58 -7 23 -13 62 -13 87 1 430 4 490 22 490 30 0 42 -106 28 -254 -4 -33
-2 -65 3 -71 6 -7 6 -39 1 -81 -6 -53 -5 -75 6 -96 7 -16 18 -28 23 -28 6 0
10 -13 10 -30 0 -27 3 -30 30 -30 27 0 30 3 30 29 0 17 -4 33 -10 36 -5 3 -10
15 -10 26 0 10 -4 19 -9 19 -5 0 -8 29 -8 65 0 36 4 65 7 65 4 0 13 11 20 25
10 19 10 27 1 39 -10 12 -8 20 9 44 19 26 22 44 25 204 2 97 0 191 -4 209 -4
19 -5 75 -1 124 4 62 2 104 -7 134 -7 25 -13 94 -13 156 0 97 -2 114 -20 133
-21 22 -26 42 -11 42 5 0 11 -7 15 -15 3 -8 15 -15 27 -15 20 0 21 1 5 25 -21
32 -20 35 9 35 19 0 25 -5 25 -23 0 -13 -5 -28 -12 -35 -8 -8 -9 -18 -1 -34
29 -62 33 -87 33 -186 0 -60 4 -112 9 -118 16 -17 19 -102 5 -121 -19 -25 -17
-33 6 -33 16 0 20 7 20 35 0 19 5 35 10 35 11 0 14 33 3 44 -7 7 -9 21 -16
114 -4 48 -2 66 11 78 13 13 13 21 4 48 -7 18 -12 55 -12 84 0 28 -4 54 -10
57 -5 3 -10 25 -10 48 -1 50 -15 72 -66 98 -54 27 -84 25 -84 -5 0 -16 7 -26
21 -29 29 -8 22 -51 -8 -55 -13 -2 -23 0 -24 5 -1 4 -2 22 -4 40 -1 17 -8 54
-15 82 -11 46 -10 54 9 84 25 41 27 94 4 142 -16 34 -18 35 -73 35 -56 0 -56
0 -73 -38 -24 -55 -22 -106 8 -150 14 -20 25 -39 25 -43 0 -18 -41 -49 -64
-49 -14 0 -26 -4 -26 -10 0 -5 -6 -10 -14 -10 -7 0 -19 -7 -26 -15 -7 -8 -21
-15 -31 -15 -11 0 -19 -4 -19 -9 0 -5 -8 -11 -19 -14 -13 -3 -20 -18 -25 -55
-10 -79 -33 -76 -42 6 -8 78 -28 102 -83 102 -46 0 -91 37 -91 74 0 26 17 65
33 77 13 10 -4 107 -23 129 -12 14 -30 20 -56 20 -41 0 -37 5 -75 -87 -5 -13
-17 -23 -27 -23 -20 0 -52 -29 -52 -48 0 -7 -3 -12 -8 -12 -19 0 -32 -56 -21
-94 10 -36 9 -41 -15 -62 -32 -30 -44 -30 -80 1 -19 16 -41 25 -63 25 -20 0
-41 8 -53 20 -21 21 -27 74 -10 85 16 10 13 164 -4 181 -15 14 -116 20 -129 7z
m-97 -373 c0 -5 -4 -10 -10 -10 -5 0 -10 5 -10 10 0 6 5 10 10 10 6 0 10 -4
10 -10z m98 -39 c11 -7 10 -10 -3 -15 -20 -7 -38 1 -30 15 7 11 16 11 33 0z
m-48 -5 c0 -3 -4 -8 -10 -11 -5 -3 -10 -1 -10 4 0 6 5 11 10 11 6 0 10 -2 10
-4z m960 -161 c0 -80 -4 -112 -16 -130 -17 -27 -49 -33 -56 -12 -7 18 3 137
12 137 4 0 10 18 13 40 5 41 21 70 38 70 5 0 9 -47 9 -105z m-32 -248 c4 -45
-12 -49 -27 -6 -15 43 -14 51 7 47 12 -2 18 -14 20 -41z m-760 -578 c2 -145
-1 -211 -10 -227 -9 -17 -9 -25 0 -34 18 -18 15 -28 -8 -28 -13 0 -20 7 -20
19 0 11 -4 23 -10 26 -15 9 -2 389 16 443 2 8 10 12 17 10 9 -4 13 -56 15
-209z"/>
<path d="M10936 6366 c-19 -36 -18 -45 23 -158 11 -31 18 -63 15 -71 -7 -18
-48 -37 -80 -37 -22 0 -24 3 -19 23 4 12 11 26 16 32 5 5 9 37 9 71 0 74 -24
114 -69 114 -28 0 -61 -26 -61 -48 0 -7 -4 -12 -10 -12 -12 0 -13 -74 -1 -98
33 -64 36 -75 24 -79 -7 -3 -13 -9 -13 -15 0 -17 -24 -33 -70 -48 -25 -7 -60
-24 -78 -37 -31 -23 -72 -25 -72 -3 0 4 -23 13 -50 20 -63 15 -109 67 -93 103
18 39 33 93 33 118 0 24 -29 79 -56 106 -18 18 -75 13 -84 -7 -4 -8 -12 -25
-18 -37 -23 -44 -8 -163 20 -163 4 0 8 -20 8 -45 0 -38 -3 -45 -20 -45 -11 0
-20 -4 -20 -10 0 -5 -7 -10 -15 -10 -9 0 -26 -7 -40 -16 -24 -16 -89 -11 -101
7 -3 5 -14 9 -25 9 -29 0 -26 64 6 106 20 26 25 44 25 88 0 48 -4 59 -34 90
-18 20 -39 36 -45 36 -7 0 -28 -15 -47 -34 l-36 -35 5 -78 c3 -43 8 -93 12
-111 11 -47 -15 -82 -60 -82 -19 0 -35 -4 -35 -10 0 -5 -8 -10 -19 -10 -10 0
-24 -7 -31 -15 -14 -17 -40 -20 -40 -6 0 14 -59 41 -89 41 -15 0 -42 13 -61
28 -33 28 -33 28 -20 73 7 24 15 69 17 99 4 49 1 58 -22 83 -30 31 -46 33 -86
10 -54 -32 -61 -115 -16 -194 l22 -38 -29 -30 c-23 -24 -38 -31 -69 -31 -60 0
-81 -23 -86 -95 -3 -58 -13 -85 -32 -85 -5 0 -9 18 -9 40 0 31 -7 48 -31 74
-17 19 -41 37 -55 40 -13 4 -24 11 -24 16 0 6 -9 10 -20 10 -11 0 -20 5 -20
10 0 6 -9 10 -21 10 -42 0 -66 59 -37 88 8 8 12 40 11 88 -1 65 -4 77 -24 95
-43 37 -129 -3 -129 -61 0 -14 -4 -30 -10 -36 -10 -10 7 -73 23 -85 5 -3 7
-26 5 -50 -3 -43 -4 -44 -35 -41 -51 5 -133 -29 -133 -55 0 -4 -8 -18 -18 -30
l-17 -23 -85 43 c-94 46 -104 62 -76 119 9 17 16 37 16 45 0 7 5 13 10 13 14
0 12 76 -2 103 -17 29 -60 67 -76 67 -7 0 -28 -16 -47 -35 -33 -32 -35 -39
-35 -99 0 -36 5 -68 10 -71 6 -3 10 -26 10 -49 0 -54 -37 -96 -82 -96 -17 0
-42 -9 -58 -20 -27 -19 -28 -19 -51 -1 -13 10 -42 21 -63 25 -40 8 -96 55 -96
82 0 8 -4 14 -10 14 -9 0 -6 13 27 88 12 28 12 36 -3 67 -9 19 -20 35 -25 35
-5 0 -9 9 -9 20 0 22 -19 26 -50 10 -11 -5 -28 -14 -39 -19 -24 -12 -41 4 -41
39 0 33 -48 80 -81 80 -38 0 -68 -39 -80 -103 -9 -52 -8 -60 10 -86 26 -37 27
-82 2 -98 -10 -6 -35 -15 -55 -18 -20 -4 -39 -11 -42 -16 -3 -5 -15 -9 -27 -9
-13 0 -30 -12 -42 -30 -24 -37 -48 -38 -63 -5 -9 19 -9 31 0 48 6 12 15 30 20
39 4 10 8 42 8 71 0 43 -5 58 -22 74 -32 28 -80 36 -107 17 -32 -23 -51 -11
-51 31 0 38 -18 65 -44 65 -9 0 -16 5 -16 10 0 17 -36 11 -51 -7 -44 -56 -51
-113 -19 -165 11 -18 20 -41 20 -51 0 -39 -89 -97 -148 -97 -7 0 -21 -7 -30
-16 -13 -14 -16 -37 -15 -132 1 -64 -2 -121 -6 -127 -5 -5 -11 -26 -14 -45 -8
-49 -40 -140 -50 -140 -5 0 -15 6 -23 14 -10 11 -14 43 -14 128 0 104 -2 115
-24 141 -17 20 -32 27 -59 27 -60 0 -142 92 -110 124 4 4 13 25 19 47 15 48 4
92 -31 133 l-25 29 -39 -27 c-42 -29 -55 -64 -44 -117 7 -37 -9 -51 -47 -42
-44 10 -62 33 -55 71 3 19 14 43 24 54 21 22 31 69 24 115 -6 40 -53 93 -82
93 -48 0 -100 -95 -80 -147 5 -13 9 -38 9 -54 0 -16 5 -38 12 -48 20 -32 -21
-76 -84 -91 -55 -13 -88 -34 -88 -55 0 -14 -25 -27 -34 -18 -10 10 -7 43 4 43
6 0 10 9 10 19 0 11 5 23 10 26 14 8 13 61 -2 101 -13 36 -88 80 -96 56 -2 -6
-9 -12 -16 -12 -7 0 -20 -8 -29 -18 -22 -24 -23 -118 -1 -160 22 -45 3 -131
-21 -92 -4 6 -15 6 -32 -1 -31 -12 -53 -5 -53 16 0 8 -4 15 -10 15 -5 0 -10 5
-10 11 0 18 -27 39 -50 39 -12 0 -31 5 -42 11 -15 8 -27 8 -44 -2 -29 -15 -34
-11 -41 38 -4 29 0 44 16 62 30 35 34 58 20 110 -16 62 -38 81 -91 81 -38 0
-45 -4 -61 -31 -23 -42 -22 -124 2 -173 16 -31 18 -42 8 -57 -6 -10 -15 -19
-19 -19 -17 0 -135 -59 -156 -78 -29 -26 -41 -75 -42 -170 0 -50 -5 -80 -16
-98 -13 -19 -16 -40 -12 -95 3 -39 11 -75 17 -79 8 -4 12 -34 11 -86 -2 -118
-1 -134 10 -134 6 0 10 7 10 16 0 11 6 14 20 9 15 -5 20 -2 20 12 0 11 -5 24
-11 30 -6 6 -11 40 -11 74 0 50 -4 69 -19 85 l-20 22 32 11 c26 9 30 13 19 26
-8 9 -10 27 -6 47 4 18 8 44 10 58 2 14 11 49 21 78 13 38 22 52 34 50 13 -3
17 -20 19 -102 2 -60 -1 -103 -8 -111 -14 -17 -16 -335 -3 -361 6 -10 16 -62
23 -114 7 -52 17 -106 22 -119 5 -15 5 -28 -2 -35 -13 -13 -13 -93 0 -101 6
-3 10 -23 10 -44 0 -20 4 -41 8 -47 14 -15 32 -89 32 -130 1 -22 7 -50 15 -64
21 -37 19 -71 -5 -77 -34 -9 -22 -23 21 -23 l41 0 -6 58 c-3 31 -5 73 -5 92 1
68 0 340 -1 373 -2 47 11 117 21 117 5 0 9 -7 9 -15 0 -8 5 -15 10 -15 6 0 10
-14 10 -30 0 -17 7 -44 15 -59 12 -25 12 -31 0 -41 -19 -15 -20 -336 -1 -347
6 -5 18 -27 26 -51 12 -39 16 -43 43 -40 36 4 44 19 22 41 -8 9 -15 22 -15 31
0 8 -4 18 -10 21 -5 3 -10 42 -10 85 0 64 3 81 18 92 32 23 65 265 42 308 -9
16 -9 25 1 36 6 8 12 33 12 57 -1 23 4 48 9 55 7 8 7 17 -2 27 -13 15 -9 158
7 265 9 53 9 54 17 23 4 -18 12 -33 17 -33 12 0 12 -117 -1 -125 -14 -9 -13
-51 2 -75 10 -16 10 -24 1 -39 -9 -15 -9 -21 -1 -23 17 -6 13 -318 -4 -331
-10 -7 -10 -10 0 -14 8 -3 12 -27 12 -68 0 -41 5 -66 14 -74 7 -6 16 -26 20
-44 3 -17 12 -60 20 -95 12 -56 12 -68 -2 -103 -8 -21 -19 -39 -24 -39 -4 0
-8 -9 -8 -20 0 -11 -4 -20 -10 -20 -5 0 -10 -4 -10 -10 0 -5 20 -10 45 -10 43
0 45 1 45 28 0 16 9 37 20 47 22 20 26 45 9 62 -7 7 -9 32 -4 69 9 78 9 199 0
252 -5 28 -3 48 4 55 6 6 11 21 11 33 0 27 11 36 30 24 19 -12 20 -164 2 -197
-10 -17 -9 -34 3 -79 20 -77 20 -222 0 -260 -8 -16 -15 -39 -15 -51 0 -21 5
-23 45 -23 50 0 57 13 25 48 -12 12 -16 23 -10 27 6 3 10 19 10 36 0 16 5 29
10 29 6 0 10 22 10 48 0 29 9 66 21 93 18 36 23 66 25 167 2 67 8 131 14 142
5 10 10 39 10 63 0 29 5 47 14 50 21 8 26 -2 26 -55 0 -27 5 -48 11 -48 6 0 9
-22 8 -55 -1 -32 3 -61 9 -67 7 -7 12 -20 12 -29 0 -16 33 -32 44 -21 3 3 6
79 6 169 0 90 3 163 8 163 23 0 33 -48 33 -162 0 -76 4 -127 11 -135 8 -10 8
-17 0 -25 -7 -7 -12 -47 -12 -100 0 -62 -4 -88 -12 -88 -9 0 -9 -3 0 -12 7 -7
12 -26 12 -44 0 -23 10 -40 35 -65 28 -27 35 -41 34 -69 -2 -56 0 -60 22 -60
16 0 20 4 14 18 -14 38 -17 74 -7 95 11 22 16 63 28 227 4 47 11 88 15 91 5 3
11 59 14 124 3 66 10 124 15 129 6 6 10 36 10 67 0 72 7 89 35 89 20 0 23 -6
29 -67 3 -38 10 -95 16 -128 5 -33 12 -92 15 -131 3 -39 12 -93 20 -120 8 -27
15 -66 15 -86 0 -20 5 -40 10 -43 6 -3 10 -42 10 -85 0 -43 4 -81 8 -84 5 -3
8 -26 8 -51 -1 -30 3 -45 12 -45 9 0 12 30 12 119 0 90 3 121 14 130 11 10 13
33 9 109 -3 53 -10 102 -15 109 -14 17 -7 213 9 243 7 14 13 32 13 41 0 8 5
20 11 26 11 11 7 114 -6 167 -7 25 -6 28 12 22 13 -4 28 1 44 15 l24 21 15
-24 c8 -12 23 -31 33 -40 10 -11 17 -33 17 -57 0 -39 20 -68 40 -56 18 11 50
-5 50 -26 0 -10 5 -19 10 -19 12 0 2 -139 -12 -157 -5 -6 -10 -46 -10 -88 -1
-41 -5 -78 -9 -81 -14 -8 -10 -40 5 -54 11 -8 15 -34 14 -93 0 -45 1 -86 3
-92 2 -5 -1 -20 -5 -33 -5 -14 -3 -28 4 -37 6 -8 9 -19 5 -25 -7 -11 22 -26
32 -17 3 4 7 46 9 94 1 48 7 129 13 178 6 50 14 117 17 150 2 33 9 69 14 80 5
11 14 70 21 130 6 61 12 119 14 130 2 11 4 26 4 33 1 6 11 12 22 12 18 0 20
-4 14 -27 -15 -57 -17 -136 -4 -159 9 -18 9 -27 0 -37 -15 -19 -18 -134 -4
-148 8 -8 8 -18 1 -35 -8 -17 -8 -27 1 -38 7 -8 13 -30 13 -48 1 -18 7 -42 14
-53 18 -27 31 -175 15 -175 -6 0 -11 -7 -11 -15 0 -8 -4 -15 -10 -15 -5 0 -10
-13 -10 -30 0 -27 3 -30 30 -30 26 0 30 4 30 26 0 21 4 25 23 22 14 -2 22 -10
22 -22 0 -10 10 -22 23 -27 13 -5 22 -17 22 -30 0 -15 4 -19 16 -15 9 3 24 6
35 6 21 0 27 36 7 42 -10 4 -10 16 0 57 7 29 12 70 12 91 0 21 5 42 10 45 6 3
10 19 10 36 0 16 5 29 10 29 6 0 10 15 10 34 0 19 5 38 11 42 7 4 9 35 6 88
-4 57 1 108 14 175 10 51 19 104 19 116 0 15 8 26 20 30 30 9 40 -2 40 -45 0
-21 5 -42 10 -45 6 -4 10 -57 10 -125 0 -68 4 -121 10 -125 6 -3 10 -17 10
-30 0 -13 6 -30 14 -38 8 -7 16 -40 19 -73 3 -32 10 -79 15 -104 9 -36 8 -50
-4 -68 -23 -35 -11 -52 35 -52 l39 0 0 -49 c0 -34 -5 -51 -15 -55 -23 -9 -5
-26 28 -26 28 0 29 2 28 43 0 23 -3 60 -7 82 -11 61 21 112 45 72 10 -18 60
-30 68 -18 3 5 1 12 -4 15 -5 3 -12 21 -15 40 -4 19 -12 36 -18 38 -15 5 -12
159 4 169 6 4 9 21 5 42 -4 28 -2 34 11 33 14 -1 17 10 20 59 1 33 8 70 14 83
9 17 9 25 0 34 -12 12 -17 118 -6 118 18 0 34 -34 34 -74 0 -42 5 -87 30 -251
26 -174 41 -296 36 -304 -3 -5 1 -14 9 -21 16 -14 20 -56 6 -64 -11 -7 -8 -56
5 -79 7 -11 16 -15 27 -11 14 5 15 9 6 21 -9 10 -9 17 -1 25 15 15 16 75 1 84
-7 4 -8 21 -5 43 20 117 24 318 7 350 -22 41 -7 222 21 258 6 7 11 29 11 50 2
31 6 39 23 41 20 3 22 8 19 60 -4 79 -3 78 -19 57 -21 -29 -46 -12 -46 33 0
21 -5 43 -11 49 -10 10 -16 229 -6 239 2 3 12 2 21 -2 12 -5 16 -20 16 -70 0
-35 4 -64 9 -64 5 0 18 -23 30 -51 21 -48 21 -52 5 -70 -14 -16 -15 -21 -3
-35 12 -14 14 -14 25 0 6 9 18 14 26 11 12 -5 16 -39 22 -165 6 -148 18 -254
33 -290 3 -8 7 -28 8 -45 5 -62 28 -171 40 -189 14 -19 10 -82 -7 -103 -5 -7
-5 -14 2 -18 12 -7 14 -105 2 -105 -13 0 -39 -54 -35 -72 6 -27 79 -25 95 2
17 26 41 27 33 1 -5 -16 -1 -19 30 -18 34 1 45 10 25 22 -5 3 -10 16 -10 29 0
12 -5 27 -11 33 -7 7 -12 31 -12 54 0 24 5 45 12 47 6 2 11 21 11 42 0 21 5
42 10 45 6 3 10 21 10 39 0 17 4 36 9 41 9 10 17 56 27 153 5 48 4 53 -13 50
-16 -3 -18 5 -21 65 -3 59 -1 67 15 67 24 0 53 119 53 216 0 40 5 75 12 82 8
8 9 18 1 34 -14 30 -30 76 -37 109 -3 15 -14 29 -26 32 -11 3 -20 12 -20 21 0
18 16 21 26 5 9 -16 24 9 24 42 0 14 6 34 14 45 35 46 51 -43 61 -325 2 -86 6
-107 21 -118 23 -17 37 -6 30 24 -4 13 -4 28 0 34 3 5 5 91 4 190 0 115 4 194
11 217 26 82 32 92 50 92 18 0 19 -9 19 -114 0 -66 -4 -117 -10 -121 -6 -4
-10 -60 -11 -133 0 -70 -4 -160 -8 -200 -4 -40 -3 -76 1 -78 12 -7 10 -65 -4
-125 -10 -41 -10 -53 0 -57 8 -2 12 -25 12 -63 0 -33 4 -67 9 -77 37 -72 50
-196 27 -241 -35 -68 -40 -81 -29 -92 18 -18 83 15 83 42 0 13 10 33 22 46 18
20 20 26 10 48 -14 31 -16 137 -2 151 6 6 4 39 -4 92 -12 75 -12 90 5 154 10
39 21 73 23 75 13 13 30 -50 28 -102 -1 -33 -3 -98 -5 -145 -1 -47 2 -124 6
-173 8 -72 6 -93 -7 -121 -27 -57 -19 -116 15 -116 10 0 19 4 19 9 0 5 10 11
23 15 16 4 19 8 9 14 -14 9 -17 58 -8 107 4 17 9 53 12 80 4 28 10 55 14 60 4
6 11 29 15 52 4 24 11 45 16 48 4 3 8 58 8 122 0 68 4 120 11 127 5 5 10 34
10 62 0 29 5 56 10 59 6 3 10 15 10 27 0 11 8 22 20 25 10 3 22 14 25 24 10
29 45 25 45 -6 0 -34 12 -31 29 6 9 22 10 33 3 38 -13 8 -13 131 -1 131 5 0 9
11 9 24 0 14 5 28 10 31 6 3 10 17 10 31 0 13 4 24 9 24 5 0 12 11 15 25 4 14
11 25 16 25 6 0 10 23 10 50 0 50 6 60 27 39 9 -9 8 -19 -2 -40 -9 -16 -12
-40 -9 -57 4 -17 1 -32 -5 -36 -6 -4 -11 -33 -11 -64 0 -31 -7 -77 -16 -102
-18 -49 -14 -192 5 -229 6 -11 11 -42 11 -70 0 -27 4 -52 10 -56 9 -6 6 -122
-4 -133 -3 -3 -6 -24 -6 -47 0 -22 -5 -46 -12 -53 -11 -11 -3 -108 22 -276 6
-37 6 -65 0 -77 -18 -33 -12 -49 20 -49 23 0 30 5 30 19 0 11 -4 23 -10 26
-12 8 -13 142 -1 149 5 3 12 62 16 131 4 69 11 127 15 130 11 7 22 96 25 194
2 99 25 244 39 253 33 22 33 19 66 -252 6 -52 15 -104 20 -115 5 -11 12 -49
15 -85 4 -36 13 -93 21 -128 18 -81 19 -278 2 -285 -17 -6 -9 -13 25 -21 27
-6 27 -6 28 51 1 32 0 97 -1 146 -1 63 1 87 10 87 17 0 7 180 -14 245 -15 48
-16 118 -2 132 3 3 6 19 6 34 0 36 17 79 37 94 11 8 14 20 10 37 -4 14 -1 33
8 45 8 12 16 40 18 64 2 24 7 52 12 62 4 9 5 24 1 32 -3 10 1 15 13 15 26 0
64 -60 49 -77 -7 -9 -7 -26 1 -57 6 -25 11 -59 11 -75 0 -17 9 -45 20 -63 23
-38 28 -136 8 -168 -10 -15 -10 -24 -1 -39 6 -10 17 -65 23 -122 6 -60 16
-108 24 -114 14 -11 10 -85 -5 -85 -4 0 -8 -32 -8 -71 0 -40 -4 -76 -10 -82
-6 -6 -11 -24 -11 -39 0 -25 4 -28 33 -28 l33 0 -3 298 c-2 163 -1 308 2 321
6 22 7 22 25 6 18 -16 25 -92 29 -290 1 -62 -11 -173 -22 -194 -9 -19 -9 -25
1 -28 6 -3 12 -18 12 -34 0 -41 27 -79 56 -79 24 0 32 14 14 25 -5 3 -10 17
-10 31 0 13 -4 24 -8 24 -5 0 -15 18 -22 39 -11 36 -11 42 9 69 13 18 21 45
21 69 0 21 6 47 14 58 24 35 44 209 26 230 -14 16 -24 120 -15 144 11 29 25
-11 25 -72 0 -32 4 -56 9 -53 4 3 9 68 9 144 1 76 6 151 12 166 5 15 10 69 9
119 -2 234 6 295 32 231 13 -32 12 -170 -2 -195 -4 -9 -4 -20 1 -25 4 -5 11
-70 14 -144 2 -74 5 -136 5 -137 1 -2 8 -3 16 -3 23 0 47 -62 43 -116 -2 -40
-6 -48 -20 -46 -15 2 -18 -5 -18 -48 0 -27 4 -50 9 -50 5 0 9 -21 9 -46 1 -25
6 -52 12 -59 6 -8 13 -24 14 -37 7 -53 19 -99 27 -104 12 -7 12 -69 0 -92 -24
-45 -39 -87 -35 -94 20 -33 74 24 74 78 0 12 6 24 13 27 9 3 9 7 -1 20 -21 26
-26 146 -14 347 6 98 10 115 25 118 18 4 17 9 20 -343 0 -22 -1 -60 -2 -85 -2
-25 -2 -73 -2 -107 l1 -63 40 0 c39 0 40 1 34 28 -4 15 -12 34 -19 42 -7 8
-15 41 -19 73 -3 31 -9 82 -12 112 -4 35 -3 55 4 55 5 0 13 17 17 37 4 21 10
42 13 48 4 5 8 28 9 50 2 22 7 53 12 70 6 16 13 51 17 78 5 41 4 46 -10 41
-11 -4 -16 -1 -16 10 0 9 4 16 9 16 9 0 13 21 27 135 3 28 10 54 15 60 5 5 9
39 9 77 0 54 3 69 18 77 9 5 25 27 36 48 10 21 22 46 27 55 5 10 9 27 9 37 0
11 5 23 10 26 6 3 10 31 10 61 0 47 3 54 19 54 36 0 39 -88 9 -260 -14 -83
-31 -120 -53 -120 -18 0 -21 -56 -3 -62 7 -3 11 -19 10 -41 -2 -20 1 -37 6
-37 13 0 37 -51 34 -71 -2 -10 1 -27 7 -37 14 -27 18 -152 4 -160 -14 -9 -28
-219 -15 -235 11 -15 24 -142 14 -151 -11 -11 -9 -90 2 -110 8 -14 8 -20 -2
-23 -6 -3 -10 -8 -7 -13 3 -5 19 -1 36 7 21 11 27 18 19 23 -14 9 -8 158 11
270 5 36 13 99 15 140 3 41 10 79 15 85 5 5 9 37 9 71 0 35 4 65 8 68 5 3 12
47 16 98 5 71 10 97 25 111 26 26 41 14 41 -33 0 -21 5 -42 10 -45 6 -3 10
-33 10 -65 0 -32 4 -61 9 -65 11 -6 9 -40 -4 -68 -8 -19 12 -135 26 -152 5 -5
9 -43 9 -85 1 -50 6 -81 15 -94 11 -15 12 -23 3 -33 -8 -10 -8 -17 0 -25 16
-16 15 -85 0 -91 -10 -3 -10 -7 1 -20 13 -17 12 -54 -4 -91 -7 -17 -6 -18 11
-11 10 4 27 8 36 9 16 0 16 2 3 23 -20 30 -19 46 6 61 11 7 18 19 15 27 -3 8
1 18 8 22 21 12 27 88 9 113 -13 18 -14 49 -9 188 6 172 17 286 28 297 3 3 13
-1 22 -10 11 -12 14 -29 11 -65 -13 -135 -15 -219 -5 -225 14 -8 13 -118 -1
-132 -9 -9 -8 -28 1 -76 12 -58 11 -68 -3 -91 -9 -14 -17 -28 -17 -31 0 -3 20
-5 45 -5 38 0 45 3 45 20 0 11 -4 20 -10 20 -5 0 -10 9 -10 20 0 11 -4 20 -9
20 -13 0 -11 241 1 257 6 7 12 34 14 60 13 139 17 163 24 163 4 0 10 23 12 50
3 28 8 53 11 56 14 15 37 -27 37 -68 0 -24 4 -48 9 -53 6 -6 12 -64 14 -130 2
-66 9 -138 16 -160 7 -22 19 -74 27 -115 8 -41 19 -88 24 -104 7 -23 6 -36 -6
-54 -9 -13 -12 -27 -8 -30 4 -4 9 -1 11 6 3 6 12 12 20 12 12 0 13 -3 4 -14
-9 -11 -7 -15 8 -19 11 -3 22 -2 25 1 11 10 6 101 -5 108 -7 4 -8 22 -5 48 4
22 9 64 12 91 3 28 8 57 11 65 10 25 22 -61 16 -115 -4 -45 -2 -53 21 -74 14
-14 26 -31 26 -39 0 -19 38 -52 61 -52 30 0 31 18 3 67 -23 40 -27 60 -27 122
0 47 5 76 13 81 8 5 10 18 5 38 -4 21 -2 33 8 39 24 14 34 132 22 249 -4 35
-3 64 2 67 5 4 6 35 2 77 -5 46 -4 80 3 95 7 16 7 33 1 52 -6 15 -11 64 -12
108 -1 44 -6 84 -12 90 -13 13 -11 109 3 123 9 9 9 15 0 24 -7 7 -12 29 -12
49 0 28 5 38 20 42 14 4 20 0 20 -12 0 -9 7 -26 15 -37 8 -10 15 -29 15 -41 0
-12 4 -25 10 -28 5 -3 9 -32 8 -63 -3 -101 4 -202 13 -202 16 0 9 -34 -11 -60
-25 -32 -25 -37 0 -45 14 -4 20 -15 20 -36 0 -37 14 -37 30 1 7 16 18 35 26
41 20 16 18 24 -11 37 -28 13 -32 37 -13 89 11 30 10 35 -11 49 -28 20 -27 71
2 66 17 -3 18 2 14 50 -3 29 -11 80 -17 113 -20 114 -24 185 -9 186 81 5 134
-1 146 -17 9 -12 10 -21 2 -30 -7 -9 -7 -19 1 -34 7 -13 8 -32 2 -53 -12 -45
1 -187 19 -198 8 -5 17 -9 22 -9 4 0 7 101 7 225 0 223 0 226 -20 215 -11 -6
-20 -17 -20 -25 0 -31 -149 -41 -227 -15 -66 22 -109 25 -119 9 -11 -18 -24
12 -24 58 0 26 6 48 17 59 22 22 22 117 -1 140 -9 8 -16 22 -16 30 0 10 -13
14 -44 14 -63 0 -86 -31 -86 -115 0 -35 6 -75 14 -90 20 -39 7 -79 -27 -83
-15 -2 -27 1 -27 7 0 6 -6 11 -14 11 -7 0 -19 7 -26 15 -7 8 -28 15 -47 15
-19 0 -41 6 -49 14 -16 17 -19 102 -4 111 14 9 12 116 -2 148 -12 25 -18 27
-73 27 -58 0 -61 -1 -79 -34z m-2918 -235 c-2 -34 -7 -47 -20 -49 -15 -3 -18
4 -18 46 0 54 5 63 26 55 11 -4 14 -18 12 -52z m-548 12 c0 -25 -1 -26 -16
-11 -9 9 -13 21 -10 27 13 20 26 11 26 -16z m3530 -63 c-19 -13 -30 -13 -30 0
0 6 10 10 23 10 18 0 19 -2 7 -10z m-3680 -60 c0 -5 -4 -10 -10 -10 -5 0 -10
5 -10 10 0 6 5 10 10 10 6 0 10 -4 10 -10z m2750 -20 c0 -5 -5 -10 -11 -10 -5
0 -7 5 -4 10 3 6 8 10 11 10 2 0 4 -4 4 -10z m680 -10 c0 -5 -4 -10 -10 -10
-5 0 -10 5 -10 10 0 6 5 10 10 10 6 0 10 -4 10 -10z m-2543 -52 c-3 -8 -6 -5
-6 6 -1 11 2 17 5 13 3 -3 4 -12 1 -19z m2383 -81 c0 -10 -6 -25 -14 -32 -12
-12 -15 -8 -20 26 -8 49 2 69 21 44 7 -11 13 -27 13 -38z m-760 -12 c0 -25 -4
-45 -10 -45 -11 0 -14 73 -3 83 11 12 13 8 13 -38z m240 5 c0 -5 -5 -10 -11
-10 -5 0 -7 5 -4 10 3 6 8 10 11 10 2 0 4 -4 4 -10z m-2812 -110 c3 -72 -20
-213 -39 -235 -4 -6 -9 -42 -11 -80 -3 -80 -23 -98 -47 -43 -8 18 -23 39 -34
47 -27 20 -19 97 17 151 14 22 26 46 26 53 0 7 9 23 20 35 15 16 20 35 20 80
0 63 5 74 30 70 12 -3 16 -20 18 -78z m1969 58 c10 -22 20 -65 41 -186 15 -91
-14 -193 -51 -179 -10 4 -16 34 -21 119 -13 197 -13 253 -2 260 17 12 22 10
33 -14z m669 -100 c-8 -109 -19 -153 -37 -142 -15 9 -5 220 11 240 25 30 33 2
26 -98z m-2148 80 c16 -16 17 -244 1 -254 -22 -13 -32 18 -37 115 -6 132 4
171 36 139z m1590 -21 c2 -19 -1 -27 -12 -27 -11 0 -16 10 -16 31 0 38 24 35
28 -4z m407 -23 c1 -43 11 -90 26 -117 6 -11 6 -24 -1 -37 -12 -22 -6 -73 10
-78 5 -2 10 -17 10 -33 0 -22 -5 -29 -20 -29 -25 0 -45 68 -36 123 4 21 3 44
-1 50 -30 47 -44 151 -20 160 24 10 32 0 32 -39z m-1331 -66 c-7 -119 -9 -129
-26 -123 -31 12 -14 225 18 225 12 0 13 -18 8 -102z m2116 31 c0 -5 -4 -9 -10
-9 -5 0 -10 7 -10 16 0 8 5 12 10 9 6 -3 10 -10 10 -16z m-3532 -80 c2 -19 8
-39 12 -44 12 -14 16 -87 6 -103 -4 -7 -16 -12 -27 -12 -15 0 -19 7 -19 35 0
19 -4 35 -10 35 -14 0 -13 56 2 97 15 41 32 38 36 -8z m3532 -15 c0 -8 -4 -12
-10 -9 -5 3 -10 10 -10 16 0 5 5 9 10 9 6 0 10 -7 10 -16z m-1975 -721 c3 -63
1 -144 -5 -181 -6 -43 -6 -68 0 -70 15 -5 12 -22 -4 -22 -20 0 -29 57 -31 190
-1 63 -3 136 -5 162 -3 57 18 95 32 57 5 -13 11 -74 13 -136z m2845 107 c0 -5
-4 -10 -10 -10 -5 0 -10 5 -10 10 0 6 5 10 10 10 6 0 10 -4 10 -10z m-1445
-100 c3 -5 1 -10 -4 -10 -6 0 -11 5 -11 10 0 6 2 10 4 10 3 0 8 -4 11 -10z
m-1405 -359 c0 -22 -13 -39 -26 -34 -22 8 -17 43 6 43 11 0 20 -4 20 -9z"/>
<path d="M5108 6337 c-37 -30 -58 -76 -58 -124 0 -27 3 -53 7 -57 17 -17 28
-72 19 -96 -9 -27 -46 -50 -80 -50 -10 0 -34 -11 -52 -25 -38 -29 -38 -29 -56
-12 -24 21 -57 37 -78 37 -29 0 -69 29 -90 63 -17 28 -17 30 6 70 25 44 31 89
14 110 -5 7 -22 27 -38 46 l-28 34 -42 -28 c-41 -27 -42 -29 -42 -84 0 -36 7
-70 19 -95 34 -65 0 -115 -77 -116 -24 0 -49 -6 -57 -13 -15 -16 -24 -82 -31
-230 -4 -82 -10 -117 -25 -143 -10 -19 -19 -52 -19 -74 0 -22 -4 -40 -10 -40
-5 0 -12 -11 -16 -25 -3 -14 -10 -25 -15 -25 -5 0 -9 -9 -9 -19 0 -11 -5 -21
-10 -23 -14 -4 -22 -76 -9 -83 14 -9 38 25 39 54 0 14 6 32 14 40 19 21 56 89
56 102 0 14 26 39 40 39 9 0 10 -27 5 -107 -10 -129 -8 -204 6 -299 7 -41 8
-107 4 -160 -9 -123 -9 -268 2 -404 7 -91 6 -118 -4 -128 -22 -23 -15 -29 33
-30 35 -1 44 2 36 11 -11 13 -23 78 -23 117 1 59 13 146 22 154 5 6 9 44 9 86
0 42 4 80 9 85 13 15 28 133 25 200 -1 35 6 93 17 137 10 43 19 87 19 98 0 13
7 20 20 20 17 0 20 -7 20 -49 0 -28 5 -53 10 -56 6 -3 10 -37 10 -74 0 -37 4
-71 9 -76 5 -6 11 -41 14 -80 5 -63 17 -144 48 -320 17 -98 22 -196 10 -208
-16 -16 -13 -27 8 -27 10 0 22 10 26 23 12 35 13 101 2 114 -6 9 -6 27 1 53 6
23 6 42 1 46 -15 9 -10 41 7 48 15 6 16 20 11 117 -3 63 -11 117 -18 125 -11
13 -10 57 4 195 2 14 13 36 26 50 16 17 21 32 17 51 -4 21 0 30 14 38 16 9 20
21 20 64 0 49 15 116 27 116 21 0 34 -38 38 -116 3 -47 9 -92 14 -98 5 -6 12
-65 14 -131 6 -135 15 -205 28 -220 5 -5 9 -34 9 -65 0 -32 6 -70 14 -86 15
-32 11 -214 -5 -214 -5 0 -9 -11 -9 -25 0 -14 -4 -25 -10 -25 -5 0 -10 -9 -10
-20 0 -17 7 -20 39 -20 38 0 40 1 39 33 0 17 0 133 1 257 0 124 -2 244 -4 267
-3 28 0 45 10 53 16 14 15 17 34 -63 15 -64 15 -359 -1 -375 -17 -17 -13 -100
6 -121 9 -10 16 -25 16 -34 0 -11 8 -17 25 -17 25 0 35 23 15 35 -5 3 -10 17
-10 31 0 13 -4 24 -10 24 -5 0 -10 22 -10 49 0 28 5 53 10 56 6 3 10 19 10 36
0 16 5 29 10 29 6 0 10 13 10 28 0 15 5 33 10 38 6 6 13 35 16 65 3 30 10 66
16 81 6 15 7 44 4 64 -6 29 -10 33 -22 24 -11 -10 -14 -9 -14 4 0 24 25 47 37
35 5 -5 9 15 10 54 1 106 15 261 25 274 6 7 5 19 -2 32 -7 14 -7 21 0 21 5 0
10 20 10 45 0 34 5 47 20 55 11 6 20 17 20 25 0 9 6 24 12 35 10 16 10 24 0
41 -7 11 -13 46 -13 77 -1 110 -7 153 -23 171 -18 20 -21 37 -6 46 5 3 19 -9
29 -26 15 -25 22 -29 26 -18 8 20 -43 79 -67 79 -10 0 -18 5 -18 10 0 6 -9 10
-19 10 -11 0 -23 5 -26 10 -3 6 -14 10 -24 10 -27 0 -44 25 -32 47 33 62 61
130 61 150 0 17 -38 94 -54 109 -10 10 -56 11 -68 1z m-353 -376 c-3 -6 -11
-11 -16 -11 -5 0 -4 6 3 14 14 16 24 13 13 -3z m506 -76 c0 -5 -12 -11 -26
-13 -18 -2 -25 1 -25 13 0 12 7 15 25 13 14 -2 26 -7 26 -13z m-281 -162 c0
-35 -4 -53 -9 -47 -9 8 -3 104 5 104 2 0 4 -26 4 -57z m325 -75 c4 -41 2 -48
-13 -48 -10 0 -24 9 -32 20 -8 11 -22 20 -31 20 -21 0 -29 9 -22 26 4 12 8 12
20 2 16 -13 33 3 33 34 0 9 5 29 12 45 l11 28 9 -40 c5 -22 11 -61 13 -87z
m-457 67 c6 -44 -7 -95 -23 -95 -12 0 -15 14 -15 58 0 32 3 62 7 66 13 13 28
-1 31 -29z m22 -235 c0 -11 -7 -20 -15 -20 -8 0 -15 9 -15 20 0 11 7 20 15 20
8 0 15 -9 15 -20z"/>
<path d="M5352 5844 c4 -21 22 -23 26 -1 2 10 -3 17 -13 17 -10 0 -15 -6 -13
-16z"/>
<path d="M2513 5763 c-7 -2 -13 -17 -13 -33 0 -15 -6 -33 -14 -40 -20 -16 -9
-39 15 -33 15 4 19 0 19 -23 0 -44 17 -15 27 47 7 41 6 61 -2 73 -13 17 -13
17 -32 9z"/>
<path d="M11777 5596 c-3 -7 -2 -30 3 -49 6 -30 5 -34 -8 -30 -9 4 -13 2 -9
-4 8 -13 -11 -72 -30 -95 -21 -24 -8 -38 38 -38 l39 0 0 104 c0 76 -4 107 -14
115 -10 9 -15 8 -19 -3z"/>
<path d="M2490 5575 c-7 -9 -10 -18 -7 -21 10 -11 37 5 37 21 0 19 -14 19 -30
0z"/>
<path d="M2480 5505 c0 -8 5 -15 10 -15 6 0 10 7 10 15 0 8 -4 15 -10 15 -5 0
-10 -7 -10 -15z"/>
<path d="M10580 5486 c0 -9 7 -25 16 -34 15 -15 16 -14 9 8 -10 33 -25 49 -25
26z"/>
<path d="M2500 5451 c0 -17 5 -31 10 -31 6 0 10 11 10 24 0 14 -4 28 -10 31
-6 4 -10 -7 -10 -24z"/>
<path d="M10230 5096 c0 -14 5 -26 10 -26 6 0 10 9 10 19 0 11 -4 23 -10 26
-6 4 -10 -5 -10 -19z"/>
<path d="M3194 5036 c-8 -22 4 -68 16 -61 13 8 13 62 0 70 -6 3 -13 -1 -16 -9z"/>
<path d="M6541 4794 c0 -11 3 -14 6 -6 3 7 2 16 -1 19 -3 4 -6 -2 -5 -13z"/>
<path d="M6526 4724 c-3 -9 -6 -37 -6 -63 0 -26 -7 -56 -15 -67 -8 -10 -15
-31 -15 -45 0 -22 5 -28 30 -31 17 -3 32 -2 35 0 3 3 5 54 5 114 0 86 -3 108
-14 108 -8 0 -17 -7 -20 -16z"/>
</g>
</svg>
