<?xml version="1.0" standalone="no"?>
<!DOCTYPE svg PUBLIC "-//W3C//DTD SVG 20010904//EN"
 "http://www.w3.org/TR/2001/REC-SVG-20010904/DTD/svg10.dtd">
<svg version="1.0" xmlns="http://www.w3.org/2000/svg"
 width="1080.000000pt" height="1080.000000pt" viewBox="0 0 1080.000000 1080.000000"
 preserveAspectRatio="xMidYMid meet">

<g transform="translate(0.000000,1080.000000) scale(0.100000,-0.100000)"
fill="#000000" stroke="none">
<path d="M9160 7340 c0 -6 -8 -14 -17 -17 -9 -4 -25 -15 -35 -25 -9 -9 -24
-15 -33 -12 -8 3 -22 -2 -31 -11 -9 -9 -22 -14 -30 -11 -16 6 -46 -38 -38 -58
5 -13 -1 -16 -30 -16 -29 0 -37 -4 -42 -24 -3 -13 -1 -33 4 -43 18 -33 -47
-227 -80 -241 -13 -6 -9 -50 5 -55 7 -3 4 -6 -7 -6 -24 -1 -86 -39 -86 -53 0
-13 -39 -48 -54 -48 -6 0 -24 7 -41 16 -33 18 -149 21 -169 5 -7 -6 -29 -12
-49 -14 -20 -2 -40 -7 -44 -10 -3 -4 -13 -7 -20 -7 -31 0 -143 -137 -177 -215
-10 -22 -22 -48 -27 -57 -5 -10 -9 -26 -9 -36 0 -10 -3 -22 -7 -26 -13 -12
-33 -81 -33 -111 0 -17 -4 -35 -10 -41 -5 -5 -11 -92 -14 -194 -2 -102 -5
-194 -6 -205 -1 -11 2 -68 6 -128 l7 -107 -43 -88 c-24 -48 -51 -95 -59 -105
-16 -19 -91 -57 -112 -57 -13 0 -127 -55 -149 -73 -9 -7 -25 -25 -37 -42 -12
-16 -38 -39 -60 -50 -59 -30 -114 -69 -162 -114 -24 -22 -48 -41 -53 -41 -11
0 -1 60 13 75 5 5 9 19 9 32 0 12 4 32 9 45 5 13 14 43 21 68 7 25 16 53 21
62 5 10 9 29 9 43 0 14 5 33 10 43 6 9 24 58 41 107 34 98 47 179 31 198 -5 7
-15 50 -22 97 -7 47 -23 117 -36 156 -13 39 -24 82 -24 97 0 14 -4 29 -10 32
-5 3 -10 17 -10 31 0 22 -36 112 -49 124 -3 3 -11 14 -17 25 -27 49 -40 70
-51 83 -7 7 -18 21 -25 31 -21 29 -118 73 -147 66 -19 -5 -22 -9 -11 -15 11
-7 7 -21 -18 -75 -18 -36 -32 -78 -32 -93 0 -15 -7 -40 -16 -57 -9 -16 -16
-43 -15 -59 2 -35 -18 -64 -30 -44 -14 22 -10 56 7 66 13 7 16 19 11 51 -5 42
17 121 35 121 4 0 8 8 8 18 0 10 5 23 11 29 6 6 9 23 7 39 -3 26 -7 29 -35 27
-17 -2 -35 3 -40 10 -4 6 -8 65 -8 131 l0 118 -39 34 c-23 20 -50 34 -65 34
-14 0 -43 5 -64 11 -44 12 -147 -6 -147 -26 0 -6 -8 -20 -17 -31 -33 -37 -43
-63 -43 -111 0 -41 4 -51 30 -72 41 -32 41 -69 0 -77 -16 -4 -30 -10 -30 -15
0 -26 -166 -63 -192 -42 -7 6 -29 13 -48 17 -58 12 -373 17 -405 7 -23 -7 -25
-9 -9 -10 12 -1 27 -8 34 -16 7 -8 19 -15 28 -15 8 0 23 -7 33 -16 15 -14 58
-22 219 -40 25 -3 55 -10 67 -16 16 -8 30 -8 51 1 20 8 54 10 103 6 41 -4 111
-8 157 -10 46 -2 89 -8 97 -15 8 -7 27 -10 43 -7 22 5 29 1 40 -21 6 -14 12
-36 12 -49 0 -31 23 -103 32 -103 5 0 8 -9 8 -20 0 -11 5 -20 10 -20 6 0 10
-9 10 -20 0 -11 4 -20 9 -20 29 0 49 -169 22 -178 -7 -2 -23 -15 -35 -29 l-24
-26 -254 2 -255 2 -29 -33 c-16 -19 -40 -49 -54 -67 -14 -19 -40 -50 -57 -69
-18 -20 -33 -42 -33 -49 0 -7 -3 -13 -8 -13 -4 0 -13 -12 -19 -27 -7 -16 -33
-48 -57 -73 -25 -25 -45 -48 -46 -52 0 -13 -124 -134 -144 -141 -12 -5 -33 2
-62 20 -24 16 -44 31 -44 34 0 4 -13 12 -30 19 -16 7 -30 15 -30 19 0 3 -13
12 -28 19 -66 29 -73 44 -72 155 1 56 -4 120 -10 142 -6 22 -14 51 -16 65 -3
14 -9 34 -14 45 -4 11 -13 33 -19 48 -6 15 -11 43 -11 61 0 18 -3 36 -7 40
-10 10 -33 78 -33 100 0 10 -8 26 -18 35 -9 9 -23 28 -31 42 -7 15 -24 32 -37
37 -27 13 -64 80 -64 115 0 14 6 30 14 36 7 6 23 38 35 71 12 33 26 62 31 65
6 4 10 15 10 26 0 10 5 19 10 19 6 0 10 10 10 23 0 24 22 92 33 103 4 4 7 24
7 45 0 21 5 41 10 44 6 3 10 26 10 51 0 24 4 44 9 44 4 0 11 30 15 68 9 76 9
75 0 121 -5 23 -2 36 7 42 11 6 11 11 1 21 -6 6 -12 34 -12 60 0 26 -4 48 -10
48 -5 0 -10 7 -10 15 0 15 -19 55 -31 65 -3 3 -8 13 -12 23 -11 29 -37 21 -37
-13 0 -16 5 -30 10 -30 6 0 10 -11 10 -25 0 -14 9 -35 20 -47 21 -22 29 -108
11 -108 -5 0 -11 -12 -14 -27 -3 -16 -10 -46 -16 -68 -6 -22 -13 -53 -16 -70
-4 -16 -10 -39 -15 -50 -4 -11 -13 -33 -19 -48 -6 -15 -11 -37 -11 -47 0 -11
-20 -61 -45 -112 -25 -51 -45 -98 -45 -104 0 -6 -17 -30 -39 -52 -21 -22 -44
-55 -50 -73 -16 -47 -55 -89 -83 -89 -31 0 -58 49 -58 105 0 46 -12 58 -49 48
-11 -3 -27 1 -35 8 -40 37 -53 45 -86 56 -43 15 -80 17 -80 3 0 -5 -9 -10 -19
-10 -11 0 -23 -9 -26 -20 -3 -11 -10 -20 -15 -20 -14 0 -31 -38 -47 -103 l-14
-60 32 -53 c27 -43 38 -53 68 -59 75 -13 134 -17 140 -9 5 8 76 44 85 44 3 0
-1 -14 -7 -32 -7 -17 -26 -40 -44 -50 -17 -10 -34 -25 -37 -33 -3 -8 -16 -15
-29 -15 -13 0 -28 -5 -35 -12 -27 -27 -90 -38 -210 -38 -68 0 -132 4 -142 10
-10 5 -50 10 -89 10 l-71 0 0 -30 c0 -23 -5 -30 -19 -30 -11 0 -23 -4 -26 -10
-3 -5 -39 -10 -78 -10 -40 0 -88 -5 -107 -10 -19 -6 -48 -13 -65 -15 -16 -2
-58 -18 -93 -35 -34 -16 -69 -30 -77 -30 -8 0 -15 -4 -15 -10 0 -5 -6 -10 -13
-10 -8 0 -22 -9 -31 -19 -10 -11 -32 -25 -49 -31 -100 -37 -143 -58 -157 -75
-7 -8 -21 -15 -31 -15 -10 0 -33 -9 -51 -20 -39 -24 -64 -25 -72 -5 -3 8 -16
15 -30 15 -14 0 -31 6 -39 14 -8 8 -23 16 -33 18 -42 7 -18 -93 26 -107 11 -3
20 -11 20 -16 0 -5 9 -9 20 -9 11 0 20 -5 20 -11 0 -7 13 -9 38 -5 93 16 87
22 90 -77 3 -86 3 -87 -35 -142 -21 -30 -48 -58 -61 -61 -12 -3 -30 -19 -39
-35 -10 -16 -21 -29 -25 -29 -4 0 -8 -8 -8 -19 0 -20 -144 -191 -160 -191 -6
0 -10 -6 -10 -14 0 -8 -35 -48 -78 -90 -42 -42 -81 -80 -87 -86 -5 -6 -67 -69
-136 -139 -70 -71 -135 -146 -145 -167 -10 -21 -21 -41 -25 -44 -4 -3 -9 -16
-10 -30 -3 -21 -10 -26 -42 -28 -37 -3 -38 -4 -31 -38 5 -29 4 -33 -9 -28 -9
3 -19 14 -22 25 -4 10 -11 19 -16 19 -5 0 -9 14 -9 30 0 17 -4 30 -10 30 -5 0
-10 14 -10 30 0 17 -4 30 -10 30 -5 0 -10 9 -10 20 0 11 -4 20 -10 20 -5 0
-10 9 -10 20 0 11 -4 20 -10 20 -5 0 -10 13 -10 29 0 17 -4 33 -10 36 -5 3
-10 19 -10 35 0 16 -4 32 -10 35 -5 3 -10 22 -10 41 0 19 -4 34 -10 34 -5 0
-10 11 -10 25 0 14 -4 25 -9 25 -5 0 -11 10 -14 23 -3 12 -19 60 -36 107 -17
47 -31 94 -31 104 0 20 -21 87 -30 96 -3 3 -10 16 -16 30 -52 112 -68 143 -92
168 -15 16 -37 40 -49 53 -12 13 -40 40 -62 59 -22 19 -40 42 -41 50 0 9 -5
21 -10 26 -15 15 -15 81 0 99 10 12 10 21 -1 47 -18 46 -46 68 -87 68 -30 0
-74 14 -124 41 -10 5 -26 9 -37 9 -11 0 -29 12 -41 28 -20 25 -56 51 -72 52
-5 0 -8 -11 -8 -25 0 -16 17 -42 47 -74 136 -141 161 -173 206 -262 26 -52 52
-101 56 -109 5 -8 15 -35 22 -60 8 -25 21 -54 31 -64 10 -11 18 -26 18 -33 0
-7 4 -21 9 -31 5 -9 14 -30 21 -47 7 -16 16 -38 21 -47 5 -10 9 -32 9 -49 0
-16 5 -39 11 -50 5 -11 17 -59 25 -107 14 -85 33 -155 47 -168 4 -4 7 -24 7
-45 0 -21 5 -41 10 -44 6 -3 10 -22 10 -41 0 -19 4 -34 9 -34 5 0 11 -15 14
-32 9 -53 18 -92 27 -113 4 -11 13 -33 19 -48 6 -15 11 -48 11 -73 0 -24 5
-53 12 -64 10 -15 10 -32 0 -78 -7 -32 -12 -78 -12 -103 -1 -55 -13 -71 -70
-89 -25 -7 -56 -21 -70 -30 -14 -9 -40 -22 -57 -29 -18 -8 -33 -17 -33 -21 0
-10 -47 -30 -73 -30 -12 0 -35 -9 -52 -20 -35 -24 -92 -50 -110 -50 -6 0 -22
21 -35 48 -12 26 -26 55 -31 64 -5 10 -9 29 -9 42 0 14 -4 27 -8 30 -5 3 -17
32 -27 65 -17 57 -17 62 -2 79 10 10 17 28 17 40 0 11 5 24 10 27 6 3 10 15
10 26 0 10 4 19 9 19 5 0 12 35 14 78 7 97 17 152 28 152 5 0 9 18 9 39 0 22
5 43 10 46 6 3 10 19 10 35 0 30 36 100 51 100 16 0 10 38 -7 44 -19 7 -64
-19 -64 -37 0 -7 -9 -19 -20 -27 -11 -8 -20 -20 -20 -27 0 -6 -14 -38 -31 -70
-24 -45 -31 -72 -33 -123 -1 -39 -9 -78 -20 -98 -9 -18 -14 -42 -11 -52 5 -14
2 -20 -10 -20 -9 0 -18 12 -21 29 -4 16 -14 38 -23 48 -21 25 -41 60 -41 73 0
6 -21 31 -47 55 -46 44 -49 45 -111 45 -94 0 -113 -31 -36 -60 15 -6 34 -8 44
-5 13 4 21 -3 30 -27 7 -18 21 -55 33 -83 16 -40 22 -81 27 -205 4 -85 3 -186
-1 -225 -8 -76 -1 -182 12 -191 5 -3 9 -11 9 -19 0 -19 -159 -19 -166 0 -4 8
-20 11 -52 8 -39 -4 -55 -12 -94 -51 l-47 -47 -1 -93 0 -92 50 -49 c27 -27 62
-51 77 -54 93 -20 91 -20 120 8 36 34 70 52 114 60 28 5 40 2 63 -18 20 -18
46 -27 85 -31 116 -13 304 -1 356 23 22 10 81 31 130 47 50 15 96 34 103 41 7
7 25 16 40 19 15 4 39 15 54 25 14 11 31 19 38 19 20 0 96 57 124 94 14 19 40
50 56 68 17 18 30 36 30 40 0 5 4 8 10 8 10 0 44 25 61 45 64 73 81 96 98 130
10 22 24 67 30 100 7 33 16 82 22 110 11 55 54 149 81 179 10 11 18 26 18 33
0 7 4 13 9 13 5 0 11 8 15 18 6 17 26 53 61 107 11 17 65 75 120 130 55 55
113 118 130 140 16 22 31 42 35 45 3 3 16 26 29 53 13 26 27 47 31 47 4 0 24
33 44 74 20 40 45 84 56 96 11 13 20 31 20 42 0 10 4 18 9 18 5 0 11 12 14 28
10 45 23 58 41 43 9 -8 16 -19 16 -26 0 -15 74 -95 87 -95 6 0 23 -11 39 -25
16 -14 32 -25 37 -25 4 0 15 -8 25 -17 10 -10 28 -25 40 -33 12 -8 22 -18 22
-23 0 -5 17 -25 38 -45 21 -20 45 -48 54 -61 18 -26 14 -51 -8 -51 -8 0 -40
-14 -72 -30 -56 -30 -70 -38 -163 -93 -25 -15 -52 -27 -60 -27 -8 0 -21 -9
-29 -20 -8 -11 -22 -20 -31 -20 -9 0 -24 -9 -34 -20 -10 -11 -30 -20 -44 -20
-14 0 -44 -10 -65 -23 -34 -19 -42 -29 -54 -77 -7 -30 -17 -59 -22 -65 -13
-17 -20 -98 -12 -135 6 -28 13 -36 35 -38 22 -3 27 1 27 17 0 12 5 21 10 21 6
0 10 8 10 18 0 22 22 72 33 72 4 0 7 7 7 15 0 8 4 15 9 15 4 0 41 25 82 55 41
30 79 55 86 55 6 0 13 5 15 10 2 6 39 24 83 41 78 30 128 43 228 55 26 4 47
10 47 14 0 4 8 10 18 14 9 3 23 9 30 12 15 7 17 -81 2 -91 -5 -3 -10 -16 -10
-29 0 -22 -33 -46 -65 -46 -25 0 -47 -44 -36 -73 5 -14 15 -28 21 -32 7 -4 9
-22 5 -48 -6 -40 -4 -45 44 -95 28 -30 51 -61 51 -70 -1 -15 -69 -72 -88 -72
-4 0 -23 -16 -42 -35 -19 -19 -39 -35 -45 -35 -15 0 -33 -44 -24 -61 3 -8 16
-34 28 -57 11 -24 21 -50 21 -58 0 -8 4 -14 8 -14 5 0 17 -18 27 -40 15 -34
16 -47 6 -96 -17 -85 -14 -131 8 -153 20 -20 20 -20 78 1 32 11 60 24 63 28
10 16 1 203 -9 213 -15 15 -14 126 2 141 21 22 54 36 84 36 29 0 97 21 109 33
4 4 17 7 28 7 22 0 78 18 111 36 25 14 95 6 95 -10 0 -7 -9 -22 -20 -34 -24
-25 -25 -38 -5 -59 22 -21 152 -23 165 -3 16 25 12 30 -22 30 -51 1 -63 17
-63 82 0 32 6 63 13 70 16 16 15 38 -2 38 -7 0 -25 -9 -39 -20 -29 -23 -53
-26 -60 -7 -3 8 11 25 36 40 46 30 59 32 86 15 15 -9 23 -9 35 1 9 8 16 19 16
26 0 19 34 45 58 45 24 0 55 -15 86 -42 11 -10 28 -18 37 -18 10 0 21 -4 24
-10 3 -5 42 -10 87 -10 72 0 86 3 137 32 31 17 58 34 61 37 24 27 165 91 202
91 48 0 68 8 68 29 0 9 7 24 15 35 14 18 21 17 58 -13 68 -55 68 -56 74 -138
2 -43 12 -96 20 -118 9 -22 17 -80 19 -129 2 -59 7 -92 16 -97 18 -12 145 -11
152 0 3 5 -9 12 -28 15 -19 4 -38 12 -44 19 -12 14 -10 286 3 390 8 66 7 68
-21 92 -16 14 -34 25 -40 25 -6 0 -17 15 -24 33 -24 63 -49 115 -62 128 -7 8
-19 26 -27 41 -8 15 -21 28 -29 30 -12 2 -16 18 -18 66 -1 60 -20 102 -46 102
-6 0 -28 20 -50 45 -40 45 -42 46 -87 39 -55 -8 -100 -36 -130 -79 -25 -37
-20 -57 15 -73 34 -16 31 -36 -5 -29 -23 5 -30 2 -34 -13 -4 -17 -14 -20 -70
-20 -60 0 -66 2 -72 23 -3 12 -11 32 -17 45 -10 20 -7 27 27 62 22 22 44 40
50 40 22 0 235 201 235 222 0 17 29 7 35 -11 3 -11 19 -26 35 -33 17 -7 30
-16 30 -19 0 -13 107 -41 154 -40 60 1 152 -25 160 -44 3 -8 14 -15 25 -15 11
0 23 -4 26 -10 3 -5 17 -10 29 -10 33 0 51 -25 40 -53 -20 -46 -6 -325 18
-374 8 -17 8 -29 0 -45 -7 -13 -14 -59 -17 -103 -2 -44 -7 -101 -11 -126 l-6
-47 116 -1 c64 -1 116 3 116 7 0 9 -46 52 -55 52 -3 0 -16 10 -30 22 -24 20
-25 27 -25 124 0 73 7 131 24 206 19 77 25 136 27 235 2 147 -8 183 -63 232
-16 13 -28 30 -28 38 0 13 43 63 55 63 8 0 29 17 72 58 20 18 49 42 67 54 17
13 45 36 62 53 17 16 49 46 70 65 41 37 61 63 94 118 15 24 27 32 49 32 17 0
33 -4 36 -10 11 -17 192 -12 220 6 23 15 25 15 25 1 0 -9 -13 -39 -30 -67 -16
-28 -30 -57 -30 -65 0 -8 -4 -15 -10 -15 -5 0 -10 -7 -10 -15 0 -9 -9 -25 -20
-37 -11 -13 -20 -36 -20 -54 0 -24 -9 -39 -34 -62 -31 -27 -56 -61 -56 -76 0
-3 8 -6 18 -6 19 1 112 83 112 100 0 15 36 67 69 101 47 47 81 89 81 99 0 5 5
10 10 10 6 0 10 7 10 15 0 8 9 15 20 15 11 0 20 -4 20 -10 0 -5 8 -10 18 -10
10 0 22 -3 26 -7 7 -7 16 -9 94 -19 l52 -7 0 -43 c0 -40 16 -92 31 -104 23
-18 40 -232 19 -245 -5 -3 -10 -35 -10 -70 0 -35 -4 -67 -10 -70 -5 -3 -10
-17 -10 -30 0 -13 -4 -27 -10 -30 -5 -3 -10 -17 -10 -31 0 -13 -4 -32 -9 -42
-8 -16 -13 -28 -40 -94 -18 -44 -21 -60 -37 -196 -8 -75 -13 -149 -10 -163 2
-14 0 -43 -5 -65 -16 -58 -19 -87 -29 -214 -5 -63 -11 -129 -15 -147 -6 -25
-3 -33 12 -41 20 -11 82 -10 102 2 14 9 14 36 0 36 -8 0 -9 25 -5 88 4 48 9
123 12 167 2 44 9 82 14 83 6 2 10 14 10 27 0 13 5 27 10 30 6 3 10 20 10 36
0 17 9 49 20 71 11 23 20 48 20 55 0 7 5 13 10 13 6 0 10 16 10 35 0 19 9 50
20 70 11 20 20 43 20 51 0 9 8 29 17 45 17 28 20 29 95 29 l78 0 0 40 c0 33
-3 40 -20 40 -25 0 -26 25 -2 42 10 7 27 25 36 41 10 15 27 27 37 27 11 0 19
5 19 10 0 6 6 10 13 10 7 0 23 9 35 20 12 11 25 20 30 20 5 0 17 9 26 19 10
11 32 25 49 31 54 21 298 143 303 152 3 4 14 8 25 8 10 0 19 4 19 9 0 5 12 11
28 14 29 6 72 38 72 54 0 5 14 25 30 43 17 18 30 36 30 39 0 3 15 23 33 44
l33 37 65 -11 c144 -24 359 -49 429 -50 39 0 134 9 165 16 28 6 55 -23 55 -61
0 -33 37 -114 52 -114 4 0 8 -5 8 -12 0 -6 18 -35 40 -65 22 -29 61 -92 86
-140 25 -49 49 -92 55 -97 5 -6 9 -57 9 -114 0 -103 0 -104 30 -132 38 -35
140 -52 165 -27 21 22 19 34 -15 70 -16 18 -30 37 -30 44 0 6 -4 13 -9 15 -6
2 -22 48 -36 103 -15 55 -31 104 -36 109 -5 6 -9 18 -9 28 0 10 -4 26 -9 36
-19 37 -30 68 -36 102 -3 19 -10 58 -16 85 -5 28 -12 65 -16 83 -3 18 -9 35
-14 38 -5 3 -9 14 -9 25 0 10 -4 19 -10 19 -5 0 -10 14 -10 30 0 17 -4 30 -10
30 -5 0 -10 8 -11 18 -1 36 -36 78 -90 105 -29 16 -55 33 -57 38 -2 5 -9 9
-16 9 -7 0 -31 9 -54 20 -22 11 -51 20 -62 20 -12 0 -55 11 -95 25 -41 13 -94
28 -117 31 -24 3 -60 17 -80 30 -21 13 -40 24 -43 24 -10 0 -29 23 -44 51 -14
28 -12 73 8 179 6 30 13 72 17 93 3 20 10 40 15 43 5 3 9 21 9 40 0 19 5 34
10 34 6 0 10 9 10 19 0 11 5 23 10 26 6 3 10 17 10 30 0 13 5 27 10 30 6 3 10
18 10 33 0 15 7 36 15 46 8 11 15 30 15 42 0 36 23 47 48 24 29 -27 150 -26
199 1 19 11 47 19 64 19 17 0 37 7 45 15 8 8 33 19 54 25 43 11 80 44 80 69 0
9 7 29 15 44 8 16 15 60 16 103 1 41 6 77 10 80 5 3 3 13 -3 24 -9 14 -9 22 3
36 11 13 11 18 2 21 -7 3 -13 19 -13 37 0 18 -5 37 -12 44 -9 9 -9 15 0 24 7
7 12 36 12 64 0 29 5 56 10 59 6 3 10 15 10 26 0 10 3 19 8 19 4 0 13 13 20
29 11 25 10 35 -10 80 -21 47 -38 65 -38 41z m-125 -120 c3 -5 -1 -10 -9 -10
-9 0 -16 5 -16 10 0 6 4 10 9 10 6 0 13 -4 16 -10z m22 -107 c6 -21 8 -42 4
-48 -4 -5 -9 -29 -10 -51 -1 -23 -6 -57 -11 -75 -6 -19 -10 -60 -10 -93 l0
-58 -32 6 c-18 3 -42 7 -53 9 -75 14 -86 19 -74 33 6 8 18 14 26 14 34 0 62
32 69 78 4 26 12 50 18 54 6 4 10 30 9 60 -4 97 40 146 64 71z m-4317 -1121
c3 -4 25 -8 50 -8 25 -1 68 -5 95 -9 37 -5 61 -3 89 9 57 24 174 22 206 -3 14
-11 52 -40 85 -64 58 -44 61 -48 85 -127 13 -44 32 -90 42 -100 20 -21 26
-110 8 -110 -5 0 -10 -9 -10 -19 0 -11 -9 -23 -20 -26 -11 -3 -20 -10 -20 -15
0 -5 -18 -37 -40 -71 -22 -34 -40 -69 -40 -77 0 -7 -6 -26 -14 -40 -7 -15 -24
-49 -37 -76 -13 -27 -45 -70 -71 -97 -26 -27 -48 -50 -48 -52 0 -13 -90 -95
-109 -100 -43 -11 -79 3 -96 37 -9 17 -23 42 -31 56 -7 14 -14 35 -14 46 0 12
-7 27 -15 34 -9 7 -15 29 -15 51 0 28 -5 39 -18 44 -11 3 -25 23 -32 46 -8 22
-31 59 -52 82 -21 23 -38 49 -38 58 0 21 -29 79 -40 79 -20 0 -31 57 -19 106
6 27 15 52 19 57 9 10 100 -31 101 -46 0 -7 0 -31 -1 -54 l-2 -43 45 0 c34 0
49 6 67 25 27 28 40 32 40 10 0 -12 14 -15 70 -15 98 0 133 21 181 106 20 36
27 124 9 124 -5 0 -10 5 -10 11 0 17 -53 69 -70 69 -9 0 -21 5 -27 11 -17 17
-134 14 -170 -4 -60 -31 -124 -21 -180 29 -17 16 -42 37 -55 46 -20 15 -21 19
-8 28 15 11 100 4 110 -8z m727 -170 c28 -60 48 -130 40 -138 -15 -16 -35 9
-50 63 -9 33 -24 68 -32 79 -20 26 -19 44 3 44 11 0 25 -18 39 -48z m2931 -63
c2 -10 -8 -21 -28 -29 -26 -11 -30 -17 -30 -51 0 -22 -3 -39 -7 -39 -4 0 -22
14 -40 32 -24 23 -33 41 -33 64 0 31 2 33 43 37 69 6 92 3 95 -14z m-4065
-216 c-7 -3 -13 -11 -13 -18 0 -8 -11 -25 -25 -39 -27 -27 -47 -26 -78 6 -23
23 -15 37 21 36 15 0 43 6 62 14 19 8 37 13 40 10 3 -3 -1 -7 -7 -9z m-61
-361 c13 -30 25 -41 57 -52 60 -20 74 -39 63 -88 -8 -35 -6 -49 15 -94 27 -58
27 -101 1 -106 -14 -3 -18 3 -18 23 0 15 -13 45 -29 68 -15 23 -36 55 -45 70
-9 15 -25 31 -34 34 -24 9 -42 29 -42 46 0 7 -16 28 -35 46 -41 37 -43 53 -12
74 38 27 61 21 79 -21z m350 -7 c4 -16 14 -33 23 -37 22 -13 18 -34 -11 -53
-14 -9 -23 -19 -21 -22 3 -3 16 2 29 11 12 9 28 16 36 16 17 0 62 -49 62 -67
0 -7 12 -31 26 -53 33 -50 26 -73 -29 -93 -99 -36 -121 -45 -131 -59 -6 -7
-36 -26 -67 -41 -32 -15 -62 -34 -69 -42 -18 -21 -40 -18 -40 5 0 11 5 20 10
20 6 0 10 9 10 20 0 11 3 20 8 20 4 0 13 15 20 33 8 17 22 49 33 70 10 22 19
45 19 53 0 8 5 14 10 14 6 0 10 9 10 19 0 11 4 22 9 25 17 11 35 125 23 150
-7 17 -7 27 1 35 17 17 30 8 39 -24z m-222 -356 c0 -15 -38 -49 -69 -60 -38
-15 -37 -2 2 21 19 12 38 27 41 35 6 18 26 20 26 4z m-166 -20 c-3 -5 -10 -7
-15 -3 -5 3 -7 10 -3 15 3 5 10 7 15 3 5 -3 7 -10 3 -15z m1105 -68 c41 -23
91 -78 91 -103 0 -14 7 -43 16 -64 15 -35 15 -39 -2 -51 -33 -24 -53 -15 -77
35 -12 26 -24 49 -27 52 -20 19 -41 140 -24 140 3 0 13 -4 23 -9z m242 -23
c-5 -15 -17 -23 -32 -23 -32 0 -38 32 -7 38 46 9 48 8 39 -15z m-765 -14 c15
-16 24 -37 24 -58 0 -39 14 -85 43 -143 22 -44 16 -73 -8 -38 -29 41 -38 46
-74 44 -53 -3 -61 -1 -61 16 0 10 -11 15 -35 15 -29 0 -35 4 -35 20 0 12 -7
34 -15 51 -18 35 -15 44 28 65 18 9 34 20 37 24 4 6 51 26 69 29 2 1 14 -10
27 -25z m-227 -58 c9 -10 8 -16 -4 -26 -17 -14 -20 -66 -5 -75 6 -3 10 -27 10
-52 0 -53 -34 -120 -74 -146 -23 -15 -26 -15 -53 6 -15 12 -29 25 -31 29 -2 5
-9 8 -15 8 -6 0 -31 7 -54 16 -42 16 -43 18 -43 63 0 43 4 51 45 89 25 23 51
42 58 42 7 0 18 5 23 10 12 12 102 49 120 50 6 0 17 -6 23 -14z m-164 -346 c4
-6 -5 -10 -19 -10 -14 0 -26 5 -26 10 0 6 9 10 19 10 11 0 23 -4 26 -10z
m-2635 -100 c0 -5 -4 -10 -10 -10 -5 0 -10 5 -10 10 0 6 5 10 10 10 6 0 10 -4
10 -10z m0 -384 c0 -8 -4 -18 -10 -21 -5 -3 -10 3 -10 14 0 12 5 21 10 21 6 0
10 -6 10 -14z"/>
<path d="M5978 6403 c6 -2 18 -2 25 0 6 3 1 5 -13 5 -14 0 -19 -2 -12 -5z"/>
<path d="M5871 6376 c-40 -14 -49 -30 -28 -51 29 -29 67 -11 67 31 0 15 7 24
23 27 20 4 20 4 -3 5 -14 0 -40 -5 -59 -12z"/>
<path d="M2130 4810 c0 -5 7 -10 15 -10 8 0 15 5 15 10 0 6 -7 10 -15 10 -8 0
-15 -4 -15 -10z"/>
</g>
</svg>
