<?xml version="1.0" standalone="no"?>
<!DOCTYPE svg PUBLIC "-//W3C//DTD SVG 20010904//EN"
 "http://www.w3.org/TR/2001/REC-SVG-20010904/DTD/svg10.dtd">
<svg version="1.0" xmlns="http://www.w3.org/2000/svg"
 width="1080.000000pt" height="1080.000000pt" viewBox="0 0 1080.000000 1080.000000"
 preserveAspectRatio="xMidYMid meet">

<g transform="translate(0.000000,1080.000000) scale(0.100000,-0.100000)"
fill="#000000" stroke="none">
<path d="M7490 8661 c0 -5 -19 -12 -42 -16 -24 -4 -47 -11 -53 -15 -5 -4 -27
-10 -47 -14 -26 -5 -54 -22 -88 -55 -27 -26 -50 -53 -50 -58 0 -6 -9 -13 -20
-16 -13 -3 -20 -14 -20 -30 0 -14 -4 -28 -9 -31 -5 -3 -12 -26 -16 -51 -3 -26
-13 -49 -21 -52 -19 -7 -19 -109 1 -147 8 -15 15 -48 15 -71 0 -25 6 -50 15
-59 8 -8 15 -21 15 -29 0 -8 9 -22 20 -32 11 -10 20 -24 20 -32 0 -7 4 -13 9
-13 5 0 13 -10 17 -22 4 -13 10 -25 13 -28 4 -3 17 -24 29 -48 16 -32 22 -60
22 -111 0 -62 -3 -72 -29 -97 -49 -50 -78 -74 -90 -74 -6 0 -11 -7 -11 -15 0
-8 -7 -15 -15 -15 -8 0 -15 -4 -15 -9 0 -5 -8 -12 -17 -15 -10 -3 -32 -19 -50
-36 -18 -16 -34 -30 -38 -30 -3 0 -28 -16 -55 -35 -27 -19 -53 -35 -56 -35
-10 0 -129 -74 -132 -82 -2 -5 -16 -8 -31 -8 -32 0 -101 -58 -101 -84 0 -9 -4
-16 -10 -16 -5 0 -10 -8 -10 -19 0 -10 -9 -30 -20 -44 -11 -14 -20 -32 -20
-40 0 -8 -7 -17 -15 -21 -8 -3 -15 -12 -15 -20 0 -7 -7 -16 -15 -20 -8 -3 -15
-14 -15 -25 0 -11 -5 -21 -11 -23 -16 -5 -41 -76 -46 -133 -3 -27 -11 -57 -18
-65 -7 -8 -15 -37 -18 -65 -3 -27 -10 -51 -16 -53 -14 -5 -38 -58 -44 -97 -10
-64 -47 -190 -57 -193 -5 -2 -10 -17 -10 -33 0 -16 -6 -32 -14 -35 -7 -3 -17
-24 -20 -47 -4 -23 -11 -44 -17 -48 -17 -10 -12 -281 6 -315 8 -16 15 -35 15
-42 0 -7 7 -15 15 -18 8 -4 15 -12 15 -20 0 -8 6 -14 14 -14 8 0 16 -7 20 -15
3 -8 14 -15 25 -15 25 0 93 -31 114 -52 22 -22 23 -96 2 -104 -8 -4 -15 -18
-15 -34 0 -15 -6 -33 -14 -39 -8 -7 -16 -43 -19 -92 -4 -45 -11 -87 -17 -94
-6 -7 -10 -46 -9 -86 0 -41 -2 -104 -6 -140 -6 -55 -4 -73 14 -112 12 -25 21
-53 21 -61 0 -9 5 -16 10 -16 6 0 10 -6 10 -13 0 -7 9 -30 20 -52 18 -36 20
-59 20 -266 0 -192 -2 -228 -15 -233 -10 -3 -15 -19 -15 -45 0 -22 -6 -60 -14
-83 -8 -24 -17 -86 -20 -138 -4 -53 -13 -114 -21 -135 -8 -22 -14 -59 -15 -82
0 -23 -4 -44 -9 -47 -5 -4 -13 -41 -17 -84 -3 -42 -13 -94 -20 -116 -8 -21
-14 -53 -14 -70 -1 -17 -7 -42 -15 -56 -8 -14 -14 -40 -15 -58 0 -19 -6 -46
-14 -60 -15 -29 -32 -91 -46 -162 -4 -25 -15 -58 -24 -75 -9 -16 -16 -44 -16
-62 0 -17 -5 -33 -10 -35 -14 -4 -33 -150 -33 -243 0 -97 13 -176 29 -182 8
-3 14 -11 14 -17 0 -7 22 -23 49 -37 53 -26 60 -40 53 -103 -4 -31 -19 -53
-83 -120 -70 -72 -79 -85 -80 -121 -2 -59 1 -67 28 -95 24 -23 29 -24 151 -24
138 1 230 22 271 63 38 38 60 188 37 255 -16 47 -13 120 5 132 5 3 9 16 9 28
0 13 16 44 35 69 19 25 35 55 35 65 0 11 7 33 15 48 8 16 15 39 15 51 0 32 27
53 68 53 42 0 51 -5 75 -40 14 -20 17 -48 17 -147 0 -127 1 -129 48 -179 20
-21 360 -20 388 1 10 8 30 15 44 15 29 0 165 66 210 101 22 18 30 32 30 57 0
26 -4 32 -21 32 -32 0 -169 70 -169 86 0 8 -4 14 -8 14 -5 0 -18 23 -30 50
-16 37 -22 70 -22 126 0 41 -5 85 -12 97 -7 12 -15 67 -19 122 -6 93 -32 196
-51 203 -4 2 -8 21 -8 42 0 20 -6 43 -14 49 -8 7 -17 27 -21 44 -11 58 -40
147 -47 147 -5 0 -8 8 -8 18 0 9 -9 31 -20 47 -11 17 -20 44 -20 62 0 17 -5
33 -10 35 -6 2 -15 29 -20 62 -5 32 -14 64 -21 72 -11 14 -8 78 10 197 13 83
14 86 45 80 21 -4 26 -12 31 -52 3 -25 10 -62 16 -81 6 -19 9 -46 7 -60 -4
-34 25 -37 47 -4 14 22 15 28 4 35 -11 7 -14 51 -13 215 l2 206 31 29 c24 21
42 29 70 29 22 0 44 6 51 15 7 8 19 15 26 15 16 0 97 40 105 53 3 5 34 11 68
14 33 3 61 10 61 14 0 5 7 9 15 9 8 0 24 9 36 21 17 17 35 21 102 23 46 1 93
8 107 16 27 14 30 16 109 57 29 15 57 37 61 48 11 27 44 53 77 61 30 8 136 61
173 87 29 20 30 71 2 126 -12 23 -22 53 -22 67 0 13 -7 27 -15 30 -10 4 -15
21 -15 54 0 30 -5 50 -12 52 -10 4 -14 54 -18 191 -3 130 -9 190 -17 199 -9 8
-13 53 -13 151 0 125 2 142 21 168 20 28 20 31 4 49 -16 17 -15 19 4 30 25 13
41 6 41 -18 0 -13 3 -13 12 -4 12 12 5 23 -64 90 -22 20 -23 58 -3 66 8 3 15
17 15 31 0 16 -6 25 -15 25 -8 0 -15 -4 -15 -10 0 -5 -9 -10 -20 -10 -13 0
-22 10 -29 35 -11 41 1 88 30 121 11 11 19 28 19 37 0 23 16 29 33 13 13 -13
16 -12 26 11 11 24 15 25 67 21 41 -4 57 -1 61 9 9 22 18 15 37 -27 10 -22 23
-40 29 -41 7 0 47 0 90 1 43 1 103 -2 133 -6 49 -6 54 -9 54 -31 0 -16 7 -27
20 -30 14 -4 20 -14 20 -34 0 -19 5 -29 14 -29 9 0 16 -12 18 -27 2 -21 9 -29
26 -31 13 -2 45 -16 71 -32 85 -50 189 -57 346 -25 22 5 85 59 85 73 0 5 9 17
20 27 11 10 20 31 20 47 0 18 5 28 15 28 11 0 15 12 15 49 0 34 -4 51 -15 55
-9 3 -15 19 -15 41 0 49 -71 145 -107 145 -7 0 -16 7 -19 15 -4 8 -10 15 -15
15 -9 0 -89 74 -89 82 0 9 -99 108 -107 108 -5 1 -19 14 -33 30 -13 17 -32 30
-41 30 -10 0 -21 5 -24 10 -12 20 -90 48 -150 54 -32 4 -66 13 -75 21 -9 8
-28 15 -42 15 -14 0 -28 6 -31 14 -3 8 -16 16 -29 18 -20 3 -23 10 -26 50 -3
41 -8 52 -40 78 -20 16 -42 30 -49 30 -7 0 -13 7 -13 15 0 8 -6 15 -14 15 -8
0 -16 6 -19 13 -3 7 -27 24 -53 37 -27 13 -57 27 -66 32 -10 4 -28 8 -40 8
-13 0 -54 16 -91 35 -38 19 -75 35 -83 35 -8 0 -14 4 -14 10 0 5 -12 13 -27
16 -16 4 -37 13 -48 20 -11 8 -31 14 -45 14 -29 0 -70 25 -70 43 0 7 -33 23
-74 36 -60 19 -76 28 -80 47 -9 33 4 166 17 183 6 7 10 39 10 72 -2 49 1 59
17 64 11 4 20 12 20 20 0 7 8 16 18 20 16 6 16 7 -3 21 -17 13 -19 26 -19 120
1 74 5 108 13 114 8 4 10 16 7 27 -5 15 0 23 19 31 22 10 25 18 25 66 0 45 -4
57 -20 66 -11 6 -20 18 -20 27 0 19 -45 63 -64 63 -8 0 -16 13 -19 29 -6 30
-55 61 -99 61 -12 0 -32 7 -42 15 -22 17 -176 22 -176 6z m660 -1925 c0 -14
-7 -31 -15 -40 -8 -8 -15 -21 -15 -29 0 -17 -78 -29 -87 -14 -3 5 9 21 26 36
17 15 31 32 31 38 0 13 28 32 48 33 6 0 12 -11 12 -24z m-130 -131 c0 -26 -7
-30 -28 -17 -16 10 -5 42 14 42 8 0 14 -10 14 -25z m-60 -5 c0 -5 -7 -10 -15
-10 -8 0 -15 -7 -15 -15 0 -8 -7 -15 -15 -15 -22 0 -18 15 8 33 26 19 37 21
37 7z m-70 -147 c0 -20 -3 -24 -11 -16 -7 7 -9 19 -6 27 10 24 17 19 17 -11z
m130 -13 c0 -5 -4 -10 -10 -10 -5 0 -10 5 -10 10 0 6 5 10 10 10 6 0 10 -4 10
-10z m91 -20 c20 0 7 -18 -17 -24 -31 -8 -39 -3 -30 20 4 10 12 14 22 10 9 -3
20 -6 25 -6z m-251 -15 c0 -8 -4 -15 -9 -15 -13 0 -22 16 -14 24 11 11 23 6
23 -9z m-626 -693 c-1 -7 -2 -21 -2 -32 -3 -35 -22 -21 -22 16 0 24 4 34 13
32 6 -3 12 -10 11 -16z m264 -211 c27 -2 10 -21 -18 -21 -36 0 -40 -21 -7 -43
35 -23 77 -65 77 -77 0 -24 29 -8 32 18 2 21 8 27 28 27 20 0 26 -6 28 -27 3
-25 0 -28 -27 -28 -21 0 -31 -5 -31 -15 0 -8 -3 -15 -7 -15 -5 0 -18 -3 -29
-6 -16 -4 -23 0 -27 15 -3 14 -13 21 -30 21 -15 0 -31 10 -42 26 -9 14 -25 34
-36 45 -17 17 -26 68 -14 80 2 3 24 4 47 3 24 -2 49 -3 56 -3z m212 -458 c0
-7 -7 -13 -15 -13 -15 0 -21 31 -8 43 8 8 23 -12 23 -30z m21 -96 c-8 -8 -11
-3 -11 19 1 25 2 27 11 11 8 -14 8 -22 0 -30z"/>
<path d="M3376 8221 c-3 -5 -26 -14 -51 -20 -25 -6 -45 -16 -45 -21 0 -6 -7
-10 -15 -10 -8 0 -15 -7 -15 -15 0 -8 -4 -15 -9 -15 -5 0 -25 -22 -44 -49 -33
-45 -36 -55 -43 -152 -4 -57 -13 -118 -20 -136 -31 -72 -7 -139 84 -240 24
-27 32 -45 32 -74 0 -37 26 -79 49 -79 11 0 20 -46 14 -72 -4 -11 -17 -21 -34
-25 -16 -3 -29 -11 -29 -18 0 -7 -33 -17 -87 -25 -126 -18 -155 -26 -185 -55
-16 -15 -48 -29 -77 -35 -46 -8 -76 -20 -138 -53 -17 -9 -23 -21 -23 -47 0
-25 -6 -39 -21 -48 -18 -11 -21 -20 -16 -54 4 -33 0 -47 -23 -81 -25 -37 -27
-44 -14 -58 8 -9 14 -37 14 -71 0 -48 3 -56 21 -61 16 -4 19 -11 14 -26 -4
-14 -1 -23 9 -27 9 -3 16 -14 16 -23 0 -10 7 -26 15 -37 16 -22 20 -74 5 -74
-5 0 -12 11 -16 25 -4 18 -15 28 -35 32 -16 3 -29 12 -29 19 0 8 -7 14 -15 14
-8 0 -24 9 -35 20 -19 19 -20 33 -19 152 1 110 -2 134 -15 144 -11 7 -16 27
-16 56 0 32 -6 50 -20 63 -20 18 -22 18 -67 -5 -45 -22 -48 -23 -76 -7 -16 10
-39 17 -52 17 -20 0 -27 -8 -40 -52 -17 -59 -19 -97 -6 -130 34 -90 33 -175
-4 -212 -8 -8 -15 -20 -15 -27 0 -13 -68 -78 -82 -79 -3 0 -9 -13 -13 -29 -3
-16 -13 -32 -21 -35 -8 -3 -14 -15 -14 -27 0 -31 -32 -98 -47 -99 -18 0 -16
-25 2 -40 8 -7 15 -21 15 -31 0 -11 -7 -19 -15 -19 -16 0 -19 -9 -9 -34 8 -22
21 -20 29 3 3 11 16 23 28 27 12 4 35 20 51 35 17 16 38 29 48 29 27 0 22 -35
-9 -59 -14 -12 -24 -23 -22 -24 2 -2 17 -9 33 -15 20 -9 26 -16 19 -23 -7 -7
-7 -21 0 -45 13 -43 0 -62 -32 -45 -12 7 -21 18 -21 25 0 20 -47 69 -59 62
-15 -10 -14 -42 2 -58 8 -7 17 -25 20 -39 5 -21 14 -28 47 -33 44 -7 50 -21
28 -69 -10 -19 -21 -27 -40 -27 -21 0 -27 -5 -30 -27 -2 -20 -10 -29 -31 -34
-42 -11 -54 -35 -62 -116 -4 -40 -11 -73 -16 -73 -5 0 -18 -9 -29 -20 -14 -14
-33 -20 -66 -20 -46 0 -166 -36 -172 -52 -2 -4 -18 -8 -36 -8 -18 0 -41 -7
-52 -15 -10 -8 -32 -15 -47 -15 -15 0 -30 -7 -33 -15 -4 -8 -17 -15 -30 -15
-15 0 -24 -6 -24 -15 0 -8 -8 -15 -19 -15 -10 0 -21 -9 -24 -20 -4 -15 -14
-20 -39 -20 -34 0 -58 -19 -93 -73 -15 -23 -18 -49 -18 -130 0 -204 5 -327 14
-327 13 0 11 -48 -3 -88 -10 -28 -10 -36 0 -39 6 -3 12 -11 12 -18 0 -7 6 -15
14 -18 29 -12 29 26 27 -1339 -1 -829 0 -952 14 -984 8 -20 15 -50 15 -66 0
-19 10 -39 30 -58 16 -16 30 -34 30 -40 0 -5 7 -10 15 -10 9 0 18 -7 21 -15 4
-11 21 -15 59 -15 46 0 57 4 88 34 33 31 36 38 39 104 2 38 9 76 15 84 16 19
30 433 15 442 -20 12 -32 -59 -32 -194 0 -110 -3 -140 -15 -150 -11 -9 -15
-33 -15 -91 0 -69 -2 -80 -22 -93 -12 -9 -26 -16 -30 -16 -5 0 -8 27 -8 61 0
45 -5 67 -19 85 -15 18 -18 34 -14 67 3 23 9 47 14 53 5 6 4 15 -3 22 -9 9 -8
16 4 29 17 20 17 105 0 328 -6 71 -5 115 1 123 6 8 12 132 14 305 3 213 7 294
16 300 9 7 9 10 0 14 -14 5 -18 69 -5 77 12 7 14 186 2 186 -14 0 -12 28 3 33
9 3 12 40 12 142 0 102 -3 139 -12 143 -21 6 -15 19 11 26 29 7 36 30 36 127
0 55 4 78 13 82 10 4 16 34 20 97 3 51 8 94 11 97 2 2 16 -3 30 -12 24 -16 26
-22 21 -64 -4 -25 -8 -75 -9 -111 -2 -36 -6 -72 -9 -80 -3 -8 -8 -208 -11
-445 -2 -244 -9 -444 -15 -462 -6 -22 -6 -35 1 -39 6 -4 8 -22 4 -45 -3 -21
-1 -58 6 -83 11 -40 10 -47 -7 -66 -17 -19 -17 -21 -2 -38 21 -24 23 -88 2
-96 -8 -3 -15 -10 -15 -16 0 -5 7 -10 15 -10 19 0 19 -26 0 -34 -10 -4 -15
-19 -14 -48 1 -43 16 -115 18 -90 0 7 5 11 10 8 5 -3 9 20 9 52 5 373 15 641
27 685 8 30 10 56 5 61 -5 5 -3 20 4 35 10 19 14 91 15 275 1 137 6 269 11
295 4 25 5 52 0 60 -10 19 17 113 36 124 8 4 14 15 14 22 0 17 11 19 98 15 40
-1 62 2 62 9 0 6 6 11 14 11 10 0 15 -21 18 -75 3 -42 8 -78 12 -82 12 -12 19
7 19 52 0 25 4 45 9 45 4 0 8 12 8 28 0 15 3 52 8 82 7 52 8 55 38 58 25 2 33
-1 39 -20 7 -22 7 -22 17 9 11 33 30 43 84 43 17 0 45 7 62 15 35 18 148 15
196 -4 16 -7 36 -9 43 -7 8 3 23 0 35 -7 24 -14 98 -86 98 -96 0 -3 14 -20 30
-38 17 -18 30 -38 30 -46 0 -8 7 -20 15 -27 8 -7 15 -19 15 -27 0 -7 7 -16 15
-19 8 -3 17 -26 21 -50 3 -24 10 -47 15 -50 14 -8 10 -56 -6 -88 -8 -15 -15
-38 -15 -50 0 -12 -7 -31 -15 -42 -19 -25 -19 -116 -1 -157 8 -18 16 -60 18
-95 3 -35 9 -67 15 -70 6 -4 14 -27 18 -52 4 -25 12 -54 18 -65 6 -11 14 -54
18 -95 4 -41 12 -111 17 -155 10 -78 9 -98 -18 -295 -24 -175 3 -420 46 -420
7 0 14 -4 16 -8 2 -4 33 -18 71 -30 81 -26 259 -32 292 -8 11 7 32 16 48 20
15 3 27 11 27 16 0 6 7 10 15 10 8 0 24 8 34 18 39 35 49 41 90 52 49 13 125
5 160 -17 13 -8 37 -29 55 -46 71 -72 148 -86 221 -42 78 47 128 65 183 66 46
2 58 -2 72 -21 21 -28 30 -85 30 -184 0 -40 7 -98 15 -129 8 -32 15 -79 15
-105 0 -59 49 -162 77 -162 7 0 13 -7 13 -15 0 -8 9 -24 20 -35 11 -11 20 -22
20 -24 0 -11 48 -53 73 -64 34 -15 47 -15 47 -2 0 6 -7 10 -15 10 -8 0 -15 7
-15 15 0 8 -9 32 -21 55 -18 34 -25 39 -45 34 -26 -7 -29 1 -14 40 6 17 17 26
32 27 l23 0 -24 12 -23 11 7 156 c5 107 11 162 21 177 12 20 14 128 10 730 -5
732 -7 803 -17 803 -3 0 -9 46 -13 102 -3 56 -12 108 -18 115 -12 15 -29 140
-29 207 1 22 -3 43 -9 46 -5 3 -10 148 -12 350 -3 299 -5 345 -18 345 -9 0
-14 -8 -13 -20 10 -107 -4 -317 -18 -277 -5 12 -15 22 -23 22 -9 0 -17 15 -21
43 -6 36 -28 91 -42 107 -8 9 -23 -25 -23 -52 0 -15 -8 -31 -17 -37 -15 -8
-15 -11 -3 -26 12 -14 12 -18 -1 -26 -8 -5 -23 -7 -34 -4 -11 2 -30 5 -42 5
-16 0 -23 6 -23 20 0 11 -9 29 -20 40 -11 11 -20 29 -20 41 0 12 -5 19 -12 16
-15 -5 -13 -60 2 -65 5 -2 10 -14 10 -26 0 -16 -11 -27 -37 -40 -41 -20 -55
-10 -51 34 3 20 -3 27 -29 35 -18 5 -33 14 -33 21 0 6 -9 19 -20 29 -11 10
-20 31 -20 47 0 32 -19 37 -43 10 -19 -20 -22 -43 -8 -58 5 -5 11 -33 14 -61
6 -52 5 -53 -19 -53 -24 0 -25 -2 -19 -38 7 -43 -2 -55 -47 -66 -16 -3 -28
-11 -28 -16 0 -6 -7 -10 -15 -10 -20 0 -35 40 -24 62 5 9 7 48 5 86 -4 63 -3
71 15 75 10 3 19 13 19 22 0 13 -6 16 -26 12 -22 -4 -28 1 -39 27 l-13 31 -7
-30 c-3 -16 -10 -47 -16 -68 -8 -28 -7 -42 2 -53 14 -17 5 -99 -12 -120 -6 -8
-19 -14 -29 -14 -10 0 -21 -8 -25 -17 -6 -17 -7 -17 -21 2 -8 11 -12 30 -9 45
7 31 -14 63 -37 55 -10 -4 -18 -24 -22 -58 l-7 -52 -59 0 -60 -1 0 31 c0 16 5
37 10 45 7 12 11 8 16 -17 4 -18 13 -33 20 -33 11 0 14 17 14 65 0 51 -3 65
-15 65 -8 0 -15 -7 -15 -15 0 -8 -7 -15 -15 -15 -8 0 -15 6 -15 14 0 7 -9 16
-21 19 -24 6 -21 30 4 35 12 2 17 -3 17 -17 0 -12 6 -21 15 -21 8 0 15 6 15
14 0 8 7 16 15 20 8 3 15 17 15 31 0 21 -5 25 -30 25 -28 0 -30 3 -30 35 0 24
-5 35 -15 35 -7 0 -18 7 -23 16 -5 9 -18 14 -33 12 -19 -2 -23 -8 -21 -27 4
-37 -13 -50 -61 -44 -38 5 -40 4 -23 -9 15 -12 18 -23 14 -55 -6 -39 4 -71 26
-85 8 -5 8 -12 0 -25 -17 -28 -41 -27 -48 1 -4 15 -13 26 -21 26 -19 0 -19 19
0 26 15 6 22 64 8 64 -5 0 -14 4 -22 9 -11 7 -12 13 -3 23 26 32 -27 134 -54
105 -13 -13 -26 -97 -16 -97 4 0 13 -4 20 -9 11 -6 8 -14 -11 -34 -28 -31 -37
-26 -37 19 0 18 -4 36 -10 39 -5 3 -10 14 -10 24 0 31 -18 39 -65 28 -48 -11
-58 -29 -26 -47 22 -11 19 -33 -9 -70 l-18 -24 -24 24 c-22 22 -24 31 -19 80
5 47 9 55 29 58 36 5 30 48 -8 56 -25 5 -30 10 -30 36 0 28 3 30 34 30 19 0
38 -5 42 -11 5 -8 9 -8 14 1 4 7 37 13 78 14 40 2 79 9 87 16 12 10 19 10 27
2 17 -17 47 -15 64 3 14 13 18 13 36 1 17 -12 26 -12 62 0 34 13 47 13 80 2
31 -10 40 -10 44 0 2 8 26 12 68 12 50 0 64 -3 64 -15 0 -8 6 -15 14 -15 8 0
16 7 20 15 6 17 43 19 82 5 19 -8 30 -8 38 0 6 6 102 10 264 10 201 0 265 3
308 16 65 19 73 29 44 56 -19 18 -26 19 -42 9 -15 -9 -23 -7 -46 14 -27 26
-52 33 -52 15 0 -16 -50 -12 -56 5 -4 8 -12 15 -20 15 -30 0 -12 19 24 25 20
3 46 8 56 10 11 2 33 -5 49 -17 52 -37 117 -19 117 34 0 23 30 38 78 38 31 0
41 -4 45 -20 6 -24 57 -29 57 -5 0 21 35 37 65 29 31 -8 31 -13 -1 -43 -16
-16 -28 -21 -35 -14 -5 5 -26 7 -47 4 -32 -5 -37 -10 -40 -35 -2 -16 0 -32 5
-37 11 -11 53 0 53 15 0 7 28 12 77 14 55 2 80 7 86 17 5 10 25 15 61 15 30 0
60 6 72 15 10 8 40 15 65 15 31 0 49 5 52 14 4 10 28 16 79 19 75 4 180 28
201 45 7 5 29 12 49 15 37 6 83 41 73 56 -3 5 -29 12 -58 16 -94 13 -93 12
-100 112 -3 48 -10 101 -16 116 -6 16 -11 54 -11 85 0 66 -9 85 -30 72 -18
-11 -60 -13 -60 -3 0 4 14 20 32 34 l31 28 -24 25 c-13 14 -29 26 -36 26 -18
0 -21 20 -16 86 5 53 3 64 -16 83 -42 42 -72 25 -95 -56 -4 -11 -13 -24 -21
-27 -8 -3 -15 -15 -15 -26 0 -11 -7 -23 -15 -26 -8 -4 -15 -12 -15 -20 0 -8
-6 -14 -12 -14 -13 0 -48 -61 -48 -82 0 -6 -8 -20 -17 -31 -15 -16 -18 -35
-15 -110 2 -95 -3 -127 -19 -127 -6 0 -17 -7 -25 -15 -10 -9 -34 -15 -65 -15
-44 0 -49 -2 -49 -22 0 -13 -9 -42 -20 -66 -19 -42 -21 -43 -60 -40 -40 3 -42
5 -66 63 -13 33 -24 66 -24 73 0 49 -123 71 -174 31 -31 -25 -24 -43 14 -35
19 3 35 -1 51 -14 12 -11 35 -20 51 -20 35 0 38 -25 3 -34 -14 -4 -25 -10 -25
-15 0 -15 -64 -44 -68 -31 -2 5 -9 10 -16 10 -6 0 -19 9 -29 20 -9 11 -26 20
-37 20 -13 0 -20 -7 -20 -20 0 -15 -7 -20 -29 -20 -46 0 -61 10 -61 40 0 15
-7 33 -15 40 -37 30 -21 183 23 218 14 10 14 16 4 32 -9 14 -12 87 -12 256 0
196 3 238 15 250 11 11 15 38 15 100 0 68 -3 84 -15 84 -8 0 -15 6 -15 13 -1
6 -14 28 -30 47 -17 19 -30 37 -30 41 0 13 -204 219 -217 219 -7 0 -13 4 -13
9 0 5 -13 12 -30 16 -16 4 -30 13 -30 21 0 8 -7 14 -15 14 -9 0 -18 6 -21 14
-3 8 -19 19 -35 25 -16 5 -29 16 -30 23 0 7 -2 22 -5 33 -11 53 3 146 24 163
15 11 17 39 16 220 l0 207 -29 52 c-16 30 -46 65 -69 80 -70 49 -91 63 -106
68 -8 3 -28 13 -43 21 -31 15 -152 20 -161 5z m149 -621 c-6 -9 -9 -9 -16 1
-10 17 0 34 13 21 6 -6 7 -16 3 -22z m165 -280 c0 -5 -4 -10 -10 -10 -5 0 -10
5 -10 10 0 6 5 10 10 10 6 0 10 -4 10 -10z m-1264 -340 c6 -6 29 -12 50 -13
l39 -3 3 -78 c2 -44 -1 -91 -7 -106 -5 -15 -5 -32 -1 -36 9 -10 13 -36 11 -71
-1 -20 -7 -23 -41 -23 -34 0 -41 4 -46 24 -6 26 -1 107 11 164 6 26 2 41 -19
72 -35 53 -34 104 0 70z m424 -60 c10 -6 11 -10 3 -10 -7 0 -13 -9 -13 -19 0
-10 -7 -21 -15 -25 -8 -3 -15 -12 -15 -21 0 -17 -27 -20 -50 -5 -12 7 -12 12
0 35 8 15 26 33 40 40 30 17 31 17 50 5z m642 -26 c-9 -16 -10 -16 -21 4 -8
15 -8 21 2 25 19 7 30 -9 19 -29z m144 -48 c16 -17 20 -106 4 -106 -5 0 -10
23 -10 50 0 28 -4 50 -10 50 -5 0 -10 5 -10 10 0 14 9 12 26 -4z m-796 -51 c0
-7 -9 -15 -21 -18 -28 -8 -20 -29 17 -40 33 -11 54 -26 54 -38 0 -18 -51 -41
-96 -42 -38 -1 -49 3 -54 18 -7 20 16 118 29 123 4 1 17 9 27 17 20 14 44 4
44 -20z m820 -109 c0 -13 7 -26 15 -30 20 -7 20 -46 0 -46 -17 0 -35 39 -35
76 0 13 5 24 10 24 6 0 10 -11 10 -24z m30 -152 c0 -14 -12 -19 -23 -8 -9 9 4
35 14 28 5 -3 9 -12 9 -20z m-1020 -36 c0 -16 -3 -19 -11 -11 -6 6 -8 16 -5
22 11 17 16 13 16 -11z m185 2 c3 -5 1 -10 -4 -10 -6 0 -11 5 -11 10 0 6 2 10
4 10 3 0 8 -4 11 -10z m-367 -60 c2 -24 8 -50 14 -57 6 -7 7 -29 3 -54 -5 -27
-3 -50 6 -65 16 -31 39 -31 39 0 0 33 13 39 60 31 35 -6 40 -10 40 -33 0 -28
-25 -62 -47 -62 -7 0 -13 -7 -13 -15 0 -9 9 -15 25 -15 44 0 26 -41 -32 -75
-18 -11 -33 -25 -33 -32 0 -9 -18 -13 -60 -13 -44 0 -60 -4 -60 -14 0 -7 -6
-19 -14 -25 -19 -16 -30 2 -22 35 5 20 12 24 47 24 25 0 42 5 45 14 3 8 19 18
35 21 23 5 29 12 29 32 0 23 -3 25 -27 19 -90 -22 -103 -18 -103 32 0 13 -7
31 -16 40 -13 13 -15 33 -12 111 5 113 23 154 67 149 23 -3 26 -8 29 -48z
m1042 40 c0 -5 -4 -10 -10 -10 -5 0 -10 5 -10 10 0 6 5 10 10 10 6 0 10 -4 10
-10z m-1213 -22 c-3 -8 -6 -5 -6 6 -1 11 2 17 5 13 3 -3 4 -12 1 -19z m576 -1
c6 -17 -4 -107 -12 -107 -35 1 -54 91 -23 110 23 13 29 12 35 -3z m132 -16 c3
-11 12 -22 20 -25 9 -3 15 -19 15 -41 0 -20 7 -43 15 -51 8 -9 15 -31 15 -50
0 -22 6 -37 15 -40 9 -4 15 -19 15 -35 0 -17 6 -32 15 -35 8 -4 15 -17 15 -30
0 -15 9 -27 28 -36 21 -10 28 -21 30 -51 3 -36 3 -37 -32 -37 -26 0 -44 8 -65
29 -17 16 -39 32 -50 36 -12 3 -21 11 -21 16 0 5 -11 14 -25 19 -14 5 -25 14
-25 20 0 5 -11 10 -25 10 -14 0 -28 7 -31 15 -4 8 -13 15 -21 15 -13 0 -15 11
-11 57 3 31 10 59 16 61 7 2 12 15 12 30 0 14 8 34 17 44 12 13 13 22 6 29 -8
8 -6 19 6 40 19 34 56 39 66 10z m2058 -13 c4 -12 -1 -32 -12 -47 -10 -14 -20
-33 -24 -42 -4 -12 -13 -15 -31 -12 -37 7 -43 23 -18 44 12 9 22 26 22 36 0
42 53 60 63 21z m-2219 -123 c10 -36 6 -63 -9 -69 -8 -3 -15 -17 -15 -30 0
-15 -8 -30 -20 -36 -11 -6 -20 -19 -20 -29 0 -11 -12 -24 -30 -31 -16 -7 -30
-16 -30 -21 0 -5 -11 -9 -25 -9 -14 0 -25 2 -25 5 0 3 11 18 25 33 14 15 25
39 25 54 0 18 5 28 15 28 8 0 15 7 15 15 0 8 9 32 20 52 11 21 20 45 20 54 0
8 3 18 6 22 10 10 42 -15 48 -38z m2082 -31 c-3 -9 -3 -21 1 -27 4 -7 8 -42 9
-79 1 -50 -2 -68 -11 -68 -18 0 -24 21 -14 42 8 16 -2 64 -22 101 -7 13 -5 19
6 23 8 3 12 10 9 15 -3 5 2 9 11 9 12 0 15 -5 11 -16z m-1106 -24 c0 -5 -2
-10 -4 -10 -3 0 -8 5 -11 10 -3 6 -1 10 4 10 6 0 11 -4 11 -10z m183 -97 c-19
-7 -16 -24 10 -74 15 -28 21 -50 16 -59 -4 -8 -10 -26 -13 -40 -8 -38 -31 -64
-50 -57 -22 9 -20 49 4 75 24 25 25 45 5 62 -21 17 -19 76 3 89 9 6 22 10 27
10 6 0 4 -3 -2 -6z m-1603 -28 c0 -8 -7 -15 -15 -15 -16 0 -20 12 -8 23 11 12
23 8 23 -8z m1425 5 c3 -5 1 -10 -4 -10 -6 0 -11 5 -11 10 0 6 2 10 4 10 3 0
8 -4 11 -10z m1105 -66 c0 -8 -5 -12 -10 -9 -6 4 -8 11 -5 16 9 14 15 11 15
-7z m-1910 -70 c0 -2 -9 -4 -21 -4 -11 0 -18 4 -14 10 5 8 35 3 35 -6z m1848
-46 c-2 -13 -11 -24 -23 -26 -11 -2 -27 -12 -35 -22 -8 -10 -24 -20 -35 -22
-17 -2 -21 3 -23 35 -3 35 -2 37 27 37 16 0 33 5 36 10 3 6 17 10 31 10 21 0
25 -4 22 -22z m147 -9 c8 -12 -24 -51 -36 -43 -5 3 -9 16 -9 30 0 17 5 24 19
24 11 0 23 -5 26 -11z m-1801 -40 c-10 -17 -44 -10 -44 9 0 10 3 22 7 25 9 9
44 -23 37 -34z m-581 -6 c4 -7 18 -13 30 -13 18 0 19 -2 7 -10 -8 -5 -48 -10
-87 -10 -64 0 -73 2 -73 18 0 31 20 42 69 35 25 -3 50 -12 54 -20z m752 -94
c4 -12 3 -25 -3 -31 -13 -13 -52 12 -52 34 0 27 47 24 55 -3z m1265 1 c0 -23
-1 -24 -35 -8 -34 15 -32 28 5 28 23 0 30 -4 30 -20z m-926 -38 c65 -4 96 -17
96 -40 0 -17 -137 -23 -175 -8 -36 15 -40 22 -29 51 4 10 12 14 23 9 9 -4 47
-9 85 -12z m326 8 c0 -13 -50 -13 -70 0 -11 7 -4 10 28 10 23 0 42 -4 42 -10z
m244 -6 c4 -10 -1 -22 -11 -30 -21 -16 -33 -17 -51 -5 -12 7 -12 12 -1 30 16
25 54 28 63 5z m-1151 -19 c14 -10 17 -24 15 -62 -3 -44 -5 -48 -30 -51 -20
-2 -28 1 -28 12 0 24 -24 19 -56 -10 -16 -16 -30 -22 -32 -15 -2 6 -8 11 -14
11 -6 0 -16 7 -22 16 -17 22 -182 26 -196 4 -10 -17 -15 -14 -24 17 -6 18 0
25 37 41 24 10 65 22 93 26 27 4 57 9 66 12 13 4 21 -3 30 -23 10 -24 12 -25
15 -8 2 11 6 25 7 30 5 16 118 16 139 0z m1010 -2 c-7 -2 -19 -2 -25 0 -7 3
-2 5 12 5 14 0 19 -2 13 -5z m-1433 -64 c0 -5 -9 -19 -20 -32 -17 -20 -27 -22
-63 -18 -37 5 -42 9 -42 31 0 22 5 26 40 30 47 6 85 1 85 -11z m667 -18 c10
-16 9 -20 -3 -25 -23 -9 -24 -8 -24 19 0 30 11 32 27 6z m-1237 -16 c0 -8 -4
-15 -10 -15 -5 0 -10 7 -10 15 0 8 5 15 10 15 6 0 10 -7 10 -15z m661 -28 c-1
-12 -15 -9 -19 4 -3 6 1 10 8 8 6 -3 11 -8 11 -12z m-691 -32 c0 -8 -7 -15
-15 -15 -16 0 -20 12 -8 23 11 12 23 8 23 -8z m90 0 c0 -10 -10 -15 -30 -15
-20 0 -30 5 -30 15 0 10 10 15 30 15 20 0 30 -5 30 -15z m135 5 c17 0 17 -2 5
-10 -19 -12 -100 -13 -100 -1 0 12 29 20 55 15 11 -2 29 -4 40 -4z m-577 -52
c-3 -20 -10 -23 -52 -26 -64 -4 -85 15 -27 24 23 4 44 11 47 15 11 19 35 9 32
-13z m700 -15 c2 -7 -3 -13 -11 -13 -8 0 -20 -7 -27 -15 -7 -8 -23 -15 -36
-15 -13 0 -28 -8 -33 -17 -9 -16 -12 -16 -20 -3 -6 8 -20 15 -32 15 -12 0 -24
6 -26 13 -4 9 12 12 57 12 54 0 63 3 67 21 4 15 12 19 31 17 14 -2 27 -9 30
-15z m62 -29 c0 -30 -19 -28 -31 4 -7 18 -5 22 11 22 15 0 20 -7 20 -26z
m-610 -4 c0 -5 -4 -10 -9 -10 -5 0 -12 -16 -15 -36 -4 -21 -12 -34 -19 -31 -7
2 -12 9 -11 15 1 7 2 26 3 42 1 25 5 30 26 30 14 0 25 -4 25 -10z m290 -19 c0
-18 6 -31 17 -35 15 -6 15 -8 3 -17 -8 -5 -26 -7 -40 -4 -14 3 -39 1 -57 -4
-25 -7 -33 -6 -37 5 -3 8 1 17 9 20 9 4 15 19 15 35 0 28 2 29 45 29 43 0 45
-1 45 -29z m636 -4 c11 -11 -29 -87 -46 -87 -9 0 -25 7 -38 15 -19 14 -24 14
-46 0 -13 -9 -27 -23 -30 -31 -9 -22 -23 -17 -30 12 -9 34 -27 51 -60 60 -34
8 -28 27 10 34 43 8 231 6 240 -3z m-528 -46 c5 -30 -15 -52 -28 -31 -5 8 -10
25 -10 38 0 32 34 25 38 -7z m-768 9 c0 -5 -4 -10 -10 -10 -5 0 -10 5 -10 10
0 6 5 10 10 10 6 0 10 -4 10 -10z m190 -5 c0 -8 7 -15 15 -15 8 0 15 -4 15
-10 0 -15 -17 -12 -40 7 -24 21 -26 33 -5 33 8 0 15 -7 15 -15z m254 -1 c8
-20 8 -120 -1 -272 -5 -96 -9 -122 -20 -122 -8 0 -13 -7 -11 -17 3 -15 13 -18
66 -16 44 2 62 -1 62 -10 0 -21 -34 -43 -76 -50 -21 -4 -44 -14 -51 -23 -8
-11 -18 -14 -35 -8 -13 4 -47 6 -75 5 -73 -2 -113 19 -113 61 0 30 0 31 45 26
49 -6 79 12 57 34 -7 7 -12 22 -12 35 0 19 5 23 29 23 28 0 28 1 35 77 3 42 6
105 6 140 0 47 4 65 15 69 8 4 15 14 15 23 0 37 52 57 64 25z m446 6 c0 -5 -7
-10 -15 -10 -8 0 -15 5 -15 10 0 6 7 10 15 10 8 0 15 -4 15 -10z m120 -5 c0
-9 -6 -12 -15 -9 -8 4 -12 10 -9 15 8 14 24 10 24 -6z m-92 -26 c-2 -6 -8 -10
-13 -10 -5 0 -11 4 -13 10 -2 6 4 11 13 11 9 0 15 -5 13 -11z m-934 -53 c14
-5 16 -10 8 -18 -14 -14 -42 7 -42 31 0 10 3 12 8 5 4 -6 16 -14 26 -18z m-27
-88 c-3 -8 -6 -5 -6 6 -1 11 2 17 5 13 3 -3 4 -12 1 -19z m1371 -51 c2 -54 7
-75 20 -86 13 -10 14 -14 4 -18 -7 -3 -17 -16 -23 -30 -12 -31 -29 -21 -29 18
0 19 -5 29 -15 29 -8 0 -15 9 -15 20 0 11 7 23 15 26 11 5 15 21 15 60 0 37 4
54 13 54 8 0 13 -23 15 -73z m467 43 c3 -5 0 -19 -7 -31 -10 -17 -10 -23 0
-26 6 -3 12 -11 12 -19 0 -8 -6 -14 -12 -14 -26 1 -48 28 -48 58 0 28 7 35 42
41 4 0 9 -3 13 -9z m-1825 -45 c0 -8 5 -15 10 -15 6 0 10 -8 10 -17 0 -14 -4
-12 -25 7 -28 27 -32 40 -10 40 8 0 15 -7 15 -15z m1220 5 c0 -5 -9 -10 -20
-10 -11 0 -20 5 -20 10 0 6 9 10 20 10 11 0 20 -4 20 -10z m420 -34 c0 -8 7
-17 16 -20 11 -4 15 -17 12 -48 -2 -38 0 -43 20 -46 31 -5 27 -46 -5 -50 -13
-2 -23 1 -23 7 0 5 -11 23 -25 38 -41 47 -45 52 -45 62 0 5 7 11 15 15 8 3 15
17 15 31 0 14 5 25 10 25 6 0 10 -6 10 -14z m-107 -49 c10 -4 15 -11 12 -17
-8 -13 -55 -13 -55 -1 0 19 13 42 19 34 3 -5 14 -12 24 -16z m-303 -31 c0 -13
7 -26 15 -30 22 -8 18 -36 -5 -36 -13 0 -22 9 -26 28 -3 15 -8 35 -11 45 -3
11 1 17 11 17 10 0 16 -9 16 -24z m540 -31 c0 -24 -5 -35 -15 -35 -10 0 -15
11 -15 35 0 24 5 35 15 35 10 0 15 -11 15 -35z m-1110 -1 c0 -31 -23 -28 -28
4 -2 15 2 22 12 22 11 0 16 -9 16 -26z m2163 17 c18 -6 18 -8 -2 -31 -20 -24
-22 -24 -35 -7 -8 10 -33 21 -55 24 -23 3 -41 10 -41 14 0 11 107 11 133 0z
m-1243 -39 c0 -26 -42 -47 -66 -34 -17 9 -16 11 9 17 15 4 27 13 27 21 0 8 7
14 15 14 8 0 15 -8 15 -18z m280 14 c0 -3 -4 -8 -10 -11 -5 -3 -10 -1 -10 4 0
6 5 11 10 11 6 0 10 -2 10 -4z m1040 -42 c0 -8 -4 -12 -10 -9 -5 3 -10 10 -10
16 0 5 5 9 10 9 6 0 10 -7 10 -16z m-2230 -21 c-1 -35 -14 -53 -41 -53 -26 0
-29 4 -29 30 0 28 3 30 35 30 19 0 35 -3 35 -7z m1100 -8 c0 -9 -9 -15 -21
-15 -16 0 -20 -5 -17 -27 2 -23 -1 -29 -19 -31 -26 -4 -31 13 -7 22 10 4 13
13 9 26 -9 27 1 40 31 40 15 0 24 -6 24 -15z m199 -17 c20 3 31 10 31 21 1 13
3 13 16 -4 28 -37 14 -50 -48 -47 -39 3 -68 -1 -90 -12 -17 -9 -35 -13 -40 -8
-12 12 20 52 41 52 11 0 22 8 25 17 6 15 8 14 21 -4 10 -14 22 -19 44 -15z
m-1939 18 c0 -3 -4 -8 -10 -11 -5 -3 -10 -1 -10 4 0 6 5 11 10 11 6 0 10 -2
10 -4z m2270 -6 c0 -5 -2 -10 -4 -10 -3 0 -8 5 -11 10 -3 6 -1 10 4 10 6 0 11
-4 11 -10z m-150 -25 c0 -10 -10 -15 -30 -15 -20 0 -30 5 -30 15 0 10 10 15
30 15 20 0 30 -5 30 -15z m55 5 c3 -5 1 -10 -4 -10 -6 0 -11 5 -11 10 0 6 2
10 4 10 3 0 8 -4 11 -10z m-580 -40 c-3 -5 -22 -10 -41 -10 -19 0 -34 5 -34
10 0 6 18 10 41 10 24 0 38 -4 34 -10z m-1169 -107 c-3 -3 -13 -3 -22 1 -16 6
-15 8 2 25 18 17 19 17 22 -1 2 -11 1 -22 -2 -25z m2389 37 c3 -5 16 -10 27
-10 19 0 20 -4 14 -46 -3 -26 -6 -60 -6 -76 0 -21 -6 -31 -22 -37 -21 -8 -23
-5 -30 38 -14 103 -6 168 17 131z m-2249 -45 c4 -8 4 -21 1 -29 -5 -12 -11
-12 -31 -3 -37 17 -33 47 6 47 10 0 21 -7 24 -15z m-386 -174 c0 -14 -6 -17
-25 -13 -14 2 -25 11 -25 18 0 8 10 14 25 14 18 0 25 -5 25 -19z m2692 4 c0
-5 -5 -11 -11 -13 -6 -2 -11 4 -11 13 0 9 5 15 11 13 6 -2 11 -8 11 -13z"/>
<path d="M1883 5018 c2 -7 10 -13 17 -13 7 0 15 6 18 13 2 7 -5 12 -18 12 -13
0 -20 -5 -17 -12z"/>
<path d="M8380 6510 c0 -5 5 -10 11 -10 5 0 7 5 4 10 -3 6 -8 10 -11 10 -2 0
-4 -4 -4 -10z"/>
<path d="M8570 6440 c0 -5 5 -10 10 -10 6 0 10 5 10 10 0 6 -4 10 -10 10 -5 0
-10 -4 -10 -10z"/>
<path d="M8446 6345 c-21 -11 -37 -13 -56 -7 -18 7 -34 5 -53 -5 -23 -12 -27
-20 -27 -59 l0 -45 60 2 c44 2 63 7 70 18 7 13 13 14 42 3 47 -16 78 -15 78 3
0 10 10 15 29 15 34 0 44 11 35 35 -4 10 -14 15 -25 12 -11 -3 -22 -1 -25 4
-3 5 -20 9 -39 9 -20 0 -35 6 -39 15 -7 19 -14 19 -50 0z"/>
<path d="M8760 6285 c0 -9 5 -15 11 -13 6 2 11 8 11 13 0 5 -5 11 -11 13 -6 2
-11 -4 -11 -13z"/>
<path d="M8726 6263 c-11 -11 -6 -23 9 -23 8 0 15 4 15 9 0 13 -16 22 -24 14z"/>
<path d="M8392 6203 c-24 -5 -28 -39 -4 -37 6 1 32 2 57 3 31 1 45 5 45 15 0
21 -42 30 -98 19z"/>
<path d="M8400 6125 c0 -10 10 -15 30 -15 20 0 30 5 30 15 0 10 -10 15 -30 15
-20 0 -30 -5 -30 -15z"/>
<path d="M8588 5885 c-12 -15 -18 -42 -18 -75 0 -36 -4 -52 -15 -56 -8 -4 -15
-17 -15 -30 0 -19 5 -24 24 -24 21 0 24 5 29 68 4 42 12 71 22 78 8 6 15 18
15 26 0 8 5 19 12 26 9 9 7 12 -12 12 -15 0 -32 -11 -42 -25z"/>
<path d="M5460 5870 c0 -5 14 -10 30 -10 17 0 30 5 30 10 0 6 -13 10 -30 10
-16 0 -30 -4 -30 -10z"/>
<path d="M4442 5708 c6 -18 28 -21 28 -4 0 9 -7 16 -16 16 -9 0 -14 -5 -12
-12z"/>
<path d="M5220 5670 c0 -5 4 -10 9 -10 6 0 13 5 16 10 3 6 -1 10 -9 10 -9 0
-16 -4 -16 -10z"/>
<path d="M5308 5673 c7 -3 16 -2 19 1 4 3 -2 6 -13 5 -11 0 -14 -3 -6 -6z"/>
<path d="M5370 5646 c0 -8 6 -16 13 -19 9 -3 12 -16 9 -36 -4 -30 -3 -31 32
-31 35 0 36 1 36 40 0 29 -5 42 -19 50 -29 15 -71 13 -71 -4z"/>
<path d="M5130 5640 c20 -13 50 -13 50 0 0 6 -15 10 -32 10 -25 0 -29 -3 -18
-10z"/>
<path d="M4450 5605 c0 -28 15 -34 24 -9 10 25 7 34 -9 34 -9 0 -15 -9 -15
-25z"/>
<path d="M5057 5624 c-4 -4 0 -15 9 -25 15 -17 15 -19 -9 -30 -32 -14 -26 -29
11 -29 17 0 32 8 40 20 15 25 8 40 -18 40 -10 0 -20 7 -22 16 -2 9 -6 12 -11
8z"/>
<path d="M5295 5608 c-17 -20 -19 -36 -16 -123 1 -55 4 -102 7 -104 11 -12 17
17 20 106 2 53 8 101 14 107 12 12 13 36 2 36 -4 0 -16 -10 -27 -22z"/>
<path d="M8600 5606 c0 -15 -7 -43 -16 -64 -8 -20 -17 -62 -18 -92 -2 -30 -7
-91 -11 -136 -7 -79 2 -124 24 -124 8 0 13 83 15 252 1 46 4 58 19 62 15 4 18
13 15 62 -2 35 -8 59 -15 62 -8 2 -13 -6 -13 -22z"/>
<path d="M4930 5610 c0 -5 7 -10 15 -10 8 0 15 5 15 10 0 6 -7 10 -15 10 -8 0
-15 -4 -15 -10z"/>
<path d="M4620 5590 c0 -5 5 -10 11 -10 5 0 7 5 4 10 -3 6 -8 10 -11 10 -2 0
-4 -4 -4 -10z"/>
<path d="M4672 5568 c2 -13 10 -23 18 -23 8 0 16 10 18 23 3 17 -2 22 -18 22
-16 0 -21 -5 -18 -22z"/>
<path d="M4734 5574 c3 -9 6 -18 6 -20 0 -2 7 -4 15 -4 8 0 15 9 15 20 0 14
-7 20 -21 20 -15 0 -19 -4 -15 -16z"/>
<path d="M4965 5580 c4 -6 11 -8 16 -5 14 9 11 15 -7 15 -8 0 -12 -5 -9 -10z"/>
<path d="M5401 5531 c-6 -11 -11 -36 -11 -55 0 -20 -4 -36 -8 -36 -4 0 -14
-16 -21 -35 -11 -32 -10 -38 9 -65 23 -33 22 -60 -4 -95 -12 -16 -17 -18 -27
-7 -17 16 -29 15 -29 -3 0 -8 -6 -15 -14 -15 -8 0 -16 -7 -20 -15 -3 -8 -11
-15 -17 -15 -7 0 -17 -7 -24 -16 -9 -13 -16 -14 -31 -6 -17 10 -17 11 9 17 28
7 38 35 12 35 -9 0 -15 9 -15 24 0 33 -10 57 -21 50 -5 -3 -9 -20 -9 -38 0
-19 -7 -39 -15 -46 -8 -7 -15 -20 -15 -30 0 -10 -11 -25 -25 -34 -23 -15 -28
-15 -55 -1 -16 8 -40 15 -54 15 -19 0 -26 7 -31 30 -4 17 -11 30 -16 30 -17 0
-9 123 10 166 20 45 17 94 -6 94 -8 0 -13 8 -12 18 5 50 -25 61 -36 12 -7 -33
-14 -37 -33 -18 -10 10 -17 10 -32 0 -11 -6 -42 -12 -69 -12 -56 0 -67 -10
-51 -41 9 -15 15 -18 23 -10 15 15 82 14 108 -1 17 -10 23 -10 26 0 13 36 22
-1 25 -109 2 -102 6 -122 21 -130 27 -15 20 -45 -15 -71 -29 -20 -45 -23 -143
-24 l-110 -1 -3 -28 c-2 -15 4 -66 13 -112 9 -46 14 -95 11 -109 -10 -37 21
-31 39 9 31 62 38 72 72 95 42 27 108 30 121 5 7 -11 27 -18 66 -21 31 -2 59
-8 62 -13 3 -5 2 -24 -2 -44 -8 -44 -34 -48 -34 -5 0 34 -12 38 -40 12 -20
-18 -20 -19 10 -47 27 -25 29 -32 23 -74 -3 -25 -11 -49 -16 -52 -5 -4 -7 -14
-4 -23 4 -9 -2 -23 -13 -34 -17 -16 -19 -31 -16 -159 1 -83 7 -147 13 -155 6
-7 11 -24 11 -38 -1 -14 0 -86 2 -160 2 -108 5 -139 18 -153 15 -17 15 -19 0
-28 -15 -8 -16 -28 -15 -157 2 -81 6 -152 9 -158 4 -6 12 -59 17 -118 6 -58
15 -115 21 -126 5 -10 10 -35 10 -54 0 -19 6 -55 14 -78 8 -24 18 -74 22 -113
3 -38 13 -79 20 -90 8 -11 14 -27 14 -37 0 -10 4 -18 9 -18 5 0 12 -14 16 -31
4 -17 13 -33 21 -36 8 -3 14 -11 14 -18 0 -19 31 -42 72 -53 61 -17 178 28
178 67 0 9 5 22 12 29 10 10 40 169 40 212 -1 50 -24 166 -37 180 -11 12 -15
40 -15 107 0 54 -6 107 -15 134 -13 39 -15 119 -13 559 2 388 6 514 15 517 9
3 12 82 13 314 0 245 3 315 14 332 10 15 13 52 12 122 -1 95 -2 100 -23 103
-14 2 -26 -4 -32 -17z m-50 -559 c-11 -8 -21 -21 -21 -29 0 -8 -4 -11 -10 -8
-11 7 -14 58 -4 68 3 3 17 0 31 -6 l25 -11 -21 -14z m-111 -11 c0 -16 8 -37
17 -46 14 -14 14 -20 4 -37 -10 -16 -10 -26 0 -49 9 -24 8 -43 -6 -102 -10
-39 -22 -75 -29 -79 -7 -5 -1 -17 17 -36 30 -31 37 -86 15 -123 -10 -17 -10
-23 0 -26 6 -3 12 -17 12 -32 0 -15 -6 -33 -12 -40 -10 -11 -10 -14 0 -18 21
-8 13 -31 -13 -37 -14 -4 -25 -11 -25 -16 0 -5 11 -12 25 -16 32 -8 34 -51 4
-83 -16 -17 -24 -20 -35 -10 -8 6 -14 22 -14 35 0 13 -4 24 -10 24 -14 0 -12
54 2 68 9 9 9 15 0 24 -7 7 -12 24 -12 40 0 15 -8 32 -17 38 -13 8 -14 13 -5
16 19 9 14 58 -7 71 -23 14 -61 6 -61 -14 0 -7 7 -25 16 -38 8 -13 14 -36 12
-52 -2 -23 -7 -28 -27 -25 -14 1 -27 5 -29 7 -3 3 -7 35 -9 72 -2 38 -5 76 -7
85 -2 10 7 29 19 43 15 15 23 35 22 52 -1 19 3 28 13 28 11 0 14 -9 12 -33 -1
-22 3 -35 13 -38 24 -9 18 -24 -10 -24 -16 0 -25 -6 -25 -15 0 -22 27 -30 56
-17 19 9 24 19 24 46 0 22 -6 36 -16 40 -11 4 -15 16 -12 38 2 29 0 33 -21 30
-15 -1 -32 7 -47 23 -28 31 -28 32 -9 51 8 9 15 24 15 35 0 10 6 19 14 19 8 0
16 7 20 15 7 19 26 20 26 1 0 -20 30 -29 37 -10 3 8 0 27 -8 42 -7 15 -15 30
-17 35 -2 4 5 7 16 7 12 0 24 11 32 30 16 39 40 39 40 1z m90 -80 c0 -33 -10
-44 -28 -32 -9 5 -9 13 1 34 16 35 27 34 27 -2z m-220 9 c0 -5 -4 -10 -9 -10
-6 0 -13 5 -16 10 -3 6 1 10 9 10 9 0 16 -4 16 -10z m220 -125 c0 -8 -4 -15
-10 -15 -5 0 -10 7 -10 15 0 8 5 15 10 15 6 0 10 -7 10 -15z m3 -107 c7 -23 1
-38 -14 -38 -5 0 -9 14 -9 30 0 35 15 40 23 8z m-219 -350 c-3 -72 -24 -94
-24 -25 0 36 -4 46 -20 50 -34 9 -24 37 13 37 l33 0 -2 -62z m216 -43 c0 -19
0 -38 1 -42 0 -4 -4 -9 -10 -11 -7 -2 -11 14 -11 42 0 25 5 46 10 46 6 0 10
-16 10 -35z m-85 -134 c7 -12 -12 -24 -25 -16 -11 7 -4 25 10 25 5 0 11 -4 15
-9z m85 -81 c0 -11 -4 -20 -10 -20 -5 0 -10 9 -10 20 0 11 5 20 10 20 6 0 10
-9 10 -20z m-70 -74 c0 -8 -5 -18 -10 -21 -17 -11 -40 3 -34 20 8 19 44 20 44
1z m-149 -47 c20 -20 20 -22 4 -38 -14 -13 -18 -13 -22 -2 -3 7 -14 21 -24 29
-11 9 -19 20 -19 24 0 16 41 7 61 -13z m159 -114 c0 -8 -6 -15 -14 -15 -17 0
-28 14 -19 24 12 12 33 6 33 -9z"/>
<path d="M5126 4781 c-9 -27 5 -46 28 -38 20 8 21 37 2 37 -8 0 -16 6 -19 13
-2 6 -7 1 -11 -12z"/>
<path d="M5150 5500 c0 -11 5 -20 10 -20 6 0 10 9 10 20 0 11 -4 20 -10 20 -5
0 -10 -9 -10 -20z"/>
<path d="M5005 5499 c-9 -13 -5 -16 20 -21 12 -2 21 3 23 15 4 19 -32 25 -43
6z"/>
<path d="M3505 5460 c0 -27 4 -40 13 -40 10 0 12 7 8 23 -3 12 -6 30 -6 40 0
9 -3 17 -8 17 -4 0 -7 -18 -7 -40z"/>
<path d="M4590 5472 c0 -12 -7 -25 -15 -28 -20 -8 -19 -30 1 -38 16 -6 49 8
71 30 19 18 16 24 -12 24 -13 0 -29 8 -34 18 -9 15 -10 14 -11 -6z"/>
<path d="M4347 5449 c-10 -11 -16 -24 -12 -27 3 -4 9 -2 13 4 4 6 15 13 25 17
10 4 15 11 12 17 -9 15 -19 12 -38 -11z"/>
<path d="M3030 5425 c0 -17 18 -19 38 -6 11 7 10 10 -3 15 -26 10 -35 7 -35
-9z"/>
<path d="M3760 5424 c0 -11 5 -14 16 -10 9 3 27 6 40 6 13 0 24 5 24 10 0 6
-18 10 -40 10 -30 0 -40 -4 -40 -16z"/>
<path d="M4176 5431 c-6 -9 29 -41 44 -41 6 0 10 5 10 10 0 6 14 10 30 10 19
0 30 5 30 14 0 10 -15 14 -55 15 -30 0 -56 -3 -59 -8z"/>
<path d="M5120 5424 c0 -9 5 -14 12 -12 18 6 21 28 4 28 -9 0 -16 -7 -16 -16z"/>
<path d="M3540 5381 c0 -23 -6 -32 -27 -39 -28 -10 -28 -10 8 -11 41 -1 53 15
43 55 -9 33 -24 30 -24 -5z"/>
<path d="M4081 5388 c-7 -20 -5 -23 16 -26 24 -3 56 24 47 40 -11 18 -55 8
-63 -14z"/>
<path d="M3620 5360 c19 -13 30 -13 30 0 0 6 -10 10 -22 10 -19 0 -20 -2 -8
-10z"/>
<path d="M5280 5316 c0 -14 5 -26 10 -26 6 0 10 9 10 19 0 11 -4 23 -10 26 -6
4 -10 -5 -10 -19z"/>
<path d="M3540 5292 c0 -18 6 -32 15 -36 12 -4 14 -14 10 -38 -3 -18 -1 -39 4
-47 8 -12 12 -12 26 2 9 10 21 17 26 17 5 0 9 14 9 30 0 17 -5 30 -11 30 -7 0
-27 16 -45 36 l-34 35 0 -29z"/>
<path d="M4591 5214 c0 -11 3 -14 6 -6 3 7 2 16 -1 19 -3 4 -6 -2 -5 -13z"/>
<path d="M4588 5135 c-10 -15 -8 -214 2 -220 4 -2 10 3 12 13 6 27 -6 218 -14
207z"/>
<path d="M4580 4851 c0 -17 5 -33 10 -36 6 -4 10 8 10 29 0 20 -4 36 -10 36
-5 0 -10 -13 -10 -29z"/>
<path d="M4930 4801 c0 -12 6 -21 15 -21 8 0 15 4 15 9 0 5 -7 14 -15 21 -13
10 -15 9 -15 -9z"/>
<path d="M7950 4611 c-12 -9 -12 -11 2 -16 23 -9 63 -2 61 10 -3 14 -45 17
-63 6z"/>
<path d="M7692 4583 c-30 -6 -18 -23 16 -23 37 0 60 15 37 24 -9 3 -20 5 -23
5 -4 -1 -17 -4 -30 -6z"/>
<path d="M7675 4470 c-4 -6 -62 -10 -141 -10 -74 0 -134 -3 -134 -8 0 -14 52
-63 77 -73 28 -10 126 -12 136 -2 4 3 30 8 57 9 32 2 59 10 76 23 15 12 33 21
40 21 15 0 17 10 8 34 -5 13 -9 14 -21 5 -10 -9 -17 -9 -25 -1 -15 15 -65 16
-73 2z"/>
<path d="M4650 4160 c0 -11 5 -20 10 -20 6 0 10 9 10 20 0 11 -4 20 -10 20 -5
0 -10 -9 -10 -20z"/>
<path d="M8422 4030 c0 -14 2 -19 5 -12 2 6 2 18 0 25 -3 6 -5 1 -5 -13z"/>
<path d="M8417 3974 c-12 -49 -11 -194 1 -206 18 -18 24 47 15 147 -7 72 -10
84 -16 59z"/>
<path d="M4650 3961 c0 -17 5 -31 10 -31 6 0 10 11 10 24 0 14 -4 28 -10 31
-6 4 -10 -7 -10 -24z"/>
<path d="M8410 3728 c0 -7 -3 -23 -6 -34 -4 -16 0 -23 15 -27 24 -6 31 -57 7
-57 -18 0 -26 -52 -26 -176 0 -64 -4 -104 -12 -112 -9 -9 -9 -15 0 -24 15 -15
16 -60 1 -75 -8 -8 -7 -23 6 -57 24 -62 47 -61 78 3 19 38 22 61 8 61 -5 0 -9
53 -10 118 -1 160 -12 322 -22 322 -4 0 -9 14 -11 32 -3 30 -28 54 -28 26z"/>
<path d="M8392 3640 c0 -14 2 -19 5 -12 2 6 2 18 0 25 -3 6 -5 1 -5 -13z"/>
<path d="M2176 3583 c-8 -8 -8 -140 0 -170 9 -32 18 -29 33 13 9 26 10 39 2
47 -6 6 -11 32 -11 58 0 45 -10 66 -24 52z"/>
<path d="M1795 3000 c-8 -13 14 -42 26 -34 5 3 9 14 9 25 0 20 -24 26 -35 9z"/>
<path d="M4650 2829 c0 -5 5 -7 10 -4 6 3 10 8 10 11 0 2 -4 4 -10 4 -5 0 -10
-5 -10 -11z"/>
<path d="M4676 2274 c-9 -22 -8 -24 9 -24 8 0 15 6 15 14 0 22 -17 28 -24 10z"/>
</g>
</svg>
