<svg version="1.0" xmlns="http://www.w3.org/2000/svg" width="1440" height="1440" viewBox="0 0 1080 1080"><path d="M749 213.9c0 .5-1.9 1.2-4.2 1.6-2.4.4-4.7 1.1-5.3 1.5-.5.4-2.7 1-4.7 1.4-2.6.5-5.4 2.2-8.8 5.5-2.7 2.6-5 5.3-5 5.8 0 .6-.9 1.3-2 1.6-1.3.3-2 1.4-2 3 0 1.4-.4 2.8-.9 3.1-.5.3-1.2 2.6-1.6 5.1-.3 2.6-1.3 4.9-2.1 5.2-1.9.7-1.9 10.9.1 14.7.8 1.5 1.5 4.8 1.5 7.1 0 2.5.6 5 1.5 5.9.8.8 1.5 2.1 1.5 2.9 0 .8.9 2.2 2 3.2s2 2.4 2 3.2c0 .7.4 1.3.9 1.3s1.3 1 1.7 2.2c.4 1.3 1 2.5 1.3 2.8.4.3 1.7 2.4 2.9 4.8 1.6 3.2 2.2 6 2.2 11.1 0 6.2-.3 7.2-2.9 9.7-4.9 5-7.8 7.4-9 7.4-.6 0-1.1.7-1.1 1.5s-.7 1.5-1.5 1.5-1.5.4-1.5.9-.8 1.2-1.7 1.5c-1 .3-3.2 1.9-5 3.6-1.8 1.6-3.4 3-3.8 3-.3 0-2.8 1.6-5.5 3.5s-5.3 3.5-5.6 3.5c-1 0-12.9 7.4-13.2 8.2-.2.5-1.6.8-3.1.8-3.2 0-10.1 5.8-10.1 8.4 0 .9-.4 1.6-1 1.6-.5 0-1 .8-1 1.9 0 1-.9 3-2 4.4-1.1 1.4-2 3.2-2 4 0 .8-.7 1.7-1.5 2.1-.8.3-1.5 1.2-1.5 2 0 .7-.7 1.6-1.5 2-.8.3-1.5 1.4-1.5 2.5s-.5 2.1-1.1 2.3c-1.6.5-4.1 7.6-4.6 13.3-.3 2.7-1.1 5.7-1.8 6.5-.7.8-1.5 3.7-1.8 6.5-.3 2.7-1 5.1-1.6 5.3-1.4.5-3.8 5.8-4.4 9.7-1 6.4-4.7 19-5.7 19.3-.5.2-1 1.7-1 3.3 0 1.6-.6 3.2-1.4 3.5-.7.3-1.7 2.4-2 4.7-.4 2.3-1.1 4.4-1.7 4.8-1.7 1-1.2 28.1.6 31.5.8 1.6 1.5 3.5 1.5 4.2 0 .7.7 1.5 1.5 1.8.8.4 1.5 1.2 1.5 2s.6 1.4 1.4 1.4c.8 0 1.6.7 2 1.5.3.8 1.4 1.5 2.5 1.5 2.5 0 9.3 3.1 11.4 5.2 2.2 2.2 2.3 9.6.2 10.4-.8.4-1.5 1.8-1.5 3.4 0 1.5-.6 3.3-1.4 3.9-.8.7-1.6 4.3-1.9 9.2-.4 4.5-1.1 8.7-1.7 9.4-.6.7-1 4.6-.9 8.6 0 4.1-.2 10.4-.6 14-.6 5.5-.4 7.3 1.4 11.2 1.2 2.5 2.1 5.3 2.1 6.1 0 .9.5 1.6 1 1.6.6 0 1 .6 1 1.3 0 .7.9 3 2 5.2 1.8 3.6 2 5.9 2 26.6 0 19.2-.2 22.8-1.5 23.3-1 .3-1.5 1.9-1.5 4.5 0 2.2-.6 6-1.4 8.3-.8 2.4-1.7 8.6-2 13.8-.4 5.3-1.3 11.4-2.1 13.5-.8 2.2-1.4 5.9-1.5 8.2 0 2.3-.4 4.4-.9 4.7-.5.4-1.3 4.1-1.7 8.4-.3 4.2-1.3 9.4-2 11.6-.8 2.1-1.4 5.3-1.4 7-.1 1.7-.7 4.2-1.5 5.6-.8 1.4-1.4 4-1.5 5.8 0 1.9-.6 4.6-1.4 6-1.5 2.9-3.2 9.1-4.6 16.2-.4 2.5-1.5 5.8-2.4 7.5-.9 1.6-1.6 4.4-1.6 6.2 0 1.7-.5 3.3-1 3.5-1.4.4-3.3 15-3.3 24.3 0 9.7 1.3 17.6 2.9 18.2.8.3 1.4 1.1 1.4 1.7 0 .7 2.2 2.3 4.9 3.7 5.3 2.6 6 4 5.3 10.3-.4 3.1-1.9 5.3-8.3 12-7 7.2-7.9 8.5-8 12.1-.2 5.9.1 6.7 2.8 9.5 2.4 2.3 2.9 2.4 15.1 2.4 13.8-.1 23-2.2 27.1-6.3 3.8-3.8 6-18.8 3.7-25.5-1.6-4.7-1.3-12 .5-13.2.5-.3.9-1.6.9-2.8 0-1.3 1.6-4.4 3.5-6.9s3.5-5.5 3.5-6.5c0-1.1.7-3.3 1.5-4.8.8-1.6 1.5-3.9 1.5-5.1 0-3.2 2.7-5.3 6.8-5.3 4.2 0 5.1.5 7.5 4 1.4 2 1.7 4.8 1.7 14.7 0 12.7.1 12.9 4.8 17.9 2 2.1 36 2 38.8-.1 1-.8 3-1.5 4.4-1.5 2.9 0 16.5-6.6 21-10.1 2.2-1.8 3-3.2 3-5.7 0-2.6-.4-3.2-2.1-3.2-3.2 0-16.9-7-16.9-8.6 0-.8-.4-1.4-.8-1.4-.5 0-1.8-2.3-3-5-1.6-3.7-2.2-7-2.2-12.6 0-4.1-.5-8.5-1.2-9.7-.7-1.2-1.5-6.7-1.9-12.2-.6-9.3-3.2-19.6-5.1-20.3-.4-.2-.8-2.1-.8-4.2 0-2-.6-4.3-1.4-4.9-.8-.7-1.7-2.7-2.1-4.4-1.1-5.8-4-14.7-4.7-14.7-.5 0-.8-.8-.8-1.8 0-.9-.9-3.1-2-4.7-1.1-1.7-2-4.4-2-6.2 0-1.7-.5-3.3-1-3.5-.6-.2-1.5-2.9-2-6.2-.5-3.2-1.4-6.4-2.1-7.2-1.1-1.4-.8-7.8 1-19.7 1.3-8.3 1.4-8.6 4.5-8 2.1.4 2.6 1.2 3.1 5.2.3 2.5 1 6.2 1.6 8.1.6 1.9.9 4.6.7 6-.4 3.4 2.5 3.7 4.7.4 1.4-2.2 1.5-2.8.4-3.5-1.1-.7-1.4-5.1-1.3-21.5l.2-20.6 3.1-2.9c2.4-2.1 4.2-2.9 7-2.9 2.2 0 4.4-.6 5.1-1.5.7-.8 1.9-1.5 2.6-1.5 1.6 0 9.7-4 10.5-5.3.3-.5 3.4-1.1 6.8-1.4 3.3-.3 6.1-1 6.1-1.4 0-.5.7-.9 1.5-.9s2.4-.9 3.6-2.1c1.7-1.7 3.5-2.1 10.2-2.3 4.6-.1 9.3-.8 10.7-1.6 2.7-1.4 3-1.6 10.9-5.7 2.9-1.5 5.7-3.7 6.1-4.8 1.1-2.7 4.4-5.3 7.7-6.1 3-.8 13.6-6.1 17.3-8.7 2.9-2 3-7.1.2-12.6-1.2-2.3-2.2-5.3-2.2-6.7 0-1.3-.7-2.7-1.5-3-1-.4-1.5-2.1-1.5-5.4 0-3-.5-5-1.2-5.2-1-.4-1.4-5.4-1.8-19.1-.3-13-.9-19-1.7-19.9-.9-.8-1.3-5.3-1.3-15.1 0-12.5.2-14.2 2.1-16.8 2-2.8 2-3.1.4-4.9-1.6-1.7-1.5-1.9.4-3 2.5-1.3 4.1-.6 4.1 1.8 0 1.3.3 1.3 1.2.4 1.2-1.2.5-2.3-6.4-9-2.2-2-2.3-5.8-.3-6.6.8-.3 1.5-1.7 1.5-3.1 0-1.6-.6-2.5-1.5-2.5-.8 0-1.5.4-1.5 1 0 .5-.9 1-2 1-1.3 0-2.2-1-2.9-3.5-1.1-4.1.1-8.8 3-12.1 1.1-1.1 1.9-2.8 1.9-3.7 0-2.3 1.6-2.9 3.3-1.3 1.3 1.3 1.6 1.2 2.6-1.1 1.1-2.4 1.5-2.5 6.7-2.1 4.1.4 5.7.1 6.1-.9.9-2.2 1.8-1.5 3.7 2.7 1 2.2 2.3 4 2.9 4.1.7 0 4.7 0 9-.1s10.3.2 13.3.6c4.9.6 5.4.9 5.4 3.1 0 1.6.7 2.7 2 3 1.4.4 2 1.4 2 3.4 0 1.9.5 2.9 1.4 2.9.9 0 1.6 1.2 1.8 2.7.2 2.1.9 2.9 2.6 3.1 1.3.2 4.5 1.6 7.1 3.2 8.5 5 18.9 5.7 34.6 2.5 2.2-.5 8.5-5.9 8.5-7.3 0-.5.9-1.7 2-2.7 1.1-1 2-3.1 2-4.7 0-1.8.5-2.8 1.5-2.8 1.1 0 1.5-1.2 1.5-4.9 0-3.4-.4-5.1-1.5-5.5-.9-.3-1.5-1.9-1.5-4.1 0-4.9-7.1-14.5-10.7-14.5-.7 0-1.6-.7-1.9-1.5-.4-.8-1-1.5-1.5-1.5-.9 0-8.9-7.4-8.9-8.2 0-.9-9.9-10.8-10.7-10.8-.5-.1-1.9-1.4-3.3-3-1.3-1.7-3.2-3-4.1-3-1 0-2.1-.5-2.4-1-1.2-2-9-4.8-15-5.4-3.2-.4-6.6-1.3-7.5-2.1-.9-.8-2.8-1.5-4.2-1.5-1.4 0-2.8-.6-3.1-1.4-.3-.8-1.6-1.6-2.9-1.8-2-.3-2.3-1-2.6-5-.3-4.1-.8-5.2-4-7.8-2-1.6-4.2-3-4.9-3-.7 0-1.3-.7-1.3-1.5s-.6-1.5-1.4-1.5c-.8 0-1.6-.6-1.9-1.3-.3-.7-2.7-2.4-5.3-3.7-2.7-1.3-5.7-2.7-6.6-3.2-1-.4-2.8-.8-4-.8-1.3 0-5.4-1.6-9.1-3.5-3.8-1.9-7.5-3.5-8.3-3.5-.8 0-1.4-.4-1.4-1 0-.5-1.2-1.3-2.7-1.6-1.6-.4-3.7-1.3-4.8-2-1.1-.8-3.1-1.4-4.5-1.4-2.9 0-7-2.5-7-4.3 0-.7-3.3-2.3-7.4-3.6-6-1.9-7.6-2.8-8-4.7-.9-3.3.4-16.6 1.7-18.3.6-.7 1-3.9 1-7.2-.2-4.9.1-5.9 1.7-6.4 1.1-.4 2-1.2 2-2 0-.7.8-1.6 1.8-2 1.6-.6 1.6-.7-.3-2.1-1.7-1.3-1.9-2.6-1.9-12 .1-7.4.5-10.8 1.3-11.4.8-.4 1-1.6.7-2.7-.5-1.5 0-2.3 1.9-3.1 2.2-1 2.5-1.8 2.5-6.6 0-4.5-.4-5.7-2-6.6-1.1-.6-2-1.8-2-2.7 0-1.9-4.5-6.3-6.4-6.3-.8 0-1.6-1.3-1.9-2.9-.6-3-5.5-6.1-9.9-6.1-1.2 0-3.2-.7-4.2-1.5-2.2-1.7-17.6-2.2-17.6-.6zm66 192.5c0 1.4-.7 3.1-1.5 4-.8.8-1.5 2.1-1.5 2.9 0 1.7-7.8 2.9-8.7 1.4-.3-.5.9-2.1 2.6-3.6 1.7-1.5 3.1-3.2 3.1-3.8 0-1.3 2.8-3.2 4.8-3.3.6 0 1.2 1.1 1.2 2.4zm-13 13.1c0 2.6-.7 3-2.8 1.7-1.6-1-.5-4.2 1.4-4.2.8 0 1.4 1 1.4 2.5zm-6 .5c0 .5-.7 1-1.5 1s-1.5.7-1.5 1.5-.7 1.5-1.5 1.5c-2.2 0-1.8-1.5.8-3.3 2.6-1.9 3.7-2.1 3.7-.7zm-7 14.7c0 2-.3 2.4-1.1 1.6-.7-.7-.9-1.9-.6-2.7 1-2.4 1.7-1.9 1.7 1.1zm13 1.3c0 .5-.4 1-1 1-.5 0-1-.5-1-1 0-.6.5-1 1-1 .6 0 1 .4 1 1zm9.1 2c2 0 .7 1.8-1.7 2.4-3.1.8-3.9.3-3-2 .4-1 1.2-1.4 2.2-1 .9.3 2 .6 2.5.6zm-25.1 1.5c0 .8-.4 1.5-.9 1.5-1.3 0-2.2-1.6-1.4-2.4 1.1-1.1 2.3-.6 2.3.9zm-62.6 69.3c-.1.7-.2 2.1-.2 3.2-.3 3.5-2.2 2.1-2.2-1.6 0-2.4.4-3.4 1.3-3.2.6.3 1.2 1 1.1 1.6zm26.4 21.1c2.7.2 1 2.1-1.8 2.1-3.6 0-4 2.1-.7 4.3 3.5 2.3 7.7 6.5 7.7 7.7 0 2.4 2.9.8 3.2-1.8.2-2.1.8-2.7 2.8-2.7 2 0 2.6.6 2.8 2.7.3 2.5 0 2.8-2.7 2.8-2.1 0-3.1.5-3.1 1.5 0 .8-.3 1.5-.7 1.5-.5 0-1.8.3-2.9.6-1.6.4-2.3 0-2.7-1.5-.3-1.4-1.3-2.1-3-2.1-1.5 0-3.1-1-4.2-2.6-.9-1.4-2.5-3.4-3.6-4.5-1.7-1.7-2.6-6.8-1.4-8 .2-.3 2.4-.4 4.7-.3 2.4.2 4.9.3 5.6.3zm21.2 45.8c0 .7-.7 1.3-1.5 1.3-1.5 0-2.1-3.1-.8-4.3.8-.8 2.3 1.2 2.3 3zm2.1 9.6c-.8.8-1.1.3-1.1-1.9.1-2.5.2-2.7 1.1-1.1.8 1.4.8 2.2 0 3zM337.6 257.9c-.3.5-2.6 1.4-5.1 2-2.5.6-4.5 1.6-4.5 2.1 0 .6-.7 1-1.5 1s-1.5.7-1.5 1.5-.4 1.5-.9 1.5-2.5 2.2-4.4 4.9c-3.3 4.5-3.6 5.5-4.3 15.2-.4 5.7-1.3 11.8-2 13.6-3.1 7.2-.7 13.9 8.4 24 2.4 2.7 3.2 4.5 3.2 7.4 0 3.7 2.6 7.9 4.9 7.9 1.1 0 2 4.6 1.4 7.2-.4 1.1-1.7 2.1-3.4 2.5-1.6.3-2.9 1.1-2.9 1.8s-3.3 1.7-8.7 2.5c-12.6 1.8-15.5 2.6-18.5 5.5-1.6 1.5-4.8 2.9-7.7 3.5-4.6.8-7.6 2-13.8 5.3-1.7.9-2.3 2.1-2.3 4.7 0 2.5-.6 3.9-2.1 4.8-1.8 1.1-2.1 2-1.6 5.4.4 3.3 0 4.7-2.3 8.1-2.5 3.7-2.7 4.4-1.4 5.8.8.9 1.4 3.7 1.4 7.1 0 4.8.3 5.6 2.1 6.1 1.6.4 1.9 1.1 1.4 2.6-.4 1.4-.1 2.3.9 2.7.9.3 1.6 1.4 1.6 2.3 0 1 .7 2.6 1.5 3.7 1.6 2.2 2 7.4.5 7.4-.5 0-1.2-1.1-1.6-2.5-.4-1.8-1.5-2.8-3.5-3.2-1.6-.3-2.9-1.2-2.9-1.9 0-.8-.7-1.4-1.5-1.4s-2.4-.9-3.5-2c-1.9-1.9-2-3.3-1.9-15.2.1-11-.2-13.4-1.5-14.4-1.1-.7-1.6-2.7-1.6-5.6 0-3.2-.6-5-2-6.3-2-1.8-2.2-1.8-6.7.5-4.5 2.2-4.8 2.3-7.6.7-1.6-1-3.9-1.7-5.2-1.7-2 0-2.7.8-4 5.2-1.7 5.9-1.9 9.7-.6 13 3.4 9 3.3 17.5-.4 21.2-.8.8-1.5 2-1.5 2.7 0 1.3-6.8 7.8-8.2 7.9-.3 0-.9 1.3-1.3 2.9-.3 1.6-1.3 3.2-2.1 3.5-.8.3-1.4 1.5-1.4 2.7 0 3.1-3.2 9.8-4.7 9.9-1.8 0-1.6 2.5.2 4 .8.7 1.5 2.1 1.5 3.1 0 1.1-.7 1.9-1.5 1.9-1.6 0-1.9.9-.9 3.4.8 2.2 2.1 2 2.9-.3.3-1.1 1.6-2.3 2.8-2.7 1.2-.4 3.5-2 5.1-3.5 1.7-1.6 3.8-2.9 4.8-2.9 2.7 0 2.2 3.5-.9 5.9-1.4 1.2-2.4 2.3-2.2 2.4.2.2 1.7.9 3.3 1.5 2 .9 2.6 1.6 1.9 2.3-.7.7-.7 2.1 0 4.5 1.3 4.3 0 6.2-3.2 4.5-1.2-.7-2.1-1.8-2.1-2.5 0-2-4.7-6.9-5.9-6.2-1.5 1-1.4 4.2.2 5.8.8.7 1.7 2.5 2 3.9.5 2.1 1.4 2.8 4.7 3.3 4.4.7 5 2.1 2.8 6.9-1 1.9-2.1 2.7-4 2.7-2.1 0-2.7.5-3 2.7-.2 2-1 2.9-3.1 3.4-4.2 1.1-5.4 3.5-6.2 11.6-.4 4-1.1 7.3-1.6 7.3s-1.8.9-2.9 2c-1.4 1.4-3.3 2-6.6 2-4.6 0-16.6 3.6-17.2 5.2-.2.4-1.8.8-3.6.8s-4.1.7-5.2 1.5c-1 .8-3.2 1.5-4.7 1.5s-3 .7-3.3 1.5c-.4.8-1.7 1.5-3 1.5-1.5 0-2.4.6-2.4 1.5 0 .8-.8 1.5-1.9 1.5-1 0-2.1.9-2.4 2-.4 1.5-1.4 2-3.9 2-3.4 0-5.8 1.9-9.3 7.3-1.5 2.3-1.8 4.9-1.8 13 0 20.4.5 32.7 1.4 32.7 1.3 0 1.1 4.8-.3 8.8-1 2.8-1 3.6 0 3.9.6.3 1.2 1.1 1.2 1.8s.6 1.5 1.4 1.8c2.9 1.2 2.9-2.6 2.7 133.9-.1 82.9 0 95.2 1.4 98.4.8 2 1.5 5 1.5 6.6 0 1.9 1 3.9 3 5.8 1.6 1.6 3 3.4 3 4 0 .5.7 1 1.5 1 .9 0 1.8.7 2.1 1.5.4 1.1 2.1 1.5 5.9 1.5 4.6 0 5.7-.4 8.8-3.4 3.3-3.1 3.6-3.8 3.9-10.4.2-3.8.9-7.6 1.5-8.4 1.6-1.9 3-43.3 1.5-44.2-2-1.2-3.2 5.9-3.2 19.4 0 11-.3 14-1.5 15-1.1.9-1.5 3.3-1.5 9.1 0 6.9-.2 8-2.2 9.3-1.2.9-2.6 1.6-3 1.6-.5 0-.8-2.7-.8-6.1 0-4.5-.5-6.7-1.9-8.5-1.5-1.8-1.8-3.4-1.4-6.7.3-2.3.9-4.7 1.4-5.3.5-.6.4-1.5-.3-2.2-.9-.9-.8-1.6.4-2.9 1.7-2 1.7-10.5 0-32.8-.6-7.1-.5-11.5.1-12.3.6-.8 1.2-13.2 1.4-30.5.3-21.3.7-29.4 1.6-30 .9-.7.9-1 0-1.4-1.4-.5-1.8-6.9-.5-7.7 1.2-.7 1.4-18.6.2-18.6-1.4 0-1.2-2.8.3-3.3.9-.3 1.2-4 1.2-14.2s-.3-13.9-1.2-14.3c-2.1-.6-1.5-1.9 1.1-2.6 2.9-.7 3.6-3 3.6-12.7 0-5.5.4-7.8 1.3-8.2 1-.4 1.6-3.4 2-9.7.3-5.1.8-9.4 1.1-9.7.2-.2 1.6.3 3 1.2 2.4 1.6 2.6 2.2 2.1 6.4-.4 2.5-.8 7.5-.9 11.1-.2 3.6-.6 7.2-.9 8-.3.8-.8 20.8-1.1 44.5-.2 24.4-.9 44.4-1.5 46.2-.6 2.2-.6 3.5.1 3.9.6.4.8 2.2.4 4.5-.3 2.1-.1 5.8.6 8.3 1.1 4 1 4.7-.7 6.6-1.7 1.9-1.7 2.1-.2 3.8 2.1 2.4 2.3 8.8.2 9.6-.8.3-1.5 1-1.5 1.6 0 .5.7 1 1.5 1 1.9 0 1.9 2.6 0 3.4-1 .4-1.5 1.9-1.4 4.8.1 4.3 1.6 11.5 1.8 9 0-.7.5-1.1 1-.8.5.3.9-2 .9-5.2.5-37.3 1.5-64.1 2.7-68.5.8-3 1-5.6.5-6.1s-.3-2 .4-3.5c1-1.9 1.4-9.1 1.5-27.5.1-13.7.6-26.9 1.1-29.5.4-2.5.5-5.2 0-6-1-1.9 1.7-11.3 3.6-12.4.8-.4 1.4-1.5 1.4-2.2 0-1.7 1.1-1.9 9.8-1.5 4 .1 6.2-.2 6.2-.9 0-.6.6-1.1 1.4-1.1 1 0 1.5 2.1 1.8 7.5.3 4.2.8 7.8 1.2 8.2 1.2 1.2 1.9-.7 1.9-5.2 0-2.5.4-4.5.9-4.5.4 0 .8-1.2.8-2.8 0-1.5.3-5.2.8-8.2.7-5.2.8-5.5 3.8-5.8 2.5-.2 3.3.1 3.9 2 .7 2.2.7 2.2 1.7-.9 1.1-3.3 3-4.3 8.4-4.3 1.7 0 4.5-.7 6.2-1.5 3.5-1.8 14.8-1.5 19.6.4 1.6.7 3.6.9 4.3.7.8-.3 2.3 0 3.5.7 2.4 1.4 9.8 8.6 9.8 9.6 0 .3 1.4 2 3 3.8 1.7 1.8 3 3.8 3 4.6 0 .8.7 2 1.5 2.7.8.7 1.5 1.9 1.5 2.7 0 .7.7 1.6 1.5 1.9.8.3 1.7 2.6 2.1 5 .3 2.4 1 4.7 1.5 5 1.4.8 1 5.6-.6 8.8-.8 1.5-1.5 3.8-1.5 5 0 1.2-.7 3.1-1.5 4.2-1.9 2.5-1.9 11.6-.1 15.7.8 1.8 1.6 6 1.8 9.5.3 3.5.9 6.7 1.5 7 .6.4 1.4 2.7 1.8 5.2.4 2.5 1.2 5.4 1.8 6.5.6 1.1 1.4 5.4 1.8 9.5.4 4.1 1.2 11.1 1.7 15.5 1 7.8.9 9.8-1.8 29.5-2.4 17.5.3 42 4.6 42 .7 0 1.4.4 1.6.8.2.4 3.3 1.8 7.1 3 8.1 2.6 25.9 3.2 29.2.8 1.1-.7 3.2-1.6 4.8-2 1.5-.3 2.7-1.1 2.7-1.6 0-.6.7-1 1.5-1s2.4-.8 3.4-1.8c3.9-3.5 4.9-4.1 9-5.2 4.9-1.3 12.5-.5 16 1.7 1.3.8 3.7 2.9 5.5 4.6 7.1 7.2 14.8 8.6 22.1 4.2 7.8-4.7 12.8-6.5 18.3-6.6 4.6-.2 5.8.2 7.2 2.1 2.1 2.8 3 8.5 3 18.4 0 4 .7 9.8 1.5 12.9.8 3.2 1.5 7.9 1.5 10.5 0 5.9 4.9 16.2 7.7 16.2.7 0 1.3.7 1.3 1.5s.9 2.4 2 3.5 2 2.2 2 2.4c0 1.1 4.8 5.3 7.3 6.4 3.4 1.5 4.7 1.5 4.7.2 0-.6-.7-1-1.5-1s-1.5-.7-1.5-1.5-.9-3.2-2.1-5.5c-1.8-3.4-2.5-3.9-4.5-3.4-2.6.7-2.9-.1-1.4-4 .6-1.7 1.7-2.6 3.2-2.7h2.3l-2.4-1.2-2.3-1.1.7-15.6c.5-10.7 1.1-16.2 2.1-17.7 1.2-2 1.4-12.8 1-73-.5-73.2-.7-80.3-1.7-80.3-.3 0-.9-4.6-1.3-10.2-.3-5.6-1.2-10.8-1.8-11.5-1.2-1.5-2.9-14-2.9-20.7.1-2.2-.3-4.3-.9-4.6-.5-.3-1-14.8-1.2-35-.3-29.9-.5-34.5-1.8-34.5-.9 0-1.4.8-1.3 2 1 10.7-.4 31.7-1.8 27.7-.5-1.2-1.5-2.2-2.3-2.2-.9 0-1.7-1.5-2.1-4.3-.6-3.6-2.8-9.1-4.2-10.7-.8-.9-2.3 2.5-2.3 5.2 0 1.5-.8 3.1-1.7 3.7-1.5.8-1.5 1.1-.3 2.6 1.2 1.4 1.2 1.8-.1 2.6-.8.5-2.3.7-3.4.4-1.1-.2-3-.5-4.2-.5-1.6 0-2.3-.6-2.3-2 0-1.1-.9-2.9-2-4s-2-2.9-2-4.1c0-1.2-.5-1.9-1.2-1.6-1.5.5-1.3 6 .2 6.5.5.2 1 1.4 1 2.6 0 1.6-1.1 2.7-3.7 4-4.1 2-5.5 1-5.1-3.4.3-2-.3-2.7-2.9-3.5-1.8-.5-3.3-1.4-3.3-2.1 0-.6-.9-1.9-2-2.9s-2-3.1-2-4.7c0-3.2-1.9-3.7-4.3-1-1.9 2-2.2 4.3-.8 5.8.5.5 1.1 3.3 1.4 6.1.6 5.2.5 5.3-1.9 5.3s-2.5.2-1.9 3.8c.7 4.3-.2 5.5-4.7 6.6-1.6.3-2.8 1.1-2.8 1.6 0 .6-.7 1-1.5 1-2 0-3.5-4-2.4-6.2.5-.9.7-4.8.5-8.6-.4-6.3-.3-7.1 1.5-7.5 1-.3 1.9-1.3 1.9-2.2 0-1.3-.6-1.6-2.6-1.2-2.2.4-2.8-.1-3.9-2.7l-1.3-3.1-.7 3c-.3 1.6-1 4.7-1.6 6.8-.8 2.8-.7 4.2.2 5.3 1.4 1.7.5 9.9-1.2 12-.6.8-1.9 1.4-2.9 1.4s-2.1.8-2.5 1.7c-.6 1.7-.7 1.7-2.1-.2-.8-1.1-1.2-3-.9-4.5.7-3.1-1.4-6.3-3.7-5.5-1 .4-1.8 2.4-2.2 5.8l-.7 5.2H350l-6 .1v-3.1c0-1.6.5-3.7 1-4.5.7-1.2 1.1-.8 1.6 1.7.4 1.8 1.3 3.3 2 3.3 1.1 0 1.4-1.7 1.4-6.5 0-5.1-.3-6.5-1.5-6.5-.8 0-1.5.7-1.5 1.5s-.7 1.5-1.5 1.5-1.5-.6-1.5-1.4c0-.7-.9-1.6-2.1-1.9-2.4-.6-2.1-3 .4-3.5 1.2-.2 1.7.3 1.7 1.7 0 1.2.6 2.1 1.5 2.1.8 0 1.5-.6 1.5-1.4 0-.8.7-1.6 1.5-2 .8-.3 1.5-1.7 1.5-3.1 0-2.1-.5-2.5-3-2.5-2.8 0-3-.3-3-3.5 0-2.4-.5-3.5-1.5-3.5-.7 0-1.8-.7-2.3-1.6-.5-.9-1.8-1.4-3.3-1.2-1.9.2-2.3.8-2.1 2.7.4 3.7-1.3 5-6.1 4.4-3.8-.5-4-.4-2.3.9 1.5 1.2 1.8 2.3 1.4 5.5-.6 3.9.4 7.1 2.6 8.5.8.5.8 1.2 0 2.5-1.7 2.8-4.1 2.7-4.8-.1-.4-1.5-1.3-2.6-2.1-2.6-1.9 0-1.9-1.9 0-2.6 1.5-.6 2.2-6.4.8-6.4-.5 0-1.4-.4-2.2-.9-1.1-.7-1.2-1.3-.3-2.3 2.6-3.2-2.7-13.4-5.4-10.5-1.3 1.3-2.6 9.7-1.6 9.7.4 0 1.3.4 2 .9 1.1.6.8 1.4-1.1 3.4-2.8 3.1-3.7 2.6-3.7-1.9 0-1.8-.4-3.6-1-3.9-.5-.3-1-1.4-1-2.4 0-3.1-1.8-3.9-6.5-2.8-4.8 1.1-5.8 2.9-2.6 4.7 2.2 1.1 1.9 3.3-.9 7l-1.8 2.4-2.4-2.4c-2.2-2.2-2.4-3.1-1.9-8 .5-4.7.9-5.5 2.9-5.8 3.6-.5 3-4.8-.8-5.6-2.5-.5-3-1-3-3.6 0-2.8.3-3 3.4-3 1.9 0 3.8.5 4.2 1.1.5.8.9.8 1.4-.1.4-.7 3.7-1.3 7.8-1.4 4-.2 7.9-.9 8.7-1.6 1.2-1 1.9-1 2.7-.2 1.7 1.7 4.7 1.5 6.4-.3 1.4-1.3 1.8-1.3 3.6-.1 1.7 1.2 2.6 1.2 6.2 0 3.4-1.3 4.7-1.3 8-.2 3.1 1 4 1 4.4 0 .2-.8 2.6-1.2 6.8-1.2 5 0 6.4.3 6.4 1.5 0 .8.6 1.5 1.4 1.5.8 0 1.6-.7 2-1.5.6-1.7 4.3-1.9 8.2-.5 1.9.8 3 .8 3.8 0 .6-.6 10.2-1 26.4-1 20.1 0 26.5-.3 30.8-1.6 6.5-1.9 7.3-2.9 4.4-5.6-1.9-1.8-2.6-1.9-4.2-.9-1.5.9-2.3.7-4.6-1.4-2.7-2.6-5.2-3.3-5.2-1.5 0 1.6-5 1.2-5.6-.5-.4-.8-1.2-1.5-2-1.5-3 0-1.2-1.9 2.4-2.5 2-.3 4.6-.8 5.6-1 1.1-.2 3.3.5 4.9 1.7 5.2 3.7 11.7 1.9 11.7-3.4 0-2.3 3-3.8 7.8-3.8 3.1 0 4.1.4 4.5 2 .6 2.4 5.7 2.9 5.7.5 0-2.1 3.5-3.7 6.5-2.9 3.1.8 3.1 1.3-.1 4.3-1.6 1.6-2.8 2.1-3.5 1.4-.5-.5-2.6-.7-4.7-.4-3.2.5-3.7 1-4 3.5-.2 1.6 0 3.2.5 3.7 1.1 1.1 5.3 0 5.3-1.5 0-.7 2.8-1.2 7.7-1.4 5.5-.2 8-.7 8.6-1.7.5-1 2.5-1.5 6.1-1.5 3 0 6-.6 7.2-1.5 1-.8 4-1.5 6.5-1.5 3.1 0 4.9-.5 5.2-1.4.4-1 2.8-1.6 7.9-1.9 7.5-.4 18-2.8 20.1-4.5.7-.5 2.9-1.2 4.9-1.5 3.7-.6 8.3-4.1 7.3-5.6-.3-.5-2.9-1.2-5.8-1.6-9.4-1.3-9.3-1.2-10-11.2-.3-4.8-1-10.1-1.6-11.6-.6-1.6-1.1-5.4-1.1-8.5 0-6.6-.9-8.5-3-7.2-1.8 1.1-6 1.3-6 .3 0-.4 1.4-2 3.2-3.4l3.1-2.8-2.4-2.5c-1.3-1.4-2.9-2.6-3.6-2.6-1.8 0-2.1-2-1.6-8.6.5-5.3.3-6.4-1.6-8.3-4.2-4.2-7.2-2.5-9.5 5.6-.4 1.1-1.3 2.4-2.1 2.7-.8.3-1.5 1.5-1.5 2.6s-.7 2.3-1.5 2.6c-.8.4-1.5 1.2-1.5 2s-.6 1.4-1.2 1.4c-1.3 0-4.8 6.1-4.8 8.2 0 .6-.8 2-1.7 3.1-1.5 1.6-1.8 3.5-1.5 11 .2 9.5-.3 12.7-1.9 12.7-.6 0-1.7.7-2.5 1.5-1 .9-3.4 1.5-6.5 1.5-4.4 0-4.9.2-4.9 2.2 0 1.3-.9 4.2-2 6.6-1.9 4.2-2.1 4.3-6 4-4-.3-4.2-.5-6.6-6.3-1.3-3.3-2.4-6.6-2.4-7.3 0-4.9-12.3-7.1-17.4-3.1-3.1 2.5-2.4 4.3 1.4 3.5 1.9-.3 3.5.1 5.1 1.4 1.2 1.1 3.5 2 5.1 2 3.5 0 3.8 2.5.3 3.4-1.4.4-2.5 1-2.5 1.5 0 1.5-6.4 4.4-6.8 3.1-.2-.5-.9-1-1.6-1-.6 0-1.9-.9-2.9-2-.9-1.1-2.6-2-3.7-2-1.3 0-2 .7-2 2 0 1.5-.7 2-2.9 2-4.6 0-6.1-1-6.1-4 0-1.5-.7-3.3-1.5-4-3.7-3-2.1-18.3 2.3-21.8 1.4-1 1.4-1.6.4-3.2-.9-1.4-1.2-8.7-1.2-25.6 0-19.6.3-23.8 1.5-25 1.1-1.1 1.5-3.8 1.5-10 0-6.8-.3-8.4-1.5-8.4-.8 0-1.5-.6-1.5-1.3-.1-.6-1.4-2.8-3-4.7-1.7-1.9-3-3.7-3-4.1 0-1.3-20.4-21.9-21.7-21.9-.7 0-1.3-.4-1.3-.9s-1.3-1.2-3-1.6c-1.6-.4-3-1.3-3-2.1s-.7-1.4-1.5-1.4c-.9 0-1.8-.6-2.1-1.4-.3-.8-1.9-1.9-3.5-2.5-1.6-.5-2.9-1.6-3-2.3 0-.7-.2-2.2-.5-3.3-1.1-5.3.3-14.6 2.4-16.3 1.5-1.1 1.7-3.9 1.6-22v-20.7l-2.9-5.2c-1.6-3-4.6-6.5-6.9-8-7-4.9-9.1-6.3-10.6-6.8-.8-.3-2.8-1.3-4.3-2.1-3.1-1.5-15.2-2-16.1-.5zm14.9 62.1c-.6.9-.9.9-1.6-.1-1-1.7 0-3.4 1.3-2.1.6.6.7 1.6.3 2.2zm16.5 28c0 .5-.4 1-1 1-.5 0-1-.5-1-1 0-.6.5-1 1-1 .6 0 1 .4 1 1zm-126.4 34c.6.6 2.9 1.2 5 1.3l3.9.3.3 7.8c.2 4.4-.1 9.1-.7 10.6-.5 1.5-.5 3.2-.1 3.6.9 1 1.3 3.6 1.1 7.1-.1 2-.7 2.3-4.1 2.3-3.4 0-4.1-.4-4.6-2.4-.6-2.6-.1-10.7 1.1-16.4.6-2.6.2-4.1-1.9-7.2-3.5-5.3-3.4-10.4 0-7zm42.4 6c1 .6 1.1 1 .3 1-.7 0-1.3.9-1.3 1.9 0 1-.7 2.1-1.5 2.5-.8.3-1.5 1.2-1.5 2.1 0 1.7-2.7 2-5 .5-1.2-.7-1.2-1.2 0-3.5.8-1.5 2.6-3.3 4-4 3-1.7 3.1-1.7 5-.5zm64.2 2.6c-.9 1.6-1 1.6-2.1-.4-.8-1.5-.8-2.1.2-2.5 1.9-.7 3 .9 1.9 2.9zm14.4 4.8c1.6 1.7 2 10.6.4 10.6-.5 0-1-2.3-1-5 0-2.8-.4-5-1-5-.5 0-1-.5-1-1 0-1.4.9-1.2 2.6.4zm-79.6 5.1c0 .7-.9 1.5-2.1 1.8-2.8.8-2 2.9 1.7 4 3.3 1.1 5.4 2.6 5.4 3.8 0 1.8-5.1 4.1-9.6 4.2-3.8.1-4.9-.3-5.4-1.8-.7-2 1.6-11.8 2.9-12.3.4-.1 1.7-.9 2.7-1.7 2-1.4 4.4-.4 4.4 2zm82 10.9c0 1.3.7 2.6 1.5 3 2 .7 2 4.6 0 4.6-1.7 0-3.5-3.9-3.5-7.6 0-1.3.5-2.4 1-2.4.6 0 1 1.1 1 2.4zm3 15.2c0 1.4-1.2 1.9-2.3.8-.9-.9.4-3.5 1.4-2.8.5.3.9 1.2.9 2zm-102 3.6c0 1.6-.3 1.9-1.1 1.1-.6-.6-.8-1.6-.5-2.2 1.1-1.7 1.6-1.3 1.6 1.1zm18.5-.2c.3.5.1 1-.4 1-.6 0-1.1-.5-1.1-1 0-.6.2-1 .4-1 .3 0 .8.4 1.1 1zm-36.7 6c.2 2.4.8 5 1.4 5.7.6.7.7 2.9.3 5.4-.5 2.7-.3 5 .6 6.5 1.6 3.1 3.9 3.1 3.9 0 0-3.3 1.3-3.9 6-3.1 3.5.6 4 1 4 3.3 0 2.8-2.5 6.2-4.7 6.2-.7 0-1.3.7-1.3 1.5 0 .9.9 1.5 2.5 1.5 4.4 0 2.6 4.1-3.2 7.5-1.8 1.1-3.3 2.5-3.3 3.2 0 .9-1.8 1.3-6 1.3-4.4 0-6 .4-6 1.4 0 .7-.6 1.9-1.4 2.5-1.9 1.6-3-.2-2.2-3.5.5-2 1.2-2.4 4.7-2.4 2.5 0 4.2-.5 4.5-1.4.3-.8 1.9-1.8 3.5-2.1 2.3-.5 2.9-1.2 2.9-3.2 0-2.3-.3-2.5-2.7-1.9-9 2.2-10.3 1.8-10.3-3.2 0-1.3-.7-3.1-1.6-4-1.3-1.3-1.5-3.3-1.2-11.1.5-11.3 2.3-15.4 6.7-14.9 2.3.3 2.6.8 2.9 4.8zm104.2-4c0 .5-.4 1-1 1-.5 0-1-.5-1-1 0-.6.5-1 1-1 .6 0 1 .4 1 1zm-121.3 2.2c-.3.8-.6.5-.6-.6-.1-1.1.2-1.7.5-1.3.3.3.4 1.2.1 1.9zm57.6.1c.6 1.7-.4 10.7-1.2 10.7-3.5-.1-5.4-9.1-2.3-11 2.3-1.3 2.9-1.2 3.5.3zm13.2 1.6c.3 1.1 1.2 2.2 2 2.5.9.3 1.5 1.9 1.5 4.1 0 2 .7 4.3 1.5 5.1.8.9 1.5 3.1 1.5 5 0 2.2.6 3.7 1.5 4 .9.4 1.5 1.9 1.5 3.5 0 1.7.6 3.2 1.5 3.5.8.4 1.5 1.7 1.5 3 0 1.5.9 2.7 2.8 3.6 2.1 1 2.8 2.1 3 5.1.3 3.6.3 3.7-3.2 3.7-2.6 0-4.4-.8-6.5-2.9-1.7-1.6-3.9-3.2-5-3.6-1.2-.3-2.1-1.1-2.1-1.6s-1.1-1.4-2.5-1.9-2.5-1.4-2.5-2c0-.5-1.1-1-2.5-1s-2.8-.7-3.1-1.5c-.4-.8-1.3-1.5-2.1-1.5-1.3 0-1.5-1.1-1.1-5.7.3-3.1 1-5.9 1.6-6.1.7-.2 1.2-1.5 1.2-3 0-1.4.8-3.4 1.7-4.4 1.2-1.3 1.3-2.2.6-2.9-.8-.8-.6-1.9.6-4 1.9-3.4 5.6-3.9 6.6-1zm205.8 1.3c.4 1.2-.1 3.2-1.2 4.7-1 1.4-2 3.3-2.4 4.2-.4 1.2-1.3 1.5-3.1 1.2-3.7-.7-4.3-2.3-1.8-4.4 1.2-.9 2.2-2.6 2.2-3.6 0-4.2 5.3-6 6.3-2.1zm-221.9 12.3c1 3.6.6 6.3-.9 6.9-.8.3-1.5 1.7-1.5 3 0 1.5-.8 3-2 3.6-1.1.6-2 1.9-2 2.9 0 1.1-1.2 2.4-3 3.1-1.6.7-3 1.6-3 2.1s-1.1.9-2.5.9-2.5-.2-2.5-.5 1.1-1.8 2.5-3.3c1.4-1.5 2.5-3.9 2.5-5.4 0-1.8.5-2.8 1.5-2.8.8 0 1.5-.7 1.5-1.5s.9-3.2 2-5.2c1.1-2.1 2-4.5 2-5.4 0-.8.3-1.8.6-2.2 1-1 4.2 1.5 4.8 3.8zm208.2 3.1c-.3.9-.3 2.1.1 2.7.4.7.8 4.2.9 7.9.1 5-.2 6.8-1.1 6.8-1.8 0-2.4-2.1-1.4-4.2.8-1.6-.2-6.4-2.2-10.1-.7-1.3-.5-1.9.6-2.3.8-.3 1.2-1 .9-1.5-.3-.5.2-.9 1.1-.9 1.2 0 1.5.5 1.1 1.6zM384 455c0 .5-.2 1-.4 1-.3 0-.8-.5-1.1-1-.3-.6-.1-1 .4-1 .6 0 1.1.4 1.1 1zm18.3 9.7c-1.9.7-1.6 2.4 1 7.4 1.5 2.8 2.1 5 1.6 5.9-.4.8-1 2.6-1.3 4-.8 3.8-3.1 6.4-5 5.7-2.2-.9-2-4.9.4-7.5 2.4-2.5 2.5-4.5.5-6.2-2.1-1.7-1.9-7.6.3-8.9.9-.6 2.2-1 2.7-1 .6 0 .4.3-.2.6zM242 467.5c0 .8-.7 1.5-1.5 1.5-1.6 0-2-1.2-.8-2.3 1.1-1.2 2.3-.8 2.3.8zm142.5-.5c.3.5.1 1-.4 1-.6 0-1.1-.5-1.1-1 0-.6.2-1 .4-1 .3 0 .8.4 1.1 1zm110.5 6.6c0 .8-.5 1.2-1 .9-.6-.4-.8-1.1-.5-1.6.9-1.4 1.5-1.1 1.5.7zm-191 7c0 .2-.9.4-2.1.4-1.1 0-1.8-.4-1.4-1 .5-.8 3.5-.3 3.5.6zm184.8 4.6c-.2 1.3-1.1 2.4-2.3 2.6-1.1.2-2.7 1.2-3.5 2.2-.8 1-2.4 2-3.5 2.2-1.7.2-2.1-.3-2.3-3.5-.3-3.5-.2-3.7 2.7-3.7 1.6 0 3.3-.5 3.6-1 .3-.6 1.7-1 3.1-1 2.1 0 2.5.4 2.2 2.2zm14.7.9c.8 1.2-2.4 5.1-3.6 4.3-.5-.3-.9-1.6-.9-3 0-1.7.5-2.4 1.9-2.4 1.1 0 2.3.5 2.6 1.1zm-180.1 4c-1 1.7-4.4 1-4.4-.9 0-1 .3-2.2.7-2.5.9-.9 4.4 2.3 3.7 3.4zm-58.1.6c.4.7 1.8 1.3 3 1.3 1.8 0 1.9.2.7 1-.8.5-4.8 1-8.7 1-6.4 0-7.3-.2-7.3-1.8 0-3.1 2-4.2 6.9-3.5 2.5.3 5 1.2 5.4 2zm75.2 9.4c.4 1.2.3 2.5-.3 3.1-1.3 1.3-5.2-1.2-5.2-3.4 0-2.7 4.7-2.4 5.5.3zM467 500c0 2.3-.1 2.4-3.5.8-3.4-1.5-3.2-2.8.5-2.8 2.3 0 3 .4 3 2zm-92.6 3.8c6.5.4 9.6 1.7 9.6 4 0 1.7-13.7 2.3-17.5.8-3.6-1.5-4-2.2-2.9-5.1.4-1 1.2-1.4 2.3-.9.9.4 4.7.9 8.5 1.2zm32.6-.8c0 1.3-5 1.3-7 0-1.1-.7-.4-1 2.8-1 2.3 0 4.2.4 4.2 1zm24.4.6c.4 1-.1 2.2-1.1 3-2.1 1.6-3.3 1.7-5.1.5-1.2-.7-1.2-1.2-.1-3 1.6-2.5 5.4-2.8 6.3-.5zm-115.1 1.9c1.4 1 1.7 2.4 1.5 6.2-.3 4.4-.5 4.8-3 5.1-2 .2-2.8-.1-2.8-1.2 0-2.4-2.4-1.9-5.6 1-1.6 1.6-3 2.2-3.2 1.5-.2-.6-.8-1.1-1.4-1.1-.6 0-1.6-.7-2.2-1.6-1.7-2.2-18.2-2.6-19.6-.4-1 1.7-1.5 1.4-2.4-1.7-.6-1.8 0-2.5 3.7-4.1 2.4-1 6.5-2.2 9.3-2.6 2.7-.4 5.7-.9 6.6-1.2 1.3-.4 2.1.3 3 2.3 1 2.4 1.2 2.5 1.5.8.2-1.1.6-2.5.7-3 .5-1.6 11.8-1.6 13.9 0zm101 .2c-.7.2-1.9.2-2.5 0-.7-.3-.2-.5 1.2-.5s1.9.2 1.3.5zM274 512.1c0 .5-.9 1.9-2 3.2-1.7 2-2.7 2.2-6.3 1.8-3.7-.5-4.2-.9-4.2-3.1s.5-2.6 4-3c4.7-.6 8.5-.1 8.5 1.1zm66.7 1.8c1 1.6.9 2-.3 2.5-2.3.9-2.4.8-2.4-1.9 0-3 1.1-3.2 2.7-.6zM217 515.5c0 .8-.4 1.5-1 1.5-.5 0-1-.7-1-1.5s.5-1.5 1-1.5c.6 0 1 .7 1 1.5zm66.1 2.8c-.1 1.2-1.5.9-1.9-.4-.3-.6.1-1 .8-.8.6.3 1.1.8 1.1 1.2zm-69.1 3.2c0 .8-.7 1.5-1.5 1.5-1.6 0-2-1.2-.8-2.3 1.1-1.2 2.3-.8 2.3.8zm9 0c0 1-1 1.5-3 1.5s-3-.5-3-1.5 1-1.5 3-1.5 3 .5 3 1.5zm13.5-.5c1.7 0 1.7.2.5 1-1.9 1.2-10 1.3-10 .1s2.9-2 5.5-1.5c1.1.2 2.9.4 4 .4zm-57.7 5.2c-.3 2-1 2.3-5.2 2.6-6.4.4-8.5-1.5-2.7-2.4 2.3-.4 4.4-1.1 4.7-1.5 1.1-1.9 3.5-.9 3.2 1.3zm70 1.5c.2.7-.3 1.3-1.1 1.3s-2 .7-2.7 1.5c-.7.8-2.3 1.5-3.6 1.5-1.3 0-2.8.8-3.3 1.7-.9 1.6-1.2 1.6-2 .3-.6-.8-2-1.5-3.2-1.5-1.2 0-2.4-.6-2.6-1.3-.4-.9 1.2-1.2 5.7-1.2 5.4 0 6.3-.3 6.7-2.1.4-1.5 1.2-1.9 3.1-1.7 1.4.2 2.7.9 3 1.5zm6.2 2.9c0 3-1.9 2.8-3.1-.4-.7-1.8-.5-2.2 1.1-2.2 1.5 0 2 .7 2 2.6zm-61 .4c0 .5-.4 1-.9 1s-1.2 1.6-1.5 3.6c-.4 2.1-1.2 3.4-1.9 3.1-.7-.2-1.2-.9-1.1-1.5.1-.7.2-2.6.3-4.2.1-2.5.5-3 2.6-3 1.4 0 2.5.4 2.5 1zm29 1.9c0 1.8.6 3.1 1.7 3.5 1.5.6 1.5.8.3 1.7-.8.5-2.6.7-4 .4-1.4-.3-3.9-.1-5.7.4-2.5.7-3.3.6-3.7-.5-.3-.8.1-1.7.9-2 .9-.4 1.5-1.9 1.5-3.5 0-2.8.2-2.9 4.5-2.9s4.5.1 4.5 2.9zm63.6.4c1.1 1.1-2.9 8.7-4.6 8.7-.9 0-2.5-.7-3.8-1.5-1.9-1.4-2.4-1.4-4.6 0-1.3.9-2.7 2.3-3 3.1-.9 2.2-2.3 1.7-3-1.2-.9-3.4-2.7-5.1-6-6-3.4-.8-2.8-2.7 1-3.4 4.3-.8 23.1-.6 24 .3zm-52.8 4.6c.5 3-1.5 5.2-2.8 3.1-.5-.8-1-2.5-1-3.8 0-3.2 3.4-2.5 3.8.7zM157 537c0 .5-.4 1-1 1-.5 0-1-.5-1-1 0-.6.5-1 1-1 .6 0 1 .4 1 1zm19 .5c0 .8.7 1.5 1.5 1.5s1.5.4 1.5 1c0 1.5-1.7 1.2-4-.7-2.4-2.1-2.6-3.3-.5-3.3.8 0 1.5.7 1.5 1.5zm25.4.1c.8 2 .8 12-.1 27.2-.5 9.6-.9 12.2-2 12.2-.8 0-1.3.7-1.1 1.7.3 1.5 1.3 1.8 6.6 1.6 4.4-.2 6.2.1 6.2 1 0 2.1-3.4 4.3-7.6 5-2.1.4-4.4 1.4-5.1 2.3-.8 1.1-1.8 1.4-3.5.8-1.3-.4-4.7-.6-7.5-.5-7.3.2-11.3-1.9-11.3-6.1 0-3 0-3.1 4.5-2.6 4.9.6 7.9-1.2 5.7-3.4-.7-.7-1.2-2.2-1.2-3.5 0-1.9.5-2.3 2.9-2.3 2.8 0 2.8-.1 3.5-7.7.3-4.2.6-10.5.6-14 0-4.7.4-6.5 1.5-6.9.8-.4 1.5-1.4 1.5-2.3 0-3.7 5.2-5.7 6.4-2.5zm44.6-.6c0 .5-.7 1-1.5 1s-1.5-.5-1.5-1c0-.6.7-1 1.5-1s1.5.4 1.5 1zm12 .5c0 .9-.6 1.2-1.5.9-.8-.4-1.2-1-.9-1.5.8-1.4 2.4-1 2.4.6zm-9.2 2.6c-.2.6-.8 1-1.3 1s-1.1-.4-1.3-1c-.2-.6.4-1.1 1.3-1.1s1.5.5 1.3 1.1zm-93.4 5.3c1.4.5 1.6 1 .8 1.8-1.4 1.4-4.2-.7-4.2-3.1 0-1 .3-1.2.8-.5.4.6 1.6 1.4 2.6 1.8zm-2.7 8.8c-.3.8-.6.5-.6-.6-.1-1.1.2-1.7.5-1.3.3.3.4 1.2.1 1.9zm137.1 5.1c.2 5.4.7 7.5 2 8.6 1.3 1 1.4 1.4.4 1.8-.7.3-1.7 1.6-2.3 3-1.2 3.1-2.9 2.1-2.9-1.8 0-1.9-.5-2.9-1.5-2.9-.8 0-1.5-.9-1.5-2s.7-2.3 1.5-2.6c1.1-.5 1.5-2.1 1.5-6 0-3.7.4-5.4 1.3-5.4.8 0 1.3 2.3 1.5 7.3zm46.7-4.3c.3.5 0 1.9-.7 3.1-1 1.7-1 2.3 0 2.6.6.3 1.2 1.1 1.2 1.9 0 .8-.6 1.4-1.2 1.4-2.6-.1-4.8-2.8-4.8-5.8 0-2.8.7-3.5 4.2-4.1.4 0 .9.3 1.3.9zM154 559.5c0 .8.5 1.5 1 1.5.6 0 1 .8 1 1.7 0 1.4-.4 1.2-2.5-.7-2.8-2.7-3.2-4-1-4 .8 0 1.5.7 1.5 1.5zm122-.5c0 .5-.9 1-2 1s-2-.5-2-1c0-.6.9-1 2-1s2 .4 2 1zm42 3.4c0 .8.7 1.7 1.6 2 1.1.4 1.5 1.7 1.2 4.8-.2 3.8 0 4.3 2 4.6 3.1.5 2.7 4.6-.5 5-1.3.2-2.3-.1-2.3-.7 0-.5-1.1-2.3-2.5-3.8-4.1-4.7-4.5-5.2-4.5-6.2 0-.5.7-1.1 1.5-1.5.8-.3 1.5-1.7 1.5-3.1 0-1.4.5-2.5 1-2.5.6 0 1 .6 1 1.4zm-10.7 4.9c1 .4 1.5 1.1 1.2 1.7-.8 1.3-5.5 1.3-5.5.1 0-1.9 1.3-4.2 1.9-3.4.3.5 1.4 1.2 2.4 1.6zm-30.3 3.1c0 1.3.7 2.6 1.5 3 2.2.8 1.8 3.6-.5 3.6-1.3 0-2.2-.9-2.6-2.8-.3-1.5-.8-3.5-1.1-4.5-.3-1.1.1-1.7 1.1-1.7s1.6.9 1.6 2.4zm54 3.1c0 2.4-.5 3.5-1.5 3.5s-1.5-1.1-1.5-3.5.5-3.5 1.5-3.5 1.5 1.1 1.5 3.5zm-111 .1c0 3.1-2.3 2.8-2.8-.4-.2-1.5.2-2.2 1.2-2.2 1.1 0 1.6.9 1.6 2.6zm216.3-1.7c1.8.6 1.8.8-.2 3.1-2 2.4-2.2 2.4-3.5.7-.8-1-3.3-2.1-5.5-2.4-2.3-.3-4.1-1-4.1-1.4 0-1.1 10.7-1.1 13.3 0zM312 575.8c0 2.6-4.2 4.7-6.6 3.4-1.7-.9-1.6-1.1.9-1.7 1.5-.4 2.7-1.3 2.7-2.1s.7-1.4 1.5-1.4 1.5.8 1.5 1.8zm28-1.4c0 .3-.4.8-1 1.1-.5.3-1 .1-1-.4 0-.6.5-1.1 1-1.1.6 0 1 .2 1 .4zm104 4.2c0 .8-.4 1.2-1 .9-.5-.3-1-1-1-1.6 0-.5.5-.9 1-.9.6 0 1 .7 1 1.6zm-223 2.1c-.1 3.5-1.4 5.3-4.1 5.3-2.6 0-2.9-.4-2.9-3 0-2.8.3-3 3.5-3 1.9 0 3.5.3 3.5.7zm110 .8c0 .9-.9 1.5-2.1 1.5-1.6 0-2 .5-1.7 2.7.2 2.3-.1 2.9-1.9 3.1-2.6.4-3.1-1.3-.7-2.2 1-.4 1.3-1.3.9-2.6-.9-2.7.1-4 3.1-4 1.5 0 2.4.6 2.4 1.5zm19.9 1.7c2-.3 3.1-1 3.1-2.1.1-1.3.3-1.3 1.6.4 2.8 3.7 1.4 5-4.8 4.7-3.9-.3-6.8.1-9 1.2-1.7.9-3.5 1.3-4 .8-1.2-1.2 2-5.2 4.1-5.2 1.1 0 2.2-.8 2.5-1.7.6-1.5.8-1.4 2.1.4 1 1.4 2.2 1.9 4.4 1.5zM157 581.4c0 .3-.4.8-1 1.1-.5.3-1 .1-1-.4 0-.6.5-1.1 1-1.1.6 0 1 .2 1 .4zm227 .6c0 .5-.2 1-.4 1-.3 0-.8-.5-1.1-1-.3-.6-.1-1 .4-1 .6 0 1.1.4 1.1 1zm-15 2.5c0 1-1 1.5-3 1.5s-3-.5-3-1.5 1-1.5 3-1.5 3 .5 3 1.5zm5.5-.5c.3.5.1 1-.4 1-.6 0-1.1-.5-1.1-1 0-.6.2-1 .4-1 .3 0 .8.4 1.1 1zm-58 4c-.3.5-2.2 1-4.1 1-1.9 0-3.4-.5-3.4-1 0-.6 1.8-1 4.1-1 2.4 0 3.8.4 3.4 1zm-116.9 10.7c-.3.3-1.3.3-2.2-.1-1.6-.6-1.5-.8.2-2.5 1.8-1.7 1.9-1.7 2.2.1.2 1.1.1 2.2-.2 2.5zm238.9-3.7c.3.5 1.6 1 2.7 1 1.9 0 2 .4 1.4 4.6-.3 2.6-.6 6-.6 7.6 0 2.1-.6 3.1-2.2 3.7-2.1.8-2.3.5-3-3.8-1.4-10.3-.6-16.8 1.7-13.1zm-224.9 4.5c.4.8.4 2.1.1 2.9-.5 1.2-1.1 1.2-3.1.3-3.7-1.7-3.3-4.7.6-4.7 1 0 2.1.7 2.4 1.5zM175 616.9c0 1.4-.6 1.7-2.5 1.3-1.4-.2-2.5-1.1-2.5-1.8 0-.8 1-1.4 2.5-1.4 1.8 0 2.5.5 2.5 1.9zm269.2-.4c0 .5-.5 1.1-1.1 1.3-.6.2-1.1-.4-1.1-1.3s.5-1.5 1.1-1.3c.6.2 1.1.8 1.1 1.3z"/><path d="M188.3 578.2c.2.7 1 1.3 1.7 1.3s1.5-.6 1.8-1.3c.2-.7-.5-1.2-1.8-1.2s-2 .5-1.7 1.2zM838 429c0 .5.5 1 1.1 1 .5 0 .7-.5.4-1-.3-.6-.8-1-1.1-1-.2 0-.4.4-.4 1zM857 436c0 .5.5 1 1 1 .6 0 1-.5 1-1 0-.6-.4-1-1-1-.5 0-1 .4-1 1zM844.6 445.5c-2.1 1.1-3.7 1.3-5.6.7-1.8-.7-3.4-.5-5.3.5-2.3 1.2-2.7 2-2.7 5.9v4.5l6-.2c4.4-.2 6.3-.7 7-1.8.7-1.3 1.3-1.4 4.2-.3 4.7 1.6 7.8 1.5 7.8-.3 0-1 1-1.5 2.9-1.5 3.4 0 4.4-1.1 3.5-3.5-.4-1-1.4-1.5-2.5-1.2-1.1.3-2.2.1-2.5-.4-.3-.5-2-.9-3.9-.9-2 0-3.5-.6-3.9-1.5-.7-1.9-1.4-1.9-5 0zM876 451.5c0 .9.5 1.5 1.1 1.3.6-.2 1.1-.8 1.1-1.3s-.5-1.1-1.1-1.3c-.6-.2-1.1.4-1.1 1.3zM872.6 453.7c-1.1 1.1-.6 2.3.9 2.3.8 0 1.5-.4 1.5-.9 0-1.3-1.6-2.2-2.4-1.4zM839.2 459.7c-2.4.5-2.8 3.9-.4 3.7.6-.1 3.2-.2 5.7-.3 3.1-.1 4.5-.5 4.5-1.5 0-2.1-4.2-3-9.8-1.9zM840 467.5c0 1 1 1.5 3 1.5s3-.5 3-1.5-1-1.5-3-1.5-3 .5-3 1.5zM858.8 491.5c-1.2 1.5-1.8 4.2-1.8 7.5 0 3.6-.4 5.2-1.5 5.6-.8.4-1.5 1.7-1.5 3 0 1.9.5 2.4 2.4 2.4 2.1 0 2.4-.5 2.9-6.8.4-4.2 1.2-7.1 2.2-7.8.8-.6 1.5-1.8 1.5-2.6s.5-1.9 1.2-2.6c.9-.9.7-1.2-1.2-1.2-1.5 0-3.2 1.1-4.2 2.5zM546 493c0 .5 1.4 1 3 1 1.7 0 3-.5 3-1 0-.6-1.3-1-3-1-1.6 0-3 .4-3 1zM444.2 509.2c.6 1.8 2.8 2.1 2.8.4 0-.9-.7-1.6-1.6-1.6-.9 0-1.4.5-1.2 1.2zM522 513c0 .5.4 1 .9 1 .6 0 1.3-.5 1.6-1 .3-.6-.1-1-.9-1-.9 0-1.6.4-1.6 1zM530.8 512.7c.7.3 1.6.2 1.9-.1.4-.3-.2-.6-1.3-.5-1.1 0-1.4.3-.6.6zM537 515.4c0 .8.6 1.6 1.3 1.9.9.3 1.2 1.6.9 3.6-.4 3-.3 3.1 3.2 3.1s3.6-.1 3.6-4c0-2.9-.5-4.2-1.9-5-2.9-1.5-7.1-1.3-7.1.4zM513 516c2 1.3 5 1.3 5 0 0-.6-1.5-1-3.2-1-2.5 0-2.9.3-1.8 1zM445 519.5c0 2.8 1.5 3.4 2.4.9 1-2.5.7-3.4-.9-3.4-.9 0-1.5.9-1.5 2.5zM505.7 517.6c-.4.4 0 1.5.9 2.5 1.5 1.7 1.5 1.9-.9 3-3.2 1.4-2.6 2.9 1.1 2.9 1.7 0 3.2-.8 4-2 1.5-2.5.8-4-1.8-4-1 0-2-.7-2.2-1.6-.2-.9-.6-1.2-1.1-.8zM529.5 519.2c-1.7 2-1.9 3.6-1.6 12.3.1 5.5.4 10.2.7 10.4 1.1 1.2 1.7-1.7 2-10.6.2-5.3.8-10.1 1.4-10.7 1.2-1.2 1.3-3.6.2-3.6-.4 0-1.6 1-2.7 2.2zM860 519.4c0 1.5-.7 4.3-1.6 6.4-.8 2-1.7 6.2-1.8 9.2-.2 3-.7 9.1-1.1 13.6-.7 7.9.2 12.4 2.4 12.4.8 0 1.3-8.3 1.5-25.2.1-4.6.4-5.8 1.9-6.2 1.5-.4 1.8-1.3 1.5-6.2-.2-3.5-.8-5.9-1.5-6.2-.8-.2-1.3.6-1.3 2.2zM493 519c0 .5.7 1 1.5 1s1.5-.5 1.5-1c0-.6-.7-1-1.5-1s-1.5.4-1.5 1zM462 521c0 .5.5 1 1.1 1 .5 0 .7-.5.4-1-.3-.6-.8-1-1.1-1-.2 0-.4.4-.4 1zM467.2 523.2c.2 1.3 1 2.3 1.8 2.3s1.6-1 1.8-2.3c.3-1.7-.2-2.2-1.8-2.2s-2.1.5-1.8 2.2zM473.4 522.6c.3.9.6 1.8.6 2 0 .2.7.4 1.5.4s1.5-.9 1.5-2c0-1.4-.7-2-2.1-2-1.5 0-1.9.4-1.5 1.6zM496.5 522c.4.6 1.1.8 1.6.5 1.4-.9 1.1-1.5-.7-1.5-.8 0-1.2.5-.9 1z"/><path d="M540.1 526.9c-.6 1.1-1.1 3.6-1.1 5.5 0 2-.4 3.6-.8 3.6s-1.4 1.6-2.1 3.5c-1.1 3.2-1 3.8.9 6.5 2.3 3.3 2.2 6-.4 9.5-1.2 1.6-1.7 1.8-2.7.7-1.7-1.6-2.9-1.5-2.9.3 0 .8-.6 1.5-1.4 1.5-.8 0-1.6.7-2 1.5-.3.8-1.1 1.5-1.7 1.5-.7 0-1.7.7-2.4 1.6-.9 1.3-1.6 1.4-3.1.6-1.7-1-1.7-1.1.9-1.7 2.8-.7 3.8-3.5 1.2-3.5-.9 0-1.5-.9-1.5-2.4 0-3.3-1-5.7-2.1-5-.5.3-.9 2-.9 3.8 0 1.9-.7 3.9-1.5 4.6-.8.7-1.5 2-1.5 3s-1.1 2.5-2.5 3.4c-2.3 1.5-2.8 1.5-5.5.1-1.6-.8-4-1.5-5.4-1.5-1.9 0-2.6-.7-3.1-3-.4-1.7-1.1-3-1.6-3-1.7 0-.9-12.3 1-16.6 2-4.5 1.7-9.4-.6-9.4-.8 0-1.3-.8-1.2-1.8.5-5-2.5-6.1-3.6-1.2-.7 3.3-1.4 3.7-3.3 1.8-1-1-1.7-1-3.2 0-1.1.6-4.2 1.2-6.9 1.2-5.6 0-6.7 1-5.1 4.1.9 1.5 1.5 1.8 2.3 1 1.5-1.5 8.2-1.4 10.8.1 1.7 1 2.3 1 2.6 0 1.3-3.6 2.2.1 2.5 10.9.2 10.2.6 12.2 2.1 13 2.7 1.5 2 4.5-1.5 7.1-2.9 2-4.5 2.3-14.3 2.4l-11 .1-.3 2.8c-.2 1.5.4 6.6 1.3 11.2s1.4 9.5 1.1 10.9c-1 3.7 2.1 3.1 3.9-.9 3.1-6.2 3.8-7.2 7.2-9.5 4.2-2.7 10.8-3 12.1-.5.7 1.1 2.7 1.8 6.6 2.1 3.1.2 5.9.8 6.2 1.3.3.5.2 2.4-.2 4.4-.8 4.4-3.4 4.8-3.4.5 0-3.4-1.2-3.8-4-1.2-2 1.8-2 1.9 1 4.7 2.7 2.5 2.9 3.2 2.3 7.4-.3 2.5-1.1 4.9-1.6 5.2-.5.4-.7 1.4-.4 2.3.4.9-.2 2.3-1.3 3.4-1.7 1.6-1.9 3.1-1.6 15.9.1 8.3.7 14.7 1.3 15.5.6.7 1.1 2.4 1.1 3.8-.1 1.4 0 8.6.2 16 .2 10.8.5 13.9 1.8 15.3 1.5 1.7 1.5 1.9 0 2.8-1.5.8-1.6 2.8-1.5 15.7.2 8.1.6 15.2.9 15.8.4.6 1.2 5.9 1.7 11.8.6 5.8 1.5 11.5 2.1 12.6.5 1 1 3.5 1 5.4 0 1.9.6 5.5 1.4 7.8.8 2.4 1.8 7.4 2.2 11.3.3 3.8 1.3 7.9 2 9 .8 1.1 1.4 2.7 1.4 3.7s.4 1.8.9 1.8 1.2 1.4 1.6 3.1c.4 1.7 1.3 3.3 2.1 3.6.8.3 1.4 1.1 1.4 1.8 0 1.9 3.1 4.2 7.2 5.3 6.1 1.7 17.8-2.8 17.8-6.7 0-.9.5-2.2 1.2-2.9 1-1 4-16.9 4-21.2-.1-5-2.4-16.6-3.7-18-1.1-1.2-1.5-4-1.5-10.7 0-5.4-.6-10.7-1.5-13.4-1.3-3.9-1.5-11.9-1.3-55.9.2-38.8.6-51.4 1.5-51.7.9-.3 1.2-8.2 1.3-31.4 0-24.5.3-31.5 1.4-33.2 1-1.5 1.3-5.2 1.2-12.2-.1-9.5-.2-10-2.3-10.3-1.4-.2-2.6.4-3.2 1.7zm-5 55.9c-1.1.8-2.1 2.1-2.1 2.9 0 .8-.4 1.1-1 .8-1.1-.7-1.4-5.8-.4-6.8.3-.3 1.7 0 3.1.6l2.5 1.1-2.1 1.4zm-11.1 1.1c0 1.6.8 3.7 1.7 4.6 1.4 1.4 1.4 2 .4 3.7-1 1.6-1 2.6 0 4.9.9 2.4.8 4.3-.6 10.2-1 3.9-2.2 7.5-2.9 7.9-.7.5-.1 1.7 1.7 3.6 3 3.1 3.7 8.6 1.5 12.3-1 1.7-1 2.3 0 2.6.6.3 1.2 1.7 1.2 3.2 0 1.5-.6 3.3-1.2 4-1 1.1-1 1.4 0 1.8 2.1.8 1.3 3.1-1.3 3.7-1.4.4-2.5 1.1-2.5 1.6s1.1 1.2 2.5 1.6c3.2.8 3.4 5.1.4 8.3-1.6 1.7-2.4 2-3.5 1-.8-.6-1.4-2.2-1.4-3.5 0-1.3-.4-2.4-1-2.4-1.4 0-1.2-5.4.2-6.8.9-.9.9-1.5 0-2.4-.7-.7-1.2-2.4-1.2-4 0-1.5-.8-3.2-1.7-3.8-1.3-.8-1.4-1.3-.5-1.6 1.9-.9 1.4-5.8-.7-7.1-2.3-1.4-6.1-.6-6.1 1.4 0 .7.7 2.5 1.6 3.8.8 1.3 1.4 3.6 1.2 5.2-.2 2.3-.7 2.8-2.7 2.5-1.4-.1-2.7-.5-2.9-.7-.3-.3-.7-3.5-.9-7.2-.2-3.8-.5-7.6-.7-8.5-.2-1 .7-2.9 1.9-4.3 1.5-1.5 2.3-3.5 2.2-5.2-.1-1.9.3-2.8 1.3-2.8 1.1 0 1.4.9 1.2 3.3-.1 2.2.3 3.5 1.3 3.8 2.4.9 1.8 2.4-1 2.4-1.6 0-2.5.6-2.5 1.5 0 2.2 2.7 3 5.6 1.7 1.9-.9 2.4-1.9 2.4-4.6 0-2.2-.6-3.6-1.6-4-1.1-.4-1.5-1.6-1.2-3.8.2-2.9 0-3.3-2.1-3-1.5.1-3.2-.7-4.7-2.3-2.8-3.1-2.8-3.2-.9-5.1.8-.9 1.5-2.4 1.5-3.5 0-1 .6-1.9 1.4-1.9.8 0 1.6-.7 2-1.5.7-1.9 2.6-2 2.6-.1 0 2 3 2.9 3.7 1 .3-.8 0-2.7-.8-4.2-.7-1.5-1.5-3-1.7-3.5-.2-.4.5-.7 1.6-.7 1.2 0 2.4-1.1 3.2-3 1.6-3.9 4-3.9 4-.1zm9 8c0 3.3-1 4.4-2.8 3.2-.9-.5-.9-1.3.1-3.4 1.6-3.5 2.7-3.4 2.7.2zm-22-.9c0 .5-.4 1-.9 1-.6 0-1.3-.5-1.6-1-.3-.6.1-1 .9-1 .9 0 1.6.4 1.6 1zm22 12.5c0 .8-.4 1.5-1 1.5-.5 0-1-.7-1-1.5s.5-1.5 1-1.5c.6 0 1 .7 1 1.5zm.3 10.7c.7 2.3.1 3.8-1.4 3.8-.5 0-.9-1.4-.9-3 0-3.5 1.5-4 2.3-.8zm-21.9 35c-.3 7.2-2.4 9.4-2.4 2.5 0-3.6-.4-4.6-2-5-3.4-.9-2.4-3.7 1.3-3.7h3.3l-.2 6.2zm21.6 4.3c0 1.9 0 3.8.1 4.2 0 .4-.4.9-1 1.1-.7.2-1.1-1.4-1.1-4.2 0-2.5.5-4.6 1-4.6.6 0 1 1.6 1 3.5zm-8.5 13.4c.7 1.2-1.2 2.4-2.5 1.6-1.1-.7-.4-2.5 1-2.5.5 0 1.1.4 1.5.9zm8.5 8.1c0 1.1-.4 2-1 2-.5 0-1-.9-1-2s.5-2 1-2c.6 0 1 .9 1 2zm-7 7.4c0 .8-.5 1.8-1 2.1-1.7 1.1-4-.3-3.4-2 .8-1.9 4.4-2 4.4-.1zm-14.9 4.7c2 2 2 2.2.4 3.8-1.4 1.3-1.8 1.3-2.2.2-.3-.7-1.4-2.1-2.4-2.9-1.1-.9-1.9-2-1.9-2.4 0-1.6 4.1-.7 6.1 1.3zm15.9 11.4c0 .8-.6 1.5-1.4 1.5-1.7 0-2.8-1.4-1.9-2.4 1.2-1.2 3.3-.6 3.3.9z"/><path d="M512.6 601.9c-.9 2.7.5 4.6 2.8 3.8 2-.8 2.1-3.7.2-3.7-.8 0-1.6-.6-1.9-1.3-.2-.6-.7-.1-1.1 1.2zM515 530c0 1.1.5 2 1 2 .6 0 1-.9 1-2s-.4-2-1-2c-.5 0-1 .9-1 2zM500.5 530.1c-.9 1.3-.5 1.6 2 2.1 1.2.2 2.1-.3 2.3-1.5.4-1.9-3.2-2.5-4.3-.6zM350.5 534c0 2.7.4 4 1.3 4 1 0 1.2-.7.8-2.3-.3-1.2-.6-3-.6-4 0-.9-.3-1.7-.8-1.7-.4 0-.7 1.8-.7 4zM459 532.8c0 1.2-.7 2.5-1.5 2.8-2 .8-1.9 3 .1 3.8 1.6.6 4.9-.8 7.1-3 1.9-1.8 1.6-2.4-1.2-2.4-1.3 0-2.9-.8-3.4-1.8-.9-1.5-1-1.4-1.1.6zM434.7 535.1c-1 1.1-1.6 2.4-1.2 2.7.3.4.9.2 1.3-.4.4-.6 1.5-1.3 2.5-1.7 1-.4 1.5-1.1 1.2-1.7-.9-1.5-1.9-1.2-3.8 1.1zM303 537.5c0 1.7 1.8 1.9 3.8.6 1.1-.7 1-1-.3-1.5-2.6-1-3.5-.7-3.5.9zM376 537.6c0 1.1.5 1.4 1.6 1 .9-.3 2.7-.6 4-.6 1.3 0 2.4-.5 2.4-1 0-.6-1.8-1-4-1-3 0-4 .4-4 1.6zM417.6 536.9c-.6.9 2.9 4.1 4.4 4.1.6 0 1-.5 1-1 0-.6 1.4-1 3-1 1.9 0 3-.5 3-1.4 0-1-1.5-1.4-5.5-1.5-3 0-5.6.3-5.9.8zM512 537.6c0 .9.5 1.4 1.2 1.2 1.8-.6 2.1-2.8.4-2.8-.9 0-1.6.7-1.6 1.6zM354 541.9c0 2.3-.6 3.2-2.7 3.9-2.8 1-2.8 1 .8 1.1 4.1.1 5.3-1.5 4.3-5.5-.9-3.3-2.4-3-2.4.5zM408.1 541.2c-.7 2-.5 2.3 1.6 2.6 2.4.3 5.6-2.4 4.7-4-1.1-1.8-5.5-.8-6.3 1.4zM362 544c1.9 1.3 3 1.3 3 0 0-.6-1-1-2.2-1-1.9 0-2 .2-.8 1zM528 548.4c0 1.4.5 2.6 1 2.6.6 0 1-.9 1-1.9 0-1.1-.4-2.3-1-2.6-.6-.4-1 .5-1 1.9zM354 550.8c0 1.8.6 3.2 1.5 3.6 1.2.4 1.4 1.4 1 3.8-.3 1.8-.1 3.9.4 4.7.8 1.2 1.2 1.2 2.6-.2.9-1 2.1-1.7 2.6-1.7s.9-1.4.9-3c0-1.7-.5-3-1.1-3-.7 0-2.7-1.6-4.5-3.6l-3.4-3.5v2.9zM459.1 558.6c0 1.1.3 1.4.6.6.3-.7.2-1.6-.1-1.9-.3-.4-.6.2-.5 1.3zM458.8 566.5c-1 1.5-.8 21.4.2 22 .4.2 1-.3 1.2-1.3.6-2.7-.6-21.8-1.4-20.7zM458 594.9c0 1.7.5 3.3 1 3.6.6.4 1-.8 1-2.9 0-2-.4-3.6-1-3.6-.5 0-1 1.3-1 2.9zM493 599.9c0 1.2.6 2.1 1.5 2.1.8 0 1.5-.4 1.5-.9s-.7-1.4-1.5-2.1c-1.3-1-1.5-.9-1.5.9zM795 618.9c-1.2.9-1.2 1.1.2 1.6 2.3.9 6.3.2 6.1-1-.3-1.4-4.5-1.7-6.3-.6zM769.2 621.7c-3 .6-1.8 2.3 1.6 2.3 3.7 0 6-1.5 3.7-2.4-.9-.3-2-.5-2.3-.5-.4.1-1.7.4-3 .6zM767.5 633c-.4.6-6.2 1-14.1 1-7.4 0-13.4.3-13.4.8 0 1.4 5.2 6.3 7.7 7.3 2.8 1 12.6 1.2 13.6.2.4-.3 3-.8 5.7-.9 3.2-.2 5.9-1 7.6-2.3 1.5-1.2 3.3-2.1 4-2.1 1.5 0 1.7-1 .8-3.4-.5-1.3-.9-1.4-2.1-.5-1 .9-1.7.9-2.5.1-1.5-1.5-6.5-1.6-7.3-.2zM465 664c0 1.1.5 2 1 2 .6 0 1-.9 1-2s-.4-2-1-2c-.5 0-1 .9-1 2zM842.2 677c0 1.4.2 1.9.5 1.2.2-.6.2-1.8 0-2.5-.3-.6-.5-.1-.5 1.3zM841.7 682.6c-1.2 4.9-1.1 19.4.1 20.6 1.8 1.8 2.4-4.7 1.5-14.7-.7-7.2-1-8.4-1.6-5.9zM465 683.9c0 1.7.5 3.1 1 3.1.6 0 1-1.1 1-2.4 0-1.4-.4-2.8-1-3.1-.6-.4-1 .7-1 2.4zM841 707.2c0 .7-.3 2.3-.6 3.4-.4 1.6 0 2.3 1.5 2.7 2.4.6 3.1 5.7.7 5.7-1.8 0-2.6 5.2-2.6 17.6 0 6.4-.4 10.4-1.2 11.2-.9.9-.9 1.5 0 2.4 1.5 1.5 1.6 6 .1 7.5-.8.8-.7 2.3.6 5.7 2.4 6.2 4.7 6.1 7.8-.3 1.9-3.8 2.2-6.1.8-6.1-.5 0-.9-5.3-1-11.8-.1-16-1.2-32.2-2.2-32.2-.4 0-.9-1.4-1.1-3.2-.3-3-2.8-5.4-2.8-2.6zM839.2 716c0 1.4.2 1.9.5 1.2.2-.6.2-1.8 0-2.5-.3-.6-.5-.1-.5 1.3zM217.6 721.7c-.8.8-.8 14 0 17 .9 3.2 1.8 2.9 3.3-1.3.9-2.6 1-3.9.2-4.7-.6-.6-1.1-3.2-1.1-5.8 0-4.5-1-6.6-2.4-5.2zM179.5 780c-.8 1.3 1.4 4.2 2.6 3.4.5-.3.9-1.4.9-2.5 0-2-2.4-2.6-3.5-.9zM465 797.1c0 .5.5.7 1 .4.6-.3 1-.8 1-1.1 0-.2-.4-.4-1-.4-.5 0-1 .5-1 1.1zM467.6 852.6c-.9 2.2-.8 2.4.9 2.4.8 0 1.5-.6 1.5-1.4 0-2.2-1.7-2.8-2.4-1z"/></svg>