<svg version="1.0" xmlns="http://www.w3.org/2000/svg"  width="1440" height="1440" viewBox="0 0 1080 1080"><path d="M541.6 138.4c-7.5 3.6-16.2 12-19.8 19.1-1.1 2.2-3 5.1-4.3 6.5-3.1 3.5-7.5 18.2-7.5 25.2 0 3.1-.5 6.9-1 8.4-2.1 5.5-2.3 16.8-.5 24.9 1.4 6.2 2.4 8.6 5.4 11.9 2.1 2.2 4.6 6.3 5.6 9.1 1 2.7 3.7 8.8 6 13.5 7.5 15.2 7.8 15.7 6.7 17.7-.6 1-3.7 3.2-6.9 4.9-5.7 3-8.2 6.4-4.7 6.4 2.7 0 .1 2.2-2.8 2.4-2.9.1-6 5.5-9 15.5l-2.3 7.4-7.7 5c-8.1 5.3-10 8-12.8 18.6-.6 2.4-1.5 5.1-2 6-3.3 5.9-16.7 46-18.5 55.1-5.1 25.8-5.5 28.8-4.9 34 .5 4.8.1 6.4-2.5 12.2-2.6 5.6-3.1 8-3.1 14 0 11.9-1.5 15-10.6 22.2-3.4 2.7-16.6 9.5-22.7 11.7-4.3 1.5-9.7 6.4-9.7 8.8 0 1.7-2.4 4.2-5.9 6-2.2 1.2-11 1.5-12.7.3-.6-.4-3.7-6.3-6.8-13.2-10.2-22.5-12.5-26.6-16-28.2-4.7-2.1-12.2-.6-16.8 3.5-4.7 4.3-5.8 6.6-5.8 12.5 0 4.2.7 5.8 5.1 12.2 2.8 4.1 5.9 9 6.9 10.9 2.5 5.2 4.1 13.4 3.4 18.4-.4 2.8-.2 4.7.5 5.1.6.4 1.1 1.8 1.1 3.1s.7 2.8 1.6 3.3c.9.5 1.8 2.3 2 4 .3 3 .3 3.1-1.9 1.9-1.2-.6-2.4-1.5-2.7-1.8-.3-.4-1.6-.9-3-1-2.3-.4-2.5-.1-2.2 3.1.1 1.9 1.1 4.6 2.2 6 1.1 1.4 3.4 5 5.2 8 1.8 3 5.2 7.3 7.5 9.7 3.4 3.3 5.1 4.3 9 4.8 9.3 1.3 11.2 3 18.3 17.4 7.1 14.2 8.2 19 9 39.6 1.4 34.5 5.7 55.5 12.4 59.6 4.2 2.6 8.8 2.4 13.2-.6 2-1.4 4-2.2 4.4-2 .5.3 2.9 4.1 5.5 8.6 2.5 4.4 5.2 8.2 6 8.5.7.3 2.3 0 3.5-.6 3-1.6 4.3-.2 8.5 8.6 5.1 11 6.5 15.8 6.5 22.4 0 3.3.4 6 1 6 .8 0 3-6.1 3-8.6 0-.6 1.2-4.7 2.6-9 1.4-4.4 3.2-10.2 4-12.9 1.4-5 1.4-4.9.8 4.7-.3 5.4-.2 9.8.3 9.8 1.8-.1 4.2-2.8 6.2-7.3 1.2-2.6 2.8-4.7 3.6-4.7.9 0 1.5-1 1.5-2.5 0-1.4.5-2.5 1.1-2.5.8 0 1 1.9.5 6.2-.9 8.9-1.7 14.1-2.3 15.8-.8 2.5-1.1 12-.4 12.5.4.2 1.8.1 3-.2 1.8-.5 2.1-1.1 1.6-3.1-.4-1.5 0-3.1 1-4.2.8-.9 1.3-2.4.9-3.3-.8-2.3-2.6-1-1.9 1.3.3 1 0 2-.9 2.3-2.1.8-3.1-2.9-1.2-4.8.8-.8 1.9-1.5 2.4-1.5.6 0 1.2-.7 1.6-1.5.7-1.8 3.6-2 3.7-.3.5 5.2-.3 13.4-1.5 16.1-1.4 3.1-1.9 5.5-3.2 14.4-.6 3.6-.3 4.4 1.9 6.3 2 1.7 2.3 2.7 1.7 4.8-.4 1.5-1.2 2.6-1.9 2.5-.6-.2-1.1.2-1.1.7 0 1.4-2.8 1.2-3.3-.2-.2-.7-.3-.4-.1.6.2 1.1-.6 3.8-1.6 6.2-3.2 6.9-1.8 18 2.8 23.6 1.7 2 1.3 5.4-1.6 15-1.6 5.3-1.9 8.4-1.5 14.4l.5 7.5-3.3-.3c-2.6-.2-3.4-.9-4-3.2-1.1-4-3.5-6.3-7.5-7.1-3.5-.6-3.6-.6-2.9-4.8.4-2.5 1.6-4.9 2.8-5.9 2.1-1.6 2.1-1.6-1.5-2.3-3.6-.7-9.8.1-9.8 1.3 0 .3.8 1.4 1.7 2.5 1.6 1.7 1.6 2 .2 3.1-.9.6-1.6 2.4-1.6 3.9 0 2.7-3.1 7.2-4.2 6.2-.3-.3-.4-2.3-.3-4.3.2-2.9-.4-4.4-2.8-7.2l-3-3.5.6 3c.4 1.6 1 3.6 1.4 4.4.4.8.3 3-.2 4.9-.6 2-.8 5-.5 6.8.4 2.5.2 3.3-1.2 3.7-2.2.5-2.7 3.1-3 13.8-.1 4.4-.6 9.1-1.1 10.3-1 2.5-5.7 7.6-7 7.6-.5 0-2.5 1.4-4.5 3.1-4.5 4-4.5 6.9 0 12.2l3.5 4.1-.3 12.8c-.2 12.7-.2 12.7-3.4 16-2.6 2.8-3.3 4.7-4.7 13.1-2 12.4-2 14 .2 16 1.7 1.5 5.9 1.7 39.4 1.7h37.5l2.1-6.3c2.6-7.8 4.5-20.8 3.7-24.7-.4-1.7-1.5-3.4-2.4-4-1-.5-2.1-2.3-2.4-4-.7-3.5 1.3-13 3.7-17.5 1.9-3.6 2-5.5.4-5.5-.9 0-.8-.4.2-1 .8-.5 1.1-1 .7-1-.5 0-.2-.6.6-1.4.8-.8 1.7-4.5 2.1-8.2.4-3.7 1.5-8.5 2.5-10.8 1-2.3 2.7-6.6 3.7-9.6 3.2-9.2 15.1-27 18-27 .8 0 1.9 1.2 2.5 2.7.5 1.6 2.2 5 3.6 7.8 1.5 2.7 3.3 6.3 4.1 8 2.5 4.9 10 16 12.2 18 1.1 1 2 2.2 2 2.7 0 .4.8 1.6 1.9 2.7 1 1 2 2.3 2.2 2.8.2.6 1.4 1.4 2.7 1.7 3.6 1.2 2.8-1.6-3.5-12.2-3.2-5.4-6-10.2-6.2-10.7-.9-2.5-10.9-22.5-13.3-26.8-1.6-2.6-2.8-6.3-2.8-8.1 0-3.3 9.1-20.3 18.6-34.8 2.4-3.7 4.4-7.1 4.4-7.5 0-.9 5.2-8.6 6.5-9.5 2.1-1.5 3 1.7 3.5 12.8.6 13 1.4 14.5 8.6 15.8 2.9.6 4.1.3 5.8-1.3 1.2-1.2 2.9-2.1 3.8-2.1 1.7 0 3.2 2.6 2.3 4-.6 1 1.6 8.2 7.5 23.5 6.2 16 9 26.6 9.6 36.7.6 9.1 3.6 24.1 6.1 30.3.9 2.2 4.8 7.1 8.7 11 7 6.9 8.6 9.3 15.3 23 5.8 11.8 8.4 16.9 10.7 20.6 5.8 9.8 6.2 9.9 34.1 9.9 15.2 0 23.5-.4 24.2-1.1.7-.7.7-2.4-.3-5.6-.8-2.6-1.4-8.3-1.4-12.7-.1-4.5-.5-10.1-1.1-12.6-.5-2.5-1.3-8.3-1.8-13-.9-8.1-3.4-20.2-6.6-32-2.8-10.2-5.5-25.9-7.1-42.2-2.1-21.5-1.9-19.4-3.8-42.8-.9-11.3-2.4-22.3-3.2-24.5-1.9-5.4-1.8-8.1.4-10.2 2.6-2.6 5.9-8.5 6.7-12.2.8-3.7 3-5.1 7.9-4.9 3.9.1 6.5-2.1 6.6-5.5 0-1 .6-2.8 1.4-4 1.2-1.8 1.3-4 .6-11.7-1.5-16.7-4-41.1-5.5-55-.9-7.4-1.7-18.9-1.8-25.5-.1-11.9.8-16.7 5.4-27 1.6-3.6 5.6-17.8 8.2-29 1.4-6.1 3.3-14 4.1-17.6 3.2-13.6 3.1-23.4-.1-14.9-.6 1.6-2.6 3.9-4.5 5-4.4 2.6-8.4 8.6-9.1 13.9-.7 5.2-1.3 6-3.1 3.6-1.2-1.6-1.6-1.7-2.9-.6-.9.7-1.3 1.9-1 2.7.4 1-.3 1.4-2.2 1.4-2.7 0-2.7.2-2.2 4.2.3 2.3 1.3 4.8 2.2 5.4 1.5 1.1 1.5 1.4 0 3.8-1 1.4-1.8 2.6-2 2.6-1.2 0-7.4-3.2-8.2-4.2-3.2-4-2-11.8 1.8-11.8 1.3 0 1.9-.7 1.9-2.4 0-1.4-.4-2.7-.9-3.1-1.2-.7-.3-7.1 1.5-10.6.7-1.4 1.5-4.4 1.7-6.7.6-4.6 3.1-8.5 6.5-10.1 1.6-.8 2.2-1.9 2.2-4.1 0-5 1.7-7.2 4.8-6.6 1.5.3 3.3.2 4.1-.3 1.8-1.2 8.1 3.1 10.3 7.1l1.7 3 .7-3.8c.4-2.2.2-5-.5-6.9-.6-1.7-1.1-4.7-1.1-6.6 0-4.7-2.7-14.8-4.8-17.9-.9-1.4-1.5-3.3-1.4-4.2.2-1-.4-4.7-1.3-8.3-1.9-7.5-1.4-13.8 1-12.8 2 .7 1.9-3.3 0-6.7-1.1-2-1.4-2.1-1.5-.7 0 3.5-1.7.7-2.9-5-.7-3.2-1.8-8.1-2.6-10.8-.7-2.8-1.8-6.9-2.5-9.3-1-4-1.8-4.6-5.8-4.5-3.3.2-8.9-8.5-10.7-16.7-.4-1.8-1.8-5.4-3.1-8-1.3-2.6-4-10.3-5.9-17.1-2-6.8-4.4-15.2-5.5-18.6-1.4-4.5-1.9-9.2-1.9-16.8 0-5.7-.5-11.3-1.1-12.4-.5-1.1-1.5-4.2-2.1-7-.6-2.7-2.4-6.9-4-9.1-1.7-2.3-2.9-4.3-2.7-4.5.2-.1 2.2.6 4.5 1.6 2.8 1.2 5.1 3.2 6.8 5.9 2.3 3.7 3 4.1 5.5 3.7 3.2-.7 3.8-.2 8 7.4 4.1 7.5 3.8 3.4-.4-4.9-4.3-8.6-6.2-10.2-17.1-15.2-15-6.8-15.9-7.3-19.5-9.9-4.7-3.5-14.1-8.9-22-12.8-6.1-3-6.9-3.8-11.1-11-2.5-4.3-5.4-9.9-6.3-12.6-1.9-4.9-4.1-6.6-11.5-8.2-4.4-1-3.9 1.1.7 2.5 4.3 1.4 7.2 3.7 7.2 5.7 0 .7-.6 1.3-1.4 1.3-.7 0-2.3 2.7-3.5 6.1-3.4 9.2-5.6 6.9-3.7-3.8.7-4 .6-4.2-2.4-5.8-2.6-1.3-3.1-2.1-2.6-4 .4-1.5.1-2.7-.7-3.2-.8-.4-2.2-2-3.1-3.4-1.8-2.8-1.4-7.5.8-9.4.6-.6 2.4-2.9 4-5.3 1.6-2.3 3.2-4.2 3.5-4.2.9 0 6.7-11.7 7.5-15.3.4-1.5.2-8.6-.4-15.7-1-11.3-.9-13.4.4-16.2 2.3-4.5 2-8.3-1-13.4-1.4-2.4-3.4-7-4.4-10.1-3.5-10.7-5.5-15.8-7.5-18.8-9.5-14.3-13.6-16.6-30.5-17.5-8-.4-12.5-1.1-14.9-2.3-4.9-2.4-8.6-2-16.5 1.7zm6.4 43.2c0 .8-.4 1.4-1 1.4-.5 0-1-.9-1-2.1 0-1.1.5-1.7 1-1.4.6.3 1 1.3 1 2.1zm7 1.9c0 1.4.4 2.5 1 2.5.5 0 .8 3.4.7 7.8 0 4.2.2 8.2.6 8.8.4.8 2.1.9 4.7.4 3.1-.6 4.2-.4 4.9.8.7 1.3 1.4 1.2 5.3-.6 5.2-2.6 6.2-2.7 7.7-.8.9 1 2.3 1.3 4.8.9l3.5-.6-.7 3.4c-.3 1.9-1.6 4.7-2.7 6.2-1 1.6-2.5 4.5-3.2 6.5-1 3-1.9 3.8-4.2 4-5.6.7-7.3 4.9-3.3 8.3 1.2 1 1.8 2.3 1.4 3-.6.8-1 .7-1.7-.5-1.2-2.1-2.7-2-3.6.3-.7 1.9-.8 1.9-4.7-.1-3.2-1.5-5.3-1.9-10-1.4-3.3.2-6.7.7-7.5 1-.8.3-2.2.1-3-.4-2.3-1.5 1.9-5.1 6.1-5.3 2.3-.2 3.3-.7 3.1-1.6-.3-1.4 1.6-4.1 2.9-4.1.5 0 1.1 1.1 1.5 2.5.3 1.3 1.8 3 3.4 3.7 1.6.7 3.4 2.3 4 3.6 1.6 3.7 3.9 1.2 3.6-4.1-.2-3-.7-4.3-1.9-4.5-1-.2-1.4-.8-1.1-1.3.3-.6-.1-1.8-.9-2.7-.8-.9-2.1-3.4-2.8-5.5-.7-2.1-2.2-4.5-3.3-5.5-1.8-1.7-1.9-1.6-1.3 2.5.4 3.7.2 4.4-2 5.8-1.8 1.2-3.6 1.5-6.4 1-3.6-.6-4.4-.3-8.4 2.9-2.4 2-5.2 3.6-6.3 3.6-1.1 0-2.3.7-2.6 1.6-.7 1.8-2.6 1-2.6-1.2 0-.7-1.8-3.3-4-5.5-3.2-3.3-4-4.9-4-7.8 0-3.3.4-3.8 3.6-5 2-.7 5-1 6.8-.7 2.1.4 3.9.1 5.1-.9 2.6-1.9 5.9-1.9 7.5.1 1.2 1.3 1.6 1 3.1-2.3 2.2-4.7 2.4-9.1.4-11.3-1.4-1.5-1.3-1.9.5-4 1.1-1.3 2-2.9 2-3.6 0-1.1 1.4-2.1 3.3-2.3.4-.1.7 1 .7 2.4zm12 10.5c0 .5-.7 1-1.5 1s-1.5-.5-1.5-1c0-.6.7-1 1.5-1s1.5.4 1.5 1zm-36 5.1c0 .6-.7.6-2-.1-1.1-.6-2-1.5-2-2.1 0-.6.7-.6 2 .1 1.1.6 2 1.5 2 2.1zm30.7 20.1c-.3.8-.6.5-.6-.6-.1-1.1.2-1.7.5-1.3.3.3.4 1.2.1 1.9zm43.1 10.7c-.3 1.6-5.4 4.9-7.7 5-1.1.1-.9-.5.5-2.2 1.1-1.2 2.6-3.5 3.4-5 1.3-2.7 1.5-2.7 2.7-1 .8.9 1.2 2.4 1.1 3.2zm-68.8 5c0 1.1-.4 2.3-1 2.6-.6.4-1-.5-1-1.9s.5-2.6 1-2.6c.6 0 1 .9 1 1.9zm29.1 6.7c3.2.5 3.5.9 3.1 3.4-.2 1.6-1.3 3.7-2.3 4.6-1 .9-1.9 2.4-1.9 3.3 0 .9-.7 2.7-1.6 4-1.5 2.1-2.2 2.3-7.1 1.8-3.2-.3-6.5-.1-7.9.5-2 1-2.7.8-3.9-.8-2-2.7-1.8-6 .5-7.7 1.3-.9 1.9-2.3 1.7-4.3-.1-2.1.2-2.8 1.3-2.5 3.3.9 9.4.1 10.9-1.4 1.7-1.7 2.1-1.7 7.2-.9zM538 284.2c.7 3.8 1.6 5.8 2.6 5.8.8 0 1.4-.6 1.4-1.4 0-.9.9-1.2 2.8-.8l2.7.5-2.7-3c-1.6-1.6-2.8-3.1-2.8-3.4 0-.2 1.8-.3 4-.1 2.5.3 4 0 4-.7 0-.6.5-1.1 1-1.1.6 0 1 1 1 2.2 0 1.2.5 3.7 1.2 5.5.9 2.5 1.8 3.3 3.7 3.3 1.9 0 2.2.3 1.3 1.2-1.7 1.7-1.5 3.3.2 1.9.8-.7 2.8-1.6 4.5-2.1 2.6-.7 3.3-.5 4.1 1.1 1.6 2.8 3 2.3 3-1.1 0-1.7-.4-3-1-3-.5 0-1-.5-1-1 0-.6 1.1-1 2.4-1 2 0 2.4.5 2.2 2.2-.6 4.7-2.4 7.7-4.3 7.2-1.2-.4-2.6.5-4.1 2.5-3 4.2-11.8 9.1-16.2 9.1-1.9 0-4.8.7-6.4 1.5-4 2.1-4.8 1.9-7.9-2-2.4-3-2.8-4.5-3.1-11.7-.3-5.2 0-8.5.6-8.9.6-.4 1.1-2.2 1-4-.1-3.8 2.7-7.9 3.9-5.7.4.7 1.2 3.9 1.9 7zm44.4-4.7c.5 1.5-2.3 4.8-5.7 6.6-3.2 1.8-3.3-1.9-.1-5.2 3.1-3.2 4.9-3.7 5.8-1.4zm43.5 23.4c1.7 2.4 1.9 3.4 1 5.9-.6 1.7-1.6 3.3-2.4 3.6-.7.2-1.6 1.9-2 3.6-.4 1.7-1.9 5.3-3.3 7.9-3.9 7.1-15.2 20.2-17.1 19.9-1-.2-1.7.5-1.9 1.9-.4 2.4-2.9 5-3.9 3.9-.3-.3 0-2.4.7-4.6 1.1-3.2 1.8-4 3.8-4 2.3 0 2.4-.2 1.7-3.8-1.1-5-.8-7.4.7-8.3 1-.7 1-.9.1-.9-1.7 0-1.6-4.9.1-9.1 2-4.9 9.6-14.1 11.1-13.5.7.2 2.1-.2 3.2-1 1.7-1.5 1.7-1.5-.4-1.1-1.4.3-2.3-.1-2.6-1.3-.6-2.5.7-4.2 2.6-3.4 2 .7 2.2-1.1.7-5.2-.6-1.5-.8-3.5-.5-4.3.5-1.1 1.6.4 3.5 4.7 1.6 3.4 3.8 7.5 4.9 9.1zm-19.3-4.3c-.9.6-1.6 1.8-1.6 2.6s-1.3 2.7-3 4.3c-1.7 1.6-3 3.9-3 5.2 0 1.3-.7 2.6-1.5 3-2.3.8-2.8-.2-1.1-1.9.8-.8 1.8-3.2 2.2-5.2.3-2.1 1.8-5 3.1-6.4 1.4-1.5 3.2-4.1 4.1-5.7l1.7-3 .3 3c.2 1.8-.2 3.3-1.2 4.1zm-17.8 11.6c-.8 1.3-3.3 3.3-5.5 4.6-3 1.6-4.7 3.6-6.6 7.5-2.2 4.7-5.7 8.4-14.2 15.2-1.4 1.1-3.7 4.3-5.1 7.2-1.5 2.8-4.2 6.6-6 8.5-1.8 1.8-4.8 5.6-6.6 8.5-1.9 3.1-4.1 5.4-5.5 5.8-1.3.3-2.3 1-2.3 1.5 0 .6-.4 1-1 1-1.1 0-1.4-5.9-.4-8.4.3-.9 1.7-1.6 3-1.6 1.4 0 2.8-.9 3.5-2.3.7-1.2 1.8-2.6 2.5-3 2-1.1 1.7-2.4-.6-3-1-.3-2.2-1.7-2.6-3.1-.5-2.1 0-3.1 2.4-5.1 1.7-1.4 4.1-4.3 5.3-6.3 4.8-7.9 9-12.2 14.7-14.8 3.1-1.4 6.2-2.8 6.8-3.2 3.3-2.1 7.1-4.8 8.9-6.3 2.6-2.3 7.6-4.9 9.4-4.9 1.1 0 1.1.4-.1 2.2zm-72.8 8.5c0 6.1-.7 8.3-2.6 8.3-1.7 0-1.7-1.4-.2-9.7 1.3-7.3 2.8-6.6 2.8 1.4zm-1.3 11.5c-.3.8-.6.5-.6-.6-.1-1.1.2-1.7.5-1.3.3.3.4 1.2.1 1.9zm11.8 7.7c1.3 2.2 3.7 5.1 5.2 6.6 2.7 2.5 2.7 2.6.9 4-1.5 1.1-2.3 1.2-3.3.3-3.2-2.6-7.9-14.8-5.8-14.8.3 0 1.6 1.8 3 3.9zm43 62.6c.5 2.3.2 3.3-1.4 4.3-1.9 1.1-2.1 1-2.1-1.5 0-7.2 2.3-8.9 3.5-2.8zM515 431.6c0 1.4-.4 2.3-.9 2-.5-.3-.7-1.5-.4-2.6.7-2.8 1.3-2.5 1.3.6zm-45.7 16.8c.8 2.1-.4 15.6-1.4 16.2-.5.3-.9-.1-.9-1 0-.8-1.1-2.8-2.5-4.4-3.1-3.7-3.1-4.7-.2-8.9 2.4-3.5 4.1-4.2 5-1.9zm-2.3 21.2c0 .8-.4 1.2-1 .9-.5-.3-1-1.3-1-2.1s.5-1.2 1-.9c.6.3 1 1.3 1 2.1zm-3.6 7.1c-.9 3.6-1.2 3.9-2.5 2.6-.8-.8-.8-1.7 0-3.2 1.7-3 3.3-2.6 2.5.6zm142.6.9c0 .4-.8 1.3-1.7 2-1.7 1.3-1.7 1.3 0 1.4 1.9 0 2 .2 1.1 2.4-.3.9-1 1.3-1.5 1-.5-.3-.9-.1-.9.5 0 .5.5 1.1 1.2 1.3.8.3.8 1.2 0 3.3-.6 1.7-1.1 2.4-1.1 1.7-.1-.6-.6-1.2-1.2-1.2-.5 0-.7.5-.3 1.1.9 1.5-1.4 2.9-4.8 2.9-3.2 0-3.2 0-1.6-3.6 1.1-2.2 1-2.8-.6-4-1.8-1.2-1.7-1.5 1.8-4.6 4-3.5 9.6-6 9.6-4.2zm-138.7 4c.9 1-.4 3.4-1.9 3.4-1.6 0-1.6-.2-.8-2.4.6-1.7 1.6-2 2.7-1zm66.3 7.1c-.4 1.6-1.1 9.5-1.7 17.8-.6 8.2-1.4 15.4-2 15.9-.5.6-1-.1-1-2-.1-1.6-.3-5.4-.5-8.4-.1-3 .1-5.9.5-6.5.5-.5 1.2-4.2 1.6-8 .8-8.9 1.5-11.5 2.7-11.5.6 0 .8 1.1.4 2.7zM457 488c0 .5-.5 1-1.1 1-.5 0-.7-.5-.4-1 .3-.6.8-1 1.1-1 .2 0 .4.4.4 1zm-24.7 11.6c4.2 1.4 4.7 1.9 4.7 4.5 0 3.3-.1 3.4-5.5 1.5-2.2-.8-5.9-1.9-8.2-2.5-5.2-1.4-5.7-3.8-1-4.4 1.7-.2 3.7-.5 4.3-.5.6-.1 3.1.5 5.7 1.4zm111.3 10.9c1.1 1.6 1.4 3.6 1.1 5.5-.5 2.2-.2 3.3 1.2 4.2 2.5 1.8 3.7 7.4 1.9 9.5-.7.9-1.3 3.7-1.4 6.2-.1 5.4-1.3 11.1-2.2 11.1-.4 0-2-1.1-3.5-2.4-2.7-2.3-2.9-3-3.8-15.3-.5-7-.7-14.4-.4-16.3 1.1-5.5 4.4-6.7 7.1-2.5zm-133.9.1c.3.9.2 2.4-.4 3.3-1.2 2-7.4 4.1-9.1 3.2-.8-.4-3.7-.2-6.5.6-2.9.7-6.9 1.1-8.9.7-3.4-.5-3.6-.7-2.5-2.5.7-1.1 2.1-2.2 3.2-2.5 1.1-.4 2.7-1.3 3.6-2.1 1.2-1 2.8-1.2 5-.8 1.9.3 4.5.2 5.9-.4 4-1.6 9-1.3 9.7.5zm38.3-.1c0 .8-.6 1.5-1.3 1.5-.9 0-1.2 1.4-1 4.5.3 5.2-1 5.2-4.4 0-2.7-4.1-2.1-6.9 1.3-6.1 1.4.4 2.4.2 2.4-.4 0-.5.7-1 1.5-1s1.5.7 1.5 1.5zm-68.7 20.1c.5.8 2.5 1.4 4.7 1.4 5.1 0 9 1.8 9 4.2 0 1.6-.5 1.8-3.7 1.2-2.1-.3-4.8-1.2-6-2-1.2-.8-3.3-1.4-4.6-1.4-6.6 0-10.8-2.3-9.1-5.1.8-1.3 8.7.1 9.7 1.7zm70.8 4.7c-.8.8-1.1.3-1.1-1.9.1-2.5.2-2.7 1.1-1.1.8 1.4.8 2.2 0 3zm84.9 4.9c0 5.1-.2 5.9-1.7 5.6-1.4-.2-1.9-1.5-2.1-5.7-.4-6.8.3-8.8 2.3-7.1 1 .9 1.5 3.1 1.5 7.2zm-132-1c0 1.3-2.3.5-2.8-1-.2-.7.2-1 1.2-.6.9.3 1.6 1.1 1.6 1.6zm-27.4 4.2c2.1 1.6 1.6 3-.9 2-1.6-.6-3.2-3.4-1.9-3.4.5 0 1.7.6 2.8 1.4zm150 8.2c-.9 1.3-2.1 2.4-2.6 2.4-1.1 0 .5-5.6 2.2-7.8 1.2-1.4 1.3-1.3 1.6.7.2 1.2-.4 3.3-1.2 4.7zm-153.8-.5c1.3 2.3 2 4.4 1.7 4.7-.7.8-3.5-1.9-5.1-4.9-1.7-3.4-1.7-3.9-.1-3.9.7 0 2.3 1.9 3.5 4.1zm273.9 32.4c-.2.5-1 1-1.8 1s-2 .4-2.6.8c-1.9 1.2-1.6-1 .5-3.8 1.5-2.2 1.8-2.3 3-.7.7.9 1.1 2.1.9 2.7zm8.3-1.6c0 1-5 2.5-5.7 1.7-.3-.2-.2-.9.2-1.5.8-1.3 5.5-1.5 5.5-.2zm18.4 16.1c.8 0 1.6-.5 1.8-1.2.6-1.6 9.8 2 9.8 3.9 0 .7 2 3.3 4.4 5.7l4.4 4.3-.4 8c-.4 8.9-1.8 13.8-3.5 12.7-.8-.5-1 .2-.6 2.2.4 2.4-2.4 10.4-3.7 10.4-1.1 0-1.1-5.3-.1-7.4 1.6-3.1.4-5.6-1.9-3.7-.9.8-1.6 2-1.6 2.8 0 .7-1.1 3.6-2.5 6.3-1.4 2.7-2.5 5.6-2.5 6.4 0 2.3-8.6 11-9.5 9.6-1.2-2-.8-7.6.9-10.8.9-1.7 1.6-4.4 1.6-6 0-1.5.5-3.3 1.1-3.9.8-.8.8-2.1-.1-4.7-1.3-4.1-2.9-4.5-5.5-1.6-1 1.1-2.4 2-3.1 2-3.3 0-6.4 2.7-9.8 8.6-3.8 6.7-4.4 7.2-6.4 5.2-1.8-1.8-1.5-4 1.7-10.3 2.2-4.3 2.7-6.3 2-7.6-1.1-2.1.1-3.1 2.1-1.8 3.3 2 3.9 1 3.7-5.8-.2-6.7-.2-6.7-3.5-7.7-4.1-1.2-4.8-.5-2.8 3.1.8 1.5 2 3.8 2.7 5.1 1.5 2.7.4 4-2 2.5-1.8-1.2-4.1-.1-4.1 1.9 0 2.7-7.5 19.8-8.6 19.8-1.8 0-1.7-3.5.2-8.5.8-2.2 2-5.5 2.6-7.4.5-1.9 1.6-4.1 2.4-4.9.8-.8 1.2-2.2.9-3.3-.3-1-.1-3.6.6-5.8.9-3 .9-4.7 0-7.2-1-3-.9-3.7 1.8-7.4 2.4-3.4 3.6-4.1 7.2-4.5 2.4-.3 5.1-.1 6 .4 1.2.7 2.8.4 5-.7 3-1.4 3.7-1.4 5.6-.2 1.2.8 2.9 1.5 3.7 1.5zM635 654c0 4.4-1.5 5.4-2.2 1.6-.4-2.2.6-5.6 1.7-5.6.3 0 .5 1.8.5 4zm-120.6 57.2c2 2.8 2 4.8.2 4.8-.8 0-1.6 1.4-1.9 3.2-2.5 15.6-5.7 16.3-3.5.8 1.7-12.1 2.2-13.1 5.2-8.8zm-33 119.5c3.8 3.5 4 3.9 4.8 12.2 1.3 13.9 2.3 17.7 5.3 21.2 2.6 3.1 2.7 3.8 2.2 10.1-.5 5.3-1.2 7.7-3.5 11-3.8 5.5-5.6 7-11.7 9.8-2.7 1.2-6.3 2.8-7.8 3.6-1.6.8-3.3 1.4-3.8 1.4-1.4 0 .1-14.9 2.3-21.5 1-3.3 3.5-9.1 5.5-12.9 3.4-6.6 3.5-7.1 3.1-15.6-.3-6-.9-9.6-2.1-11.3-1.9-3-2.2-6.9-.7-9.8 1.4-2.6 1.9-2.4 6.4 1.8zm198.9.8c1.3 1.9 3.4 11.6 3.7 17.7 0 .3.9.4 2 .1 1.6-.4 2 0 2 2.1 0 1.4-.6 2.6-1.2 2.7-1 0-1 .2 0 .6.6.2 1.2 1.2 1.2 2 0 1.3-.3 1.3-1.6.2s-1.4-.9-.9 1.4c.5 1.6.3 2.7-.3 2.7s-1.2 1-1.4 2.2c-.4 3.1-6.2 3.8-7.7 1-.6-1.1-.7-2.2-.4-2.6.3-.3-.1-.6-.9-.6-2.9 0-6.4-19.9-3.8-21.5.6-.4.8-1 .5-1.5-.3-.5-.1-1.1.5-1.5.5-.3 1-1.3 1-2 0-1.8 3.1-5.5 4.5-5.5.5 0 1.8 1.2 2.8 2.5zm-157.7 30.4c-.6 2.2-1.5 4.3-2 4.8s-.6 0-.2-1.2c.4-1.1 1-3.2 1.3-4.8.3-1.5.9-2.7 1.3-2.7s.3 1.8-.4 3.9z"/><path d="M545.1 212.6c0 1.1.3 1.4.6.6.3-.7.2-1.6-.1-1.9-.3-.4-.6.2-.5 1.3zM553.3 246.7c-2.7.9-1.2 2.3 2.2 2 1.9-.1 3.5-.7 3.5-1.2 0-1-3.6-1.5-5.7-.8zM550 289c0 .5.5 1 1 1 .6 0 1-.5 1-1 0-.6-.4-1-1-1-.5 0-1 .4-1 1zM665 618c0 .5.7 1 1.5 1s1.5-.5 1.5-1c0-.6-.7-1-1.5-1s-1.5.4-1.5 1zM685.5 630c.4.6 1.1.8 1.6.5 1.4-.9 1.1-1.5-.7-1.5-.8 0-1.2.5-.9 1zM704 359.6c0 1.2.7 2.7 1.5 3.4 2 1.7 2.1-.9 0-3.6-1.4-1.9-1.4-1.9-1.5.2zM707.1 366.6c0 1.1.3 1.4.6.6.3-.7.2-1.6-.1-1.9-.3-.4-.6.2-.5 1.3zM712.6 393.9c-.3.5.2 2.3 1.1 4.2 1.2 2.3 1.3 3.4.5 3.7-1.5.5-1.6 7.2-.2 7.2.6 0 1-.8 1-1.8.1-1.5.2-1.5 1.5.2 1.4 1.9 1.5 1.9 1.5.1 0-5-2.3-14.5-3.5-14.5-.8 0-1.6.4-1.9.9zM714 414c0 1.1.5 2 1 2 .6 0 1-.9 1-2s-.4-2-1-2c-.5 0-1 .9-1 2zM724.1 453.5c0 1.6.6 4.1 1.4 5.5l1.4 2.5v-3c0-1.7-.6-4.1-1.4-5.5l-1.4-2.5v3zM490.1 711.6c0 1.1.3 1.4.6.6.3-.7.2-1.6-.1-1.9-.3-.4-.6.2-.5 1.3zM461.5 786.3c-.4 1-.5 2.1-.1 2.4 1 1 1.8-.4 1.3-2.4-.4-1.7-.4-1.7-1.2 0z"/></svg>