<?xml version="1.0" standalone="no"?>
<!DOCTYPE svg PUBLIC "-//W3C//DTD SVG 20010904//EN"
 "http://www.w3.org/TR/2001/REC-SVG-20010904/DTD/svg10.dtd">
<svg version="1.0" xmlns="http://www.w3.org/2000/svg"
 width="1080.000000pt" height="1080.000000pt" viewBox="0 0 1080.000000 1080.000000"
 preserveAspectRatio="xMidYMid meet">

<g transform="translate(0.000000,1080.000000) scale(0.100000,-0.100000)"
fill="#000000" stroke="none">
<path d="M5416 9416 c-75 -36 -162 -120 -198 -191 -11 -22 -30 -51 -43 -65
-31 -35 -75 -182 -75 -252 0 -31 -5 -69 -10 -84 -21 -55 -23 -168 -5 -249 14
-62 24 -86 54 -119 21 -22 46 -63 56 -91 10 -27 37 -88 60 -135 75 -152 78
-157 67 -177 -6 -10 -37 -32 -69 -49 -57 -30 -82 -64 -47 -64 27 0 1 -22 -28
-24 -29 -1 -60 -55 -90 -155 l-23 -74 -77 -50 c-81 -53 -100 -80 -128 -186 -6
-24 -15 -51 -20 -60 -33 -59 -167 -460 -185 -551 -51 -258 -55 -288 -49 -340
5 -48 1 -64 -25 -122 -26 -56 -31 -80 -31 -140 0 -119 -15 -150 -106 -222 -34
-27 -166 -95 -227 -117 -43 -15 -97 -64 -97 -88 0 -17 -24 -42 -59 -60 -22
-12 -110 -15 -127 -3 -6 4 -37 63 -68 132 -102 225 -125 266 -160 282 -47 21
-122 6 -168 -35 -47 -43 -58 -66 -58 -125 0 -42 7 -58 51 -122 28 -41 59 -90
69 -109 25 -52 41 -134 34 -184 -4 -28 -2 -47 5 -51 6 -4 11 -18 11 -31 0 -13
7 -28 16 -33 9 -5 18 -23 20 -40 3 -30 3 -31 -19 -19 -12 6 -24 15 -27 18 -3
4 -16 9 -30 10 -23 4 -25 1 -22 -31 1 -19 11 -46 22 -60 11 -14 34 -50 52 -80
18 -30 52 -73 75 -97 34 -33 51 -43 90 -48 93 -13 112 -30 183 -174 71 -142
82 -190 90 -396 14 -345 57 -555 124 -596 42 -26 88 -24 132 6 20 14 40 22 44
20 5 -3 29 -41 55 -86 25 -44 52 -82 60 -85 7 -3 23 0 35 6 30 16 43 2 85 -86
51 -110 65 -158 65 -224 0 -33 4 -60 10 -60 8 0 30 61 30 86 0 6 12 47 26 90
14 44 32 102 40 129 14 50 14 49 8 -47 -3 -54 -2 -98 3 -98 18 1 42 28 62 73
12 26 28 47 36 47 9 0 15 10 15 25 0 14 5 25 11 25 8 0 10 -19 5 -62 -9 -89
-17 -141 -23 -158 -8 -25 -11 -120 -4 -125 4 -2 18 -1 30 2 18 5 21 11 16 31
-4 15 0 31 10 42 8 9 13 24 9 33 -8 23 -26 10 -19 -13 3 -10 0 -20 -9 -23 -21
-8 -31 29 -12 48 8 8 19 15 24 15 6 0 12 7 16 15 7 18 36 20 37 3 5 -52 -3
-134 -15 -161 -14 -31 -19 -55 -32 -144 -6 -36 -3 -44 19 -63 20 -17 23 -27
17 -48 -4 -15 -12 -26 -19 -25 -6 2 -11 -2 -11 -7 0 -14 -28 -12 -33 2 -2 7
-3 4 -1 -6 2 -11 -6 -38 -16 -62 -32 -69 -18 -180 28 -236 17 -20 13 -54 -16
-150 -16 -53 -19 -84 -15 -144 l5 -75 -33 3 c-26 2 -34 9 -40 32 -11 40 -35
63 -75 71 -35 6 -36 6 -29 48 4 25 16 49 28 59 21 16 21 16 -15 23 -36 7 -98
-1 -98 -13 0 -3 8 -14 17 -25 16 -17 16 -20 2 -31 -9 -6 -16 -24 -16 -39 0
-27 -31 -72 -42 -62 -3 3 -4 23 -3 43 2 29 -4 44 -28 72 l-30 35 6 -30 c4 -16
10 -36 14 -44 4 -8 3 -30 -2 -49 -6 -20 -8 -50 -5 -68 4 -25 2 -33 -12 -37
-22 -5 -27 -31 -30 -138 -1 -44 -6 -91 -11 -103 -10 -25 -57 -76 -70 -76 -5 0
-25 -14 -45 -31 -45 -40 -45 -69 0 -122 l35 -41 -3 -128 c-2 -127 -2 -127 -34
-160 -26 -28 -33 -47 -47 -131 -20 -124 -20 -140 2 -160 17 -15 59 -17 394
-17 l375 0 21 63 c26 78 45 208 37 247 -4 17 -15 34 -24 40 -10 5 -21 23 -24
40 -7 35 13 130 37 175 19 36 20 55 4 55 -9 0 -8 4 2 10 8 5 11 10 7 10 -5 0
-2 6 6 14 8 8 17 45 21 82 4 37 15 85 25 108 10 23 27 66 37 96 32 92 151 270
180 270 8 0 19 -12 25 -27 5 -16 22 -50 36 -78 15 -27 33 -63 41 -80 25 -49
100 -160 122 -180 11 -10 20 -22 20 -27 0 -4 8 -16 19 -27 10 -10 20 -23 22
-28 2 -6 14 -14 27 -17 36 -12 28 16 -35 122 -32 54 -60 102 -62 107 -9 25
-109 225 -133 268 -16 26 -28 63 -28 81 0 33 91 203 186 348 24 37 44 71 44
75 0 9 52 86 65 95 21 15 30 -17 35 -128 6 -130 14 -145 86 -158 29 -6 41 -3
58 13 12 12 29 21 38 21 17 0 32 -26 23 -40 -6 -10 16 -82 75 -235 62 -160 90
-266 96 -367 6 -91 36 -241 61 -303 9 -22 48 -71 87 -110 70 -69 86 -93 153
-230 58 -118 84 -169 107 -206 58 -98 62 -99 341 -99 152 0 235 4 242 11 7 7
7 24 -3 56 -8 26 -14 83 -14 127 -1 45 -5 101 -11 126 -5 25 -13 83 -18 130
-9 81 -34 202 -66 320 -28 102 -55 259 -71 422 -21 215 -19 194 -38 428 -9
113 -24 223 -32 245 -19 54 -18 81 4 102 26 26 59 85 67 122 8 37 30 51 79 49
39 -1 65 21 66 55 0 10 6 28 14 40 12 18 13 40 6 117 -15 167 -40 411 -55 550
-9 74 -17 189 -18 255 -1 119 8 167 54 270 16 36 56 178 82 290 14 61 33 140
41 176 32 136 31 234 -1 149 -6 -16 -26 -39 -45 -50 -44 -26 -84 -86 -91 -139
-7 -52 -13 -60 -31 -36 -12 16 -16 17 -29 6 -9 -7 -13 -19 -10 -27 4 -10 -3
-14 -22 -14 -27 0 -27 -2 -22 -42 3 -23 13 -48 22 -54 15 -11 15 -14 0 -38
-10 -14 -18 -26 -20 -26 -12 0 -74 32 -82 42 -32 40 -20 118 18 118 13 0 19 7
19 24 0 14 -4 27 -9 31 -12 7 -3 71 15 106 7 14 15 44 17 67 6 46 31 85 65
101 16 8 22 19 22 41 0 50 17 72 48 66 15 -3 33 -2 41 3 18 12 81 -31 103 -71
l17 -30 7 38 c4 22 2 50 -5 69 -6 17 -11 47 -11 66 0 47 -27 148 -48 179 -9
14 -15 33 -14 42 2 10 -4 47 -13 83 -19 75 -14 138 10 128 20 -7 19 33 0 67
-11 20 -14 21 -15 7 0 -35 -17 -7 -29 50 -7 32 -18 81 -26 108 -7 28 -18 69
-25 93 -10 40 -18 46 -58 45 -33 -2 -89 85 -107 167 -4 18 -18 54 -31 80 -13
26 -40 103 -59 171 -20 68 -44 152 -55 186 -14 45 -19 92 -19 168 0 57 -5 113
-11 124 -5 11 -15 42 -21 70 -6 27 -24 69 -40 91 -17 23 -29 43 -27 45 2 1 22
-6 45 -16 28 -12 51 -32 68 -59 23 -37 30 -41 55 -37 32 7 38 2 80 -74 41 -75
38 -34 -4 49 -43 86 -62 102 -171 152 -150 68 -159 73 -195 99 -47 35 -141 89
-220 128 -61 30 -69 38 -111 110 -25 43 -54 99 -63 126 -19 49 -41 66 -115 82
-44 10 -39 -11 7 -25 43 -14 72 -37 72 -57 0 -7 -6 -13 -14 -13 -7 0 -23 -27
-35 -61 -34 -92 -56 -69 -37 38 7 40 6 42 -24 58 -26 13 -31 21 -26 40 4 15 1
27 -7 32 -8 4 -22 20 -31 34 -18 28 -14 75 8 94 6 6 24 29 40 53 16 23 32 42
35 42 9 0 67 117 75 153 4 15 2 86 -4 157 -10 113 -9 134 4 162 23 45 20 83
-10 134 -14 24 -34 70 -44 101 -35 107 -55 158 -75 188 -95 143 -136 166 -305
175 -80 4 -125 11 -149 23 -49 24 -86 20 -165 -17z m64 -432 c0 -8 -4 -14 -10
-14 -5 0 -10 9 -10 21 0 11 5 17 10 14 6 -3 10 -13 10 -21z m70 -19 c0 -14 4
-25 10 -25 5 0 8 -34 7 -78 0 -42 2 -82 6 -88 4 -8 21 -9 47 -4 31 6 42 4 49
-8 7 -13 14 -12 53 6 52 26 62 27 77 8 9 -10 23 -13 48 -9 l35 6 -7 -34 c-3
-19 -16 -47 -27 -62 -10 -16 -25 -45 -32 -65 -10 -30 -19 -38 -42 -40 -56 -7
-73 -49 -33 -83 12 -10 18 -23 14 -30 -6 -8 -10 -7 -17 5 -12 21 -27 20 -36
-3 -7 -19 -8 -19 -47 1 -32 15 -53 19 -100 14 -33 -2 -67 -7 -75 -10 -8 -3
-22 -1 -30 4 -23 15 19 51 61 53 23 2 33 7 31 16 -3 14 16 41 29 41 5 0 11
-11 15 -25 3 -13 18 -30 34 -37 16 -7 34 -23 40 -36 16 -37 39 -12 36 41 -2
30 -7 43 -19 45 -10 2 -14 8 -11 13 3 6 -1 18 -9 27 -8 9 -21 34 -28 55 -7 21
-22 45 -33 55 -18 17 -19 16 -13 -25 4 -37 2 -44 -20 -58 -18 -12 -36 -15 -64
-10 -36 6 -44 3 -84 -29 -24 -20 -52 -36 -63 -36 -11 0 -23 -7 -26 -16 -7 -18
-26 -10 -26 12 0 7 -18 33 -40 55 -32 33 -40 49 -40 78 0 33 4 38 36 50 20 7
50 10 68 7 21 -4 39 -1 51 9 26 19 59 19 75 -1 12 -13 16 -10 31 23 22 47 24
91 4 113 -14 15 -13 19 5 40 11 13 20 29 20 36 0 11 14 21 33 23 4 1 7 -10 7
-24z m120 -105 c0 -5 -7 -10 -15 -10 -8 0 -15 5 -15 10 0 6 7 10 15 10 8 0 15
-4 15 -10z m-360 -51 c0 -6 -7 -6 -20 1 -11 6 -20 15 -20 21 0 6 7 6 20 -1 11
-6 20 -15 20 -21z m307 -201 c-3 -8 -6 -5 -6 6 -1 11 2 17 5 13 3 -3 4 -12 1
-19z m431 -107 c-3 -16 -54 -49 -77 -50 -11 -1 -9 5 5 22 11 12 26 35 34 50
13 27 15 27 27 10 8 -9 12 -24 11 -32z m-688 -50 c0 -11 -4 -23 -10 -26 -6 -4
-10 5 -10 19 0 14 5 26 10 26 6 0 10 -9 10 -19z m291 -67 c32 -5 35 -9 31 -34
-2 -16 -13 -37 -23 -46 -10 -9 -19 -24 -19 -33 0 -9 -7 -27 -16 -40 -15 -21
-22 -23 -71 -18 -32 3 -65 1 -79 -5 -20 -10 -27 -8 -39 8 -20 27 -18 60 5 77
13 9 19 23 17 43 -1 21 2 28 13 25 33 -9 94 -1 109 14 17 17 21 17 72 9z
m-271 -426 c7 -38 16 -58 26 -58 8 0 14 6 14 14 0 9 9 12 28 8 l27 -5 -27 30
c-16 16 -28 31 -28 34 0 2 18 3 40 1 25 -3 40 0 40 7 0 6 5 11 10 11 6 0 10
-10 10 -22 0 -12 5 -37 12 -55 9 -25 18 -33 37 -33 19 0 22 -3 13 -12 -17 -17
-15 -33 2 -19 8 7 28 16 45 21 26 7 33 5 41 -11 16 -28 30 -23 30 11 0 17 -4
30 -10 30 -5 0 -10 5 -10 10 0 6 11 10 24 10 20 0 24 -5 22 -22 -6 -47 -24
-77 -43 -72 -12 4 -26 -5 -41 -25 -30 -42 -118 -91 -162 -91 -19 0 -48 -7 -64
-15 -40 -21 -48 -19 -79 20 -24 30 -28 45 -31 117 -3 52 0 85 6 89 6 4 11 22
10 40 -1 38 27 79 39 57 4 -7 12 -39 19 -70z m444 47 c5 -15 -23 -48 -57 -66
-32 -18 -33 19 -1 52 31 32 49 37 58 14z m435 -234 c17 -24 19 -34 10 -59 -6
-17 -16 -33 -24 -36 -7 -2 -16 -19 -20 -36 -4 -17 -19 -53 -33 -79 -39 -71
-152 -202 -171 -199 -10 2 -17 -5 -19 -19 -4 -24 -29 -50 -39 -39 -3 3 0 24 7
46 11 32 18 40 38 40 23 0 24 2 17 38 -11 50 -8 74 7 83 10 7 10 9 1 9 -17 0
-16 49 1 91 20 49 96 141 111 135 7 -2 21 2 32 10 17 15 17 15 -4 11 -14 -3
-23 1 -26 13 -6 25 7 42 26 34 20 -7 22 11 7 52 -6 15 -8 35 -5 43 5 11 16 -4
35 -47 16 -34 38 -75 49 -91z m-193 43 c-9 -6 -16 -18 -16 -26 0 -8 -13 -27
-30 -43 -17 -16 -30 -39 -30 -52 0 -13 -7 -26 -15 -30 -23 -8 -28 2 -11 19 8
8 18 32 22 52 3 21 18 50 31 64 14 15 32 41 41 57 l17 30 3 -30 c2 -18 -2 -33
-12 -41z m-178 -116 c-8 -13 -33 -33 -55 -46 -30 -16 -47 -36 -66 -75 -22 -47
-57 -84 -142 -152 -14 -11 -37 -43 -51 -72 -15 -28 -42 -66 -60 -85 -18 -18
-48 -56 -66 -85 -19 -31 -41 -54 -55 -58 -13 -3 -23 -10 -23 -15 0 -6 -4 -10
-10 -10 -11 0 -14 59 -4 84 3 9 17 16 30 16 14 0 28 9 35 23 7 12 18 26 25 30
20 11 17 24 -6 30 -10 3 -22 17 -26 31 -5 21 0 31 24 51 17 14 41 43 53 63 48
79 90 122 147 148 31 14 62 28 68 32 33 21 71 48 89 63 26 23 76 49 94 49 11
0 11 -4 -1 -22z m-728 -85 c0 -61 -7 -83 -26 -83 -17 0 -17 14 -2 97 13 73 28
66 28 -14z m-13 -115 c-3 -8 -6 -5 -6 6 -1 11 2 17 5 13 3 -3 4 -12 1 -19z
m118 -77 c13 -22 37 -51 52 -66 27 -25 27 -26 9 -40 -15 -11 -23 -12 -33 -3
-32 26 -79 148 -58 148 3 0 16 -18 30 -39z m430 -626 c5 -23 2 -33 -14 -43
-19 -11 -21 -10 -21 15 0 72 23 89 35 28z m-545 -311 c0 -14 -4 -23 -9 -20 -5
3 -7 15 -4 26 7 28 13 25 13 -6z m-457 -168 c8 -21 -4 -156 -14 -162 -5 -3 -9
1 -9 10 0 8 -11 28 -25 44 -31 37 -31 47 -2 89 24 35 41 42 50 19z m-23 -212
c0 -8 -4 -12 -10 -9 -5 3 -10 13 -10 21 0 8 5 12 10 9 6 -3 10 -13 10 -21z
m-36 -71 c-9 -36 -12 -39 -25 -26 -8 8 -8 17 0 32 17 30 33 26 25 -6z m1426
-9 c0 -4 -8 -13 -17 -20 -17 -13 -17 -13 0 -14 19 0 20 -2 11 -24 -3 -9 -10
-13 -15 -10 -5 3 -9 1 -9 -5 0 -5 5 -11 12 -13 8 -3 8 -12 0 -33 -6 -17 -11
-24 -11 -17 -1 6 -6 12 -12 12 -5 0 -7 -5 -3 -11 9 -15 -14 -29 -48 -29 -32 0
-32 0 -16 36 11 22 10 28 -6 40 -18 12 -17 15 18 46 40 35 96 60 96 42z
m-1387 -40 c9 -10 -4 -34 -19 -34 -16 0 -16 2 -8 24 6 17 16 20 27 10z m663
-71 c-4 -16 -11 -95 -17 -178 -6 -82 -14 -154 -20 -159 -5 -6 -10 1 -10 20 -1
16 -3 54 -5 84 -1 30 1 59 5 65 5 5 12 42 16 80 8 89 15 115 27 115 6 0 8 -11
4 -27z m-766 7 c0 -5 -5 -10 -11 -10 -5 0 -7 5 -4 10 3 6 8 10 11 10 2 0 4 -4
4 -10z m-247 -116 c42 -14 47 -19 47 -45 0 -33 -1 -34 -55 -15 -22 8 -59 19
-82 25 -52 14 -57 38 -10 44 17 2 37 5 43 5 6 1 31 -5 57 -14z m1113 -109 c11
-16 14 -36 11 -55 -5 -22 -2 -33 12 -42 25 -18 37 -74 19 -95 -7 -9 -13 -37
-14 -62 -1 -54 -13 -111 -22 -111 -4 0 -20 11 -35 24 -27 23 -29 30 -38 153
-5 70 -7 144 -4 163 11 55 44 67 71 25z m-1339 -1 c3 -9 2 -24 -4 -33 -12 -20
-74 -41 -91 -32 -8 4 -37 2 -65 -6 -29 -7 -69 -11 -89 -7 -34 5 -36 7 -25 25
7 11 21 22 32 25 11 4 27 13 36 21 12 10 28 12 50 8 19 -3 45 -2 59 4 40 16
90 13 97 -5z m383 1 c0 -8 -6 -15 -13 -15 -9 0 -12 -14 -10 -45 3 -52 -10 -52
-44 0 -27 41 -21 69 13 61 14 -4 24 -2 24 4 0 5 7 10 15 10 8 0 15 -7 15 -15z
m-687 -201 c5 -8 25 -14 47 -14 51 0 90 -18 90 -42 0 -16 -5 -18 -37 -12 -21
3 -48 12 -60 20 -12 8 -33 14 -46 14 -66 0 -108 23 -91 51 8 13 87 -1 97 -17z
m708 -47 c-8 -8 -11 -3 -11 19 1 25 2 27 11 11 8 -14 8 -22 0 -30z m849 -49
c0 -51 -2 -59 -17 -56 -14 2 -19 15 -21 57 -4 68 3 88 23 71 10 -9 15 -31 15
-72z m-1320 10 c0 -13 -23 -5 -28 10 -2 7 2 10 12 6 9 -3 16 -11 16 -16z
m-274 -42 c21 -16 16 -30 -9 -20 -16 6 -32 34 -19 34 5 0 17 -6 28 -14z m1500
-82 c-9 -13 -21 -24 -26 -24 -11 0 5 56 22 78 12 14 13 13 16 -7 2 -12 -4 -33
-12 -47z m-1538 5 c13 -23 20 -44 17 -47 -7 -8 -35 19 -51 49 -17 34 -17 39
-1 39 7 0 23 -19 35 -41z m2739 -324 c-2 -5 -10 -10 -18 -10 -8 0 -20 -4 -26
-8 -19 -12 -16 10 5 38 15 22 18 23 30 7 7 -9 11 -21 9 -27z m83 16 c0 -10
-50 -25 -57 -17 -3 2 -2 9 2 15 8 13 55 15 55 2z m184 -161 c8 0 16 5 18 12 6
16 98 -20 98 -39 0 -7 20 -33 44 -57 l44 -43 -4 -80 c-4 -89 -18 -138 -35
-127 -8 5 -10 -2 -6 -22 4 -24 -24 -104 -37 -104 -11 0 -11 53 -1 74 16 31 4
56 -19 37 -9 -8 -16 -20 -16 -28 0 -7 -11 -36 -25 -63 -14 -27 -25 -56 -25
-64 0 -23 -86 -110 -95 -96 -12 20 -8 76 9 108 9 17 16 44 16 60 0 15 5 33 11
39 8 8 8 21 -1 47 -13 41 -29 45 -55 16 -10 -11 -24 -20 -31 -20 -33 0 -64
-27 -98 -86 -38 -67 -44 -72 -64 -52 -18 18 -15 40 17 103 22 43 27 63 20 76
-11 21 1 31 21 18 33 -20 39 -10 37 58 -2 67 -2 67 -35 77 -41 12 -48 5 -28
-31 8 -15 20 -38 27 -51 15 -27 4 -40 -20 -25 -18 12 -41 1 -41 -19 0 -27 -75
-198 -86 -198 -18 0 -17 35 2 85 8 22 20 55 26 74 5 19 16 41 24 49 8 8 12 22
9 33 -3 10 -1 36 6 58 9 30 9 47 0 72 -10 30 -9 37 18 74 24 34 36 41 72 45
24 3 51 1 60 -4 12 -7 28 -4 50 7 30 14 37 14 56 2 12 -8 29 -15 37 -15z
m-374 -560 c0 -44 -15 -54 -22 -16 -4 22 6 56 17 56 3 0 5 -18 5 -40z m-1206
-572 c20 -28 20 -48 2 -48 -8 0 -16 -14 -19 -32 -25 -156 -57 -163 -35 -8 17
121 22 131 52 88z m-330 -1195 c38 -35 40 -39 48 -122 13 -139 23 -177 53
-212 26 -31 27 -38 22 -101 -5 -53 -12 -77 -35 -110 -38 -55 -56 -70 -117 -98
-27 -12 -63 -28 -78 -36 -16 -8 -33 -14 -38 -14 -14 0 1 149 23 215 10 33 35
91 55 129 34 66 35 71 31 156 -3 60 -9 96 -21 113 -19 30 -22 69 -7 98 14 26
19 24 64 -18z m1989 -8 c13 -19 34 -116 37 -177 0 -3 9 -4 20 -1 16 4 20 0 20
-21 0 -14 -6 -26 -12 -27 -10 0 -10 -2 0 -6 6 -2 12 -12 12 -20 0 -13 -3 -13
-16 -2 -13 11 -14 9 -9 -14 5 -16 3 -27 -3 -27 -6 0 -12 -10 -14 -22 -4 -31
-62 -38 -77 -10 -6 11 -7 22 -4 26 3 3 -1 6 -9 6 -29 0 -64 199 -38 215 6 4 8
10 5 15 -3 5 -1 11 5 15 5 3 10 13 10 20 0 18 31 55 45 55 5 0 18 -12 28 -25z
m-1577 -304 c-6 -22 -15 -43 -20 -48 -5 -5 -6 0 -2 12 4 11 10 32 13 48 3 15
9 27 13 27 4 0 3 -18 -4 -39z"/>
<path d="M5451 8674 c0 -11 3 -14 6 -6 3 7 2 16 -1 19 -3 4 -6 -2 -5 -13z"/>
<path d="M5533 8333 c-27 -9 -12 -23 22 -20 19 1 35 7 35 12 0 10 -36 15 -57
8z"/>
<path d="M5500 7910 c0 -5 5 -10 10 -10 6 0 10 5 10 10 0 6 -4 10 -10 10 -5 0
-10 -4 -10 -10z"/>
<path d="M6650 4620 c0 -5 7 -10 15 -10 8 0 15 5 15 10 0 6 -7 10 -15 10 -8 0
-15 -4 -15 -10z"/>
<path d="M6855 4500 c4 -6 11 -8 16 -5 14 9 11 15 -7 15 -8 0 -12 -5 -9 -10z"/>
<path d="M7040 7204 c0 -12 7 -27 15 -34 20 -17 21 9 0 36 -14 19 -14 19 -15
-2z"/>
<path d="M7071 7134 c0 -11 3 -14 6 -6 3 7 2 16 -1 19 -3 4 -6 -2 -5 -13z"/>
<path d="M7126 6861 c-3 -5 2 -23 11 -42 12 -23 13 -34 5 -37 -15 -5 -16 -72
-2 -72 6 0 10 8 10 18 1 15 2 15 15 -2 14 -19 15 -19 15 -1 0 50 -23 145 -35
145 -8 0 -16 -4 -19 -9z"/>
<path d="M7140 6660 c0 -11 5 -20 10 -20 6 0 10 9 10 20 0 11 -4 20 -10 20 -5
0 -10 -9 -10 -20z"/>
<path d="M7241 6265 c0 -16 6 -41 14 -55 l14 -25 0 30 c0 17 -6 41 -14 55
l-14 25 0 -30z"/>
<path d="M4901 3684 c0 -11 3 -14 6 -6 3 7 2 16 -1 19 -3 4 -6 -2 -5 -13z"/>
<path d="M4615 2937 c-4 -10 -5 -21 -1 -24 10 -10 18 4 13 24 -4 17 -4 17 -12
0z"/>
</g>
</svg>
