<?xml version="1.0" standalone="no"?>
<!DOCTYPE svg PUBLIC "-//W3C//DTD SVG 20010904//EN"
 "http://www.w3.org/TR/2001/REC-SVG-20010904/DTD/svg10.dtd">
<svg version="1.0" xmlns="http://www.w3.org/2000/svg"
 width="1080.000000pt" height="1080.000000pt" viewBox="0 0 1080.000000 1080.000000"
 preserveAspectRatio="xMidYMid meet">

<g transform="translate(0.000000,1080.000000) scale(0.100000,-0.100000)"
fill="#000000" stroke="none">
<path d="M1560 8987 c-15 -13 -31 -44 -39 -77 -8 -30 -24 -70 -37 -89 -16 -23
-21 -43 -18 -61 4 -17 -3 -45 -17 -76 -21 -46 -23 -62 -23 -244 -1 -107 2
-234 5 -282 6 -75 4 -90 -13 -115 -60 -88 -64 -183 -11 -278 6 -11 16 -47 23
-80 15 -79 32 -135 41 -141 4 -2 18 1 32 7 27 12 43 51 52 124 16 139 59 285
116 394 21 41 39 79 39 84 0 5 13 27 29 50 15 23 43 69 61 102 44 82 52 90 79
75 44 -23 145 -50 188 -50 28 0 55 -7 71 -19 70 -49 238 -80 344 -62 92 15
112 4 122 -68 8 -61 30 -80 131 -111 39 -12 99 -32 135 -45 38 -14 76 -22 91
-19 22 5 32 -1 60 -38 45 -57 46 -58 104 -98 78 -54 157 -112 196 -145 52 -43
70 -58 104 -79 16 -11 38 -28 49 -38 11 -10 28 -20 38 -24 10 -3 18 -9 18 -13
0 -5 34 -25 75 -44 66 -32 79 -44 112 -94 54 -85 73 -97 228 -142 55 -16 179
-54 275 -84 196 -62 377 -117 461 -141 85 -24 110 -76 68 -141 -74 -115 -88
-184 -113 -543 -7 -101 9 -361 24 -376 5 -5 10 -16 10 -24 0 -14 49 -124 59
-132 4 -3 15 -18 26 -35 18 -27 20 -43 15 -155 -2 -69 -4 -201 -5 -295 0 -167
0 -171 27 -216 15 -25 55 -71 90 -102 63 -57 96 -69 143 -51 19 8 100 120 110
154 7 24 69 143 85 165 4 6 20 51 35 100 15 50 31 99 35 110 5 11 13 40 18 65
6 25 17 70 26 100 9 30 25 87 36 125 48 174 64 229 107 365 69 221 116 351
136 378 16 21 33 14 129 -58 99 -74 199 -120 343 -159 44 -12 116 -36 160 -53
47 -18 112 -34 159 -39 89 -9 109 -20 84 -46 -11 -10 -31 -16 -58 -15 -22 1
-50 -4 -63 -11 -52 -29 -107 -80 -113 -105 -4 -15 -10 -31 -14 -37 -4 -5 -10
-41 -14 -80 -3 -38 -8 -88 -12 -111 -8 -59 26 -124 111 -209 78 -80 138 -129
205 -168 25 -15 54 -33 65 -40 288 -181 464 -276 599 -321 39 -14 121 -35 181
-47 61 -12 117 -28 125 -35 29 -23 60 -35 156 -59 62 -17 119 -39 162 -66 l67
-41 120 7 c150 7 147 7 280 0 108 -7 110 -7 133 18 22 24 23 27 8 49 -22 33
-46 43 -146 65 -62 13 -133 18 -260 18 -96 1 -180 2 -187 3 -23 4 -40 31 -73
114 -36 90 -70 146 -125 202 -19 20 -35 40 -35 44 0 4 -15 23 -33 43 -17 21
-50 59 -72 85 -49 58 -105 116 -165 169 -89 78 -102 125 -42 143 46 14 167 29
292 37 189 12 348 40 470 81 81 28 277 137 324 180 38 36 103 138 111 174 10
47 26 53 81 29 53 -23 94 -56 94 -75 0 -6 18 -30 40 -53 47 -49 86 -55 96 -16
6 23 43 43 134 70 77 23 254 195 355 345 67 100 101 176 126 278 22 97 22 110
-7 260 -7 34 -75 99 -117 110 -44 12 -90 48 -187 146 -38 38 -81 77 -97 87
-39 26 -125 25 -169 -1 -20 -13 -35 -17 -39 -10 -9 15 -48 12 -71 -5 -10 -8
-27 -15 -37 -15 -33 0 -96 -40 -124 -77 -15 -21 -30 -40 -33 -43 -24 -22 -70
-91 -70 -104 0 -18 15 -22 25 -6 3 6 17 10 30 10 13 0 27 5 30 10 3 6 10 10
16 10 36 0 -41 -125 -99 -160 -36 -22 -41 -29 -36 -52 4 -21 -1 -31 -28 -50
-18 -14 -47 -31 -65 -37 -18 -7 -38 -19 -44 -27 -12 -15 -49 -19 -49 -6 0 17
-48 59 -85 74 -22 9 -63 19 -92 22 -28 3 -70 14 -93 26 -43 22 -55 24 -205 39
-49 5 -117 18 -150 29 -33 11 -91 25 -130 32 -38 7 -90 16 -115 22 -25 5 -76
15 -115 23 -38 8 -102 15 -142 15 -67 0 -91 -5 -150 -33 -12 -5 -41 -7 -65 -3
-24 3 -61 9 -83 12 -22 4 -52 15 -67 25 -14 11 -37 19 -51 19 -14 0 -28 7 -31
16 -5 12 -15 14 -51 9 l-45 -7 -100 102 c-55 56 -111 122 -125 148 -14 28 -57
78 -105 121 -45 41 -94 94 -109 117 -31 50 -95 119 -142 155 -52 39 -216 115
-287 133 -80 20 -110 20 -175 0 -65 -19 -96 -27 -227 -58 -90 -22 -122 -25
-225 -21 -66 2 -170 4 -231 4 l-110 1 -62 46 c-37 28 -104 62 -165 86 -94 37
-109 40 -200 39 -68 0 -108 -5 -129 -16 -17 -8 -45 -15 -62 -15 -17 0 -67 -14
-111 -31 -101 -39 -130 -35 -184 21 -29 31 -49 43 -73 45 -22 1 -36 9 -43 23
-5 12 -22 27 -38 33 -15 6 -36 24 -47 39 -10 15 -53 44 -95 65 -42 21 -81 45
-87 52 -6 7 -19 13 -28 13 -10 0 -31 10 -47 23 -45 37 -81 57 -101 57 -10 0
-31 14 -48 31 -16 17 -49 41 -74 54 -25 12 -75 39 -112 59 -72 40 -223 87
-329 103 -49 8 -104 7 -205 -2 -203 -19 -272 -9 -313 46 -12 17 -33 34 -46 39
-12 5 -53 29 -90 54 -36 25 -71 46 -77 46 -5 0 -21 9 -35 20 -14 11 -44 25
-66 31 -61 16 -140 55 -162 79 -15 17 -27 20 -51 16 -21 -5 -35 -2 -44 9 -16
19 -20 19 -50 -8z m6405 -2393 c205 -7 227 -12 250 -62 10 -20 27 -55 37 -77
12 -23 22 -70 25 -112 5 -61 2 -76 -16 -106 -12 -19 -29 -38 -39 -42 -9 -4
-125 -6 -257 -5 -199 1 -244 3 -270 17 -16 9 -47 25 -67 35 -47 25 -157 48
-225 48 -29 0 -53 4 -53 8 0 12 116 145 177 205 27 26 74 61 104 77 47 26 62
29 109 25 30 -3 132 -8 225 -11z"/>
</g>
</svg>
